# Blender 4.3.0
# www.blender.org
o Object_2.012
v -0.068143 -0.016707 0.112909
v -0.067638 -0.017913 0.112867
v -0.062177 -0.017913 0.112872
v -0.068203 -0.017913 0.112869
v -0.068764 -0.017913 0.108573
v 0.005818 0.019879 0.077968
v -0.054392 0.032521 0.079252
v -0.071604 -0.017913 0.056943
v -0.057756 0.030111 0.020916
v -0.037361 0.077136 0.059024
v 0.019131 0.066613 0.064523
v 0.019657 0.057518 0.012814
v 0.033310 0.124770 0.040266
v 0.030211 0.112414 -0.018042
v -0.028398 0.124187 -0.021581
v 0.040729 0.153024 -0.017417
v -0.021314 0.165289 -0.023531
v 0.012058 0.250937 -0.000497
v -0.011088 0.191790 0.028909
v 0.004875 0.236949 -0.041000
v 0.043197 0.227558 -0.048979
v 0.018593 0.286883 -0.073142
v 0.026441 0.316555 -0.049547
v 0.057609 0.309628 -0.049950
v 0.040837 0.356061 -0.073041
v 0.061062 0.351981 -0.073070
v 0.059990 0.348582 -0.094021
v 0.052205 0.427972 -0.100622
v 0.052577 0.425477 -0.112719
v 0.040657 0.427942 -0.112630
v 0.051230 0.524496 -0.103248
v 0.055634 0.523629 -0.103288
v 0.056894 0.524702 -0.098557
v 0.082859 0.576274 -0.110907
v 0.079804 0.576938 -0.110895
v 0.083240 0.576991 -0.107919
v 0.080186 0.577654 -0.107906
v 0.052428 0.525587 -0.098518
v 0.040438 0.430407 -0.100532
v 0.039071 0.352890 -0.093985
v 0.051547 0.279630 -0.072853
v 0.053820 0.244270 0.001323
v 0.042149 0.181332 0.032671
v -0.028704 0.137381 0.036610
v -0.045830 0.070168 0.008648
v 0.003400 0.018098 0.022120
v -0.003966 -0.017913 0.036924
v 0.000856 -0.017913 0.089122
v 0.001428 -0.017913 0.103876
v -0.028472 -0.017913 0.038362
v -0.072249 -0.017913 0.042387
vn -0.5883 0.3122 0.7460
vn -0.6767 0.0092 0.7362
vn 0.0012 -0.0345 0.9994
vn 0.1105 0.5207 0.8466
vn 0.7831 0.1235 0.6095
vn 0.5840 0.4118 0.6996
vn -0.9580 0.2804 0.0591
vn -0.6086 0.5188 0.6004
vn 0.6998 0.0955 0.7079
vn -0.7379 -0.0128 -0.6748
vn -0.9514 0.3044 0.0460
vn -0.6003 0.4353 0.6710
vn 0.7129 -0.4108 -0.5683
vn 0.6175 -0.3365 -0.7110
vn 0.7361 0.0116 0.6767
vn -0.6396 -0.0474 -0.7673
vn -0.7412 0.0981 -0.6641
vn 0.7751 -0.1969 -0.6003
vn -0.5516 0.5550 0.6227
vn -0.8313 -0.0367 -0.5546
vn -0.6195 0.4120 0.6682
vn -0.6141 0.5680 0.5480
vn 0.5145 -0.4388 -0.7367
vn -0.7271 -0.0916 -0.6804
vn 0.8058 0.2717 0.5262
vn 0.7900 0.2523 0.5588
vn -0.6005 0.4265 0.6764
vn 0.6858 -0.1977 -0.7004
vn 0.6512 -0.0450 -0.7576
vn 0.7396 0.1535 0.6553
vn -0.6787 0.0014 -0.7344
vn -0.8013 0.2107 -0.5599
vn 0.5770 -0.1534 -0.8022
vn -0.6282 0.2342 -0.7420
vn 0.6885 -0.1511 0.7093
vn 0.6965 -0.3747 -0.6119
vn 0.2042 0.9457 -0.2528
vn 0.2044 0.9456 -0.2531
vn 0.2041 0.9458 -0.2526
vn -0.5047 0.4118 0.7588
vn -0.6232 0.2565 0.7388
vn 0.7017 -0.2045 0.6824
vn -0.7555 0.1554 0.6364
vn -0.7152 -0.0918 -0.6928
vn 0.5987 -0.3657 -0.7126
vn 0.7762 0.2504 0.5786
vn 0.6815 0.1242 0.7212
vn -0.7113 0.3562 0.6059
vn -0.7776 -0.0608 -0.6259
vn 0.5795 -0.4137 -0.7022
vn 0.9866 -0.1564 -0.0466
vn -0.0648 -0.3754 -0.9246
vn 0.6390 -0.4006 -0.6566
vn -0.0000 -1.0000 -0.0000
vn -0.8761 0.0500 -0.4796
vt 0.223954 0.826685
vt 0.222444 0.827450
vt 0.222145 0.826073
vt 0.219251 0.812781
vt 0.243383 0.616773
vt 0.188493 0.655180
vt 0.152347 0.618517
vt 0.155825 0.628881
vt 0.151273 0.620550
vt 0.236539 0.598315
vt 0.291170 0.757131
vt 0.301005 0.555790
vt 0.296929 0.713814
vt 0.211254 0.727628
vt 0.302559 0.558947
vt 0.346306 0.686122
vt 0.237576 0.599891
vt 0.345294 0.657907
vt 0.297493 0.545581
vt 0.431053 0.624422
vt 0.376435 0.483404
vt 0.379766 0.493088
vt 0.305907 0.543403
vt 0.428604 0.614961
vt 0.381210 0.479525
vt 0.478502 0.575614
vt 0.469581 0.554297
vt 0.427811 0.432866
vt 0.475875 0.567978
vt 0.535686 0.375036
vt 0.565417 0.476716
vt 0.445251 0.422524
vt 0.434745 0.632811
vt 0.562766 0.469010
vt 0.651711 0.357423
vt 0.532958 0.378183
vt 0.630414 0.399632
vt 0.648608 0.452524
vt 0.563754 0.456633
vt 0.631492 0.299865
vt 0.656809 0.372242
vt 0.691850 0.262210
vt 0.716093 0.333372
vt 0.707820 0.309322
vt 0.651613 0.358357
vt 0.735548 0.378377
vt 0.716158 0.332874
vt 0.824950 0.292845
vt 0.803566 0.235565
vt 0.814057 0.266064
vt 0.694887 0.260171
vt 0.813573 0.260010
vt 0.804107 0.232253
vt 0.929437 0.186637
vt 0.925998 0.176358
vt 0.905313 0.116225
vt 0.984438 0.087296
vt 0.901405 0.105102
vt 0.966933 0.036499
vt 0.981966 0.080202
vt 0.542948 0.409871
vt 0.535789 0.407013
vt 0.538499 0.413782
vt 0.540236 0.403103
vt 0.905243 0.116302
vt 0.964447 0.029540
vt 0.966959 0.036483
vt 0.928662 0.184600
vt 0.981712 0.079815
vt 0.984181 0.086908
vt 0.901340 0.105174
vt 0.824889 0.292906
vt 0.813996 0.266119
vt 0.812912 0.262966
vt 0.925167 0.174182
vt 0.735557 0.378741
vt 0.603504 0.323291
vt 0.711516 0.308853
vt 0.535395 0.367621
vt 0.572604 0.493438
vt 0.647793 0.452044
vt 0.490114 0.552944
vt 0.532434 0.359013
vt 0.447188 0.429967
vt 0.441519 0.413488
vt 0.426753 0.626655
vt 0.349188 0.668494
vt 0.383719 0.501550
vt 0.260632 0.606457
vt 0.358281 0.694929
vt 0.308923 0.748682
vt 0.189902 0.641234
vt 0.296021 0.709336
vt 0.225761 0.707868
vt 0.213248 0.647770
vt 0.245576 0.741753
vt 0.755268 0.500000
vt 0.755928 0.500000
vt 0.746145 0.500000
vt 0.247639 0.815676
vt 0.964423 0.029555
vt 0.226910 0.755414
vt 0.174017 0.613098
vt 0.745454 0.500000
vt 0.745372 0.500000
vt 0.754485 0.500000
vt 0.755349 0.500000
vt 0.755429 0.500000
vt 0.755836 0.500000
vt 0.749656 0.500000
s 1
f 1/1/1 4/2/2 2/3/3
f 2/3/3 3/4/4 1/1/1
f 6/5/5 3/4/4 49/6/6
f 1/7/1 5/8/7 4/9/2
f 7/10/8 5/8/7 1/7/1
f 1/1/1 6/5/5 7/11/8
f 7/11/8 6/5/5 11/12/9
f 9/13/10 8/14/11 7/10/8
f 9/13/10 7/10/8 10/15/12
f 7/11/8 11/12/9 10/16/12
f 6/17/5 12/18/13 11/19/9
f 11/19/9 12/18/13 14/20/14
f 10/16/12 11/12/9 13/21/15
f 11/19/9 14/20/14 13/22/15
f 12/23/13 15/24/16 14/25/14
f 14/25/14 15/24/16 17/26/17
f 13/22/15 14/20/14 16/27/18
f 14/25/14 17/26/17 16/28/18
f 17/29/17 18/30/19 20/31/20
f 17/29/17 19/32/21 18/30/19
f 15/33/16 19/32/21 17/29/17
f 16/28/18 17/26/17 20/34/20
f 20/31/20 18/30/19 23/35/22
f 16/28/18 20/34/20 21/36/23
f 21/36/23 20/34/20 22/37/24
f 20/31/20 23/35/22 22/38/24
f 18/39/19 24/40/25 23/41/22
f 23/41/22 24/40/25 26/42/26
f 22/38/24 23/35/22 25/43/27
f 23/41/22 26/42/26 25/44/27
f 24/45/25 27/46/28 26/47/26
f 26/47/26 27/46/28 29/48/29
f 25/44/27 26/42/26 28/49/30
f 26/47/26 29/48/29 28/50/30
f 27/51/28 30/52/31 29/53/29
f 29/53/29 30/52/31 31/54/32
f 29/53/29 31/54/32 32/55/33
f 28/50/30 29/48/29 32/56/33
f 32/55/33 31/54/32 35/57/34
f 28/50/30 32/56/33 33/58/35
f 33/58/35 32/56/33 34/59/36
f 32/55/33 35/57/34 34/60/36
f 35/61/37 36/62/37 34/63/38
f 35/61/37 37/64/39 36/62/37
f 31/65/32 37/66/40 35/67/34
f 38/68/41 36/69/42 37/70/40
f 31/65/32 38/71/41 37/66/40
f 30/72/31 39/73/43 38/71/41
f 39/74/43 33/75/35 38/68/41
f 38/68/41 33/75/35 36/69/42
f 30/72/31 38/71/41 31/65/32
f 40/76/44 25/43/27 39/73/43
f 25/44/27 28/49/30 39/74/43
f 39/74/43 28/49/30 33/75/35
f 40/76/44 39/73/43 30/72/31
f 41/77/45 40/78/44 27/51/28
f 27/51/28 40/78/44 30/52/31
f 41/77/45 22/37/24 40/78/44
f 22/38/24 25/43/27 40/76/44
f 42/79/46 21/80/23 41/81/45
f 21/36/23 22/37/24 41/77/45
f 42/79/46 41/81/45 24/45/25
f 24/45/25 41/81/45 27/46/28
f 19/82/21 42/83/46 18/39/19
f 19/82/21 43/84/47 42/83/46
f 43/85/47 21/80/23 42/79/46
f 18/39/19 42/83/46 24/40/25
f 44/86/48 13/21/15 43/84/47
f 13/22/15 16/27/18 43/85/47
f 43/85/47 16/27/18 21/80/23
f 44/86/48 43/84/47 19/82/21
f 45/87/49 10/15/12 44/88/48
f 10/16/12 13/21/15 44/86/48
f 45/87/49 44/88/48 15/33/16
f 15/33/16 44/88/48 19/32/21
f 46/89/50 45/90/49 12/23/13
f 12/23/13 45/90/49 15/24/16
f 46/89/50 9/91/10 45/90/49
f 9/13/10 10/15/12 45/87/49
f 6/17/5 48/92/51 46/93/50
f 6/17/5 46/93/50 12/18/13
f 50/94/52 46/89/50 47/95/53
f 46/93/50 48/92/51 47/96/53
f 2/97/54 51/98/54 47/99/54
f 9/91/10 50/94/52 51/100/55
f 33/58/35 34/59/36 36/101/42
f 6/5/5 1/1/1 3/4/4
f 7/10/8 8/14/11 5/8/7
f 9/13/10 51/102/55 8/14/11
f 6/17/5 49/103/6 48/92/51
f 50/94/52 9/91/10 46/89/50
f 47/99/54 48/104/54 49/105/54
f 49/105/54 3/106/54 2/97/54
f 2/97/54 4/107/54 5/108/54
f 5/108/54 8/109/54 51/98/54
f 51/98/54 50/110/54 47/99/54
f 47/99/54 49/105/54 2/97/54
f 2/97/54 5/108/54 51/98/54
