# Blender 4.3.0
# www.blender.org
o Object_22
v -0.308951 0.249254 0.017113
v -0.398624 0.271629 0.150445
v -0.435898 0.285806 0.283563
v -0.387656 0.252894 0.386488
v -0.260658 0.285806 0.422066
v -0.102099 0.271629 0.367527
v 0.008703 0.182603 0.251682
v 0.160279 0.292411 0.351062
v 0.370787 0.312981 0.374888
v 0.509637 0.280841 0.307523
v 0.548355 0.312981 0.117425
v 0.474479 0.292411 -0.007722
v 0.370837 0.182603 -0.113591
v 0.448427 0.290424 -0.340238
v 0.435096 0.252519 -0.460219
v 0.323481 0.252519 -0.555505
v 0.183539 0.290424 -0.566754
v 0.057044 0.266728 -0.500619
v -0.011203 0.249254 -0.422218
v -0.164359 0.305740 -0.520098
v -0.305528 0.312981 -0.543705
v -0.424807 0.252899 -0.518991
v -0.499332 0.252899 -0.436128
v -0.521517 0.312981 -0.290301
v -0.470022 0.305740 -0.133359
v 0.411122 0.266728 -0.213502
v 0.000019 0.004719 -0.042292
v -0.111719 0.298587 0.210780
v -0.175082 0.382618 -0.593156
v 0.142634 0.317232 0.197697
v 0.348679 0.382266 0.222093
v 0.468596 0.382619 0.156811
v 0.514584 0.382619 0.037586
v 0.450449 0.382488 -0.108147
v 0.251859 0.319679 -0.224219
v 0.135343 0.240907 -0.211788
v 0.135343 0.240907 -0.211788
v 0.103195 0.340003 -0.399985
v -0.045068 0.381632 -0.541815
v -0.268568 0.358337 0.243706
v -0.315489 0.382618 -0.515215
v -0.358875 0.370797 -0.339906
v -0.320443 0.313344 -0.192983
v -0.366848 0.330425 -0.006995
v -0.406507 0.369728 0.122476
v -0.365677 0.376110 0.220109
v -0.244099 0.237757 -0.112219
v 0.012326 0.213139 0.114754
v 0.012326 0.213139 0.114754
v 0.000789 0.097037 -0.071280
v -0.142108 0.399180 0.102454
v -0.038613 0.580022 0.367404
v 0.066953 0.580022 0.437780
v 0.141471 0.580022 0.402592
v 0.180798 0.579976 0.278397
v 0.176659 0.431673 0.110735
v 0.336043 0.520739 0.094173
v 0.495426 0.496389 -0.011391
v 0.493356 0.496389 -0.139725
v 0.333973 0.518726 -0.230802
v 0.147680 0.373846 -0.228733
v 0.112492 0.497747 -0.423304
v 0.050394 0.465743 -0.535079
v -0.044822 0.465743 -0.530940
v -0.137968 0.508966 -0.388116
v -0.148319 0.400616 -0.237011
v -0.417408 0.508466 -0.216313
v -0.535392 0.483541 -0.154215
v -0.543673 0.483541 -0.061068
v -0.374084 0.527376 0.072440
v 0.008292 0.143078 -0.069429
v -0.246476 0.643146 0.092532
v -0.290004 0.664280 0.237909
v -0.286330 0.677668 0.368418
v -0.213984 0.646582 0.447735
v -0.089470 0.677668 0.444246
v 0.038260 0.664280 0.350636
v 0.105743 0.580201 0.215109
v 0.270298 0.683906 0.262279
v 0.466837 0.703335 0.224797
v 0.573200 0.672978 0.125137
v 0.554866 0.703335 -0.057164
v 0.453174 0.683906 -0.149346
v 0.330037 0.580201 -0.215799
v 0.336521 0.682029 -0.441957
v 0.290886 0.646229 -0.546438
v 0.163523 0.646229 -0.601110
v 0.034151 0.682029 -0.572053
v -0.061411 0.659649 -0.476963
v -0.101002 0.643146 -0.387132
v -0.266560 0.696495 -0.432507
v -0.400501 0.703334 -0.414253
v -0.501161 0.646590 -0.358546
v -0.545162 0.646590 -0.262931
v -0.524320 0.703335 -0.125187
v -0.433906 0.696495 0.001938
v 0.338380 0.659649 -0.317197
v 0.015554 0.412197 -0.047608
v -0.062723 0.661221 0.128909
v 0.116062 0.827225 0.319208
v 0.230056 0.827225 0.343053
v 0.281499 0.827225 0.287590
v 0.272522 0.827185 0.168343
v 0.211649 0.691048 0.026934
v 0.341757 0.772807 -0.041686
v 0.441422 0.750453 -0.186125
v 0.395763 0.750453 -0.294740
v 0.228842 0.770959 -0.317810
v 0.070857 0.637967 -0.252327
v -0.025666 0.751699 -0.406039
v -0.116797 0.722322 -0.480014
v -0.196491 0.722322 -0.443922
v -0.226987 0.761999 -0.290397
v -0.184119 0.662539 -0.158140
v -0.406263 0.761542 -0.048472
v -0.485530 0.738662 0.044782
v -0.460725 0.738662 0.126960
v -0.270595 0.778898 0.182686
v 0.006604 0.426133 -0.068951
v -0.094844 0.788866 0.152359
v -0.145704 0.856319 -0.492961
v 0.109326 0.803832 0.141859
v 0.274718 0.856033 0.161442
v 0.370977 0.856319 0.109040
v 0.407892 0.856319 0.013337
v 0.356409 0.856212 -0.103642
v 0.197002 0.805794 -0.196815
v 0.103473 0.742565 -0.186836
v 0.103473 0.742565 -0.186836
v 0.077668 0.822110 -0.337904
v -0.041343 0.855528 -0.451749
v -0.220746 0.836827 0.178790
v -0.258410 0.856319 -0.430398
v -0.293237 0.846827 -0.289675
v -0.262386 0.800711 -0.171739
v -0.299635 0.814423 -0.022447
v -0.331470 0.845972 0.081478
v -0.298697 0.851095 0.159849
v -0.201106 0.740036 -0.106912
v 0.004727 0.720276 0.075280
v 0.004727 0.720276 0.075280
v -0.004535 0.627081 -0.074050
vn -0.0079 0.9999 0.0068
vn -0.0235 0.9994 0.0265
vn -0.3370 0.8394 0.4264
vn -0.0266 0.9993 -0.0275
vn -0.0124 0.9998 -0.0174
vn 0.3204 0.9211 0.2210
vn 0.3895 0.9207 -0.0236
vn -0.0198 0.9149 -0.4033
vn 0.0952 0.9955 0.0018
vn -0.3749 0.9268 0.0212
vn 0.0526 0.9285 0.3677
vn 0.2763 0.9388 -0.2057
vn 0.2755 0.9392 -0.2051
vn 0.2136 0.9649 -0.1524
vn 0.3267 0.9346 0.1409
vn -0.1466 0.9287 -0.3407
vn -0.1159 0.9920 0.0510
vn -0.3003 0.9238 0.2376
vn 0.3214 0.8395 -0.4380
vn -0.4228 0.8055 -0.4153
vn -0.0019 1.0000 -0.0095
vn -0.3958 0.8334 0.3857
vn 0.3837 0.8498 0.3614
vn -0.0056 0.9999 0.0088
vn -0.0146 0.9994 0.0322
vn -0.1954 0.8394 0.5072
vn -0.0336 0.9993 -0.0184
vn -0.0170 0.9998 -0.0129
vn 0.3716 0.9211 0.1160
vn 0.3650 0.9207 -0.1381
vn -0.1385 0.9149 -0.3792
vn 0.0915 0.9955 -0.0265
vn -0.3517 0.9268 0.1315
vn 0.1593 0.9284 0.3356
vn 0.1350 0.8396 -0.5262
vn -0.5471 0.8055 -0.2278
vn -0.0053 1.0000 -0.0081
vn -0.2236 0.8334 0.5054
vn 0.4908 0.8498 0.1924
vn 0.2137 0.9649 -0.1524
vn 0.3267 0.9346 0.1408
vn 0.1761 0.9715 -0.1587
vn 0.1889 0.9677 -0.1671
vn -0.0833 0.9938 -0.0736
vn -0.1008 0.9909 -0.0887
vn -0.4680 0.7858 -0.4044
vn -0.2818 0.9244 -0.2571
vn -0.3036 0.9112 -0.2784
vn 0.1512 0.9822 0.1118
vn 0.1541 0.9815 0.1139
vn -0.1803 0.9429 0.2800
vn -0.1830 0.9406 0.2860
vn -0.0183 0.9995 0.0245
vn -0.0060 0.9999 0.0101
vn 0.2715 0.9085 -0.3176
vn 0.2713 0.9086 -0.3174
vn 0.0731 0.9759 0.2056
vn 0.0679 0.9788 0.1932
vn 0.0088 0.9986 0.0530
vn 0.0089 0.9986 0.0530
vn 0.3447 0.8948 -0.2836
vn 0.3351 0.9023 -0.2713
vn 0.1290 0.9140 0.3847
vn 0.1283 0.9153 0.3819
vn -0.1943 0.9796 -0.0520
vn -0.0025 1.0000 -0.0003
vn -0.0024 1.0000 -0.0002
vn -0.2005 0.9782 -0.0537
vn -0.1467 0.9287 -0.3407
vn -0.4190 0.9015 -0.1080
vn -0.4236 0.8993 -0.1090
vn -0.3003 0.9238 0.2375
vn -0.0957 0.9074 -0.4093
vn -0.0874 0.9233 -0.3739
vn -0.0000 1.0000 -0.0003
vn -0.0002 1.0000 -0.0004
vn -0.2981 0.9539 -0.0333
vn -0.3162 0.9481 -0.0344
vn 0.1446 0.9895 -0.0057
vn 0.1399 0.9890 -0.0472
vn -0.2260 0.9737 -0.0275
vn -0.2260 0.9737 -0.0274
vn 0.2425 0.9688 -0.0518
vn 0.0528 0.9758 0.2124
vn 0.0611 0.9533 0.2959
vn -0.0013 0.9589 -0.2837
vn -0.0011 0.9590 -0.2835
vn 0.1211 0.9715 -0.2038
vn 0.1308 0.9677 -0.2157
vn -0.1014 0.9938 -0.0456
vn -0.1228 0.9909 -0.0548
vn -0.5669 0.7858 -0.2473
vn -0.3454 0.9244 -0.1619
vn -0.3725 0.9112 -0.1758
vn 0.1775 0.9822 0.0620
vn 0.1809 0.9815 0.0631
vn -0.0891 0.9429 0.3209
vn -0.0900 0.9406 0.3275
vn -0.0101 0.9995 0.0288
vn -0.0028 0.9999 0.0114
vn 0.1651 0.9085 -0.3838
vn 0.1649 0.9086 -0.3837
vn -0.2413 0.9074 -0.3442
vn -0.2205 0.9233 -0.3144
vn -0.0000 1.0000 -0.0002
vn -0.2890 0.9540 0.0801
vn -0.3062 0.9481 0.0859
vn 0.1321 0.9895 -0.0591
vn 0.1321 0.9895 -0.0592
vn 0.1122 0.9890 -0.0960
vn -0.2200 0.9737 0.0587
vn -0.2199 0.9737 0.0587
vn 0.2058 0.9688 -0.1384
vn 0.1281 0.9758 0.1774
vn 0.1669 0.9533 0.2518
vn -0.1069 0.9589 -0.2628
vn -0.1067 0.9590 -0.2627
vn 0.3346 0.9025 -0.2712
vt 0.989250 0.832814
vt 0.913864 0.933328
vt 0.971053 0.904734
vt 0.806418 0.382235
vt 0.953723 0.478417
vt 0.913864 0.401298
vt 0.762227 0.865741
vt 0.889602 0.683777
vt 0.724419 0.692849
vt 0.679043 0.485348
vt 0.510942 0.704573
vt 0.443192 0.695112
vt 0.444925 0.791293
vt 0.468320 0.741036
vt 0.296753 0.811223
vt 0.294154 0.631857
vt 0.213995 0.700503
vt 0.124320 0.699445
vt 0.227319 0.160961
vt 0.228814 0.103393
vt 0.196277 0.133799
vt 0.167508 0.108626
vt 0.166012 0.162082
vt 0.838479 0.914266
vt 0.956323 0.744432
vt 0.592393 0.989651
vt 0.446821 0.871807
vt 0.462418 0.938528
vt 0.510076 0.979253
vt 0.737098 0.425560
vt 0.943325 0.597127
vt 0.458086 0.792089
vt 0.679910 0.958457
vt 0.465884 0.667313
vt 0.622287 0.464119
vt 0.426892 0.597127
vt 0.550490 0.444948
vt 0.431224 0.518275
vt 0.483214 0.454155
vt 0.249096 0.935998
vt 0.060199 0.885742
vt 0.086194 0.954195
vt 0.165912 0.981056
vt 0.375102 0.646003
vt 0.380804 0.821621
vt 0.062799 0.778296
vt 0.292421 0.869278
vt 0.217036 0.463756
vt 0.149449 0.440361
vt 0.087061 0.464623
vt 0.053267 0.540875
vt 0.280290 0.552140
vt 0.078396 0.658719
vt 0.259093 0.102645
vt 0.275167 0.142270
vt 0.287877 0.123205
vt 0.281522 0.109748
vt 0.167134 0.074983
vt 0.225823 0.074609
vt 0.206759 0.045825
vt 0.183582 0.046199
vt 0.169751 0.210678
vt 0.180965 0.231986
vt 0.197787 0.233482
vt 0.221898 0.202855
vt 0.132369 0.114981
vt 0.138724 0.160213
vt 0.112183 0.126196
vt 0.112930 0.143392
s 1
f 5/1/1 3/2/2 4/3/3
f 11/4/4 9/5/5 10/6/6
f 1/7/7 7/8/8 27/9/9
f 13/10/10 19/11/11 27/9/9
f 7/8/8 13/10/10 27/9/9
f 19/11/11 1/7/7 27/9/9
f 40/12/12 45/13/13 46/14/14
f 47/15/15 49/16/16 50/17/17
f 47/15/15 50/17/17 36/18/18
f 36/18/18 50/17/17 49/16/16
f 51/19/19 56/20/20 71/21/21
f 61/22/22 66/23/23 71/21/21
f 56/20/20 61/22/22 71/21/21
f 66/23/23 51/19/19 71/21/21
f 76/1/24 74/2/25 75/3/26
f 82/4/27 80/5/28 81/6/29
f 72/7/30 78/8/31 98/9/32
f 84/10/33 90/11/34 98/9/32
f 78/8/31 84/10/33 98/9/32
f 90/11/34 72/7/30 98/9/32
f 99/19/35 104/20/36 119/21/37
f 109/22/38 114/23/39 119/21/37
f 104/20/36 109/22/38 119/21/37
f 114/23/39 99/19/35 119/21/37
f 132/12/12 137/13/13 138/14/40
f 139/15/41 141/16/16 142/17/17
f 139/15/41 142/17/17 128/18/18
f 128/18/18 142/17/17 141/16/16
f 7/8/8 1/7/7 2/24/42
f 7/8/8 2/24/42 6/25/43
f 24/26/44 21/27/45 22/28/46
f 24/26/44 22/28/46 23/29/46
f 12/30/47 8/31/48 9/5/5
f 12/30/47 9/5/5 11/4/4
f 6/25/43 2/24/42 3/2/2
f 6/25/43 3/2/2 5/1/1
f 1/7/7 19/11/11 20/32/49
f 1/7/7 20/32/49 25/33/50
f 25/33/50 20/32/49 21/27/45
f 25/33/50 21/27/45 24/26/44
f 18/34/51 19/11/11 13/10/10
f 18/34/51 13/10/10 26/35/52
f 17/36/53 18/34/51 26/35/52
f 17/36/53 26/35/52 14/37/54
f 16/38/55 17/36/53 14/37/54
f 16/38/55 14/37/54 15/39/56
f 12/30/47 13/10/10 7/8/8
f 12/30/47 7/8/8 8/31/48
f 42/40/57 39/41/58 29/42/59
f 42/40/57 29/42/59 41/43/60
f 40/12/12 28/44/61 44/45/62
f 40/12/12 44/45/62 45/13/13
f 47/15/15 36/18/18 38/46/63
f 47/15/15 38/46/63 43/47/64
f 43/47/64 38/46/63 39/41/58
f 43/47/64 39/41/58 42/40/57
f 31/48/65 32/49/66 33/50/67
f 31/48/65 33/50/67 34/51/68
f 28/44/61 49/16/16 47/15/15
f 28/44/61 47/15/15 44/45/62
f 48/16/69 30/52/70 35/53/71
f 48/16/69 35/53/71 37/18/72
f 30/52/70 31/48/65 34/51/68
f 30/52/70 34/51/68 35/53/71
f 55/54/73 52/55/74 53/56/75
f 55/54/73 53/56/75 54/57/76
f 60/58/77 57/59/78 58/60/79
f 60/58/77 58/60/79 59/61/79
f 56/20/20 51/19/19 52/55/74
f 56/20/20 52/55/74 55/54/73
f 67/62/80 68/63/81 69/64/82
f 67/62/80 69/64/82 70/65/83
f 61/22/22 56/20/20 57/59/78
f 61/22/22 57/59/78 60/58/77
f 62/66/84 65/67/85 66/23/23
f 62/66/84 66/23/23 61/22/22
f 66/23/23 67/62/80 70/65/83
f 66/23/23 70/65/83 51/19/19
f 63/68/86 64/69/87 65/67/85
f 63/68/86 65/67/85 62/66/84
f 78/8/31 72/7/30 73/24/88
f 78/8/31 73/24/88 77/25/89
f 95/26/90 92/27/91 93/28/92
f 95/26/90 93/28/92 94/29/92
f 83/30/93 79/31/94 80/5/28
f 83/30/93 80/5/28 82/4/27
f 77/25/89 73/24/88 74/2/25
f 77/25/89 74/2/25 76/1/24
f 72/7/30 90/11/34 91/32/95
f 72/7/30 91/32/95 96/33/96
f 96/33/96 91/32/95 92/27/91
f 96/33/96 92/27/91 95/26/90
f 89/34/97 90/11/34 84/10/33
f 89/34/97 84/10/33 97/35/98
f 88/36/99 89/34/97 97/35/98
f 88/36/99 97/35/98 85/37/100
f 87/38/101 88/36/99 85/37/100
f 87/38/101 85/37/100 86/39/102
f 83/30/93 84/10/33 78/8/31
f 83/30/93 78/8/31 79/31/94
f 103/54/103 100/55/104 101/56/105
f 103/54/103 101/56/105 102/57/105
f 108/58/106 105/59/107 106/60/108
f 108/58/106 106/60/108 107/61/109
f 104/20/36 99/19/35 100/55/104
f 104/20/36 100/55/104 103/54/103
f 115/62/110 116/63/111 117/64/112
f 115/62/110 117/64/112 118/65/113
f 109/22/38 104/20/36 105/59/107
f 109/22/38 105/59/107 108/58/106
f 110/66/114 113/67/115 114/23/39
f 110/66/114 114/23/39 109/22/38
f 114/23/39 115/62/110 118/65/113
f 114/23/39 118/65/113 99/19/35
f 111/68/116 112/69/117 113/67/115
f 111/68/116 113/67/115 110/66/114
f 134/40/57 131/41/58 121/42/59
f 134/40/57 121/42/59 133/43/60
f 132/12/12 120/44/61 136/45/118
f 132/12/12 136/45/118 137/13/13
f 139/15/41 128/18/18 130/46/63
f 139/15/41 130/46/63 135/47/64
f 135/47/64 130/46/63 131/41/58
f 135/47/64 131/41/58 134/40/57
f 123/48/65 124/49/66 125/50/67
f 123/48/65 125/50/67 126/51/68
f 120/44/61 141/16/16 139/15/41
f 120/44/61 139/15/41 136/45/118
f 140/16/69 122/52/70 127/53/71
f 140/16/69 127/53/71 129/18/72
f 122/52/70 123/48/65 126/51/68
f 122/52/70 126/51/68 127/53/71
