# Blender 4.3.0
# www.blender.org
o Object_10
v -0.129073 0.176278 0.111299
v -0.187421 0.258476 0.337907
v -0.112522 0.259060 0.374847
v -0.047428 0.242424 0.263983
v 0.036714 0.120231 0.127004
v 0.164105 0.237166 0.229966
v 0.336871 0.224514 0.257889
v 0.282774 0.237745 0.140965
v 0.240891 0.227192 0.081631
v 0.366539 0.255405 0.044984
v 0.478227 0.237575 -0.030056
v 0.455541 0.237575 -0.101605
v 0.319422 0.252129 -0.127782
v 0.160617 0.215710 -0.124291
v 0.199010 0.245872 -0.215038
v 0.195519 0.266005 -0.319746
v 0.089065 0.262671 -0.335450
v -0.031347 0.167229 -0.160938
v -0.141042 0.282461 -0.192317
v -0.212594 0.286194 -0.208024
v -0.245750 0.284562 -0.153924
v -0.223986 0.279060 -0.101068
v -0.179682 0.197060 -0.063212
v -0.273917 0.223404 -0.030056
v -0.319292 0.206491 0.025786
v -0.298348 0.235447 0.083377
v -0.167766 0.252785 0.237421
v 0.006618 -0.000784 0.000948
vn -0.1835 0.9489 0.2567
vn -0.1996 0.9433 0.2651
vn -0.0588 0.9799 0.1904
vn -0.1993 0.9737 -0.1101
vn -0.2688 0.9492 -0.1635
vn 0.0591 0.9946 0.0852
vn 0.0566 0.9962 -0.0664
vn 0.1349 0.9898 -0.0461
vn -0.5531 0.8075 -0.2049
vn 0.0064 0.9997 0.0234
vn -0.3943 0.8643 0.3123
vn 0.1214 0.7801 0.6137
vn -0.4378 0.8932 -0.1026
vn 0.4317 0.8322 -0.3478
vn 0.5468 0.7846 0.2924
vn -0.1048 0.7999 -0.5909
vn -0.0894 0.9960 0.0034
vn -0.0694 0.9976 -0.0015
vn 0.1202 0.9916 -0.0475
vn 0.1202 0.9916 -0.0476
vn 0.1949 0.9199 -0.3404
vn 0.1722 0.9415 -0.2897
vn 0.0743 0.9944 -0.0753
vn 0.0742 0.9944 -0.0753
vn 0.3615 0.8449 0.3943
vn 0.3900 0.8178 0.4232
vn 0.0461 0.9964 0.0714
vt 0.243949 0.396930
vt 0.281092 0.363017
vt 0.248794 0.364094
vt 0.390905 0.337179
vt 0.418358 0.373783
vt 0.426971 0.320492
vt 0.373141 0.516432
vt 0.338151 0.508896
vt 0.355377 0.522892
vt 0.349459 0.426432
vt 0.309083 0.374860
vt 0.297779 0.434073
vt 0.372603 0.350098
vt 0.381754 0.464217
vt 0.327924 0.479828
vt 0.386598 0.413079
vt 0.308007 0.325875
vt 0.361298 0.311341
vt 0.338152 0.276890
vt 0.316081 0.283888
vt 0.420780 0.432996
vt 0.412706 0.470139
vt 0.443658 0.476060
vt 0.454962 0.452913
vt 0.297396 0.501644
vt 0.269249 0.476060
vt 0.264405 0.498130
vt 0.281092 0.508358
s 1
f 17/1/1 15/2/2 16/3/3
f 8/4/4 6/5/5 7/6/6
f 26/7/7 24/8/8 25/9/9
f 28/10/10 14/11/11 18/12/12
f 9/13/13 14/11/11 28/10/10
f 1/14/14 28/10/10 23/15/15
f 5/16/16 9/13/13 28/10/10
f 23/15/15 28/10/10 18/12/12
f 1/14/14 5/16/16 28/10/10
f 18/12/12 14/11/11 15/2/2
f 18/12/12 15/2/2 17/1/1
f 13/17/17 10/18/18 11/19/19
f 13/17/17 11/19/19 12/20/20
f 14/11/11 9/13/13 10/18/18
f 14/11/11 10/18/18 13/17/17
f 5/16/16 6/5/5 8/4/4
f 5/16/16 8/4/4 9/13/13
f 4/21/21 27/22/22 2/23/23
f 4/21/21 2/23/23 3/24/24
f 4/21/21 5/16/16 1/14/14
f 4/21/21 1/14/14 27/22/22
f 22/25/25 19/26/26 20/27/27
f 22/25/25 20/27/27 21/28/27
f 1/14/14 23/15/15 24/8/8
f 1/14/14 24/8/8 26/7/7
f 23/15/15 18/12/12 19/26/26
f 23/15/15 19/26/26 22/25/25
