# Blender 5.1.2
# www.blender.org
mtllib ala_izq_BUTTERFLY.mtl
o butterfly.003
v -0.014026 0.004900 -0.004020
v -0.040317 0.004910 0.002340
v -0.055446 0.004885 -0.013321
v -0.051726 0.004971 0.040183
v -0.059786 0.005011 0.064776
v -0.007513 0.004926 0.012254
v -0.000260 0.004861 -0.028072
v -0.000254 0.004926 0.012215
v -0.000254 0.004930 0.014952
v -0.000253 0.004944 0.023371
v -0.002863 0.004928 0.013668
v -0.028445 0.005018 0.069044
v -0.039619 0.005011 0.064851
v -0.063824 0.005082 0.108598
v -0.054607 0.005046 0.086690
v -0.076852 0.005119 0.131653
v -0.059166 0.005051 0.089517
v -0.058239 0.005029 0.076026
v -0.068837 0.005065 0.098631
v -0.067085 0.005044 0.085281
v -0.073126 0.005060 0.095569
v -0.079175 0.005093 0.115579
v -0.081512 0.005136 0.142112
v -0.071270 0.005040 0.083001
v -0.081790 0.005093 0.115776
v -0.089868 0.005104 0.122748
v -0.088959 0.005073 0.103477
v -0.096723 0.005092 0.115163
v -0.087645 0.005037 0.081154
v -0.101787 0.005098 0.118801
v -0.108503 0.005139 0.143982
v -0.096863 0.005128 0.137453
v -0.110357 0.005154 0.153741
v -0.103616 0.005088 0.112311
v -0.083834 0.005016 0.068107
v -0.106638 0.005077 0.105962
v -0.114080 0.005137 0.143039
v -0.129438 0.005108 0.124887
v -0.116179 0.005087 0.112076
v -0.121627 0.005067 0.099868
v -0.074068 0.004980 0.045769
v -0.107556 0.005056 0.092726
v -0.120136 0.005051 0.089982
v -0.131293 0.005082 0.108600
v -0.140155 0.005109 0.125813
v -0.160621 0.005066 0.099292
v -0.156425 0.005090 0.113712
v -0.141543 0.005102 0.121167
v -0.126736 0.005052 0.090503
v -0.122693 0.005050 0.088823
v -0.150148 0.005073 0.103295
v -0.136646 0.005045 0.086264
v -0.139716 0.005033 0.078525
v -0.148058 0.005039 0.082067
v -0.085689 0.004971 0.040183
v -0.124789 0.005028 0.075792
v -0.120697 0.005001 0.058961
v -0.081513 0.004945 0.024370
v -0.109168 0.004961 0.033895
v -0.110826 0.004953 0.029017
v -0.061970 0.004921 0.009010
v -0.083833 0.004952 0.028563
v -0.115485 0.004981 0.046243
v -0.130168 0.005001 0.058525
v -0.137871 0.004986 0.049576
v -0.136665 0.004977 0.044221
v -0.164349 0.005000 0.057871
v -0.145455 0.005004 0.060911
v -0.156902 0.005016 0.068269
v -0.168065 0.004978 0.044841
v -0.150836 0.004982 0.046708
v -0.147357 0.004966 0.037321
v -0.158758 0.004955 0.030410
v -0.119590 0.004931 0.015287
v -0.127521 0.004928 0.013890
v -0.120131 0.004891 -0.009611
v -0.127601 0.004915 0.005251
v -0.172258 0.004968 0.038325
v -0.144339 0.004871 -0.021713
v -0.179704 0.004876 -0.018455
v -0.119659 0.004864 -0.025898
v -0.104769 0.004890 -0.010073
v -0.102912 0.004900 -0.003556
v -0.102454 0.004889 -0.010533
v -0.098024 0.004897 -0.005418
v -0.000261 0.004851 -0.034122
v -0.000261 0.004852 -0.033579
v -0.000261 0.004850 -0.034748
v -0.000261 0.004848 -0.035723
v -0.041010 0.004837 -0.042659
v -0.000261 0.004846 -0.037129
v -0.000261 0.004845 -0.037728
v -0.022407 0.004827 -0.048700
v -0.088796 0.004781 -0.077575
v -0.076640 0.004753 -0.094988
v -0.073651 0.004751 -0.095726
v -0.122921 0.004705 -0.124554
v -0.014325 0.004830 -0.047184
v -0.062971 0.004746 -0.099085
v -0.014026 0.004819 -0.053815
v -0.053728 0.004739 -0.103381
v -0.051526 0.004737 -0.104933
v -0.000262 0.004843 -0.039264
v -0.000262 0.004838 -0.041880
v -0.041475 0.004724 -0.112457
v -0.128514 0.004614 -0.180870
v -0.101522 0.004675 -0.143170
v -0.060064 0.004725 -0.112352
v -0.175050 0.004573 -0.206001
v -0.172261 0.004596 -0.192035
v -0.231826 0.004555 -0.217171
v -0.189476 0.004612 -0.182269
v -0.208321 0.004625 -0.174119
v -0.276963 0.004587 -0.197622
v -0.236485 0.004632 -0.169700
v -0.269987 0.004639 -0.165508
v -0.243924 0.004641 -0.164116
v -0.236951 0.004674 -0.143640
v -0.234604 0.004681 -0.138986
v -0.242997 0.004703 -0.125488
v -0.229859 0.004682 -0.138356
v -0.227640 0.004691 -0.133401
v -0.223921 0.004706 -0.124096
v -0.218331 0.004713 -0.119438
v -0.227638 0.004740 -0.102686
v -0.212282 0.004728 -0.110128
v -0.213675 0.004778 -0.078957
v -0.208099 0.004745 -0.099892
v -0.204371 0.004751 -0.095696
v -0.195516 0.004788 -0.072903
v -0.193661 0.004799 -0.066387
v -0.185292 0.004833 -0.045441
v -0.197695 0.004843 -0.038924
v -0.187613 0.004811 -0.058946
v -0.178302 0.004827 -0.048705
v -0.171338 0.004806 -0.061728
v -0.176446 0.004839 -0.041717
v -0.169933 0.004833 -0.045441
v -0.164309 0.004856 -0.031247
v -0.161557 0.004800 -0.065689
v -0.173192 0.004789 -0.072440
v -0.096397 0.004792 -0.070572
v -0.163882 0.004823 -0.051501
v -0.120702 0.004806 -0.061996
v -0.153166 0.004826 -0.049630
v -0.089884 0.004806 -0.062195
v -0.127500 0.004839 -0.041268
v -0.147811 0.004848 -0.036010
v -0.121532 0.004773 -0.082212
v -0.133172 0.004721 -0.114316
v -0.153640 0.004685 -0.136658
v -0.131759 0.004679 -0.140388
v -0.115950 0.004761 -0.089656
v -0.140154 0.004727 -0.111054
v -0.155496 0.004732 -0.107807
v -0.183195 0.004722 -0.114004
v -0.165746 0.004706 -0.123865
v -0.150387 0.004738 -0.104078
v -0.154564 0.004692 -0.132237
v -0.191475 0.004685 -0.136863
v -0.159697 0.004699 -0.128286
v -0.199252 0.004698 -0.128749
v -0.191804 0.004705 -0.124554
v -0.216476 0.004703 -0.125956
v -0.211351 0.004713 -0.119438
v -0.199252 0.004726 -0.111530
v -0.202727 0.004736 -0.105014
v -0.199710 0.004748 -0.097558
v -0.184367 0.004733 -0.106870
v -0.183893 0.004745 -0.099893
v -0.175507 0.004763 -0.088715
v -0.180166 0.004778 -0.079418
v -0.188078 0.004765 -0.087326
v -0.199245 0.004767 -0.086165
v -0.191429 0.004785 -0.074868
v -0.153209 0.004771 -0.083670
v -0.185757 0.004794 -0.069645
v -0.209951 0.004688 -0.134800
v -0.216941 0.004681 -0.138985
v -0.222774 0.004698 -0.128781
v -0.221593 0.004681 -0.139456
v -0.199252 0.004673 -0.144103
v -0.173651 0.004672 -0.145044
v -0.218797 0.004668 -0.147368
v -0.221593 0.004677 -0.141781
v -0.222989 0.004675 -0.142713
v -0.205300 0.004649 -0.159000
v -0.231361 0.004651 -0.158068
v -0.220187 0.004636 -0.166917
v -0.206234 0.004637 -0.166681
v -0.182038 0.004639 -0.165053
v -0.160384 0.004666 -0.148525
v -0.162944 0.004653 -0.156666
v -0.127124 0.004666 -0.148296
v -0.157367 0.004648 -0.159466
v -0.163434 0.004638 -0.165891
v -0.135953 0.004656 -0.154810
v -0.156428 0.004636 -0.166917
v -0.178776 0.004612 -0.182269
v -0.170397 0.004607 -0.184821
v -0.118279 0.004666 -0.148296
v -0.138748 0.004686 -0.136194
v -0.228582 0.004686 -0.136194
v -0.112214 0.004686 -0.136194
v -0.108038 0.004696 -0.130143
v -0.123388 0.004694 -0.131073
v -0.114544 0.004702 -0.126418
v -0.155038 0.004872 -0.020784
v -0.206928 0.004606 -0.185987
v -0.078312 0.004851 -0.033867
v -0.102454 0.004915 0.005754
v -0.117339 0.004919 0.008083
v -0.082894 0.004918 0.007142
v -0.097995 0.004939 0.020171
v -0.132927 0.004951 0.027993
v -0.178774 0.005013 0.066253
v -0.170395 0.005069 0.101157
v -0.153640 0.005042 0.083929
v -0.142006 0.005135 0.141650
v -0.085687 0.005149 0.150484
v -0.069880 0.005108 0.124887
v -0.061492 0.005083 0.109527
v -0.041938 0.005059 0.094633
v -0.000253 0.004944 0.023696
v -0.033690 0.004959 0.032585
vn -0.0000 1.0000 -0.0016
vt 0.000000 0.000000
s 1
usemtl ColorChart_RGB
f 2/1/1 4/1/1 1/1/1
f 2/1/1 3/1/1 211/1/1
f 3/1/1 7/1/1 87/1/1
f 4/1/1 5/1/1 1/1/1
f 1/1/1 225/1/1 6/1/1
f 6/1/1 11/1/1 8/1/1
f 7/1/1 1/1/1 8/1/1
f 11/1/1 10/1/1 9/1/1
f 12/1/1 13/1/1 14/1/1
f 6/1/1 13/1/1 11/1/1
f 14/1/1 15/1/1 16/1/1
f 13/1/1 6/1/1 15/1/1
f 15/1/1 17/1/1 16/1/1
f 15/1/1 18/1/1 17/1/1
f 17/1/1 19/1/1 16/1/1
f 20/1/1 17/1/1 18/1/1
f 19/1/1 21/1/1 16/1/1
f 20/1/1 5/1/1 21/1/1
f 5/1/1 20/1/1 18/1/1
f 24/1/1 21/1/1 5/1/1
f 22/1/1 16/1/1 21/1/1
f 22/1/1 25/1/1 23/1/1
f 24/1/1 27/1/1 25/1/1
f 23/1/1 26/1/1 32/1/1
f 25/1/1 28/1/1 26/1/1
f 29/1/1 27/1/1 4/1/1
f 29/1/1 30/1/1 28/1/1
f 28/1/1 30/1/1 31/1/1
f 28/1/1 32/1/1 26/1/1
f 23/1/1 32/1/1 31/1/1
f 34/1/1 30/1/1 29/1/1
f 31/1/1 220/1/1 23/1/1
f 37/1/1 31/1/1 34/1/1
f 35/1/1 29/1/1 4/1/1
f 35/1/1 36/1/1 34/1/1
f 34/1/1 39/1/1 37/1/1
f 37/1/1 45/1/1 33/1/1
f 37/1/1 39/1/1 38/1/1
f 38/1/1 40/1/1 45/1/1
f 36/1/1 40/1/1 39/1/1
f 41/1/1 43/1/1 40/1/1
f 41/1/1 40/1/1 42/1/1
f 43/1/1 44/1/1 40/1/1
f 44/1/1 45/1/1 40/1/1
f 48/1/1 44/1/1 50/1/1
f 48/1/1 46/1/1 45/1/1
f 46/1/1 47/1/1 45/1/1
f 219/1/1 45/1/1 47/1/1
f 49/1/1 51/1/1 48/1/1
f 49/1/1 48/1/1 50/1/1
f 52/1/1 46/1/1 51/1/1
f 51/1/1 49/1/1 52/1/1
f 56/1/1 52/1/1 49/1/1
f 54/1/1 46/1/1 53/1/1
f 54/1/1 53/1/1 55/1/1
f 53/1/1 56/1/1 55/1/1
f 56/1/1 49/1/1 55/1/1
f 57/1/1 54/1/1 55/1/1
f 49/1/1 50/1/1 55/1/1
f 50/1/1 43/1/1 55/1/1
f 62/1/1 55/1/1 58/1/1
f 61/1/1 55/1/1 43/1/1
f 59/1/1 62/1/1 58/1/1
f 58/1/1 60/1/1 59/1/1
f 58/1/1 214/1/1 60/1/1
f 65/1/1 63/1/1 62/1/1
f 63/1/1 64/1/1 62/1/1
f 64/1/1 57/1/1 62/1/1
f 65/1/1 62/1/1 66/1/1
f 65/1/1 66/1/1 67/1/1
f 71/1/1 66/1/1 59/1/1
f 65/1/1 67/1/1 68/1/1
f 68/1/1 67/1/1 69/1/1
f 67/1/1 46/1/1 69/1/1
f 70/1/1 71/1/1 73/1/1
f 215/1/1 71/1/1 60/1/1
f 60/1/1 71/1/1 59/1/1
f 71/1/1 72/1/1 73/1/1
f 74/1/1 75/1/1 73/1/1
f 215/1/1 73/1/1 72/1/1
f 77/1/1 73/1/1 75/1/1
f 73/1/1 78/1/1 70/1/1
f 76/1/1 77/1/1 82/1/1
f 79/1/1 76/1/1 81/1/1
f 208/1/1 76/1/1 79/1/1
f 82/1/1 81/1/1 76/1/1
f 83/1/1 84/1/1 82/1/1
f 82/1/1 212/1/1 83/1/1
f 3/1/1 86/1/1 84/1/1
f 3/1/1 85/1/1 211/1/1
f 84/1/1 88/1/1 81/1/1
f 90/1/1 210/1/1 88/1/1
f 93/1/1 89/1/1 91/1/1
f 98/1/1 93/1/1 91/1/1
f 94/1/1 90/1/1 93/1/1
f 94/1/1 95/1/1 150/1/1
f 96/1/1 95/1/1 93/1/1
f 99/1/1 96/1/1 98/1/1
f 100/1/1 99/1/1 98/1/1
f 98/1/1 103/1/1 100/1/1
f 101/1/1 102/1/1 108/1/1
f 102/1/1 103/1/1 104/1/1
f 108/1/1 105/1/1 106/1/1
f 110/1/1 106/1/1 109/1/1
f 107/1/1 108/1/1 106/1/1
f 112/1/1 109/1/1 111/1/1
f 209/1/1 111/1/1 113/1/1
f 115/1/1 111/1/1 114/1/1
f 114/1/1 117/1/1 115/1/1
f 118/1/1 117/1/1 116/1/1
f 118/1/1 119/1/1 186/1/1
f 119/1/1 120/1/1 121/1/1
f 120/1/1 203/1/1 121/1/1
f 123/1/1 122/1/1 120/1/1
f 123/1/1 124/1/1 164/1/1
f 125/1/1 124/1/1 120/1/1
f 128/1/1 125/1/1 127/1/1
f 128/1/1 129/1/1 167/1/1
f 127/1/1 174/1/1 129/1/1
f 130/1/1 131/1/1 175/1/1
f 132/1/1 131/1/1 127/1/1
f 132/1/1 133/1/1 80/1/1
f 134/1/1 135/1/1 136/1/1
f 132/1/1 137/1/1 135/1/1
f 136/1/1 137/1/1 140/1/1
f 140/1/1 138/1/1 143/1/1
f 138/1/1 139/1/1 148/1/1
f 80/1/1 139/1/1 137/1/1
f 141/1/1 136/1/1 140/1/1
f 140/1/1 149/1/1 141/1/1
f 140/1/1 144/1/1 142/1/1
f 144/1/1 145/1/1 146/1/1
f 143/1/1 138/1/1 145/1/1
f 146/1/1 147/1/1 90/1/1
f 148/1/1 145/1/1 138/1/1
f 210/1/1 147/1/1 81/1/1
f 79/1/1 147/1/1 148/1/1
f 208/1/1 148/1/1 139/1/1
f 142/1/1 146/1/1 90/1/1
f 142/1/1 153/1/1 149/1/1
f 94/1/1 150/1/1 142/1/1
f 97/1/1 150/1/1 95/1/1
f 150/1/1 159/1/1 154/1/1
f 202/1/1 150/1/1 152/1/1
f 153/1/1 154/1/1 158/1/1
f 158/1/1 155/1/1 169/1/1
f 155/1/1 156/1/1 169/1/1
f 157/1/1 156/1/1 154/1/1
f 154/1/1 161/1/1 157/1/1
f 160/1/1 161/1/1 159/1/1
f 160/1/1 151/1/1 182/1/1
f 161/1/1 163/1/1 157/1/1
f 162/1/1 178/1/1 164/1/1
f 163/1/1 162/1/1 165/1/1
f 164/1/1 165/1/1 162/1/1
f 163/1/1 166/1/1 156/1/1
f 165/1/1 126/1/1 166/1/1
f 126/1/1 167/1/1 166/1/1
f 169/1/1 166/1/1 167/1/1
f 167/1/1 129/1/1 168/1/1
f 169/1/1 168/1/1 170/1/1
f 170/1/1 158/1/1 169/1/1
f 158/1/1 171/1/1 153/1/1
f 170/1/1 173/1/1 171/1/1
f 171/1/1 176/1/1 153/1/1
f 172/1/1 173/1/1 175/1/1
f 174/1/1 175/1/1 173/1/1
f 174/1/1 168/1/1 129/1/1
f 175/1/1 177/1/1 172/1/1
f 141/1/1 172/1/1 177/1/1
f 177/1/1 134/1/1 136/1/1
f 149/1/1 176/1/1 141/1/1
f 180/1/1 164/1/1 178/1/1
f 182/1/1 178/1/1 160/1/1
f 179/1/1 180/1/1 178/1/1
f 122/1/1 181/1/1 203/1/1
f 185/1/1 179/1/1 182/1/1
f 183/1/1 151/1/1 202/1/1
f 187/1/1 182/1/1 183/1/1
f 182/1/1 186/1/1 185/1/1
f 182/1/1 184/1/1 118/1/1
f 186/1/1 121/1/1 185/1/1
f 121/1/1 181/1/1 185/1/1
f 184/1/1 188/1/1 118/1/1
f 189/1/1 188/1/1 187/1/1
f 183/1/1 189/1/1 187/1/1
f 115/1/1 189/1/1 190/1/1
f 190/1/1 183/1/1 192/1/1
f 190/1/1 113/1/1 115/1/1
f 191/1/1 192/1/1 193/1/1
f 194/1/1 192/1/1 152/1/1
f 192/1/1 202/1/1 152/1/1
f 197/1/1 193/1/1 194/1/1
f 193/1/1 196/1/1 191/1/1
f 195/1/1 198/1/1 196/1/1
f 199/1/1 198/1/1 197/1/1
f 201/1/1 197/1/1 108/1/1
f 194/1/1 108/1/1 197/1/1
f 199/1/1 110/1/1 112/1/1
f 200/1/1 201/1/1 110/1/1
f 199/1/1 112/1/1 198/1/1
f 112/1/1 196/1/1 198/1/1
f 204/1/1 194/1/1 152/1/1
f 112/1/1 113/1/1 191/1/1
f 206/1/1 152/1/1 97/1/1
f 101/1/1 205/1/1 99/1/1
f 204/1/1 207/1/1 205/1/1
f 97/1/1 207/1/1 206/1/1
f 99/1/1 207/1/1 97/1/1
f 83/1/1 211/1/1 85/1/1
f 213/1/1 211/1/1 212/1/1
f 212/1/1 75/1/1 213/1/1
f 2/1/1 213/1/1 61/1/1
f 213/1/1 214/1/1 61/1/1
f 74/1/1 213/1/1 75/1/1
f 74/1/1 60/1/1 214/1/1
f 216/1/1 46/1/1 70/1/1
f 68/1/1 218/1/1 64/1/1
f 218/1/1 46/1/1 54/1/1
f 64/1/1 218/1/1 57/1/1
f 64/1/1 65/1/1 68/1/1
f 61/1/1 43/1/1 41/1/1
f 41/1/1 4/1/1 61/1/1
f 41/1/1 42/1/1 36/1/1
f 35/1/1 41/1/1 36/1/1
f 23/1/1 220/1/1 221/1/1
f 222/1/1 14/1/1 221/1/1
f 221/1/1 16/1/1 23/1/1
f 223/1/1 10/1/1 12/1/1
f 225/1/1 18/1/1 6/1/1
f 2/1/1 61/1/1 4/1/1
f 2/1/1 1/1/1 3/1/1
f 3/1/1 1/1/1 7/1/1
f 4/1/1 24/1/1 5/1/1
f 1/1/1 5/1/1 225/1/1
f 8/1/1 1/1/1 6/1/1
f 11/1/1 9/1/1 8/1/1
f 11/1/1 12/1/1 10/1/1
f 12/1/1 11/1/1 13/1/1
f 14/1/1 13/1/1 15/1/1
f 15/1/1 6/1/1 18/1/1
f 20/1/1 19/1/1 17/1/1
f 19/1/1 20/1/1 21/1/1
f 24/1/1 22/1/1 21/1/1
f 22/1/1 23/1/1 16/1/1
f 22/1/1 24/1/1 25/1/1
f 24/1/1 4/1/1 27/1/1
f 23/1/1 25/1/1 26/1/1
f 25/1/1 27/1/1 28/1/1
f 29/1/1 28/1/1 27/1/1
f 28/1/1 31/1/1 32/1/1
f 34/1/1 31/1/1 30/1/1
f 31/1/1 33/1/1 220/1/1
f 37/1/1 33/1/1 31/1/1
f 35/1/1 34/1/1 29/1/1
f 34/1/1 36/1/1 39/1/1
f 37/1/1 38/1/1 45/1/1
f 38/1/1 39/1/1 40/1/1
f 36/1/1 42/1/1 40/1/1
f 48/1/1 45/1/1 44/1/1
f 48/1/1 51/1/1 46/1/1
f 46/1/1 217/1/1 47/1/1
f 219/1/1 33/1/1 45/1/1
f 52/1/1 53/1/1 46/1/1
f 56/1/1 53/1/1 52/1/1
f 57/1/1 218/1/1 54/1/1
f 50/1/1 44/1/1 43/1/1
f 62/1/1 57/1/1 55/1/1
f 61/1/1 58/1/1 55/1/1
f 59/1/1 66/1/1 62/1/1
f 58/1/1 61/1/1 214/1/1
f 71/1/1 67/1/1 66/1/1
f 67/1/1 70/1/1 46/1/1
f 70/1/1 67/1/1 71/1/1
f 215/1/1 72/1/1 71/1/1
f 215/1/1 74/1/1 73/1/1
f 77/1/1 76/1/1 73/1/1
f 73/1/1 76/1/1 78/1/1
f 208/1/1 80/1/1 76/1/1
f 82/1/1 84/1/1 81/1/1
f 83/1/1 85/1/1 84/1/1
f 82/1/1 77/1/1 212/1/1
f 3/1/1 87/1/1 86/1/1
f 3/1/1 84/1/1 85/1/1
f 84/1/1 86/1/1 88/1/1
f 88/1/1 89/1/1 90/1/1
f 210/1/1 81/1/1 88/1/1
f 93/1/1 90/1/1 89/1/1
f 91/1/1 92/1/1 98/1/1
f 98/1/1 96/1/1 93/1/1
f 94/1/1 142/1/1 90/1/1
f 94/1/1 93/1/1 95/1/1
f 96/1/1 97/1/1 95/1/1
f 99/1/1 97/1/1 96/1/1
f 100/1/1 101/1/1 99/1/1
f 98/1/1 92/1/1 103/1/1
f 101/1/1 100/1/1 102/1/1
f 104/1/1 105/1/1 102/1/1
f 102/1/1 100/1/1 103/1/1
f 108/1/1 102/1/1 105/1/1
f 110/1/1 107/1/1 106/1/1
f 107/1/1 201/1/1 108/1/1
f 112/1/1 110/1/1 109/1/1
f 209/1/1 112/1/1 111/1/1
f 115/1/1 113/1/1 111/1/1
f 114/1/1 116/1/1 117/1/1
f 118/1/1 188/1/1 117/1/1
f 118/1/1 116/1/1 119/1/1
f 119/1/1 116/1/1 120/1/1
f 120/1/1 122/1/1 203/1/1
f 123/1/1 180/1/1 122/1/1
f 123/1/1 120/1/1 124/1/1
f 125/1/1 126/1/1 124/1/1
f 128/1/1 126/1/1 125/1/1
f 128/1/1 127/1/1 129/1/1
f 127/1/1 130/1/1 174/1/1
f 130/1/1 127/1/1 131/1/1
f 132/1/1 134/1/1 131/1/1
f 132/1/1 127/1/1 133/1/1
f 134/1/1 132/1/1 135/1/1
f 132/1/1 80/1/1 137/1/1
f 136/1/1 135/1/1 137/1/1
f 140/1/1 137/1/1 138/1/1
f 138/1/1 137/1/1 139/1/1
f 80/1/1 208/1/1 139/1/1
f 141/1/1 177/1/1 136/1/1
f 140/1/1 142/1/1 149/1/1
f 140/1/1 143/1/1 144/1/1
f 144/1/1 143/1/1 145/1/1
f 146/1/1 145/1/1 147/1/1
f 148/1/1 147/1/1 145/1/1
f 210/1/1 90/1/1 147/1/1
f 79/1/1 81/1/1 147/1/1
f 208/1/1 79/1/1 148/1/1
f 142/1/1 144/1/1 146/1/1
f 142/1/1 150/1/1 153/1/1
f 97/1/1 152/1/1 150/1/1
f 150/1/1 151/1/1 159/1/1
f 202/1/1 151/1/1 150/1/1
f 153/1/1 150/1/1 154/1/1
f 158/1/1 154/1/1 155/1/1
f 155/1/1 154/1/1 156/1/1
f 157/1/1 163/1/1 156/1/1
f 154/1/1 159/1/1 161/1/1
f 160/1/1 162/1/1 161/1/1
f 160/1/1 159/1/1 151/1/1
f 161/1/1 162/1/1 163/1/1
f 162/1/1 160/1/1 178/1/1
f 164/1/1 124/1/1 165/1/1
f 163/1/1 165/1/1 166/1/1
f 165/1/1 124/1/1 126/1/1
f 126/1/1 128/1/1 167/1/1
f 169/1/1 156/1/1 166/1/1
f 169/1/1 167/1/1 168/1/1
f 158/1/1 170/1/1 171/1/1
f 170/1/1 168/1/1 173/1/1
f 171/1/1 172/1/1 176/1/1
f 172/1/1 171/1/1 173/1/1
f 174/1/1 130/1/1 175/1/1
f 174/1/1 173/1/1 168/1/1
f 175/1/1 131/1/1 177/1/1
f 141/1/1 176/1/1 172/1/1
f 177/1/1 131/1/1 134/1/1
f 149/1/1 153/1/1 176/1/1
f 180/1/1 123/1/1 164/1/1
f 182/1/1 179/1/1 178/1/1
f 179/1/1 122/1/1 180/1/1
f 122/1/1 179/1/1 181/1/1
f 185/1/1 181/1/1 179/1/1
f 183/1/1 182/1/1 151/1/1
f 187/1/1 184/1/1 182/1/1
f 182/1/1 118/1/1 186/1/1
f 186/1/1 119/1/1 121/1/1
f 121/1/1 203/1/1 181/1/1
f 184/1/1 187/1/1 188/1/1
f 189/1/1 117/1/1 188/1/1
f 115/1/1 117/1/1 189/1/1
f 190/1/1 189/1/1 183/1/1
f 190/1/1 191/1/1 113/1/1
f 191/1/1 190/1/1 192/1/1
f 194/1/1 193/1/1 192/1/1
f 192/1/1 183/1/1 202/1/1
f 197/1/1 195/1/1 193/1/1
f 193/1/1 195/1/1 196/1/1
f 195/1/1 197/1/1 198/1/1
f 201/1/1 199/1/1 197/1/1
f 194/1/1 101/1/1 108/1/1
f 199/1/1 200/1/1 110/1/1
f 200/1/1 199/1/1 201/1/1
f 201/1/1 107/1/1 110/1/1
f 112/1/1 191/1/1 196/1/1
f 204/1/1 101/1/1 194/1/1
f 112/1/1 209/1/1 113/1/1
f 206/1/1 204/1/1 152/1/1
f 101/1/1 204/1/1 205/1/1
f 204/1/1 206/1/1 207/1/1
f 99/1/1 205/1/1 207/1/1
f 83/1/1 212/1/1 211/1/1
f 213/1/1 2/1/1 211/1/1
f 212/1/1 77/1/1 75/1/1
f 213/1/1 74/1/1 214/1/1
f 74/1/1 215/1/1 60/1/1
f 216/1/1 217/1/1 46/1/1
f 68/1/1 69/1/1 218/1/1
f 218/1/1 69/1/1 46/1/1
f 64/1/1 63/1/1 65/1/1
f 41/1/1 35/1/1 4/1/1
f 222/1/1 223/1/1 14/1/1
f 221/1/1 14/1/1 16/1/1
f 223/1/1 224/1/1 10/1/1
f 12/1/1 14/1/1 223/1/1
f 225/1/1 5/1/1 18/1/1
