# Blender 5.1.2
# www.blender.org
mtllib antenitas_BUTTERFLY.mtl
o butterfly.001
v 0.003754 0.006231 -0.062074
v 0.002355 0.004806 -0.062072
v 0.010805 0.006188 -0.068556
v 0.005159 0.004806 -0.062072
v 0.012179 0.004796 -0.068553
v 0.003755 0.003406 -0.062070
v 0.010806 0.003427 -0.068551
v 0.009438 0.004796 -0.068553
v 0.019597 0.003494 -0.079587
v 0.018313 0.004778 -0.079589
v 0.029333 0.003596 -0.091073
v 0.020885 0.004778 -0.079589
v 0.030502 0.004761 -0.091075
v 0.019596 0.006086 -0.079591
v 0.029332 0.005947 -0.091077
v 0.028168 0.004761 -0.091075
v 0.039220 0.005787 -0.103438
v 0.038193 0.004742 -0.103436
v 0.040250 0.004742 -0.103436
v 0.048464 0.005624 -0.117100
v 0.047577 0.004721 -0.117098
v 0.056270 0.005474 -0.132488
v 0.049354 0.004721 -0.117098
v 0.048464 0.003835 -0.117097
v 0.057035 0.004698 -0.132486
v 0.056270 0.003936 -0.132485
v 0.062517 0.004670 -0.150025
v 0.061845 0.005351 -0.150026
v 0.061845 0.004001 -0.150024
v 0.061176 0.004670 -0.150025
v 0.055508 0.004698 -0.132486
v 0.039220 0.003716 -0.103435
v -0.003300 0.006231 -0.062074
v -0.010351 0.006188 -0.068556
v -0.001900 0.004806 -0.062072
v -0.004705 0.004806 -0.062072
v -0.003300 0.003406 -0.062070
v -0.011724 0.004796 -0.068553
v -0.010352 0.003427 -0.068551
v -0.020431 0.004778 -0.079589
v -0.019143 0.003494 -0.079587
v -0.030047 0.004761 -0.091075
v -0.019142 0.006086 -0.079591
v -0.017859 0.004778 -0.079589
v -0.028878 0.005947 -0.091077
v -0.038765 0.005787 -0.103438
v -0.027714 0.004761 -0.091075
v -0.037739 0.004742 -0.103436
v -0.028879 0.003596 -0.091073
v -0.038766 0.003716 -0.103435
v -0.039796 0.004742 -0.103436
v -0.048010 0.003835 -0.117097
v -0.055816 0.003936 -0.132485
v -0.047123 0.004721 -0.117098
v -0.048899 0.004721 -0.117098
v -0.056581 0.004698 -0.132486
v -0.048009 0.005624 -0.117100
v -0.055816 0.005474 -0.132488
v -0.061391 0.005351 -0.150026
v -0.055054 0.004698 -0.132486
v -0.060722 0.004670 -0.150025
v -0.061391 0.004001 -0.150024
v -0.062062 0.004670 -0.150025
v -0.008984 0.004796 -0.068553
vn -0.5627 0.5515 -0.6158
vn 0.5639 0.5570 0.6098
vn 0.5608 -0.5617 0.6083
vn -0.5595 -0.5605 -0.6106
vn -0.6147 -0.6154 -0.4934
vn 0.6167 -0.6180 0.4875
vn -0.6045 -0.6053 -0.5178
vn 0.6077 -0.6090 0.5097
vn 0.6208 0.6129 0.4888
vn 0.6116 0.6039 0.5111
vn -0.6086 0.5967 -0.5231
vn -0.6189 0.6069 -0.4987
vn -0.6176 0.6056 -0.5018
vn 0.6208 0.6130 0.4887
vn -0.6408 0.6284 -0.4411
vn 0.6433 0.6350 0.4277
vn -0.6697 0.6570 -0.3462
vn 0.6709 0.6621 0.3339
vn 0.6388 -0.6403 0.4266
vn 0.6658 -0.6675 0.3334
vn 0.6893 -0.6913 0.2165
vn 0.6950 0.6857 0.2162
vn -0.0000 -0.0016 -1.0000
vn -0.6894 -0.6897 -0.2217
vn -0.6953 0.6823 -0.2258
vn -0.6644 -0.6649 -0.3414
vn -0.6361 -0.6367 -0.4359
vn -0.6134 -0.6142 -0.4965
vn 0.6168 -0.6181 0.4873
vn 0.6168 -0.6181 0.4874
vn -0.5639 0.5570 0.6098
vn 0.5627 0.5515 -0.6158
vn -0.5608 -0.5617 0.6083
vn -0.6167 -0.6180 0.4875
vn -0.6208 0.6129 0.4888
vn -0.6077 -0.6090 0.5097
vn -0.6116 0.6039 0.5111
vn 0.6189 0.6069 -0.4987
vn 0.6086 0.5967 -0.5231
vn -0.6208 0.6130 0.4887
vn 0.6176 0.6056 -0.5018
vn 0.6134 -0.6142 -0.4965
vn 0.6045 -0.6053 -0.5178
vn -0.6168 -0.6181 0.4873
vn -0.6168 -0.6181 0.4874
vn 0.6361 -0.6367 -0.4359
vn -0.6388 -0.6403 0.4266
vn -0.6658 -0.6675 0.3334
vn 0.6644 -0.6649 -0.3414
vn -0.6709 0.6621 0.3339
vn -0.6433 0.6350 0.4277
vn 0.6697 0.6570 -0.3462
vn 0.6408 0.6284 -0.4411
vn -0.6950 0.6857 0.2162
vn 0.6953 0.6823 -0.2258
vn 0.6894 -0.6897 -0.2217
vn -0.6893 -0.6913 0.2165
vn 0.6147 -0.6154 -0.4934
vn 0.5595 -0.5605 -0.6106
vt 0.000000 0.000000
s 1
usemtl ColorChart_RGB
f 8/1/1 1/1/1 3/1/1
f 3/1/2 4/1/2 5/1/2
f 4/1/3 7/1/3 5/1/3
f 6/1/4 8/1/4 7/1/4
f 7/1/5 10/1/5 9/1/5
f 5/1/6 9/1/6 12/1/6
f 9/1/7 16/1/7 11/1/7
f 12/1/8 11/1/8 13/1/8
f 14/1/9 5/1/9 12/1/9
f 15/1/10 12/1/10 13/1/10
f 16/1/11 14/1/11 15/1/11
f 10/1/12 3/1/12 14/1/12
f 15/1/13 18/1/13 16/1/13
f 13/1/14 17/1/14 15/1/14
f 17/1/15 21/1/15 18/1/15
f 19/1/16 20/1/16 17/1/16
f 20/1/17 31/1/17 21/1/17
f 23/1/18 22/1/18 20/1/18
f 24/1/19 19/1/19 32/1/19
f 26/1/20 23/1/20 24/1/20
f 29/1/21 25/1/21 26/1/21
f 25/1/22 28/1/22 22/1/22
f 27/1/23 30/1/23 28/1/23
f 30/1/24 26/1/24 31/1/24
f 22/1/25 30/1/25 31/1/25
f 31/1/26 24/1/26 21/1/26
f 21/1/27 32/1/27 18/1/27
f 18/1/28 11/1/28 16/1/28
f 32/1/29 13/1/30 11/1/30
f 36/1/31 34/1/31 38/1/31
f 33/1/32 64/1/32 34/1/32
f 36/1/33 39/1/33 37/1/33
f 38/1/34 41/1/34 39/1/34
f 38/1/35 43/1/35 40/1/35
f 40/1/36 49/1/36 41/1/36
f 40/1/37 45/1/37 42/1/37
f 34/1/38 44/1/38 43/1/38
f 43/1/39 47/1/39 45/1/39
f 46/1/40 42/1/40 45/1/40
f 48/1/41 45/1/41 47/1/41
f 48/1/42 49/1/42 50/1/42
f 41/1/43 47/1/43 44/1/43
f 50/1/44 42/1/45 51/1/44
f 54/1/46 50/1/46 52/1/46
f 52/1/47 51/1/47 55/1/47
f 53/1/48 55/1/48 56/1/48
f 60/1/49 52/1/49 53/1/49
f 58/1/50 55/1/50 57/1/50
f 57/1/51 51/1/51 46/1/51
f 60/1/52 57/1/52 54/1/52
f 54/1/53 46/1/53 48/1/53
f 59/1/54 56/1/54 58/1/54
f 61/1/55 58/1/55 60/1/55
f 61/1/56 53/1/56 62/1/56
f 61/1/23 63/1/23 59/1/23
f 62/1/57 56/1/57 63/1/57
f 39/1/58 44/1/58 64/1/58
f 37/1/59 64/1/59 35/1/59
f 8/1/1 2/1/1 1/1/1
f 3/1/2 1/1/2 4/1/2
f 4/1/3 6/1/3 7/1/3
f 6/1/4 2/1/4 8/1/4
f 7/1/5 8/1/5 10/1/5
f 5/1/6 7/1/6 9/1/6
f 9/1/7 10/1/7 16/1/7
f 12/1/8 9/1/8 11/1/8
f 14/1/9 3/1/9 5/1/9
f 15/1/10 14/1/10 12/1/10
f 16/1/11 10/1/11 14/1/11
f 10/1/12 8/1/12 3/1/12
f 15/1/13 17/1/13 18/1/13
f 13/1/14 19/1/14 17/1/14
f 17/1/15 20/1/15 21/1/15
f 19/1/16 23/1/16 20/1/16
f 20/1/17 22/1/17 31/1/17
f 23/1/18 25/1/18 22/1/18
f 24/1/19 23/1/19 19/1/19
f 26/1/20 25/1/20 23/1/20
f 29/1/21 27/1/21 25/1/21
f 25/1/22 27/1/22 28/1/22
f 27/1/23 29/1/23 30/1/23
f 30/1/24 29/1/24 26/1/24
f 22/1/25 28/1/25 30/1/25
f 31/1/26 26/1/26 24/1/26
f 21/1/27 24/1/27 32/1/27
f 18/1/28 32/1/28 11/1/28
f 32/1/29 19/1/29 13/1/30
f 36/1/31 33/1/31 34/1/31
f 33/1/32 35/1/32 64/1/32
f 36/1/33 38/1/33 39/1/33
f 38/1/34 40/1/34 41/1/34
f 38/1/35 34/1/35 43/1/35
f 40/1/36 42/1/36 49/1/36
f 40/1/37 43/1/37 45/1/37
f 34/1/38 64/1/38 44/1/38
f 43/1/39 44/1/39 47/1/39
f 46/1/40 51/1/40 42/1/40
f 48/1/41 46/1/41 45/1/41
f 48/1/42 47/1/42 49/1/42
f 41/1/43 49/1/43 47/1/43
f 50/1/44 49/1/45 42/1/45
f 54/1/46 48/1/46 50/1/46
f 52/1/47 50/1/47 51/1/47
f 53/1/48 52/1/48 55/1/48
f 60/1/49 54/1/49 52/1/49
f 58/1/50 56/1/50 55/1/50
f 57/1/51 55/1/51 51/1/51
f 60/1/52 58/1/52 57/1/52
f 54/1/53 57/1/53 46/1/53
f 59/1/54 63/1/54 56/1/54
f 61/1/55 59/1/55 58/1/55
f 61/1/56 60/1/56 53/1/56
f 61/1/23 62/1/23 63/1/23
f 62/1/57 53/1/57 56/1/57
f 39/1/58 41/1/58 44/1/58
f 37/1/59 39/1/59 64/1/59
