# Blender 4.3.0
# www.blender.org
o veg_nenufar02_vegetattion_mat_0
v 0.400461 0.006626 0.291938
v 0.470770 0.006626 0.153948
v 0.494996 0.006626 0.000983
v 0.470770 0.006626 -0.151979
v 0.400461 0.006626 -0.289967
v 0.290952 0.006626 -0.399475
v 0.152962 0.006626 -0.469784
v 0.000000 0.006626 -0.494012
v -0.152962 0.006626 -0.469784
v -0.290952 0.006626 -0.399475
v -0.400463 0.006626 -0.289967
v -0.470769 0.006626 -0.151979
v -0.494997 0.006626 0.000983
v -0.470769 0.006626 0.153948
v -0.400463 0.006626 0.291938
v -0.290952 0.006626 0.401446
v -0.152962 0.006626 0.471756
v 0.000000 0.006626 0.495982
v 0.152962 0.006626 0.471756
v 0.290952 0.006626 0.401446
vn -0.0000 1.0000 -0.0000
vt 0.426091 0.814304
vt 0.491563 0.814304
vt 0.458827 0.819489
vt 0.396559 0.799257
vt 0.521095 0.799257
vt 0.373123 0.775820
vt 0.544531 0.775820
vt 0.358076 0.746289
vt 0.559578 0.746289
vt 0.352891 0.713553
vt 0.564763 0.713553
vt 0.358076 0.680817
vt 0.559578 0.680817
vt 0.544531 0.651285
vt 0.373123 0.651285
vt 0.396559 0.627849
vt 0.521095 0.627849
vt 0.426091 0.612802
vt 0.491563 0.612802
vt 0.458827 0.607617
s 1
f 9/1/1 7/2/1 8/3/1
f 7/2/1 9/1/1 10/4/1
f 7/2/1 10/4/1 6/5/1
f 6/5/1 10/4/1 11/6/1
f 6/5/1 11/6/1 5/7/1
f 5/7/1 11/6/1 12/8/1
f 5/7/1 12/8/1 4/9/1
f 4/9/1 12/8/1 13/10/1
f 4/9/1 13/10/1 3/11/1
f 3/11/1 13/10/1 14/12/1
f 3/11/1 14/12/1 2/13/1
f 2/13/1 14/12/1 1/14/1
f 1/14/1 14/12/1 15/15/1
f 1/14/1 15/15/1 16/16/1
f 1/14/1 16/16/1 20/17/1
f 20/17/1 16/16/1 17/18/1
f 20/17/1 17/18/1 19/19/1
f 19/19/1 17/18/1 18/20/1
