# Blender 4.3.0
# www.blender.org
o Tree.074_Mat_Tree_0
v -0.097594 0.254569 0.452058
v 0.002477 0.512065 0.389267
v -0.097594 0.414458 0.414797
v 0.283141 0.254569 -0.207395
v 0.177233 0.414457 -0.262405
v 0.250872 0.512065 -0.188765
v 0.142975 0.414457 -0.228146
v 0.207435 0.414457 -0.163686
v 0.207435 0.512065 -0.163686
v -0.097594 0.414458 0.364640
v -0.273703 0.414458 0.317452
v -0.273703 0.512065 0.317452
v -0.273703 0.414457 -0.292607
v -0.449812 0.414457 0.012423
v -0.097594 0.414457 -0.339795
v 0.078515 0.414457 -0.292607
v 0.142975 0.414457 -0.228146
v -0.449812 0.414457 0.012423
v 0.207435 0.414457 -0.163686
v 0.207435 0.414457 -0.163686
v -0.449812 0.414457 0.012423
v 0.254623 0.414457 0.012423
v 0.254623 0.414457 0.012423
v 0.207435 0.414457 0.188531
v 0.078514 0.414458 0.317452
v -0.097594 0.414458 0.364640
v -0.273703 0.414458 0.317452
v -0.402624 0.414457 0.188531
v -0.402624 0.414457 -0.163686
v -0.499969 0.512065 0.012423
v -0.446061 0.861236 -0.188765
v -0.446061 0.512065 -0.188765
v -0.097594 0.512065 -0.339795
v -0.165039 0.685826 -0.321723
v -0.273703 0.685826 -0.292607
v 0.078515 0.512065 -0.292607
v 0.078515 0.414457 -0.292607
v 0.122223 0.254569 -0.368313
v 0.177233 0.414457 -0.262405
v 0.283141 0.254569 -0.207395
v 0.142975 0.414457 -0.228146
v 0.172109 0.006571 0.464157
v 0.375106 0.006571 0.470822
v 0.122223 0.254569 0.393158
v 0.342041 0.254569 0.012423
v 0.543302 0.006571 0.178934
v 0.451140 0.006571 -0.019139
v 0.103593 0.512065 -0.336044
v 0.177233 0.414457 -0.262405
v 0.122223 0.254569 -0.368313
v -0.385954 0.006571 -0.502436
v -0.317412 0.254569 -0.368313
v -0.097594 0.254569 -0.427213
v -0.106091 0.006571 -0.606721
v -0.369162 0.006571 0.423738
v -0.317412 0.254569 0.393158
v -0.478329 0.254569 0.232240
v -0.590218 0.006571 0.259892
v -0.106091 0.006571 -0.606721
v -0.097594 0.254569 -0.427213
v 0.122223 0.254569 -0.368313
v 0.172940 0.006571 -0.531955
v -0.558897 0.006571 -0.277434
v -0.478329 0.254569 -0.207395
v -0.317412 0.254569 -0.368313
v -0.385954 0.006571 -0.502436
v -0.090131 0.006571 0.498505
v -0.097594 0.254569 0.452058
v -0.317412 0.254569 0.393158
v -0.369162 0.006571 0.423738
v -0.633663 0.006571 0.001597
v -0.537229 0.254569 0.012423
v -0.478329 0.254569 -0.207395
v -0.558897 0.006571 -0.277434
v 0.376374 0.006571 -0.298171
v 0.283141 0.254569 -0.207395
v 0.342041 0.254569 0.012423
v 0.451140 0.006571 -0.019139
v -0.590218 0.006571 0.259892
v -0.478329 0.254569 0.232240
v -0.537229 0.254569 0.012423
v -0.633663 0.006571 0.001597
v -0.097594 0.254569 0.452058
v -0.097594 0.414458 0.414797
v -0.298782 0.512065 0.360889
v -0.317412 0.254569 0.393158
v -0.537229 0.254569 0.012423
v -0.499969 0.512065 0.012423
v -0.446061 0.512065 -0.188765
v -0.478329 0.254569 -0.207395
v 0.283141 0.254569 -0.207395
v 0.250872 0.512065 -0.188765
v 0.304781 0.512065 0.012423
v 0.342041 0.254569 0.012423
v -0.478329 0.254569 0.232240
v -0.446061 0.512065 0.213610
v -0.499969 0.512065 0.012423
v -0.537229 0.254569 0.012423
v -0.317412 0.254569 -0.368313
v -0.298782 0.512065 -0.336044
v -0.097594 0.512065 -0.389952
v -0.097594 0.254569 -0.427213
v 0.279720 0.281863 0.230265
v 0.250872 0.512065 0.213610
v 0.103593 0.512065 0.360889
v 0.122223 0.254569 0.393158
v -0.317412 0.254569 0.393158
v -0.298782 0.512065 0.360889
v -0.446061 0.512065 0.213610
v -0.478329 0.254569 0.232240
v -0.097594 0.254569 -0.427213
v -0.097594 0.512065 -0.389952
v 0.103593 0.512065 -0.336044
v 0.122223 0.254569 -0.368313
v -0.478329 0.254569 -0.207395
v -0.446061 0.512065 -0.188765
v -0.298782 0.512065 -0.336044
v -0.317412 0.254569 -0.368313
v 0.342041 0.254569 0.012423
v 0.304781 0.512065 0.012423
v 0.250872 0.512065 0.213610
v 0.279720 0.281863 0.230265
v -0.097594 0.512065 -0.389952
v -0.174643 0.685826 -0.369307
v -0.165039 0.685826 -0.321723
v -0.097594 0.512065 -0.339795
v -0.298782 0.512065 -0.336044
v -0.298782 0.685826 -0.336044
v -0.174643 0.685826 -0.369307
v -0.097594 0.512065 -0.389952
v -0.449812 0.512065 0.012423
v -0.499969 0.512065 0.012423
v -0.446061 0.512065 0.213610
v -0.402624 0.512065 0.188531
v -0.402624 0.512065 0.188531
v -0.446061 0.512065 0.213610
v -0.298782 0.512065 0.360889
v -0.273703 0.512065 0.317452
v -0.273703 0.512065 0.317452
v -0.298782 0.512065 0.360889
v -0.097594 0.414458 0.414797
v -0.097594 0.414458 0.364640
v -0.010820 0.512065 0.340445
v 0.002477 0.512065 0.389267
v 0.103593 0.512065 0.360889
v 0.078514 0.512065 0.317452
v 0.078514 0.512065 0.317452
v 0.103593 0.512065 0.360889
v 0.250872 0.512065 0.213610
v 0.207435 0.512065 0.188531
v 0.254623 0.512065 0.012423
v 0.238710 0.640422 0.071813
v 0.286601 0.640422 0.080271
v 0.304781 0.512065 0.012423
v 0.254623 0.512065 0.012423
v 0.304781 0.512065 0.012423
v 0.250872 0.512065 -0.188765
v 0.207435 0.512065 -0.163686
v 0.142975 0.414457 -0.228146
v 0.177233 0.414457 -0.262405
v 0.103593 0.512065 -0.336044
v 0.078515 0.512065 -0.292607
v 0.078515 0.512065 -0.292607
v 0.103593 0.512065 -0.336044
v -0.097594 0.512065 -0.389952
v -0.097594 0.512065 -0.339795
v -0.273703 0.685826 -0.292607
v -0.273703 0.414457 -0.292607
v -0.097594 0.414457 -0.339795
v -0.097594 0.512065 -0.339795
v 0.207435 0.512065 0.188531
v 0.207435 0.414457 0.188531
v 0.078514 0.414458 0.317452
v 0.078514 0.512065 0.317452
v -0.273703 0.512065 0.317452
v -0.273703 0.414458 0.317452
v -0.402624 0.414457 0.188531
v -0.402624 0.512065 0.188531
v -0.097594 0.512065 -0.339795
v -0.097594 0.414457 -0.339795
v 0.078515 0.414457 -0.292607
v 0.078515 0.512065 -0.292607
v -0.402624 0.861236 -0.163686
v -0.402624 0.414457 -0.163686
v -0.273703 0.414457 -0.292607
v -0.273703 0.685826 -0.292607
v 0.254623 0.512065 0.012423
v 0.254623 0.414457 0.012423
v 0.207435 0.414457 0.188531
v 0.207435 0.512065 0.188531
v -0.449812 0.512065 0.012423
v -0.449812 0.414457 0.012423
v -0.402624 0.414457 -0.163686
v -0.402624 0.861236 -0.163686
v 0.207435 0.512065 -0.163686
v 0.207435 0.414457 -0.163686
v 0.254623 0.414457 0.012423
v 0.254623 0.512065 0.012423
v 0.078514 0.512065 0.317452
v 0.078514 0.414458 0.317452
v -0.097594 0.414458 0.364640
v -0.010820 0.512065 0.340445
v -0.402624 0.512065 0.188531
v -0.402624 0.414457 0.188531
v -0.449812 0.414457 0.012423
v -0.449812 0.512065 0.012423
v -0.097594 0.414458 0.364640
v -0.097594 0.414458 0.414797
v 0.002477 0.512065 0.389267
v -0.010820 0.512065 0.340445
v 0.122223 0.254569 0.393158
v 0.103593 0.512065 0.360889
v 0.002477 0.512065 0.389267
v -0.097594 0.254569 0.452058
v 0.172109 0.006571 0.464157
v 0.122223 0.254569 0.393158
v -0.097594 0.254569 0.452058
v -0.090131 0.006571 0.498505
v -0.165039 0.685826 -0.321723
v -0.174643 0.685826 -0.369307
v -0.298782 0.685826 -0.336044
v -0.273703 0.685826 -0.292607
v -0.273703 0.685826 -0.292607
v -0.298782 0.685826 -0.336044
v -0.446061 0.861236 -0.188765
v -0.402624 0.861236 -0.163686
v -0.446061 0.512065 -0.188765
v -0.446061 0.861236 -0.188765
v -0.298782 0.685826 -0.336044
v -0.298782 0.512065 -0.336044
v -0.449812 0.512065 0.012423
v -0.402624 0.861236 -0.163686
v -0.446061 0.861236 -0.188765
v -0.499969 0.512065 0.012423
v 0.222355 0.686266 0.132849
v 0.267917 0.686266 0.149998
v 0.286601 0.640422 0.080271
v 0.238710 0.640422 0.071813
v 0.207435 0.512065 0.188531
v 0.222355 0.686266 0.132849
v 0.238710 0.640422 0.071813
v 0.254623 0.512065 0.012423
v 0.304781 0.512065 0.012423
v 0.286601 0.640422 0.080271
v 0.267917 0.686266 0.149998
v 0.250872 0.512065 0.213610
v 0.250872 0.512065 0.213610
v 0.267917 0.686266 0.149998
v 0.222355 0.686266 0.132849
v 0.207435 0.512065 0.188531
v 0.207435 0.512065 -0.163686
v 0.250872 0.512065 -0.188765
v 0.177233 0.414457 -0.262405
v 0.142975 0.414457 -0.228146
v 0.172940 0.006571 -0.531955
v 0.122223 0.254569 -0.368313
v 0.283141 0.254569 -0.207395
v 0.376374 0.006571 -0.298171
v 0.540421 0.006571 0.393983
v 0.279720 0.281863 0.230265
v 0.122223 0.254569 0.393158
v 0.375106 0.006571 0.470822
v 0.543302 0.006571 0.178934
v 0.342041 0.254569 0.012423
v 0.279720 0.281863 0.230265
v 0.540421 0.006571 0.393983
vn 0.0271 0.2269 0.9735
vn 0.6073 0.1328 -0.7833
vn -0.7071 -0.0000 0.7071
vn 0.2588 -0.0000 -0.9659
vn -0.0000 1.0000 -0.0000
vn -0.9659 -0.0000 -0.2588
vn 0.2588 -0.0000 0.9659
vn 0.6898 0.2196 -0.6898
vn -0.0316 0.2692 0.9626
vn 0.8260 0.4123 -0.3843
vn 0.7833 0.1328 -0.6073
vn -0.2604 0.5446 -0.7973
vn -0.6199 0.2901 0.7291
vn 0.2130 0.5681 -0.7949
vn -0.6773 0.4448 -0.5860
vn -0.2550 0.1706 0.9518
vn -0.9009 0.3608 -0.2414
vn 0.8782 0.4163 -0.2353
vn -0.9023 0.3855 0.1931
vn -0.9022 0.3855 0.1932
vn -0.2181 0.1698 0.9610
vn -0.2181 0.1699 0.9610
vn -0.2182 0.1698 0.9610
vn -0.9566 0.1384 -0.2563
vn 0.9566 0.1384 -0.2563
vn -0.9566 0.1384 0.2563
vn -0.2563 0.1384 -0.9566
vn 0.7003 0.1384 0.7003
vn -0.7003 0.1384 0.7003
vn 0.2563 0.1384 -0.9566
vn -0.7003 0.1384 -0.7003
vn 0.9566 0.1384 0.2563
vn 0.9160 0.3909 -0.0900
vn 0.9160 0.3909 -0.0901
vn -0.2588 -0.0000 -0.9659
vn 0.4318 0.8945 0.1157
vn 0.0767 0.4509 -0.8893
vn 0.0767 0.4509 -0.8892
vn 0.5643 0.7041 0.4310
vn 0.5644 0.7041 0.4310
vn -0.7071 -0.0000 -0.7071
vn 0.7071 -0.0000 -0.7071
vn -0.2588 -0.0000 0.9659
vn 0.7071 -0.0000 0.7071
vn 0.9659 -0.0000 0.2588
vn -0.9659 -0.0000 0.2588
vn -0.2558 -0.0058 -0.9667
vn -0.2556 -0.0062 -0.9668
vn 0.9659 -0.0000 -0.2588
vn -0.7070 0.7009 0.0950
vn -0.7070 0.7008 0.0949
vn -0.7070 0.7008 0.0950
vn 0.2600 0.1354 0.9561
vn 0.1841 0.2466 0.9515
vn 0.1840 0.2466 0.9515
vn 0.4738 0.7427 -0.4732
vn 0.4725 0.7440 -0.4724
vn 0.4725 0.7440 -0.4725
vn -0.2258 0.4882 0.8430
vn -0.2259 0.4882 0.8430
vn -0.2259 0.4881 0.8430
vn 0.1482 0.8280 -0.5408
vn 0.1482 0.8280 -0.5409
vn -0.4048 0.3292 0.8531
vn -0.4047 0.3293 0.8531
vn -0.4310 0.7041 -0.5643
vn 0.6410 0.4892 -0.5915
vn 0.6408 0.4894 -0.5915
vn 0.4006 0.6777 0.6166
vn 0.4007 0.6777 0.6166
vn 0.4006 0.6777 0.6167
vn 0.4006 0.6776 0.6167
vn 0.7269 0.6836 0.0664
vt 0.314834 0.813493
vt 0.314987 0.782375
vt 0.314834 0.794171
vt 0.315415 0.813493
vt 0.315254 0.794171
vt 0.315366 0.782375
vt 0.258632 0.767701
vt 0.258677 0.767701
vt 0.258677 0.762233
vt 0.258461 0.767701
vt 0.258336 0.767701
vt 0.258336 0.762233
vt 0.212900 0.748386
vt 0.212651 0.748386
vt 0.213150 0.748386
vt 0.213399 0.748386
vt 0.213491 0.748386
vt 0.213582 0.748386
vt 0.213649 0.748386
vt 0.213582 0.748386
vt 0.213399 0.748386
vt 0.213150 0.748386
vt 0.212900 0.748386
vt 0.212718 0.748386
vt 0.212718 0.748386
vt 0.314219 0.782375
vt 0.314301 0.740179
vt 0.314301 0.782375
vt 0.258461 0.762233
vt 0.258413 0.752500
vt 0.258336 0.752500
vt 0.258586 0.762233
vt 0.258586 0.767701
vt 0.315169 0.813493
vt 0.315246 0.843463
vt 0.315556 0.843463
vt 0.315505 0.813493
vt 0.315813 0.843463
vt 0.315672 0.843463
vt 0.315141 0.782375
vt 0.314393 0.843463
vt 0.314498 0.813493
vt 0.314821 0.843463
vt 0.314419 0.843463
vt 0.314252 0.813493
vt 0.314081 0.843463
vt 0.315247 0.843463
vt 0.314129 0.843463
vt 0.314845 0.843463
vt 0.314014 0.843463
vt 0.314162 0.813493
vt 0.315558 0.843463
vt 0.314526 0.782375
vt 0.315448 0.782375
vt 0.314834 0.782375
vt 0.315410 0.810195
vt 0.212172 0.761655
vt 0.212130 0.754224
vt 0.212135 0.754224
vt 0.314526 0.761377
vt 0.314716 0.761377
vt 0.211981 0.761655
vt 0.211954 0.761655
vt 0.211983 0.761655
vt 0.212007 0.761655
vt 0.212063 0.761655
vt 0.212076 0.761655
vt 0.212172 0.765830
vt 0.212219 0.761655
vt 0.212226 0.761655
vt 0.212280 0.761655
vt 0.212267 0.761655
vt 0.212360 0.761655
vt 0.212337 0.761655
vt 0.212362 0.761655
vt 0.212354 0.756166
vt 0.212379 0.756166
vt 0.212389 0.761655
vt 0.212302 0.765830
vt 0.212320 0.765830
vt 0.258245 0.767701
vt 0.258245 0.762233
vt 0.258245 0.742674
vt 0.258711 0.762233
vt 0.258711 0.767701
vt 0.258212 0.762233
vt 0.258212 0.767701
vt 0.258523 0.762233
vt 0.212063 0.754224
vt 0.212076 0.754224
vt 0.211983 0.746722
vt 0.212007 0.746722
vt 0.212345 0.754205
vt 0.212369 0.754205
vt 0.258688 0.752475
vt 0.258699 0.755043
vt 0.315421 0.766864
vt 0.315392 0.761324
vt 0.315809 0.843463
s 0
f 1/1/1 2/2/1 3/3/1
f 4/4/2 5/5/2 6/6/2
f 7/7/3 8/8/3 9/9/3
f 10/10/4 11/11/4 12/12/4
f 13/13/5 14/14/5 15/15/5
f 15/15/5 14/14/5 16/16/5
f 17/17/5 18/14/5 19/18/5
f 20/18/5 21/14/5 22/19/5
f 23/19/5 14/14/5 24/20/5
f 24/20/5 14/14/5 25/21/5
f 25/21/5 14/14/5 26/22/5
f 26/22/5 14/14/5 27/23/5
f 27/23/5 14/14/5 28/24/5
f 29/25/5 14/14/5 13/13/5
f 30/26/6 31/27/6 32/28/6
f 33/29/7 34/30/7 35/31/7
f 36/32/3 37/33/3 7/7/3
f 38/34/8 39/5/8 40/4/8
f 16/16/5 14/14/5 41/17/5
f 42/35/9 43/36/9 44/34/9
s 1
f 45/37/10 46/38/10 47/39/10
s 0
f 48/40/11 49/5/11 50/34/11
s 1
f 51/41/12 52/42/12 53/1/12
f 51/41/12 53/1/12 54/43/12
f 55/44/13 56/42/13 57/45/13
f 55/44/13 57/45/13 58/46/13
s 0
f 59/43/14 60/1/14 61/34/14
f 59/43/14 61/34/14 62/47/14
s 1
f 63/48/15 64/45/15 65/42/15
f 63/48/15 65/42/15 66/41/15
s 0
f 67/49/16 68/1/16 69/42/16
f 67/49/16 69/42/16 70/44/16
f 71/50/17 72/51/17 73/45/17
s 1
f 71/50/17 73/45/17 74/48/17
s 0
f 75/52/18 76/4/18 77/37/18
f 75/52/18 77/37/18 78/39/18
s 1
f 79/46/19 80/45/19 81/51/20
f 79/46/19 81/51/20 82/50/19
f 83/1/21 84/3/21 85/53/22
f 83/1/21 85/53/22 86/42/23
s 0
f 87/51/24 88/26/24 89/28/24
f 87/51/24 89/28/24 90/45/24
f 91/4/25 92/6/25 93/54/25
f 91/4/25 93/54/25 94/37/25
f 95/45/26 96/28/26 97/26/26
f 95/45/26 97/26/26 98/51/26
f 99/42/27 100/53/27 101/55/27
f 99/42/27 101/55/27 102/1/27
s 1
f 103/56/28 104/6/28 105/40/28
s 0
f 103/56/28 105/40/28 106/34/28
f 107/42/29 108/53/29 109/28/29
f 107/42/29 109/28/29 110/45/29
f 111/1/30 112/55/30 113/40/30
f 111/1/30 113/40/30 114/34/30
f 115/45/31 116/28/31 117/53/31
f 115/45/31 117/53/31 118/42/31
f 119/37/32 120/54/32 121/6/32
f 119/37/32 121/6/32 122/56/32
s 1
f 123/57/33 124/58/34 125/59/33
f 123/57/33 125/59/33 126/57/33
s 0
f 127/53/35 128/60/35 129/61/35
f 127/53/35 129/61/35 130/55/35
f 131/62/5 132/63/5 133/64/5
f 131/62/5 133/64/5 134/65/5
f 135/65/5 136/64/5 137/66/5
f 135/65/5 137/66/5 138/67/5
s 1
f 139/67/36 140/66/36 141/68/36
f 139/67/36 141/68/36 142/68/36
s 0
f 143/69/5 144/70/5 145/71/5
f 143/69/5 145/71/5 146/72/5
f 147/72/5 148/71/5 149/73/5
f 147/72/5 149/73/5 150/74/5
s 1
f 151/75/37 152/76/37 153/77/37
f 151/75/37 153/77/37 154/78/38
s 0
f 155/75/5 156/78/5 157/73/5
f 155/75/5 157/73/5 158/74/5
s 1
f 159/79/39 160/80/39 161/71/39
f 159/79/39 161/71/39 162/72/40
s 0
f 163/72/5 164/71/5 165/57/5
f 163/72/5 165/57/5 166/57/5
f 167/31/7 168/11/7 169/10/7
f 167/31/7 169/10/7 170/29/7
f 171/9/41 172/8/41 173/33/41
f 171/9/41 173/33/41 174/32/41
f 175/12/42 176/11/42 177/81/42
f 175/12/42 177/81/42 178/82/42
f 179/29/43 180/10/43 181/33/43
f 179/29/43 181/33/43 182/32/43
f 183/83/44 184/81/44 185/11/44
f 183/83/44 185/11/44 186/31/44
f 187/84/6 188/85/6 189/8/6
f 187/84/6 189/8/6 190/9/6
s 1
f 191/86/45 192/87/45 193/81/45
s 0
f 191/86/45 193/81/45 194/83/45
f 195/9/46 196/8/46 197/85/46
f 195/9/46 197/85/46 198/84/46
s 1
f 199/32/47 200/33/48 201/10/48
f 199/32/47 201/10/48 202/88/48
s 0
f 203/82/49 204/81/49 205/87/49
f 203/82/49 205/87/49 206/86/49
s 1
f 207/68/50 208/68/51 209/70/52
f 207/68/50 209/70/52 210/69/52
f 211/34/53 212/40/53 213/2/53
f 211/34/53 213/2/53 214/1/53
f 215/35/54 216/34/54 217/1/54
f 215/35/54 217/1/54 218/49/55
s 0
f 219/59/5 220/58/5 221/89/5
f 219/59/5 221/89/5 222/90/5
s 1
f 223/90/56 224/89/57 225/91/58
f 223/90/56 225/91/58 226/92/58
s 0
f 227/28/41 228/27/41 229/60/41
f 227/28/41 229/60/41 230/53/41
s 1
f 231/62/59 232/92/60 233/91/61
f 231/62/59 233/91/61 234/63/59
f 235/93/62 236/94/62 237/77/62
f 235/93/62 237/77/62 238/76/63
s 0
f 239/9/6 240/95/6 241/96/6
f 239/9/6 241/96/6 242/84/6
f 243/54/45 244/97/45 245/98/45
f 243/54/45 245/98/45 246/6/45
s 1
f 247/73/64 248/94/65 249/93/64
f 247/73/64 249/93/64 250/74/64
f 251/74/66 252/73/66 253/80/66
f 251/74/66 253/80/66 254/79/66
f 255/47/67 256/34/68 257/4/68
f 255/47/67 257/4/68 258/52/68
f 259/99/69 260/56/70 261/34/71
f 259/99/69 261/34/71 262/36/72
f 263/38/73 264/37/73 265/56/73
f 263/38/73 265/56/73 266/99/73
