# Blender 4.3.0
# www.blender.org
o veg_nenufar02_vegetattion_mat_0.001
v 0.389109 -0.000676 0.265808
v 0.457425 -0.000676 0.131729
v 0.480963 -0.000676 -0.016899
v 0.457425 -0.000676 -0.165525
v 0.389109 -0.000676 -0.299602
v 0.282704 -0.000676 -0.406005
v 0.148626 -0.000676 -0.474321
v 0.000000 -0.000676 -0.497863
v -0.148626 -0.000676 -0.474321
v -0.282704 -0.000676 -0.406005
v -0.389110 -0.000676 -0.299602
v -0.457424 -0.000676 -0.165525
v -0.173167 -0.000676 -0.005418
v -0.457424 -0.000676 0.131729
v -0.389110 -0.000676 0.265808
v -0.282704 -0.000676 0.372211
v -0.148626 -0.000676 0.440529
v 0.000000 -0.000676 0.464067
v 0.148626 -0.000676 0.440529
v 0.282704 -0.000676 0.372211
v -0.201825 -0.000676 -0.061110
v -0.461595 -0.000676 -0.139187
v -0.054732 -0.000676 -0.016899
v -0.462649 -0.000676 0.098740
v -0.018542 -0.000676 -0.006021
v -0.018542 -0.000676 -0.007350
v -0.021006 -0.000676 -0.006761
vn -0.0000 1.0000 -0.0000
vt 0.426091 0.814304
vt 0.491563 0.814304
vt 0.458827 0.819489
vt 0.396559 0.799257
vt 0.521095 0.799257
vt 0.373123 0.775820
vt 0.544531 0.775820
vt 0.358076 0.746289
vt 0.559578 0.746289
vt 0.414373 0.723291
vt 0.357157 0.740488
vt 0.352891 0.713553
vt 0.446772 0.713553
vt 0.564763 0.713553
vt 0.454200 0.711320
vt 0.454743 0.711450
vt 0.454743 0.711157
vt 0.358076 0.680817
vt 0.559578 0.680817
vt 0.544531 0.651285
vt 0.373123 0.651285
vt 0.396559 0.627849
vt 0.521095 0.627849
vt 0.426091 0.612802
vt 0.491563 0.612802
vt 0.458827 0.607617
vt 0.356925 0.688083
s 1
f 9/1/1 7/2/1 8/3/1
f 7/2/1 9/1/1 10/4/1
f 7/2/1 10/4/1 6/5/1
f 6/5/1 10/4/1 11/6/1
f 6/5/1 11/6/1 5/7/1
f 11/6/1 12/8/1 5/7/1
f 5/7/1 12/8/1 4/9/1
f 21/10/1 12/8/1 22/11/1
f 22/11/1 13/12/1 21/10/1
f 4/9/1 23/13/1 3/14/1
f 21/10/1 13/12/1 23/13/1
f 23/13/1 27/15/1 26/16/1
f 25/17/1 26/16/1 27/15/1
f 14/18/1 3/14/1 25/17/1
f 13/12/1 27/15/1 23/13/1
f 14/18/1 2/19/1 3/14/1
f 14/18/1 1/20/1 2/19/1
f 14/18/1 15/21/1 1/20/1
f 1/20/1 15/21/1 16/22/1
f 1/20/1 16/22/1 20/23/1
f 20/23/1 16/22/1 17/24/1
f 20/23/1 17/24/1 19/25/1
f 19/25/1 17/24/1 18/26/1
f 21/10/1 4/9/1 12/8/1
f 4/9/1 21/10/1 23/13/1
f 27/15/1 24/27/1 14/18/1
f 3/14/1 23/13/1 26/16/1
f 25/17/1 27/15/1 14/18/1
f 3/14/1 26/16/1 25/17/1
f 13/12/1 24/27/1 27/15/1
