# Blender 5.1.2
# www.blender.org
o Tree.074_Mat_Tree_0
v -2.661253 10.366547 1.305528
v -2.561182 10.624043 1.242738
v -2.661253 10.526436 1.268268
v -2.280519 10.366547 0.646075
v -2.386426 10.526435 0.591065
v -2.312788 10.624043 0.664705
v -2.420684 10.526435 0.625324
v -2.356225 10.526435 0.689784
v -2.356225 10.624043 0.689784
v -2.661253 10.526436 1.218110
v -2.837363 10.526436 1.170923
v -2.837363 10.624043 1.170923
v -2.837363 10.526435 0.560863
v -3.013471 10.526435 0.865893
v -2.661253 10.526435 0.513675
v -2.485144 10.526435 0.560863
v -2.420684 10.526435 0.625324
v -3.013471 10.526435 0.865893
v -2.356225 10.526435 0.689784
v -2.356225 10.526435 0.689784
v -3.013471 10.526435 0.865893
v -2.309036 10.526435 0.865893
v -2.309036 10.526435 0.865893
v -2.356225 10.526435 1.042001
v -2.485145 10.526436 1.170923
v -2.661253 10.526436 1.218110
v -2.837363 10.526436 1.170923
v -2.966283 10.526435 1.042001
v -2.966283 10.526435 0.689784
v -3.063628 10.624043 0.865893
v -3.009720 10.973213 0.664705
v -3.009720 10.624043 0.664705
v -2.661253 10.624043 0.513675
v -2.728698 10.797804 0.531747
v -2.837363 10.797804 0.560863
v -2.485144 10.624043 0.560863
v -2.485144 10.526435 0.560863
v -2.441437 10.366547 0.485157
v -2.386426 10.526435 0.591065
v -2.280519 10.366547 0.646075
v -2.420684 10.526435 0.625324
v -2.391551 10.118548 1.317627
v -2.188553 10.118548 1.324293
v -2.441437 10.366547 1.246629
v -2.221618 10.366547 0.865893
v -2.020357 10.118548 1.032405
v -2.112520 10.118548 0.834332
v -2.460066 10.624043 0.517426
v -2.386426 10.526435 0.591065
v -2.441437 10.366547 0.485157
v -2.949613 10.118548 0.351035
v -2.881071 10.366547 0.485157
v -2.661253 10.366547 0.426257
v -2.669750 10.118548 0.246750
v -2.932822 10.118548 1.277209
v -2.881071 10.366547 1.246629
v -3.041988 10.366547 1.085711
v -3.153877 10.118548 1.113363
v -2.669750 10.118548 0.246750
v -2.661253 10.366547 0.426257
v -2.441437 10.366547 0.485157
v -2.390719 10.118548 0.321516
v -3.122556 10.118548 0.576037
v -3.041988 10.366547 0.646075
v -2.881071 10.366547 0.485157
v -2.949613 10.118548 0.351035
v -2.653790 10.118548 1.351975
v -2.661253 10.366547 1.305528
v -2.881071 10.366547 1.246629
v -2.932822 10.118548 1.277209
v -3.197322 10.118548 0.855067
v -3.100888 10.366547 0.865893
v -3.041988 10.366547 0.646075
v -3.122556 10.118548 0.576037
v -2.187285 10.118548 0.555300
v -2.280519 10.366547 0.646075
v -2.221618 10.366547 0.865893
v -2.112520 10.118548 0.834332
v -3.153877 10.118548 1.113363
v -3.041988 10.366547 1.085711
v -3.100888 10.366547 0.865893
v -3.197322 10.118548 0.855067
v -2.661253 10.366547 1.305528
v -2.661253 10.526436 1.268268
v -2.862442 10.624043 1.214360
v -2.881071 10.366547 1.246629
v -3.100888 10.366547 0.865893
v -3.063628 10.624043 0.865893
v -3.009720 10.624043 0.664705
v -3.041988 10.366547 0.646075
v -2.280519 10.366547 0.646075
v -2.312788 10.624043 0.664705
v -2.258878 10.624043 0.865893
v -2.221618 10.366547 0.865893
v -3.041988 10.366547 1.085711
v -3.009720 10.624043 1.067080
v -3.063628 10.624043 0.865893
v -3.100888 10.366547 0.865893
v -2.881071 10.366547 0.485157
v -2.862442 10.624043 0.517426
v -2.661253 10.624043 0.463518
v -2.661253 10.366547 0.426257
v -2.283939 10.393841 1.083735
v -2.312788 10.624043 1.067080
v -2.460066 10.624043 1.214360
v -2.441437 10.366547 1.246629
v -2.881071 10.366547 1.246629
v -2.862442 10.624043 1.214360
v -3.009720 10.624043 1.067080
v -3.041988 10.366547 1.085711
v -2.661253 10.366547 0.426257
v -2.661253 10.624043 0.463518
v -2.460066 10.624043 0.517426
v -2.441437 10.366547 0.485157
v -3.041988 10.366547 0.646075
v -3.009720 10.624043 0.664705
v -2.862442 10.624043 0.517426
v -2.881071 10.366547 0.485157
v -2.221618 10.366547 0.865893
v -2.258878 10.624043 0.865893
v -2.312788 10.624043 1.067080
v -2.283939 10.393841 1.083735
v -2.661253 10.624043 0.463518
v -2.738302 10.797804 0.484163
v -2.728698 10.797804 0.531747
v -2.661253 10.624043 0.513675
v -2.862442 10.624043 0.517426
v -2.862442 10.797804 0.517426
v -2.738302 10.797804 0.484163
v -2.661253 10.624043 0.463518
v -3.013471 10.624043 0.865893
v -3.063628 10.624043 0.865893
v -3.009720 10.624043 1.067080
v -2.966283 10.624043 1.042001
v -2.966283 10.624043 1.042001
v -3.009720 10.624043 1.067080
v -2.862442 10.624043 1.214360
v -2.837363 10.624043 1.170923
v -2.837363 10.624043 1.170923
v -2.862442 10.624043 1.214360
v -2.661253 10.526436 1.268268
v -2.661253 10.526436 1.218110
v -2.574479 10.624043 1.193915
v -2.561182 10.624043 1.242738
v -2.460066 10.624043 1.214360
v -2.485145 10.624043 1.170923
v -2.485145 10.624043 1.170923
v -2.460066 10.624043 1.214360
v -2.312788 10.624043 1.067080
v -2.356225 10.624043 1.042001
v -2.309036 10.624043 0.865893
v -2.324950 10.752399 0.925283
v -2.277058 10.752399 0.933741
v -2.258878 10.624043 0.865893
v -2.309036 10.624043 0.865893
v -2.258878 10.624043 0.865893
v -2.312788 10.624043 0.664705
v -2.356225 10.624043 0.689784
v -2.420684 10.526435 0.625324
v -2.386426 10.526435 0.591065
v -2.460066 10.624043 0.517426
v -2.485144 10.624043 0.560863
v -2.485144 10.624043 0.560863
v -2.460066 10.624043 0.517426
v -2.661253 10.624043 0.463518
v -2.661253 10.624043 0.513675
v -2.837363 10.797804 0.560863
v -2.837363 10.526435 0.560863
v -2.661253 10.526435 0.513675
v -2.661253 10.624043 0.513675
v -2.356225 10.624043 1.042001
v -2.356225 10.526435 1.042001
v -2.485145 10.526436 1.170923
v -2.485145 10.624043 1.170923
v -2.837363 10.624043 1.170923
v -2.837363 10.526436 1.170923
v -2.966283 10.526435 1.042001
v -2.966283 10.624043 1.042001
v -2.661253 10.624043 0.513675
v -2.661253 10.526435 0.513675
v -2.485144 10.526435 0.560863
v -2.485144 10.624043 0.560863
v -2.966283 10.973213 0.689784
v -2.966283 10.526435 0.689784
v -2.837363 10.526435 0.560863
v -2.837363 10.797804 0.560863
v -2.309036 10.624043 0.865893
v -2.309036 10.526435 0.865893
v -2.356225 10.526435 1.042001
v -2.356225 10.624043 1.042001
v -3.013471 10.624043 0.865893
v -3.013471 10.526435 0.865893
v -2.966283 10.526435 0.689784
v -2.966283 10.973213 0.689784
v -2.356225 10.624043 0.689784
v -2.356225 10.526435 0.689784
v -2.309036 10.526435 0.865893
v -2.309036 10.624043 0.865893
v -2.485145 10.624043 1.170923
v -2.485145 10.526436 1.170923
v -2.661253 10.526436 1.218110
v -2.574479 10.624043 1.193915
v -2.966283 10.624043 1.042001
v -2.966283 10.526435 1.042001
v -3.013471 10.526435 0.865893
v -3.013471 10.624043 0.865893
v -2.661253 10.526436 1.218110
v -2.661253 10.526436 1.268268
v -2.561182 10.624043 1.242738
v -2.574479 10.624043 1.193915
v -2.441437 10.366547 1.246629
v -2.460066 10.624043 1.214360
v -2.561182 10.624043 1.242738
v -2.661253 10.366547 1.305528
v -2.391551 10.118548 1.317627
v -2.441437 10.366547 1.246629
v -2.661253 10.366547 1.305528
v -2.653790 10.118548 1.351975
v -2.728698 10.797804 0.531747
v -2.738302 10.797804 0.484163
v -2.862442 10.797804 0.517426
v -2.837363 10.797804 0.560863
v -2.837363 10.797804 0.560863
v -2.862442 10.797804 0.517426
v -3.009720 10.973213 0.664705
v -2.966283 10.973213 0.689784
v -3.009720 10.624043 0.664705
v -3.009720 10.973213 0.664705
v -2.862442 10.797804 0.517426
v -2.862442 10.624043 0.517426
v -3.013471 10.624043 0.865893
v -2.966283 10.973213 0.689784
v -3.009720 10.973213 0.664705
v -3.063628 10.624043 0.865893
v -2.341305 10.798244 0.986319
v -2.295743 10.798244 1.003469
v -2.277058 10.752399 0.933741
v -2.324950 10.752399 0.925283
v -2.356225 10.624043 1.042001
v -2.341305 10.798244 0.986319
v -2.324950 10.752399 0.925283
v -2.309036 10.624043 0.865893
v -2.258878 10.624043 0.865893
v -2.277058 10.752399 0.933741
v -2.295743 10.798244 1.003469
v -2.312788 10.624043 1.067080
v -2.312788 10.624043 1.067080
v -2.295743 10.798244 1.003469
v -2.341305 10.798244 0.986319
v -2.356225 10.624043 1.042001
v -2.356225 10.624043 0.689784
v -2.312788 10.624043 0.664705
v -2.386426 10.526435 0.591065
v -2.420684 10.526435 0.625324
v -2.390719 10.118548 0.321516
v -2.441437 10.366547 0.485157
v -2.280519 10.366547 0.646075
v -2.187285 10.118548 0.555300
v -2.023238 10.118548 1.247453
v -2.283939 10.393841 1.083735
v -2.441437 10.366547 1.246629
v -2.188553 10.118548 1.324293
v -2.020357 10.118548 1.032405
v -2.221618 10.366547 0.865893
v -2.283939 10.393841 1.083735
v -2.023238 10.118548 1.247453
vn 0.0271 0.2269 0.9735
vn 0.6073 0.1328 -0.7833
vn -0.7071 -0.0000 0.7071
vn 0.2588 -0.0000 -0.9659
vn -0.0000 1.0000 -0.0000
vn -0.9659 -0.0000 -0.2588
vn 0.2588 -0.0000 0.9659
vn 0.6898 0.2196 -0.6898
vn -0.0316 0.2692 0.9626
vn 0.8260 0.4123 -0.3843
vn 0.7833 0.1328 -0.6073
vn -0.2604 0.5446 -0.7973
vn -0.6199 0.2901 0.7291
vn 0.2130 0.5681 -0.7949
vn -0.6773 0.4448 -0.5860
vn -0.2550 0.1706 0.9518
vn -0.9009 0.3608 -0.2414
vn 0.8782 0.4163 -0.2353
vn -0.9023 0.3855 0.1931
vn -0.9022 0.3855 0.1932
vn -0.2181 0.1698 0.9610
vn -0.2181 0.1699 0.9610
vn -0.2182 0.1698 0.9610
vn -0.9566 0.1384 -0.2563
vn 0.9566 0.1384 -0.2563
vn -0.9566 0.1384 0.2563
vn -0.2563 0.1384 -0.9566
vn 0.7003 0.1384 0.7003
vn -0.7003 0.1384 0.7003
vn 0.2563 0.1384 -0.9566
vn -0.7003 0.1384 -0.7003
vn 0.9566 0.1384 0.2563
vn 0.9160 0.3909 -0.0900
vn 0.9160 0.3909 -0.0901
vn -0.2588 -0.0000 -0.9659
vn 0.4318 0.8945 0.1157
vn 0.0767 0.4509 -0.8893
vn 0.5643 0.7041 0.4310
vn 0.5644 0.7041 0.4310
vn -0.7071 -0.0000 -0.7071
vn 0.7071 -0.0000 -0.7071
vn -0.2588 -0.0000 0.9659
vn 0.7071 -0.0000 0.7071
vn 0.9659 -0.0000 0.2588
vn -0.9659 -0.0000 0.2588
vn -0.2558 -0.0058 -0.9667
vn -0.2556 -0.0062 -0.9668
vn -0.2555 -0.0063 -0.9668
vn 0.9659 -0.0000 -0.2588
vn -0.7069 0.7009 0.0950
vn -0.7070 0.7008 0.0949
vn -0.7070 0.7008 0.0950
vn 0.2600 0.1354 0.9561
vn 0.1841 0.2466 0.9515
vn 0.1840 0.2466 0.9515
vn 0.4738 0.7427 -0.4732
vn 0.4725 0.7440 -0.4724
vn 0.4725 0.7440 -0.4725
vn -0.2258 0.4882 0.8430
vn -0.2259 0.4882 0.8430
vn -0.2259 0.4881 0.8430
vn 0.1482 0.8280 -0.5408
vn 0.1482 0.8279 -0.5409
vn -0.4048 0.3292 0.8531
vn -0.4047 0.3293 0.8531
vn -0.4310 0.7041 -0.5643
vn 0.6410 0.4892 -0.5915
vn 0.6408 0.4894 -0.5915
vn 0.4006 0.6777 0.6166
vn 0.4007 0.6777 0.6166
vn 0.4006 0.6777 0.6167
vn 0.4006 0.6776 0.6168
vn 0.7269 0.6836 0.0664
vt 0.314834 0.813493
vt 0.314987 0.782375
vt 0.314834 0.794171
vt 0.315415 0.813493
vt 0.315254 0.794171
vt 0.315366 0.782375
vt 0.258632 0.767701
vt 0.258677 0.767701
vt 0.258677 0.762233
vt 0.258461 0.767701
vt 0.258336 0.767701
vt 0.258336 0.762233
vt 0.212900 0.748386
vt 0.212651 0.748386
vt 0.213150 0.748386
vt 0.213399 0.748386
vt 0.213491 0.748386
vt 0.213582 0.748386
vt 0.213649 0.748386
vt 0.212718 0.748386
vt 0.314219 0.782375
vt 0.314301 0.740179
vt 0.314301 0.782375
vt 0.258461 0.762233
vt 0.258413 0.752500
vt 0.258336 0.752500
vt 0.258586 0.762233
vt 0.258586 0.767701
vt 0.315169 0.813493
vt 0.315246 0.843463
vt 0.315556 0.843463
vt 0.315505 0.813493
vt 0.315813 0.843463
vt 0.315672 0.843463
vt 0.315141 0.782375
vt 0.314393 0.843463
vt 0.314498 0.813493
vt 0.314821 0.843463
vt 0.314419 0.843463
vt 0.314252 0.813493
vt 0.314081 0.843463
vt 0.315247 0.843463
vt 0.314129 0.843463
vt 0.314845 0.843463
vt 0.314014 0.843463
vt 0.314162 0.813493
vt 0.315558 0.843463
vt 0.314526 0.782375
vt 0.315448 0.782375
vt 0.314834 0.782375
vt 0.315410 0.810195
vt 0.212172 0.761655
vt 0.212130 0.754224
vt 0.212135 0.754224
vt 0.314526 0.761377
vt 0.314716 0.761377
vt 0.211981 0.761655
vt 0.211954 0.761655
vt 0.211983 0.761655
vt 0.212007 0.761655
vt 0.212063 0.761655
vt 0.212076 0.761655
vt 0.212172 0.765830
vt 0.212219 0.761655
vt 0.212226 0.761655
vt 0.212280 0.761655
vt 0.212267 0.761655
vt 0.212360 0.761655
vt 0.212337 0.761655
vt 0.212362 0.761655
vt 0.212354 0.756166
vt 0.212379 0.756166
vt 0.212389 0.761655
vt 0.212302 0.765830
vt 0.212320 0.765830
vt 0.258245 0.767701
vt 0.258245 0.762233
vt 0.258245 0.742674
vt 0.258711 0.762233
vt 0.258711 0.767701
vt 0.258212 0.762233
vt 0.258212 0.767701
vt 0.258523 0.762233
vt 0.212063 0.754224
vt 0.212076 0.754224
vt 0.211983 0.746722
vt 0.212007 0.746722
vt 0.212345 0.754205
vt 0.212369 0.754205
vt 0.258688 0.752475
vt 0.258699 0.755043
vt 0.315421 0.766864
vt 0.315392 0.761324
vt 0.315809 0.843463
s 1
f 1/1/1 2/2/1 3/3/1
f 4/4/2 5/5/2 6/6/2
f 7/7/3 8/8/3 9/9/3
f 10/10/4 11/11/4 12/12/4
f 13/13/5 14/14/5 15/15/5
f 15/15/5 14/14/5 16/16/5
f 17/17/5 18/14/5 19/18/5
f 20/18/5 21/14/5 22/19/5
f 23/19/5 14/14/5 24/18/5
f 24/18/5 14/14/5 25/16/5
f 25/16/5 14/14/5 26/15/5
f 26/15/5 14/14/5 27/13/5
f 27/13/5 14/14/5 28/20/5
f 29/20/5 14/14/5 13/13/5
f 30/21/6 31/22/6 32/23/6
f 33/24/7 34/25/7 35/26/7
f 36/27/3 37/28/3 7/7/3
f 38/29/8 39/5/8 40/4/8
f 16/16/5 14/14/5 41/17/5
f 42/30/9 43/31/9 44/29/9
f 45/32/10 46/33/10 47/34/10
f 48/35/11 49/5/11 50/29/11
f 51/36/12 52/37/12 53/1/12
f 51/36/12 53/1/12 54/38/12
f 55/39/13 56/37/13 57/40/13
f 55/39/13 57/40/13 58/41/13
f 59/38/14 60/1/14 61/29/14
f 59/38/14 61/29/14 62/42/14
f 63/43/15 64/40/15 65/37/15
f 63/43/15 65/37/15 66/36/15
f 67/44/16 68/1/16 69/37/16
f 67/44/16 69/37/16 70/39/16
f 71/45/17 72/46/17 73/40/17
f 71/45/17 73/40/17 74/43/17
f 75/47/18 76/4/18 77/32/18
f 75/47/18 77/32/18 78/34/18
f 79/41/19 80/40/19 81/46/20
f 79/41/19 81/46/20 82/45/19
f 83/1/21 84/3/21 85/48/22
f 83/1/21 85/48/22 86/37/23
f 87/46/24 88/21/24 89/23/24
f 87/46/24 89/23/24 90/40/24
f 91/4/25 92/6/25 93/49/25
f 91/4/25 93/49/25 94/32/25
f 95/40/26 96/23/26 97/21/26
f 95/40/26 97/21/26 98/46/26
f 99/37/27 100/48/27 101/50/27
f 99/37/27 101/50/27 102/1/27
f 103/51/28 104/6/28 105/35/28
f 103/51/28 105/35/28 106/29/28
f 107/37/29 108/48/29 109/23/29
f 107/37/29 109/23/29 110/40/29
f 111/1/30 112/50/30 113/35/30
f 111/1/30 113/35/30 114/29/30
f 115/40/31 116/23/31 117/48/31
f 115/40/31 117/48/31 118/37/31
f 119/32/32 120/49/32 121/6/32
f 119/32/32 121/6/32 122/51/32
f 123/52/33 124/53/34 125/54/33
f 123/52/33 125/54/33 126/52/33
f 127/48/35 128/55/35 129/56/35
f 127/48/35 129/56/35 130/50/35
f 131/57/5 132/58/5 133/59/5
f 131/57/5 133/59/5 134/60/5
f 135/60/5 136/59/5 137/61/5
f 135/60/5 137/61/5 138/62/5
f 139/62/36 140/61/36 141/63/36
f 139/62/36 141/63/36 142/63/36
f 143/64/5 144/65/5 145/66/5
f 143/64/5 145/66/5 146/67/5
f 147/67/5 148/66/5 149/68/5
f 147/67/5 149/68/5 150/69/5
f 151/70/37 152/71/37 153/72/37
f 151/70/37 153/72/37 154/73/37
f 155/70/5 156/73/5 157/68/5
f 155/70/5 157/68/5 158/69/5
f 159/74/38 160/75/38 161/66/38
f 159/74/38 161/66/38 162/67/39
f 163/67/5 164/66/5 165/52/5
f 163/67/5 165/52/5 166/52/5
f 167/26/7 168/11/7 169/10/7
f 167/26/7 169/10/7 170/24/7
f 171/9/40 172/8/40 173/28/40
f 171/9/40 173/28/40 174/27/40
f 175/12/41 176/11/41 177/76/41
f 175/12/41 177/76/41 178/77/41
f 179/24/42 180/10/42 181/28/42
f 179/24/42 181/28/42 182/27/42
f 183/78/43 184/76/43 185/11/43
f 183/78/43 185/11/43 186/26/43
f 187/79/6 188/80/6 189/8/6
f 187/79/6 189/8/6 190/9/6
f 191/81/44 192/82/44 193/76/44
f 191/81/44 193/76/44 194/78/44
f 195/9/45 196/8/45 197/80/45
f 195/9/45 197/80/45 198/79/45
f 199/27/46 200/28/47 201/10/48
f 199/27/46 201/10/48 202/83/47
f 203/77/49 204/76/49 205/82/49
f 203/77/49 205/82/49 206/81/49
f 207/63/50 208/63/51 209/65/52
f 207/63/50 209/65/52 210/64/52
f 211/29/53 212/35/53 213/2/53
f 211/29/53 213/2/53 214/1/53
f 215/30/54 216/29/54 217/1/54
f 215/30/54 217/1/54 218/44/55
f 219/54/5 220/53/5 221/84/5
f 219/54/5 221/84/5 222/85/5
f 223/85/56 224/84/57 225/86/58
f 223/85/56 225/86/58 226/87/58
f 227/23/40 228/22/40 229/55/40
f 227/23/40 229/55/40 230/48/40
f 231/57/59 232/87/60 233/86/61
f 231/57/59 233/86/61 234/58/59
f 235/88/62 236/89/62 237/72/62
f 235/88/62 237/72/62 238/71/63
f 239/9/6 240/90/6 241/91/6
f 239/9/6 241/91/6 242/79/6
f 243/49/44 244/92/44 245/93/44
f 243/49/44 245/93/44 246/6/44
f 247/68/64 248/89/65 249/88/64
f 247/68/64 249/88/64 250/69/64
f 251/69/66 252/68/66 253/75/66
f 251/69/66 253/75/66 254/74/66
f 255/42/67 256/29/68 257/4/68
f 255/42/67 257/4/68 258/47/68
f 259/94/69 260/51/70 261/29/71
f 259/94/69 261/29/71 262/31/72
f 263/33/73 264/32/73 265/51/73
f 263/33/73 265/51/73 266/94/73
