# Blender 4.3.0
# www.blender.org
o leg.001_Baked_leg.001_Bake1_baked_0.011
v 0.002767 -0.029985 0.039542
v 0.017642 -0.030158 0.025526
v 0.025888 -0.000624 0.019246
v -0.003863 -0.000279 0.047279
v 0.019258 0.029082 0.026982
v 0.004383 0.029255 0.040998
v -0.157607 0.026905 -0.175611
v -0.165853 -0.002629 -0.169331
v -0.180728 -0.002456 -0.155315
v -0.187357 0.027250 -0.147579
v -0.164237 0.056611 -0.167876
v -0.179112 0.056784 -0.153859
v -0.164237 0.056611 -0.167876
v 0.004383 0.029255 0.040998
v 0.019258 0.029082 0.026982
v -0.179112 0.056784 -0.153859
v -0.157607 0.026905 -0.175611
v 0.019258 0.029082 0.026982
v 0.025888 -0.000624 0.019246
v -0.164237 0.056611 -0.167876
v -0.179112 0.056784 -0.153859
v -0.003863 -0.000279 0.047279
v 0.004383 0.029255 0.040998
v -0.187357 0.027250 -0.147579
v -0.187357 0.027250 -0.147579
v 0.002767 -0.029985 0.039542
v -0.003863 -0.000279 0.047279
v -0.180728 -0.002456 -0.155315
v -0.180728 -0.002456 -0.155315
v 0.017642 -0.030158 0.025526
v 0.002767 -0.029985 0.039542
v -0.165853 -0.002629 -0.169331
v -0.165853 -0.002629 -0.169331
v 0.025888 -0.000624 0.019246
v 0.017642 -0.030158 0.025526
v -0.157607 0.026905 -0.175611
vn 0.6851 -0.0366 0.7275
vn -0.6851 0.0366 -0.7275
vn 0.0763 0.9947 0.0687
vn 0.7116 0.3215 -0.6247
vn -0.6641 0.3283 0.6717
vn -0.7116 -0.3215 0.6247
vn -0.0763 -0.9947 -0.0687
vn 0.6641 -0.3283 -0.6717
vt 0.861602 0.412651
vt 0.854499 0.421577
vt 0.838810 0.421643
vt 0.853016 0.403791
vt 0.830224 0.412783
vt 0.837327 0.403856
vt 0.353796 0.161520
vt 0.338106 0.161460
vt 0.330992 0.152522
vt 0.339568 0.143644
vt 0.362372 0.152642
vt 0.355257 0.143704
vt 0.967755 0.557952
vt 0.982984 0.560424
vt 0.982984 0.719948
vt 0.967755 0.717476
vt 0.922699 0.753701
vt 0.937923 0.752315
vt 0.937923 0.944887
vt 0.922699 0.946272
vt 0.845913 0.248318
vt 0.861602 0.248252
vt 0.931679 0.718321
vt 0.916456 0.716963
vt 0.916456 0.523798
vt 0.931679 0.525155
vt 0.969924 0.072495
vt 0.985133 0.069964
vt 0.985133 0.228974
vt 0.969924 0.231505
vt 0.362372 0.316865
vt 0.346682 0.316805
s 1
f 1/1/1 2/2/1 3/3/1
f 3/3/1 4/4/1 1/1/1
f 3/3/1 5/5/1 4/4/1
f 5/5/1 6/6/1 4/4/1
f 7/7/2 8/8/2 9/9/2
f 9/9/2 10/10/2 7/7/2
f 10/10/2 11/11/2 7/7/2
f 10/10/2 12/12/2 11/11/2
f 13/13/3 16/14/3 14/15/3
f 13/13/3 14/15/3 15/16/3
f 17/17/4 20/18/4 18/19/4
f 17/17/4 18/19/4 19/20/4
f 21/21/5 24/22/5 22/4/5
f 21/21/5 22/4/5 23/6/5
f 25/23/6 28/24/6 26/25/6
f 25/23/6 26/25/6 27/26/6
f 29/27/7 32/28/7 30/29/7
f 29/27/7 30/29/7 31/30/7
f 33/8/8 36/7/8 34/31/8
f 33/8/8 34/31/8 35/32/8
