# Blender 4.3.0
# www.blender.org
mtllib bettle_leg_front1.mtl
o leg.001_Baked_leg.001_Bake1_baked_0.015
v -0.144933 -0.041917 0.110255
v -0.136776 0.005005 0.130650
v -0.144272 0.060224 0.119482
v -0.159924 0.068523 0.087918
v -0.160586 -0.033618 0.078692
v -0.168082 0.021602 0.067523
v -0.144272 0.060224 0.119482
v 0.006381 0.020069 0.061065
v -0.001115 0.075289 0.049897
v -0.136776 0.005005 0.130650
v -0.168082 0.021602 0.067523
v -0.016768 0.083588 0.018334
v -0.024925 0.036667 -0.002061
v -0.159924 0.068523 0.087918
v -0.159924 0.068523 0.087918
v -0.001115 0.075289 0.049897
v -0.016768 0.083588 0.018334
v -0.144272 0.060224 0.119482
v -0.136776 0.005005 0.130650
v -0.001776 -0.026852 0.040670
v 0.006381 0.020069 0.061065
v -0.144933 -0.041917 0.110255
v -0.144933 -0.041917 0.110255
v -0.017429 -0.018553 0.009107
v -0.001776 -0.026852 0.040670
v -0.160586 -0.033618 0.078692
v -0.160586 -0.033618 0.078692
v -0.024925 0.036667 -0.002061
v -0.017429 -0.018553 0.009107
v -0.168082 0.021602 0.067523
v -0.001115 0.075289 0.049897
v 0.006381 0.020069 0.061065
v -0.001776 -0.026852 0.040670
v -0.016768 0.083588 0.018334
v -0.017429 -0.018553 0.009107
v -0.024925 0.036667 -0.002061
vn -0.8989 -0.0336 0.4369
vn -0.8989 -0.0337 0.4369
vn 0.4050 0.2338 0.8839
vn -0.4319 0.4216 -0.7973
vn 0.0176 0.9691 0.2461
vn 0.4319 -0.4216 0.7973
vn -0.0176 -0.9691 -0.2461
vn -0.4050 -0.2338 -0.8839
vn 0.8989 0.0337 -0.4369
vn 0.8989 0.0336 -0.4369
vt 0.368926 0.119844
vt 0.350115 0.132262
vt 0.331304 0.117472
vt 0.331304 0.090264
vt 0.368926 0.092636
vt 0.350115 0.077845
vt 0.257016 0.071338
vt 0.284372 0.071779
vt 0.284372 0.181802
vt 0.257016 0.181361
vt 0.049053 0.275719
vt 0.023356 0.272799
vt 0.023356 0.156498
vt 0.049053 0.159418
vt 0.002336 0.278226
vt 0.002336 0.161925
vt 0.100410 0.275300
vt 0.074680 0.278229
vt 0.074680 0.162093
vt 0.100410 0.159163
vt 0.053723 0.272707
vt 0.053723 0.156571
vt 0.254281 0.181354
vt 0.226925 0.181798
vt 0.226925 0.071695
vt 0.254281 0.071251
vt 0.810132 0.468422
vt 0.810132 0.492395
vt 0.788770 0.499475
vt 0.788770 0.451529
vt 0.767408 0.482583
vt 0.767408 0.458610
s 1
usemtl leg.001_Bake1_baked.025
f 1/1/1 2/2/1 3/3/1
f 3/3/1 4/4/1 1/1/1
f 4/4/1 5/5/1 1/1/1
f 4/4/1 6/6/2 5/5/1
f 7/7/3 10/8/3 8/9/3
f 7/7/3 8/9/3 9/10/3
f 11/11/4 14/12/4 12/13/4
f 11/11/4 12/13/4 13/14/4
f 15/12/5 18/15/5 16/16/5
f 15/12/5 16/16/5 17/13/5
f 19/17/6 22/18/6 20/19/6
f 19/17/6 20/19/6 21/20/6
f 23/18/7 26/21/7 24/22/7
f 23/18/7 24/22/7 25/19/7
f 27/23/8 30/24/8 28/25/8
f 27/23/8 28/25/8 29/26/8
f 31/27/9 32/28/9 33/29/9
f 33/29/9 34/30/9 31/27/9
f 33/29/9 35/31/10 34/30/9
f 35/31/10 36/32/10 34/30/9
