# Blender 4.3.0
# www.blender.org
o leg.001_Baked_leg.001_Bake1_baked_0.018
v -0.014811 0.059220 0.049027
v -0.021101 0.001708 0.060759
v -0.008127 -0.046322 0.041655
v 0.004452 0.068703 0.018190
v 0.011136 -0.036838 0.010818
v 0.017425 0.020674 -0.000915
v -0.107208 0.013918 -0.079509
v 0.004452 0.068703 0.018190
v 0.017425 0.020674 -0.000915
v -0.120182 0.061947 -0.060404
v -0.120182 0.061947 -0.060404
v -0.014811 0.059220 0.049027
v 0.004452 0.068703 0.018190
v -0.139444 0.052464 -0.029568
v -0.139444 0.052464 -0.029568
v -0.021101 0.001708 0.060759
v -0.014811 0.059220 0.049027
v -0.145734 -0.005048 -0.017835
v -0.145734 -0.005048 -0.017835
v -0.008127 -0.046322 0.041655
v -0.021101 0.001708 0.060759
v -0.132761 -0.053077 -0.036939
v -0.132761 -0.053077 -0.036939
v 0.011136 -0.036838 0.010818
v -0.008127 -0.046322 0.041655
v -0.113498 -0.043594 -0.067776
v -0.113498 -0.043594 -0.067776
v 0.017425 0.020674 -0.000915
v 0.011136 -0.036838 0.010818
v -0.107208 0.013918 -0.079509
v -0.132761 -0.053077 -0.036939
v -0.145734 -0.005048 -0.017835
v -0.139444 0.052464 -0.029568
v -0.120182 0.061947 -0.060404
v -0.113498 -0.043594 -0.067776
v -0.107208 0.013918 -0.079509
vn 0.8457 0.0163 0.5333
vn 0.8458 0.0163 0.5333
vn 0.4640 0.4328 -0.7729
vn -0.1721 0.9666 0.1898
vn -0.5284 0.2248 0.8187
vn -0.4640 -0.4328 0.7729
vn 0.1721 -0.9666 -0.1898
vn 0.5284 -0.2248 -0.8187
vn -0.8457 -0.0163 -0.5333
vn -0.8458 -0.0163 -0.5333
vt 0.177319 0.206237
vt 0.189768 0.220852
vt 0.174006 0.235467
vt 0.149108 0.206237
vt 0.145794 0.235467
vt 0.133345 0.220852
vt 0.193987 0.042777
vt 0.221929 0.040212
vt 0.221929 0.133609
vt 0.193987 0.136174
vt 0.421310 0.320834
vt 0.393105 0.320834
vt 0.398957 0.229821
vt 0.427163 0.229821
vt 0.853117 0.442745
vt 0.881382 0.441946
vt 0.881382 0.540767
vt 0.853117 0.541566
vt 0.614442 0.058119
vt 0.642388 0.060642
vt 0.642388 0.154564
vt 0.614442 0.152042
vt 0.179718 0.326154
vt 0.151507 0.326154
vt 0.912473 0.541570
vt 0.884208 0.540772
vt 0.884208 0.442036
vt 0.912473 0.442833
vt 0.396534 0.349874
vt 0.380717 0.335354
vt 0.424739 0.349874
vt 0.437127 0.335354
s 1
f 1/1/1 2/2/1 3/3/1
f 3/3/1 4/4/2 1/1/1
f 3/3/1 5/5/1 4/4/2
f 5/5/1 6/6/2 4/4/2
f 7/7/3 10/8/3 8/9/3
f 7/7/3 8/9/3 9/10/3
f 11/11/4 14/12/4 12/13/4
f 11/11/4 12/13/4 13/14/4
f 15/15/5 18/16/5 16/17/5
f 15/15/5 16/17/5 17/18/5
f 19/19/6 22/20/6 20/21/6
f 19/19/6 20/21/6 21/22/6
f 23/23/7 26/24/7 24/5/7
f 23/23/7 24/5/7 25/3/7
f 27/25/8 30/26/8 28/27/8
f 27/25/8 28/27/8 29/28/8
f 31/29/9 32/30/9 33/12/9
f 33/12/9 34/11/9 31/29/9
f 34/11/9 35/31/10 31/29/9
f 34/11/9 36/32/10 35/31/10
