# Blender 4.3.0
# www.blender.org
o leg.001_Baked_leg.001_Bake1_baked_0.002
v 0.022244 0.010932 0.034763
v 0.011449 -0.017652 0.031519
v -0.007332 -0.015708 0.023539
v -0.015317 0.014819 0.018803
v 0.014259 0.041460 0.030027
v -0.004522 0.043403 0.022046
v 0.076510 0.018885 -0.170776
v 0.014259 0.041460 0.030027
v -0.004522 0.043403 0.022046
v 0.095290 0.016942 -0.162796
v 0.065714 -0.009699 -0.174020
v -0.004522 0.043403 0.022046
v -0.015317 0.014819 0.018803
v 0.076510 0.018885 -0.170776
v 0.095290 0.016942 -0.162796
v 0.022244 0.010932 0.034763
v 0.014259 0.041460 0.030027
v 0.103276 -0.013585 -0.158059
v 0.103276 -0.013585 -0.158059
v 0.011449 -0.017652 0.031519
v 0.022244 0.010932 0.034763
v 0.092856 -0.038772 -0.159492
v 0.092856 -0.038772 -0.159492
v -0.007332 -0.015708 0.023539
v 0.011449 -0.017652 0.031519
v 0.073699 -0.040226 -0.169283
v 0.073699 -0.040226 -0.169283
v -0.015317 0.014819 0.018803
v -0.007332 -0.015708 0.023539
v 0.065714 -0.009699 -0.174020
v 0.065714 -0.009699 -0.174020
v 0.073699 -0.040226 -0.169283
v 0.092856 -0.038772 -0.159492
v 0.103276 -0.013585 -0.158059
v 0.095290 0.016942 -0.162796
v 0.076510 0.018885 -0.170776
vn -0.3871 0.0417 0.9211
vn 0.1321 0.9887 -0.0702
vn -0.8416 0.3632 -0.3998
vn 0.8956 0.2870 0.3399
vn 0.8405 -0.3664 0.3993
vn 0.8405 -0.3663 0.3992
vn -0.0569 -0.9939 0.0942
vn -0.0569 -0.9939 0.0941
vn -0.0570 -0.9939 0.0940
vn -0.0569 -0.9939 0.0940
vn -0.8956 -0.2870 -0.3399
vn 0.3983 -0.0564 -0.9155
vn 0.3984 -0.0564 -0.9155
vn 0.3982 -0.0565 -0.9155
vn 0.3982 -0.0564 -0.9155
vt 0.711717 0.647453
vt 0.724855 0.653253
vt 0.724855 0.667669
vt 0.711717 0.676286
vt 0.698578 0.656070
vt 0.698578 0.670487
vt 0.929720 0.421160
vt 0.915110 0.418694
vt 0.915110 0.273051
vt 0.929720 0.275517
vt 0.979874 0.947762
vt 0.964226 0.948037
vt 0.964226 0.789653
vt 0.979874 0.789378
vt 0.902766 0.422824
vt 0.902766 0.277180
vt 0.966211 0.720104
vt 0.952220 0.718627
vt 0.950568 0.561236
vt 0.966211 0.561508
vt 0.882484 0.086881
vt 0.897163 0.082502
vt 0.897163 0.227980
vt 0.882584 0.230493
vt 0.909560 0.086624
vt 0.909560 0.232102
vt 0.883358 0.750461
vt 0.883358 0.766144
vt 0.870632 0.773142
vt 0.859185 0.766311
vt 0.859185 0.750628
vt 0.871271 0.742703
s 1
f 1/1/1 3/3/1 2/2/1
f 3/3/1 1/1/1 4/4/1
f 4/4/1 1/1/1 5/5/1
f 4/4/1 5/5/1 6/6/1
f 7/7/2 8/9/2 10/8/2
f 7/7/2 9/10/2 8/9/2
f 11/11/3 12/13/3 14/12/3
f 11/11/3 13/14/3 12/13/3
f 15/8/4 16/16/4 18/15/4
f 15/8/4 17/9/4 16/16/4
f 19/17/5 20/19/6 22/18/6
f 19/17/5 21/20/6 20/19/6
f 23/21/7 24/23/9 26/22/8
f 23/21/7 25/24/10 24/23/9
f 27/22/11 28/26/11 30/25/11
f 27/22/11 29/23/11 28/26/11
f 31/27/12 33/29/14 32/28/13
f 33/29/14 31/27/12 34/30/15
f 34/30/15 31/27/12 35/31/15
f 35/31/15 31/27/12 36/32/15
