# Blender 4.3.0
# www.blender.org
o leg.001_Baked_leg.001_Bake1_baked_0.003
v 0.022542 -0.039344 -0.141378
v 0.023671 -0.045526 -0.017205
v 0.015031 -0.041209 -0.017946
v 0.035290 -0.045713 -0.140285
v 0.006779 -0.044508 -0.028714
v 0.006302 0.022669 0.024390
v -0.005848 0.013111 0.025179
v 0.018929 -0.034950 -0.029503
v 0.018929 -0.034950 -0.029503
v 0.016822 0.013078 0.030502
v 0.006302 0.022669 0.024390
v 0.029448 -0.044541 -0.023390
v 0.029448 -0.044541 -0.023390
v 0.015191 -0.006071 0.037404
v 0.016822 0.013078 0.030502
v 0.027817 -0.063690 -0.016488
v 0.027817 -0.063690 -0.016488
v 0.003041 -0.015629 0.038193
v 0.015191 -0.006071 0.037404
v 0.015667 -0.073249 -0.015699
v 0.015667 -0.073249 -0.015699
v -0.007479 -0.006038 0.032080
v 0.003041 -0.015629 0.038193
v 0.005148 -0.063657 -0.021812
v 0.005148 -0.063657 -0.021812
v -0.005848 0.013111 0.025179
v -0.007479 -0.006038 0.032080
v 0.006779 -0.044508 -0.028714
v 0.012819 -0.054668 -0.141226
v 0.015031 -0.041209 -0.017946
v 0.008440 -0.051596 -0.017843
v 0.022542 -0.039344 -0.141378
v 0.035290 -0.045713 -0.140285
v 0.025721 -0.060230 -0.016362
v 0.023671 -0.045526 -0.017205
v 0.038314 -0.067407 -0.139040
v 0.038314 -0.067407 -0.139040
v 0.019130 -0.070617 -0.016259
v 0.025721 -0.060230 -0.016362
v 0.028590 -0.082731 -0.138889
v 0.028590 -0.082731 -0.138889
v 0.010490 -0.066301 -0.017000
v 0.019130 -0.070617 -0.016259
v 0.015842 -0.076362 -0.139981
v 0.015842 -0.076362 -0.139981
v 0.008440 -0.051596 -0.017843
v 0.010490 -0.066301 -0.017000
v 0.012819 -0.054668 -0.141226
v 0.015191 -0.006071 0.037404
v 0.003041 -0.015629 0.038193
v -0.007479 -0.006038 0.032080
v 0.016822 0.013078 0.030502
v -0.005848 0.013111 0.025179
v 0.006302 0.022669 0.024390
v 0.005148 -0.063657 -0.021812
v 0.015667 -0.073249 -0.015699
v 0.027817 -0.063690 -0.016488
v 0.029448 -0.044541 -0.023390
v 0.006779 -0.044508 -0.028714
v 0.018929 -0.034950 -0.029503
v 0.025721 -0.060230 -0.016362
v 0.019130 -0.070617 -0.016259
v 0.010490 -0.066301 -0.017000
v 0.008440 -0.051596 -0.017843
v 0.023671 -0.045526 -0.017205
v 0.015031 -0.041209 -0.017946
v 0.015842 -0.076362 -0.139981
v 0.028590 -0.082731 -0.138889
v 0.038314 -0.067407 -0.139040
v 0.012819 -0.054668 -0.141226
v 0.035290 -0.045713 -0.140285
v 0.022542 -0.039344 -0.141378
vn 0.4438 0.8952 0.0405
vn -0.4732 0.5443 -0.6928
vn -0.4731 0.5443 -0.6928
vn 0.7331 0.5433 -0.4091
vn 0.9735 -0.0005 0.2286
vn 0.4731 -0.5443 0.6928
vn -0.7331 -0.5433 0.4091
vn -0.9735 0.0005 -0.2286
vn -0.8438 0.5349 -0.0433
vn -0.8438 0.5350 -0.0433
vn 0.9854 0.1427 0.0928
vn 0.8391 -0.5312 0.1172
vn -0.4500 -0.8915 0.0533
vn -0.4499 -0.8915 0.0534
vn -0.9897 -0.1398 -0.0316
vn -0.2139 0.3473 0.9130
vn 0.2139 -0.3473 -0.9130
vn -0.0611 0.0487 0.9969
vn -0.0612 0.0487 0.9969
vn 0.0611 -0.0487 -0.9969
vn 0.0612 -0.0487 -0.9969
vt 0.739043 0.094796
vt 0.729223 0.093543
vt 0.732387 0.004525
vt 0.739043 0.005374
vt 0.361874 0.072671
vt 0.352542 0.071182
vt 0.352542 0.024066
vt 0.361874 0.025556
vt 0.794714 0.016208
vt 0.805047 0.016242
vt 0.805047 0.066126
vt 0.794714 0.066092
vt 0.447631 0.082671
vt 0.439140 0.080727
vt 0.439140 0.033527
vt 0.447631 0.035470
vt 0.429777 0.082174
vt 0.429777 0.034973
vt 0.750759 0.097025
vt 0.740424 0.097055
vt 0.740424 0.047162
vt 0.750759 0.047132
vt 0.370405 0.070719
vt 0.370405 0.023604
vt 0.994442 0.559298
vt 0.984255 0.559746
vt 0.987537 0.465759
vt 0.994442 0.465455
vt 0.721750 0.095026
vt 0.727322 0.005530
vt 0.489727 0.012445
vt 0.499923 0.012823
vt 0.499923 0.107023
vt 0.493012 0.106767
vt 0.911779 0.006093
vt 0.921571 0.004741
vt 0.923995 0.095488
vt 0.917359 0.096404
vt 0.929096 0.006151
vt 0.929096 0.096444
vt 0.965035 0.984604
vt 0.973674 0.979019
vt 0.982313 0.983424
vt 0.965035 0.994595
vt 0.982313 0.993416
vt 0.973674 0.999001
vt 0.685693 0.028509
vt 0.685693 0.038191
vt 0.676774 0.043323
vt 0.667856 0.038774
vt 0.676775 0.023960
vt 0.667856 0.029092
vt 0.726766 0.651379
vt 0.732731 0.648110
vt 0.738697 0.651678
vt 0.738697 0.658514
vt 0.726766 0.658215
vt 0.732731 0.661783
vt 0.622794 0.032261
vt 0.631657 0.037422
vt 0.631657 0.047440
vt 0.613931 0.037116
vt 0.622794 0.052296
vt 0.613931 0.047134
s 1
f 1/1/1 2/3/1 4/2/1
f 1/1/1 3/4/1 2/3/1
f 5/5/2 6/7/3 8/6/2
f 5/5/2 7/8/3 6/7/3
f 9/9/4 10/11/4 12/10/4
f 9/9/4 11/12/4 10/11/4
f 13/13/5 14/15/5 16/14/5
f 13/13/5 15/16/5 14/15/5
f 17/14/6 18/18/6 20/17/6
f 17/14/6 19/15/6 18/18/6
f 21/19/7 22/21/7 24/20/7
f 21/19/7 23/22/7 22/21/7
f 25/23/8 26/8/8 28/5/8
f 25/23/8 27/24/8 26/8/8
f 29/25/9 30/27/10 32/26/9
f 29/25/9 31/28/10 30/27/10
f 33/2/11 34/30/11 36/29/11
f 33/2/11 35/3/11 34/30/11
f 37/31/12 38/33/12 40/32/12
f 37/31/12 39/34/12 38/33/12
f 41/35/13 42/37/14 44/36/13
f 41/35/13 43/38/14 42/37/14
f 45/36/15 46/40/15 48/39/15
f 45/36/15 47/37/15 46/40/15
f 49/41/16 51/43/16 50/42/16
f 51/43/16 49/41/16 52/44/16
f 51/43/16 52/44/16 53/45/16
f 53/45/16 52/44/16 54/46/16
f 55/47/17 57/49/17 56/48/17
f 57/49/17 55/47/17 58/50/17
f 58/50/17 55/47/17 59/51/17
f 58/50/17 59/51/17 60/52/17
f 61/53/18 63/55/18 62/54/19
f 63/55/18 61/53/18 64/56/18
f 64/56/18 61/53/18 65/57/18
f 64/56/18 65/57/18 66/58/19
f 67/59/20 69/61/20 68/60/21
f 69/61/20 67/59/20 70/62/20
f 69/61/20 70/62/20 71/63/20
f 71/63/20 70/62/20 72/64/20
