# Blender 4.3.0
# www.blender.org
o leg.001_Baked_leg.001_Bake1_baked_0.013
v 0.015899 0.004966 0.037465
v 0.009558 -0.011716 0.027913
v -0.004004 -0.006751 0.021769
v -0.011225 0.014896 0.025176
v 0.008679 0.026612 0.040872
v -0.004883 0.031577 0.034728
v -0.032597 -0.056557 0.072190
v -0.019035 -0.061521 0.078333
v -0.012693 -0.044839 0.087885
v -0.039817 -0.034910 0.075597
v -0.019913 -0.023193 0.091292
v -0.033476 -0.018228 0.085148
v -0.039817 -0.034910 0.075597
v -0.004147 0.031577 0.034728
v -0.010489 0.014896 0.025176
v -0.033476 -0.018228 0.085148
v -0.033476 -0.018228 0.085148
v 0.009415 0.026612 0.040872
v -0.004147 0.031577 0.034728
v -0.019913 -0.023193 0.091292
v -0.019913 -0.023193 0.091292
v 0.016635 0.004966 0.037465
v 0.009415 0.026612 0.040872
v -0.012693 -0.044839 0.087885
v -0.012693 -0.044839 0.087885
v 0.010294 -0.011716 0.027913
v 0.016635 0.004966 0.037465
v -0.019035 -0.061521 0.078333
v -0.019035 -0.061521 0.078333
v -0.003268 -0.006751 0.021769
v 0.010294 -0.011716 0.027913
v -0.032597 -0.056557 0.072190
v -0.032597 -0.056557 0.072190
v -0.010489 0.014896 0.025176
v -0.003268 -0.006751 0.021769
v -0.039817 -0.034910 0.075597
v -0.099296 -0.024197 0.171168
v -0.026425 -0.024553 0.079275
v -0.032415 -0.037180 0.077084
v -0.089604 -0.003768 0.174712
v -0.089604 -0.003768 0.174712
v -0.019718 -0.028094 0.083890
v -0.026425 -0.024553 0.079275
v -0.078752 -0.009495 0.182180
v -0.078752 -0.009495 0.182180
v -0.019001 -0.044259 0.086315
v -0.019718 -0.028094 0.083890
v -0.077592 -0.035652 0.186103
v -0.077592 -0.035652 0.186103
v -0.024991 -0.056886 0.084125
v -0.019001 -0.044259 0.086315
v -0.087284 -0.056081 0.182560
v -0.087284 -0.056081 0.182560
v -0.031698 -0.053346 0.079510
v -0.024991 -0.056886 0.084125
v -0.098136 -0.050353 0.175092
v -0.098136 -0.050353 0.175092
v -0.032415 -0.037180 0.077084
v -0.031698 -0.053346 0.079510
v -0.099296 -0.024197 0.171168
v -0.019001 -0.044259 0.086315
v -0.024991 -0.056886 0.084125
v -0.031698 -0.053346 0.079510
v -0.032415 -0.037180 0.077084
v -0.019718 -0.028094 0.083890
v -0.026425 -0.024553 0.079275
v -0.098136 -0.050353 0.175092
v -0.087284 -0.056081 0.182560
v -0.077592 -0.035652 0.186103
v -0.099296 -0.024197 0.171168
v -0.078752 -0.009495 0.182180
v -0.089604 -0.003768 0.174712
vn 0.4811 0.2907 -0.8271
vn 0.4811 0.2906 -0.8271
vn -0.4811 -0.2906 0.8271
vn -0.4811 -0.2907 0.8271
vn -0.9036 0.4116 -0.1190
vn -0.0467 0.7241 0.6881
vn 0.7748 0.1623 0.6110
vn 0.9036 -0.4116 0.1190
vn 0.0467 -0.7241 -0.6881
vn -0.7748 -0.1623 -0.6110
vn -0.7058 0.4322 -0.5613
vn 0.4206 0.9035 0.0817
vn 0.4207 0.9035 0.0817
vn 0.8611 0.1126 0.4959
vn 0.7562 -0.4424 0.4822
vn -0.3407 -0.9168 -0.2081
vn -0.3407 -0.9169 -0.2081
vn -0.8169 -0.1208 -0.5640
vn 0.5263 -0.1033 -0.8440
vn 0.5263 -0.1032 -0.8440
vn -0.5263 0.1033 0.8440
vt 0.140171 0.060532
vt 0.131401 0.057857
vt 0.131401 0.047654
vt 0.140171 0.040126
vt 0.148942 0.053004
vt 0.148942 0.042802
vt 0.923532 0.479742
vt 0.916852 0.471958
vt 0.921738 0.464173
vt 0.935099 0.479742
vt 0.933305 0.464173
vt 0.939985 0.471958
vt 0.782012 0.019081
vt 0.793617 0.018627
vt 0.793617 0.065788
vt 0.782012 0.066241
vt 0.256187 0.021839
vt 0.266970 0.024655
vt 0.266970 0.063721
vt 0.256187 0.060905
vt 0.950525 0.998273
vt 0.939105 0.996415
vt 0.939105 0.963731
vt 0.950525 0.965588
vt 0.964024 0.731411
vt 0.975635 0.731842
vt 0.975635 0.779062
vt 0.964024 0.778631
vt 0.390917 0.024959
vt 0.401691 0.022134
vt 0.401691 0.061227
vt 0.390917 0.064051
vt 0.929681 0.511695
vt 0.918115 0.511695
vt 0.552871 0.120596
vt 0.540993 0.118802
vt 0.545530 0.031392
vt 0.552871 0.032501
vt 0.763147 0.731205
vt 0.753704 0.733858
vt 0.751594 0.656152
vt 0.757430 0.654512
vt 0.744113 0.731205
vt 0.745666 0.654512
vt 0.315350 0.094168
vt 0.327248 0.092416
vt 0.327248 0.181723
vt 0.319895 0.182805
vt 0.939635 0.743070
vt 0.949101 0.745746
vt 0.946677 0.819188
vt 0.940826 0.817534
vt 0.958641 0.743070
vt 0.952573 0.817534
vt 0.777028 0.439808
vt 0.777028 0.446733
vt 0.771430 0.448439
vt 0.765832 0.443219
vt 0.771430 0.434588
vt 0.765832 0.436293
vt 0.801601 0.707139
vt 0.811079 0.707139
vt 0.814372 0.717858
vt 0.795417 0.717858
vt 0.808188 0.728577
vt 0.798710 0.728577
s 1
f 1/1/1 2/2/1 3/3/2
f 3/3/2 4/4/1 1/1/1
f 4/4/1 5/5/1 1/1/1
f 4/4/1 6/6/1 5/5/1
f 7/7/3 8/8/4 9/9/4
f 9/9/4 10/10/4 7/7/3
f 9/9/4 11/11/4 10/10/4
f 11/11/4 12/12/4 10/10/4
f 13/13/5 16/14/5 14/15/5
f 13/13/5 14/15/5 15/16/5
f 17/17/6 20/18/6 18/19/6
f 17/17/6 18/19/6 19/20/6
f 21/21/7 24/22/7 22/23/7
f 21/21/7 22/23/7 23/24/7
f 25/25/8 28/26/8 26/27/8
f 25/25/8 26/27/8 27/28/8
f 29/29/9 32/30/9 30/31/9
f 29/29/9 30/31/9 31/32/9
f 33/7/10 36/10/10 34/33/10
f 33/7/10 34/33/10 35/34/10
f 37/35/11 40/36/11 38/37/11
f 37/35/11 38/37/11 39/38/11
f 41/39/12 44/40/12 42/41/13
f 41/39/12 42/41/13 43/42/13
f 45/40/14 48/43/14 46/44/14
f 45/40/14 46/44/14 47/41/14
f 49/45/15 52/46/15 50/47/15
f 49/45/15 50/47/15 51/48/15
f 53/49/16 56/50/16 54/51/17
f 53/49/16 54/51/17 55/52/17
f 57/50/18 60/53/18 58/54/18
f 57/50/18 58/54/18 59/51/18
f 61/55/19 62/56/19 63/57/19
f 63/57/19 64/58/19 61/55/19
f 64/58/19 65/59/19 61/55/19
f 64/58/19 66/60/20 65/59/19
f 67/61/21 68/62/21 69/63/21
f 69/63/21 70/64/21 67/61/21
f 69/63/21 71/65/21 70/64/21
f 71/65/21 72/66/21 70/64/21
