# Blender 4.3.0
# www.blender.org
o leg.001_Baked_leg.001_Bake1_baked_0.009
v 0.081076 -0.095000 -0.145187
v 0.091923 -0.107579 -0.140077
v 0.103650 -0.096523 -0.135713
v 0.104530 -0.072888 -0.136457
v 0.081955 -0.071365 -0.145931
v 0.093682 -0.060310 -0.141566
v 0.081076 -0.095000 -0.145187
v 0.030155 -0.058232 -0.010338
v 0.029593 -0.073348 -0.009862
v 0.081955 -0.071365 -0.145931
v 0.081955 -0.071365 -0.145931
v 0.037656 -0.051162 -0.007547
v 0.030155 -0.058232 -0.010338
v 0.093682 -0.060310 -0.141566
v 0.093682 -0.060310 -0.141566
v 0.044593 -0.059207 -0.004279
v 0.037656 -0.051162 -0.007547
v 0.104530 -0.072888 -0.136457
v 0.104530 -0.072888 -0.136457
v 0.044031 -0.074322 -0.003803
v 0.044593 -0.059207 -0.004279
v 0.103650 -0.096523 -0.135713
v 0.103650 -0.096523 -0.135713
v 0.036530 -0.081393 -0.006594
v 0.044031 -0.074322 -0.003803
v 0.091923 -0.107579 -0.140077
v 0.091923 -0.107579 -0.140077
v 0.029593 -0.073348 -0.009862
v 0.036530 -0.081393 -0.006594
v 0.081076 -0.095000 -0.145187
v 0.031435 -0.062508 -0.025401
v 0.003100 0.015591 0.017715
v -0.008067 -0.000170 0.015474
v 0.042602 -0.046746 -0.023161
v 0.042602 -0.046746 -0.023161
v 0.012521 0.011823 0.028864
v 0.003100 0.015591 0.017715
v 0.052023 -0.050515 -0.012012
v 0.052023 -0.050515 -0.012012
v 0.010775 -0.007708 0.037773
v 0.012521 0.011823 0.028864
v 0.050276 -0.070046 -0.003103
v 0.050276 -0.070046 -0.003103
v -0.000393 -0.023470 0.035532
v 0.010775 -0.007708 0.037773
v 0.039109 -0.085807 -0.005343
v 0.039109 -0.085807 -0.005343
v -0.009814 -0.019701 0.024383
v -0.000393 -0.023470 0.035532
v 0.029688 -0.082038 -0.016493
v 0.029688 -0.082038 -0.016493
v -0.008067 -0.000170 0.015474
v -0.009814 -0.019701 0.024383
v 0.031435 -0.062508 -0.025401
v 0.010775 -0.007708 0.037773
v -0.000393 -0.023470 0.035532
v -0.009814 -0.019701 0.024383
v -0.008067 -0.000170 0.015474
v 0.012521 0.011823 0.028864
v 0.003100 0.015591 0.017715
v 0.029688 -0.082038 -0.016493
v 0.039109 -0.085807 -0.005343
v 0.050276 -0.070046 -0.003103
v 0.031435 -0.062508 -0.025401
v 0.052023 -0.050515 -0.012012
v 0.042602 -0.046746 -0.023161
v 0.044031 -0.074322 -0.003803
v 0.036530 -0.081393 -0.006594
v 0.029593 -0.073348 -0.009862
v 0.044593 -0.059207 -0.004279
v 0.030155 -0.058232 -0.010338
v 0.037656 -0.051162 -0.007547
vn 0.3841 -0.0433 -0.9223
vn 0.3841 -0.0434 -0.9223
vn -0.9331 0.0234 -0.3588
vn -0.5933 0.7474 -0.2990
vn 0.6851 0.6880 0.2394
vn 0.9097 -0.0208 0.4147
vn 0.5575 -0.7399 0.3765
vn 0.5574 -0.7399 0.3765
vn 0.5574 -0.7400 0.3765
vn -0.7137 -0.6814 -0.1625
vn -0.7136 -0.6814 -0.1625
vn -0.3334 0.3601 -0.8713
vn 0.6724 0.6537 -0.3472
vn 0.8259 0.1712 0.5371
vn 0.8259 0.1712 0.5372
vn 0.3334 -0.3601 0.8713
vn -0.6724 -0.6537 0.3472
vn -0.8259 -0.1712 -0.5372
vn -0.6474 0.3635 0.6699
vn 0.6474 -0.3635 -0.6699
vn -0.3841 0.0433 0.9223
vt 0.171933 0.041409
vt 0.181358 0.046251
vt 0.181358 0.055903
vt 0.171933 0.060713
vt 0.162508 0.046219
vt 0.162508 0.055872
vt 0.663443 0.152876
vt 0.654708 0.153834
vt 0.656561 0.043414
vt 0.662147 0.042802
vt 0.644722 0.152877
vt 0.650174 0.042802
vt 0.375288 0.320126
vt 0.364481 0.320526
vt 0.368376 0.220795
vt 0.375288 0.220538
vt 0.103680 0.020831
vt 0.112392 0.021748
vt 0.115128 0.130962
vt 0.109557 0.130376
vt 0.122394 0.020831
vt 0.121525 0.130376
vt 0.214088 0.466824
vt 0.224904 0.467121
vt 0.224904 0.569457
vt 0.217987 0.569267
vt 0.226105 0.023410
vt 0.237047 0.025488
vt 0.237047 0.063709
vt 0.226105 0.061630
vt 0.375872 0.212937
vt 0.364509 0.212937
vt 0.364509 0.160905
vt 0.375872 0.160905
vt 0.604750 0.091296
vt 0.594907 0.095309
vt 0.594903 0.058518
vt 0.604746 0.054506
vt 0.268057 0.025341
vt 0.279021 0.023329
vt 0.279020 0.061780
vt 0.268057 0.063792
vt 0.970701 0.243103
vt 0.982064 0.243100
vt 0.982064 0.295118
vt 0.970701 0.295120
vt 0.942126 0.476501
vt 0.951967 0.480516
vt 0.952003 0.517257
vt 0.942161 0.513242
vt 0.585064 0.054502
vt 0.585068 0.046474
vt 0.594911 0.042462
vt 0.604750 0.046478
vt 0.942126 0.468462
vt 0.951967 0.464438
vt 0.961808 0.468453
vt 0.961808 0.476492
vt 0.791444 0.445439
vt 0.791444 0.439270
vt 0.797471 0.436178
vt 0.797471 0.448515
vt 0.803499 0.439254
vt 0.803499 0.445423
s 1
f 1/1/1 3/3/1 2/2/2
f 3/3/1 1/1/1 4/4/1
f 4/4/1 1/1/1 5/5/1
f 4/4/1 5/5/1 6/6/1
f 7/7/3 8/9/3 10/8/3
f 7/7/3 9/10/3 8/9/3
f 11/8/4 12/12/4 14/11/4
f 11/8/4 13/9/4 12/12/4
f 15/13/5 16/15/5 18/14/5
f 15/13/5 17/16/5 16/15/5
f 19/17/6 20/19/6 22/18/6
f 19/17/6 21/20/6 20/19/6
f 23/18/7 24/22/8 26/21/7
f 23/18/7 25/19/9 24/22/8
f 27/23/10 28/25/11 30/24/10
f 27/23/10 29/26/11 28/25/11
f 31/27/12 32/29/12 34/28/12
f 31/27/12 33/30/12 32/29/12
f 35/31/13 36/33/13 38/32/13
f 35/31/13 37/34/13 36/33/13
f 39/35/14 40/37/15 42/36/14
f 39/35/14 41/38/15 40/37/15
f 43/39/16 44/41/16 46/40/16
f 43/39/16 45/42/16 44/41/16
f 47/43/17 48/45/17 50/44/17
f 47/43/17 49/46/17 48/45/17
f 51/47/18 52/49/18 54/48/18
f 51/47/18 53/50/18 52/49/18
f 55/37/19 57/52/19 56/51/19
f 57/52/19 55/37/19 58/53/19
f 58/53/19 55/37/19 59/38/19
f 58/53/19 59/38/19 60/54/19
f 61/47/20 63/56/20 62/55/20
f 63/56/20 61/47/20 64/48/20
f 63/56/20 64/48/20 65/57/20
f 65/57/20 64/48/20 66/58/20
f 67/59/21 69/61/21 68/60/21
f 69/61/21 67/59/21 70/62/21
f 69/61/21 70/62/21 71/63/21
f 71/63/21 70/62/21 72/64/21
