# Blender 5.1.2
# www.blender.org
o Flor_4_flor_flor.004
v -2.888719 10.733092 0.189125
v -2.902547 10.771849 0.179201
v -2.861449 10.765399 0.187016
v -2.885402 10.710813 0.153287
v -2.917351 10.738113 0.158355
v -2.888719 10.733092 0.189125
v -2.888719 10.733092 0.189125
v -2.850853 10.727675 0.171001
v -2.885402 10.710813 0.153287
v -2.885402 10.710813 0.153287
v -2.897179 10.735800 0.121213
v -2.917351 10.738113 0.158355
v -2.885402 10.710813 0.153287
v -2.856081 10.729349 0.129029
v -2.897179 10.735800 0.121213
v -2.885402 10.710813 0.153287
v -2.850853 10.727675 0.171001
v -2.856081 10.729349 0.129029
v -2.888719 10.733092 0.189125
v -2.861449 10.765399 0.187016
v -2.850853 10.727675 0.171001
v -2.917351 10.738113 0.158355
v -2.902547 10.771849 0.179201
v -2.888719 10.733092 0.189125
v -2.856081 10.729349 0.129029
v -2.869909 10.768106 0.119104
v -2.897179 10.735800 0.121213
v -2.850853 10.727675 0.171001
v -2.841278 10.763084 0.149874
v -2.856081 10.729349 0.129029
v -2.917351 10.738113 0.158355
v -2.907776 10.773522 0.137228
v -2.902547 10.771849 0.179201
v -2.897179 10.735800 0.121213
v -2.869909 10.768106 0.119104
v -2.907776 10.773522 0.137228
v -2.856081 10.729349 0.129029
v -2.841278 10.763084 0.149874
v -2.869909 10.768106 0.119104
v -2.850853 10.727675 0.171001
v -2.861449 10.765399 0.187016
v -2.841278 10.763084 0.149874
v -2.902547 10.771849 0.179201
v -2.873227 10.790385 0.154942
v -2.861449 10.765399 0.187016
v -2.907776 10.773522 0.137228
v -2.873227 10.790385 0.154942
v -2.902547 10.771849 0.179201
v -2.869909 10.768106 0.119104
v -2.873227 10.790385 0.154942
v -2.907776 10.773522 0.137228
v -2.841278 10.763084 0.149874
v -2.873227 10.790385 0.154942
v -2.869909 10.768106 0.119104
v -2.861449 10.765399 0.187016
v -2.873227 10.790385 0.154942
v -2.841278 10.763084 0.149874
v -2.878098 10.661528 0.038282
v -2.910127 10.689156 0.039896
v -2.881518 10.688074 0.071075
v -2.881518 10.688074 0.071075
v -2.843616 10.680557 0.053794
v -2.878098 10.661528 0.038282
v -2.878098 10.661528 0.038282
v -2.889906 10.682308 0.003345
v -2.910127 10.689156 0.039896
v -2.878098 10.661528 0.038282
v -2.848799 10.676994 0.011935
v -2.889906 10.682308 0.003345
v -2.878098 10.661528 0.038282
v -2.843616 10.680557 0.053794
v -2.848799 10.676994 0.011935
v -2.881518 10.688074 0.071075
v -2.854333 10.719946 0.064996
v -2.843616 10.680557 0.053794
v -2.910127 10.689156 0.039896
v -2.895440 10.725260 0.056406
v -2.881518 10.688074 0.071075
v -2.889906 10.682308 0.003345
v -2.900623 10.721697 0.014547
v -2.910127 10.689156 0.039896
v -2.848799 10.676994 0.011935
v -2.862721 10.714180 -0.002735
v -2.889906 10.682308 0.003345
v -2.843616 10.680557 0.053794
v -2.834112 10.713099 0.028444
v -2.848799 10.676994 0.011935
v -2.881518 10.688074 0.071075
v -2.895440 10.725260 0.056406
v -2.854333 10.719946 0.064996
v -2.910127 10.689156 0.039896
v -2.900623 10.721697 0.014547
v -2.895440 10.725260 0.056406
v -2.889906 10.682308 0.003345
v -2.862721 10.714180 -0.002735
v -2.900623 10.721697 0.014547
v -2.848799 10.676994 0.011935
v -2.834112 10.713099 0.028444
v -2.862721 10.714180 -0.002735
v -2.843616 10.680557 0.053794
v -2.854333 10.719946 0.064996
v -2.834112 10.713099 0.028444
v -2.895440 10.725260 0.056406
v -2.866141 10.740726 0.030059
v -2.854333 10.719946 0.064996
v -2.900623 10.721697 0.014547
v -2.866141 10.740726 0.030059
v -2.895440 10.725260 0.056406
v -2.862721 10.714180 -0.002735
v -2.866141 10.740726 0.030059
v -2.900623 10.721697 0.014547
v -2.834112 10.713099 0.028444
v -2.866141 10.740726 0.030059
v -2.862721 10.714180 -0.002735
v -2.854333 10.719946 0.064996
v -2.866141 10.740726 0.030059
v -2.834112 10.713099 0.028444
v -3.027959 10.766769 0.021830
v -3.064168 10.788538 0.024438
v -3.035241 10.791818 0.055166
v -3.035241 10.791818 0.055166
v -2.996925 10.791116 0.037189
v -3.027959 10.766769 0.021830
v -3.027959 10.766769 0.021830
v -3.043730 10.785808 -0.012530
v -3.064168 10.788538 0.024438
v -3.027959 10.766769 0.021830
v -3.002172 10.787402 -0.004649
v -3.043730 10.785808 -0.012530
v -3.027959 10.766769 0.021830
v -2.996925 10.791116 0.037189
v -3.002172 10.787402 -0.004649
v -3.035241 10.791818 0.055166
v -3.013955 10.827931 0.049291
v -2.996925 10.791116 0.037189
v -3.064168 10.788538 0.024438
v -3.055513 10.826337 0.041410
v -3.035241 10.791818 0.055166
v -3.043730 10.785808 -0.012530
v -3.060760 10.822623 -0.000428
v -3.064168 10.788538 0.024438
v -3.002172 10.787402 -0.004649
v -3.022444 10.821921 -0.018405
v -3.043730 10.785808 -0.012530
v -2.996925 10.791116 0.037189
v -2.993516 10.825201 0.012323
v -3.002172 10.787402 -0.004649
v -3.035241 10.791818 0.055166
v -3.055513 10.826337 0.041410
v -3.013955 10.827931 0.049291
v -3.064168 10.788538 0.024438
v -3.060760 10.822623 -0.000428
v -3.055513 10.826337 0.041410
v -3.043730 10.785808 -0.012530
v -3.022444 10.821921 -0.018405
v -3.060760 10.822623 -0.000428
v -3.002172 10.787402 -0.004649
v -2.993516 10.825201 0.012323
v -3.022444 10.821921 -0.018405
v -2.996925 10.791116 0.037189
v -3.013955 10.827931 0.049291
v -2.993516 10.825201 0.012323
v -3.055513 10.826337 0.041410
v -3.029726 10.846970 0.014931
v -3.013955 10.827931 0.049291
v -3.060760 10.822623 -0.000428
v -3.029726 10.846970 0.014931
v -3.055513 10.826337 0.041410
v -3.022444 10.821921 -0.018405
v -3.029726 10.846970 0.014931
v -3.060760 10.822623 -0.000428
v -2.993516 10.825201 0.012323
v -3.029726 10.846970 0.014931
v -3.022444 10.821921 -0.018405
v -3.013955 10.827931 0.049291
v -3.029726 10.846970 0.014931
v -2.993516 10.825201 0.012323
v -3.045328 10.666535 0.116584
v -3.059999 10.688789 0.083701
v -3.081135 10.688789 0.120375
v -3.045328 10.666535 0.116584
v -3.018588 10.688789 0.092469
v -3.059999 10.688789 0.083701
v -3.059999 10.688789 0.083701
v -3.076524 10.724797 0.098605
v -3.081135 10.688789 0.120375
v -3.018588 10.688789 0.092469
v -3.037869 10.724797 0.081358
v -3.059999 10.688789 0.083701
v -3.059999 10.688789 0.083701
v -3.037869 10.724797 0.081358
v -3.076524 10.724797 0.098605
v -3.018588 10.688789 0.092469
v -3.009520 10.724797 0.112792
v -3.037869 10.724797 0.081358
v -3.037869 10.724797 0.081358
v -3.045328 10.747051 0.116584
v -3.076524 10.724797 0.098605
v -3.009520 10.724797 0.112792
v -3.045328 10.747051 0.116584
v -3.037869 10.724797 0.081358
v -3.117800 10.730354 0.186296
v -3.155901 10.748109 0.191285
v -3.127369 10.750111 0.222489
v -3.127369 10.750111 0.222489
v -3.089185 10.755329 0.204984
v -3.117800 10.730354 0.186296
v -3.117800 10.730354 0.186296
v -3.135350 10.752090 0.154494
v -3.155901 10.748109 0.191285
v -3.117800 10.730354 0.186296
v -3.094116 10.756553 0.162961
v -3.135350 10.752090 0.154494
v -3.117800 10.730354 0.186296
v -3.089185 10.755329 0.204984
v -3.094116 10.756553 0.162961
v -3.127369 10.750111 0.222489
v -3.109601 10.788518 0.221523
v -3.089185 10.755329 0.204984
v -3.155901 10.748109 0.191285
v -3.150833 10.784056 0.213056
v -3.127369 10.750111 0.222489
v -3.135350 10.752090 0.154494
v -3.155765 10.785279 0.171032
v -3.155901 10.748109 0.191285
v -3.094116 10.756553 0.162961
v -3.117580 10.790497 0.153527
v -3.135350 10.752090 0.154494
v -3.089185 10.755329 0.204984
v -3.089049 10.792500 0.184731
v -3.094116 10.756553 0.162961
v -3.127369 10.750111 0.222489
v -3.150833 10.784056 0.213056
v -3.109601 10.788518 0.221523
v -3.155901 10.748109 0.191285
v -3.155765 10.785279 0.171032
v -3.150833 10.784056 0.213056
v -3.135350 10.752090 0.154494
v -3.117580 10.790497 0.153527
v -3.155765 10.785279 0.171032
v -3.094116 10.756553 0.162961
v -3.089049 10.792500 0.184731
v -3.117580 10.790497 0.153527
v -3.089185 10.755329 0.204984
v -3.109601 10.788518 0.221523
v -3.089049 10.792500 0.184731
v -3.150833 10.784056 0.213056
v -3.127149 10.810253 0.189721
v -3.109601 10.788518 0.221523
v -3.155765 10.785279 0.171032
v -3.127149 10.810253 0.189721
v -3.150833 10.784056 0.213056
v -3.117580 10.790497 0.153527
v -3.127149 10.810253 0.189721
v -3.155765 10.785279 0.171032
v -3.089049 10.792500 0.184731
v -3.127149 10.810253 0.189721
v -3.117580 10.790497 0.153527
v -3.109601 10.788518 0.221523
v -3.127149 10.810253 0.189721
v -3.089049 10.792500 0.184731
v -2.977771 10.678323 0.238427
v -2.996612 10.715668 0.231929
v -3.019230 10.679937 0.230043
v -3.019230 10.679937 0.230043
v -2.996612 10.715668 0.231929
v -3.035159 10.714078 0.249344
v -2.996612 10.715668 0.231929
v -3.003544 10.733562 0.269658
v -3.035159 10.714078 0.249344
v -2.968077 10.711465 0.262910
v -3.003544 10.733562 0.269658
v -2.996612 10.715668 0.231929
v -2.974420 10.594417 0.175535
v -3.010226 10.616671 0.179327
v -2.981878 10.616671 0.210761
v -2.981878 10.616671 0.210761
v -2.943222 10.616671 0.193514
v -2.974420 10.594417 0.175535
v -2.974420 10.594417 0.175535
v -2.989091 10.616671 0.142652
v -3.010226 10.616671 0.179327
v -2.974420 10.594417 0.175535
v -2.947679 10.616671 0.151421
v -2.989091 10.616671 0.142652
v -2.974420 10.594417 0.175535
v -2.943222 10.616671 0.193514
v -2.947679 10.616671 0.151421
v -2.981878 10.616671 0.210761
v -2.959748 10.652678 0.208418
v -2.943222 10.616671 0.193514
v -3.010226 10.616671 0.179327
v -3.001159 10.652678 0.199649
v -2.981878 10.616671 0.210761
v -2.989091 10.616671 0.142652
v -3.005617 10.652678 0.157556
v -3.010226 10.616671 0.179327
v -2.947679 10.616671 0.151421
v -2.966961 10.652678 0.140309
v -2.989091 10.616671 0.142652
v -2.943222 10.616671 0.193514
v -2.938612 10.652678 0.171743
v -2.947679 10.616671 0.151421
v -2.981878 10.616671 0.210761
v -3.001159 10.652678 0.199649
v -2.959748 10.652678 0.208418
v -3.010226 10.616671 0.179327
v -3.005617 10.652678 0.157556
v -3.001159 10.652678 0.199649
v -2.989091 10.616671 0.142652
v -2.966961 10.652678 0.140309
v -3.005617 10.652678 0.157556
v -2.943222 10.616671 0.193514
v -2.959748 10.652678 0.208418
v -2.938612 10.652678 0.171743
v -3.001159 10.652678 0.199649
v -2.974420 10.674932 0.175535
v -2.959748 10.652678 0.208418
v -3.005617 10.652678 0.157556
v -2.974420 10.674932 0.175535
v -3.001159 10.652678 0.199649
v -2.966961 10.652678 0.140309
v -2.974420 10.674932 0.175535
v -3.005617 10.652678 0.157556
v -2.938612 10.652678 0.171743
v -2.974420 10.674932 0.175535
v -2.966961 10.652678 0.140309
v -2.959748 10.652678 0.208418
v -2.974420 10.674932 0.175535
v -2.938612 10.652678 0.171743
v -3.045328 10.666535 0.116584
v -3.081135 10.688789 0.120375
v -3.052786 10.688789 0.151810
v -3.052786 10.688789 0.151810
v -3.014130 10.688789 0.134563
v -3.045328 10.666535 0.116584
v -3.045328 10.666535 0.116584
v -3.014130 10.688789 0.134563
v -3.018588 10.688789 0.092469
v -3.052786 10.688789 0.151810
v -3.030656 10.724797 0.149467
v -3.014130 10.688789 0.134563
v -3.081135 10.688789 0.120375
v -3.072068 10.724797 0.140698
v -3.052786 10.688789 0.151810
v -3.014130 10.688789 0.134563
v -3.009520 10.724797 0.112792
v -3.018588 10.688789 0.092469
v -3.052786 10.688789 0.151810
v -3.072068 10.724797 0.140698
v -3.030656 10.724797 0.149467
v -3.081135 10.688789 0.120375
v -3.076524 10.724797 0.098605
v -3.072068 10.724797 0.140698
v -3.014130 10.688789 0.134563
v -3.030656 10.724797 0.149467
v -3.009520 10.724797 0.112792
v -3.072068 10.724797 0.140698
v -3.045328 10.747051 0.116584
v -3.030656 10.724797 0.149467
v -3.076524 10.724797 0.098605
v -3.045328 10.747051 0.116584
v -3.072068 10.724797 0.140698
v -3.030656 10.724797 0.149467
v -3.045328 10.747051 0.116584
v -3.009520 10.724797 0.112792
v -3.004675 10.653653 0.259859
v -3.040143 10.675751 0.266607
v -3.011608 10.671547 0.297589
v -3.011608 10.671547 0.297589
v -2.973061 10.673138 0.280173
v -3.004675 10.653653 0.259859
v -3.004675 10.653653 0.259859
v -3.019230 10.679937 0.230043
v -3.040143 10.675751 0.266607
v -3.004675 10.653653 0.259859
v -2.977771 10.678323 0.238427
v -3.019230 10.679937 0.230043
v -3.004675 10.653653 0.259859
v -2.973061 10.673138 0.280173
v -2.977771 10.678323 0.238427
v -3.011608 10.671547 0.297589
v -2.988989 10.707277 0.299474
v -2.973061 10.673138 0.280173
v -3.040143 10.675751 0.266607
v -3.030448 10.708893 0.291089
v -3.011608 10.671547 0.297589
v -3.019230 10.679937 0.230043
v -3.035159 10.714078 0.249344
v -3.040143 10.675751 0.266607
v -2.973061 10.673138 0.280173
v -2.968077 10.711465 0.262910
v -2.977771 10.678323 0.238427
v -3.011608 10.671547 0.297589
v -3.030448 10.708893 0.291089
v -2.988989 10.707277 0.299474
v -3.040143 10.675751 0.266607
v -3.035159 10.714078 0.249344
v -3.030448 10.708893 0.291089
v -2.977771 10.678323 0.238427
v -2.968077 10.711465 0.262910
v -2.996612 10.715668 0.231929
v -2.973061 10.673138 0.280173
v -2.988989 10.707277 0.299474
v -2.968077 10.711465 0.262910
v -3.030448 10.708893 0.291089
v -3.003544 10.733562 0.269658
v -2.988989 10.707277 0.299474
v -3.035159 10.714078 0.249344
v -3.003544 10.733562 0.269658
v -3.030448 10.708893 0.291089
v -2.988989 10.707277 0.299474
v -3.003544 10.733562 0.269658
v -2.968077 10.711465 0.262910
v -2.947679 10.616671 0.151421
v -2.938612 10.652678 0.171743
v -2.966961 10.652678 0.140309
v -2.897179 10.735800 0.121213
v -2.907776 10.773522 0.137228
v -2.917351 10.738113 0.158355
vn -0.1540 0.1932 0.9690
vn -0.5578 -0.7271 0.4004
vn 0.1351 -0.8358 0.5321
vn -0.6459 -0.6989 -0.3073
vn -0.0075 -0.7902 -0.6128
vn 0.4752 -0.8748 -0.0941
vn 0.3847 -0.2671 0.8836
vn -0.7364 -0.0911 0.6704
vn 0.1539 -0.1932 -0.9690
vn 0.9350 -0.3302 -0.1296
vn -0.9350 0.3302 0.1296
vn -0.3847 0.2670 -0.8836
vn 0.7364 0.0911 -0.6704
vn 0.8790 0.0454 0.4746
vn 0.0075 0.7902 0.6128
vn -0.4752 0.8748 0.0941
vn -0.1351 0.8358 -0.5321
vn 0.5578 0.7271 -0.4004
vn 0.6459 0.6989 0.3073
vn -0.5563 -0.6733 0.4870
vn 0.1368 -0.7629 0.6319
vn -0.6437 -0.7334 -0.2187
vn -0.0046 -0.8601 -0.5100
vn 0.4777 -0.8784 0.0156
vn 0.3844 -0.1543 0.9102
vn -0.7369 -0.0093 0.6759
vn -0.8784 -0.1065 -0.4660
vn 0.1556 -0.3115 -0.9374
vn 0.9360 -0.3410 -0.0869
vn -0.1556 0.3115 0.9374
vn -0.9360 0.3411 0.0869
vn -0.3844 0.1542 -0.9102
vn 0.7369 0.0093 -0.6759
vn 0.8784 0.1065 0.4660
vn 0.0046 0.8601 0.5100
vn -0.4777 0.8784 -0.0156
vn -0.1368 0.7629 -0.6318
vn 0.5562 0.6733 -0.4870
vn 0.6436 0.7334 0.2187
vn -0.4256 -0.7657 0.4823
vn 0.2751 -0.7388 0.6152
vn -0.5140 -0.8283 -0.2230
vn 0.1320 -0.8401 -0.5261
vn 0.6197 -0.7848 -0.0080
vn 0.4210 -0.1015 0.9013
vn -0.7127 -0.1450 0.6864
vn -0.8558 -0.2463 -0.4549
vn 0.1895 -0.2655 -0.9453
vn 0.9786 -0.1760 -0.1071
vn -0.1895 0.2655 0.9453
vn -0.9786 0.1760 0.1071
vn -0.4210 0.1015 -0.9013
vn 0.7126 0.1450 -0.6864
vn 0.8558 0.2463 0.4549
vn -0.1320 0.8401 0.5261
vn -0.6197 0.7848 0.0081
vn -0.2751 0.7388 -0.6152
vn 0.4255 0.7657 -0.4823
vn 0.5140 0.8283 0.2230
vn -0.5260 -0.7947 -0.3031
vn 0.1257 -0.7947 -0.5939
vn -0.8510 -0.1876 -0.4905
vn 0.2035 -0.1876 -0.9609
vn -0.4002 0.1876 -0.8970
vn 0.7294 0.1876 -0.6578
vn -0.2474 0.7946 -0.5544
vn 0.4508 0.7947 -0.4066
vn -0.3506 -0.8579 0.3756
vn 0.3446 -0.7827 0.5183
vn -0.4338 -0.8373 -0.3329
vn 0.2100 -0.7493 -0.6280
vn 0.6911 -0.7156 -0.1019
vn 0.4300 -0.1767 0.8854
vn -0.6948 -0.2984 0.6544
vn -0.8293 -0.2650 -0.4919
vn 0.2123 -0.1226 -0.9695
vn 0.9907 -0.0681 -0.1182
vn -0.2124 0.1226 0.9695
vn -0.9907 0.0681 0.1182
vn -0.4300 0.1767 -0.8854
vn 0.6948 0.2984 -0.6544
vn 0.8293 0.2650 0.4919
vn -0.2101 0.7493 0.6280
vn -0.6911 0.7156 0.1019
vn -0.3446 0.7827 -0.5183
vn 0.3506 0.8579 -0.3756
vn 0.4337 0.8373 0.3329
vn 0.1950 -0.0718 -0.9782
vn -0.4029 0.3007 -0.8644
vn -0.2395 0.8595 -0.4516
vn 0.4595 0.8322 -0.3103
vn -0.4508 -0.7946 0.4066
vn 0.2473 -0.7947 0.5544
vn -0.5260 -0.7946 -0.3031
vn 0.1258 -0.7946 -0.5939
vn 0.6037 -0.7947 -0.0639
vn 0.4002 -0.1876 0.8970
vn -0.7294 -0.1876 0.6578
vn -0.8510 -0.1876 -0.4904
vn 0.9768 -0.1876 -0.1034
vn -0.2035 0.1876 0.9609
vn -0.9768 0.1876 0.1034
vn 0.8510 0.1876 0.4905
vn -0.1258 0.7947 0.5939
vn -0.6037 0.7946 0.0639
vn 0.5260 0.7947 0.3031
vn -0.4508 -0.7947 0.4066
vn -0.6037 0.7947 0.0639
vn -0.4595 -0.8322 0.3103
vn 0.2395 -0.8595 0.4516
vn -0.5389 -0.7448 -0.3935
vn 0.1110 -0.7180 -0.6871
vn 0.5921 -0.7889 -0.1648
vn 0.4030 -0.3007 0.8644
vn -0.7280 -0.2567 0.6357
vn -0.8565 -0.1152 -0.5031
vn 0.9734 -0.1865 -0.1330
vn -0.1950 0.0719 0.9782
vn -0.9734 0.1865 0.1330
vn 0.7280 0.2567 -0.6357
vn 0.8565 0.1152 0.5031
vn -0.1110 0.7180 0.6871
vn -0.5921 0.7889 0.1648
vn 0.5389 0.7448 0.3935
vn -0.8790 -0.0454 -0.4746
vt 0.363301 0.756101
vt 0.363471 0.755626
vt 0.363030 0.756260
vt 0.362722 0.755776
vt 0.362568 0.756352
vt 0.363280 0.755327
vt 0.362094 0.755733
vt 0.362534 0.755100
vt 0.362263 0.755258
vt 0.362997 0.755007
vt 0.362284 0.756032
vt 0.362842 0.755583
vt 0.360198 0.754454
vt 0.360724 0.754759
vt 0.359984 0.755006
vt 0.360718 0.753990
vt 0.359520 0.754391
vt 0.359974 0.753763
vt 0.360826 0.754255
vt 0.360373 0.754883
vt 0.359629 0.754656
vt 0.359622 0.753887
vt 0.360362 0.753640
vt 0.360149 0.754191
vt 0.358322 0.757679
vt 0.358829 0.758052
vt 0.358094 0.758309
vt 0.358814 0.757272
vt 0.357625 0.757687
vt 0.358070 0.757046
vt 0.358890 0.757650
vt 0.358445 0.758290
vt 0.357701 0.758064
vt 0.357686 0.757284
vt 0.358421 0.757028
vt 0.358193 0.757657
vt 0.360288 0.759016
vt 0.360083 0.759647
vt 0.359624 0.759016
vt 0.360083 0.758384
vt 0.359751 0.759406
vt 0.359751 0.758625
vt 0.360493 0.758384
vt 0.361121 0.761361
vt 0.361659 0.761794
vt 0.360919 0.762040
vt 0.361651 0.761019
vt 0.360454 0.761417
vt 0.360906 0.760786
vt 0.361776 0.761487
vt 0.361324 0.762118
vt 0.360579 0.761885
vt 0.360571 0.761111
vt 0.361311 0.760864
vt 0.361109 0.761544
vt 0.363765 0.758931
vt 0.363312 0.759566
vt 0.363514 0.759199
vt 0.363518 0.759979
vt 0.364097 0.759599
vt 0.364250 0.758951
vt 0.362313 0.758019
vt 0.362850 0.758409
vt 0.362107 0.758650
vt 0.362850 0.757629
vt 0.361648 0.758019
vt 0.362107 0.757387
vt 0.362977 0.758019
vt 0.362518 0.758650
vt 0.361775 0.758409
vt 0.361775 0.757629
vt 0.362518 0.757387
vt 0.360825 0.759406
vt 0.360825 0.758625
vt 0.360952 0.759016
vt 0.360493 0.759647
vt 0.363924 0.759545
vt 0.364507 0.759945
vt 0.363771 0.760193
vt 0.364503 0.759165
vt 0.364709 0.759578
vt 0.364256 0.760213
s 1
f 1/1/1 3/2/1 2/3/1
f 4/4/2 6/1/2 5/5/2
f 7/1/3 9/4/3 8/6/3
f 10/4/4 12/5/4 11/7/4
f 13/4/5 15/7/5 14/8/5
f 16/4/6 18/8/6 17/6/6
f 19/1/7 21/6/7 20/2/7
f 22/5/8 24/1/8 23/3/8
f 25/8/9 27/7/9 26/9/9
f 28/6/10 30/8/10 29/10/10
f 31/5/11 33/3/11 32/11/11
f 34/7/12 36/11/12 35/9/12
f 37/8/13 39/9/13 38/10/13
f 40/6/14 42/10/14 41/2/14
f 43/3/15 45/2/15 44/12/15
f 46/11/16 48/3/16 47/12/16
f 49/9/17 51/11/17 50/12/17
f 52/10/18 54/9/18 53/12/18
f 55/2/19 57/10/19 56/12/19
f 58/13/20 60/14/20 59/15/20
f 61/14/21 63/13/21 62/16/21
f 64/13/22 66/15/22 65/17/22
f 67/13/23 69/17/23 68/18/23
f 70/13/24 72/18/24 71/16/24
f 73/14/25 75/16/25 74/19/25
f 76/15/26 78/14/26 77/20/26
f 79/17/27 81/15/27 80/21/27
f 82/18/28 84/17/28 83/22/28
f 85/16/29 87/18/29 86/23/29
f 88/14/30 90/19/30 89/20/30
f 91/15/31 93/20/31 92/21/31
f 94/17/32 96/21/32 95/22/32
f 97/18/33 99/22/33 98/23/33
f 100/16/34 102/23/34 101/19/34
f 103/20/35 105/19/35 104/24/35
f 106/21/36 108/20/36 107/24/36
f 109/22/37 111/21/37 110/24/37
f 112/23/38 114/22/38 113/24/38
f 115/19/39 117/23/39 116/24/39
f 118/25/40 120/26/40 119/27/40
f 121/26/41 123/25/41 122/28/41
f 124/25/42 126/27/42 125/29/42
f 127/25/43 129/29/43 128/30/43
f 130/25/44 132/30/44 131/28/44
f 133/26/45 135/28/45 134/31/45
f 136/27/46 138/26/46 137/32/46
f 139/29/47 141/27/47 140/33/47
f 142/30/48 144/29/48 143/34/48
f 145/28/49 147/30/49 146/35/49
f 148/26/50 150/31/50 149/32/50
f 151/27/51 153/32/51 152/33/51
f 154/29/52 156/33/52 155/34/52
f 157/30/53 159/34/53 158/35/53
f 160/28/54 162/35/54 161/31/54
f 163/32/55 165/31/55 164/36/55
f 166/33/56 168/32/56 167/36/56
f 169/34/57 171/33/57 170/36/57
f 172/35/58 174/34/58 173/36/58
f 175/31/59 177/35/59 176/36/59
f 178/37/60 180/38/60 179/39/60
f 181/37/61 183/39/61 182/40/61
f 184/39/62 186/38/62 185/41/62
f 187/40/63 189/39/63 188/42/63
f 190/39/64 192/41/64 191/42/64
f 193/40/65 195/42/65 194/43/65
f 196/42/66 198/41/66 197/37/66
f 199/43/67 201/42/67 200/37/67
f 202/44/68 204/45/68 203/46/68
f 205/45/69 207/44/69 206/47/69
f 208/44/70 210/46/70 209/48/70
f 211/44/71 213/48/71 212/49/71
f 214/44/72 216/49/72 215/47/72
f 217/45/73 219/47/73 218/50/73
f 220/46/74 222/45/74 221/51/74
f 223/48/75 225/46/75 224/52/75
f 226/49/76 228/48/76 227/53/76
f 229/47/77 231/49/77 230/54/77
f 232/45/78 234/50/78 233/51/78
f 235/46/79 237/51/79 236/52/79
f 238/48/80 240/52/80 239/53/80
f 241/49/81 243/53/81 242/54/81
f 244/47/82 246/54/82 245/50/82
f 247/51/83 249/50/83 248/55/83
f 250/52/84 252/51/84 251/55/84
f 253/53/85 255/52/85 254/55/85
f 256/54/86 258/53/86 257/55/86
f 259/50/87 261/54/87 260/55/87
f 262/56/88 264/57/88 263/58/88
f 265/57/89 267/59/89 266/58/89
f 268/58/90 270/59/90 269/60/90
f 271/61/91 273/58/91 272/60/91
f 274/62/92 276/63/92 275/64/92
f 277/63/93 279/62/93 278/65/93
f 280/62/94 282/64/94 281/66/94
f 283/62/95 285/66/95 284/67/95
f 286/62/96 288/67/96 287/65/96
f 289/63/97 291/65/97 290/68/97
f 292/64/98 294/63/98 293/69/98
f 295/66/99 297/64/99 296/70/99
f 298/67/63 300/66/63 299/71/63
f 301/65/100 303/67/100 302/72/100
f 304/63/101 306/68/101 305/69/101
f 307/64/102 309/69/102 308/70/102
f 310/66/64 312/70/64 311/71/64
f 313/65/103 315/72/103 314/68/103
f 316/69/104 318/68/104 317/62/104
f 319/70/105 321/69/105 320/62/105
f 322/71/66 324/70/66 323/62/66
f 325/72/67 327/71/67 326/62/67
f 328/68/106 330/72/106 329/62/106
f 331/37/107 333/73/107 332/38/107
f 334/73/93 336/37/93 335/74/93
f 337/37/96 339/40/96 338/74/96
f 340/73/97 342/74/97 341/75/97
f 343/38/98 345/73/98 344/76/98
f 346/74/100 348/40/100 347/43/100
f 349/73/101 351/75/101 350/76/101
f 352/38/102 354/76/102 353/41/102
f 355/74/103 357/43/103 356/75/103
f 358/76/104 360/75/104 359/37/104
f 361/41/108 363/76/108 362/37/108
f 364/75/106 366/43/106 365/37/106
f 367/77/109 369/78/109 368/79/109
f 370/78/110 372/77/110 371/80/110
f 373/77/111 375/79/111 374/57/111
f 376/77/112 378/57/112 377/56/112
f 379/77/113 381/56/113 380/80/113
f 382/78/114 384/80/114 383/81/114
f 385/79/115 387/78/115 386/82/115
f 388/57/116 390/79/116 389/59/116
f 391/80/117 393/56/117 392/61/117
f 394/78/118 396/81/118 395/82/118
f 397/79/119 399/82/119 398/59/119
f 400/56/120 402/58/120 401/61/120
f 403/80/121 405/61/121 404/81/121
f 406/82/122 408/81/122 407/60/122
f 409/59/123 411/82/123 410/60/123
f 412/81/124 414/61/124 413/60/124
f 415/67/65 417/71/65 416/72/65
f 418/7/125 420/5/125 419/11/125
