# Blender 5.1.2
# www.blender.org
o Flor_4_flor_flor.002
v -1.816444 10.894706 -2.308390
v -1.822748 10.942505 -2.328413
v -1.787974 10.934549 -2.290298
v -1.786658 10.867229 -2.341302
v -1.821936 10.900898 -2.359935
v -1.816444 10.894706 -2.308390
v -1.816444 10.894706 -2.308390
v -1.765669 10.888025 -2.298264
v -1.786658 10.867229 -2.341302
v -1.786658 10.867229 -2.341302
v -1.774554 10.898045 -2.381664
v -1.821936 10.900898 -2.359935
v -1.786658 10.867229 -2.341302
v -1.739779 10.890089 -2.343549
v -1.774554 10.898045 -2.381664
v -1.786658 10.867229 -2.341302
v -1.765669 10.888025 -2.298264
v -1.739779 10.890089 -2.343549
v -1.816444 10.894706 -2.308390
v -1.787974 10.934549 -2.290298
v -1.765669 10.888025 -2.298264
v -1.821936 10.900898 -2.359935
v -1.822748 10.942505 -2.328413
v -1.816444 10.894706 -2.308390
v -1.739779 10.890089 -2.343549
v -1.746083 10.937888 -2.363572
v -1.774554 10.898045 -2.381664
v -1.765669 10.888025 -2.298264
v -1.740592 10.931696 -2.312029
v -1.739779 10.890089 -2.343549
v -1.821936 10.900898 -2.359935
v -1.796858 10.944569 -2.373699
v -1.822748 10.942505 -2.328413
v -1.774554 10.898045 -2.381664
v -1.746083 10.937888 -2.363572
v -1.796858 10.944569 -2.373699
v -1.739779 10.890089 -2.343549
v -1.740592 10.931696 -2.312029
v -1.746083 10.937888 -2.363572
v -1.765669 10.888025 -2.298264
v -1.787974 10.934549 -2.290298
v -1.740592 10.931696 -2.312029
v -1.822748 10.942505 -2.328413
v -1.775868 10.965365 -2.330662
v -1.787974 10.934549 -2.290298
v -1.796858 10.944569 -2.373699
v -1.775868 10.965365 -2.330662
v -1.822748 10.942505 -2.328413
v -1.746083 10.937888 -2.363572
v -1.775868 10.965365 -2.330662
v -1.796858 10.944569 -2.373699
v -1.740592 10.931696 -2.312029
v -1.775868 10.965365 -2.330662
v -1.746083 10.937888 -2.363572
v -1.787974 10.934549 -2.290298
v -1.775868 10.965365 -2.330662
v -1.740592 10.931696 -2.312029
v -1.694376 10.806446 -2.449386
v -1.727177 10.840520 -2.471486
v -1.722010 10.839185 -2.419556
v -1.722010 10.839185 -2.419556
v -1.671824 10.829915 -2.408570
v -1.694376 10.806446 -2.449386
v -1.694376 10.806446 -2.449386
v -1.680184 10.832074 -2.492596
v -1.727177 10.840520 -2.471486
v -1.694376 10.806446 -2.449386
v -1.645973 10.825521 -2.453712
v -1.680184 10.832074 -2.492596
v -1.694376 10.806446 -2.449386
v -1.671824 10.829915 -2.408570
v -1.645973 10.825521 -2.453712
v -1.722010 10.839185 -2.419556
v -1.690686 10.878493 -2.405444
v -1.671824 10.829915 -2.408570
v -1.727177 10.840520 -2.471486
v -1.724896 10.885047 -2.444329
v -1.722010 10.839185 -2.419556
v -1.680184 10.832074 -2.492596
v -1.699046 10.880652 -2.489471
v -1.727177 10.840520 -2.471486
v -1.645973 10.825521 -2.453712
v -1.648860 10.871382 -2.478486
v -1.680184 10.832074 -2.492596
v -1.671824 10.829915 -2.408570
v -1.643693 10.870048 -2.426556
v -1.645973 10.825521 -2.453712
v -1.722010 10.839185 -2.419556
v -1.724896 10.885047 -2.444329
v -1.690686 10.878493 -2.405444
v -1.727177 10.840520 -2.471486
v -1.699046 10.880652 -2.489471
v -1.724896 10.885047 -2.444329
v -1.680184 10.832074 -2.492596
v -1.648860 10.871382 -2.478486
v -1.699046 10.880652 -2.489471
v -1.645973 10.825521 -2.453712
v -1.643693 10.870048 -2.426556
v -1.648860 10.871382 -2.478486
v -1.671824 10.829915 -2.408570
v -1.690686 10.878493 -2.405444
v -1.643693 10.870048 -2.426556
v -1.724896 10.885047 -2.444329
v -1.676494 10.904119 -2.448655
v -1.690686 10.878493 -2.405444
v -1.699046 10.880652 -2.489471
v -1.676494 10.904119 -2.448655
v -1.724896 10.885047 -2.444329
v -1.648860 10.871382 -2.478486
v -1.676494 10.904119 -2.448655
v -1.699046 10.880652 -2.489471
v -1.643693 10.870048 -2.426556
v -1.676494 10.904119 -2.448655
v -1.648860 10.871382 -2.478486
v -1.690686 10.878493 -2.405444
v -1.676494 10.904119 -2.448655
v -1.643693 10.870048 -2.426556
v -1.830089 10.936240 -2.576480
v -1.867749 10.963086 -2.600693
v -1.861936 10.967132 -2.548971
v -1.861936 10.967132 -2.548971
v -1.810827 10.966267 -2.538367
v -1.830089 10.936240 -2.576480
v -1.830089 10.936240 -2.576480
v -1.820235 10.959720 -2.622055
v -1.867749 10.963086 -2.600693
v -1.830089 10.936240 -2.576480
v -1.785054 10.961686 -2.583534
v -1.820235 10.959720 -2.622055
v -1.830089 10.936240 -2.576480
v -1.810827 10.966267 -2.538367
v -1.785054 10.961686 -2.583534
v -1.861936 10.967132 -2.548971
v -1.836584 11.011670 -2.539023
v -1.810827 10.966267 -2.538367
v -1.867749 10.963086 -2.600693
v -1.871764 11.009704 -2.577542
v -1.861936 10.967132 -2.548971
v -1.820235 10.959720 -2.622055
v -1.845992 11.005123 -2.622710
v -1.867749 10.963086 -2.600693
v -1.785054 10.961686 -2.583534
v -1.794883 11.004258 -2.612105
v -1.820235 10.959720 -2.622055
v -1.810827 10.966267 -2.538367
v -1.789068 11.008304 -2.560383
v -1.785054 10.961686 -2.583534
v -1.861936 10.967132 -2.548971
v -1.871764 11.009704 -2.577542
v -1.836584 11.011670 -2.539023
v -1.867749 10.963086 -2.600693
v -1.845992 11.005123 -2.622710
v -1.871764 11.009704 -2.577542
v -1.820235 10.959720 -2.622055
v -1.794883 11.004258 -2.612105
v -1.845992 11.005123 -2.622710
v -1.785054 10.961686 -2.583534
v -1.789068 11.008304 -2.560383
v -1.794883 11.004258 -2.612105
v -1.810827 10.966267 -2.538367
v -1.836584 11.011670 -2.539023
v -1.789068 11.008304 -2.560383
v -1.871764 11.009704 -2.577542
v -1.826730 11.035150 -2.584596
v -1.836584 11.011670 -2.539023
v -1.845992 11.005123 -2.622710
v -1.826730 11.035150 -2.584596
v -1.871764 11.009704 -2.577542
v -1.794883 11.004258 -2.612105
v -1.826730 11.035150 -2.584596
v -1.845992 11.005123 -2.622710
v -1.789068 11.008304 -2.560383
v -1.826730 11.035150 -2.584596
v -1.794883 11.004258 -2.612105
v -1.836584 11.011670 -2.539023
v -1.826730 11.035150 -2.584596
v -1.789068 11.008304 -2.560383
v -1.917323 10.812622 -2.495826
v -1.907475 10.840068 -2.539128
v -1.955463 10.840068 -2.518573
v -1.917323 10.812622 -2.495826
v -1.873097 10.840068 -2.499841
v -1.907475 10.840068 -2.539128
v -1.907475 10.840068 -2.539128
v -1.934808 10.884476 -2.536645
v -1.955463 10.840068 -2.518573
v -1.873097 10.840068 -2.499841
v -1.883904 10.884476 -2.525069
v -1.907475 10.840068 -2.539128
v -1.907475 10.840068 -2.539128
v -1.883904 10.884476 -2.525069
v -1.934808 10.884476 -2.536645
v -1.873097 10.840068 -2.499841
v -1.879183 10.884476 -2.473079
v -1.883904 10.884476 -2.525069
v -1.883904 10.884476 -2.525069
v -1.917323 10.911921 -2.495826
v -1.934808 10.884476 -2.536645
v -1.879183 10.884476 -2.473079
v -1.917323 10.911921 -2.495826
v -1.883904 10.884476 -2.525069
v -2.040409 10.891330 -2.480645
v -2.081698 10.913226 -2.503906
v -2.076626 10.915694 -2.452008
v -2.076626 10.915694 -2.452008
v -2.025995 10.922131 -2.441035
v -2.040409 10.891330 -2.480645
v -2.040409 10.891330 -2.480645
v -2.034201 10.918137 -2.525009
v -2.081698 10.913226 -2.503906
v -2.040409 10.891330 -2.480645
v -1.999775 10.923639 -2.486152
v -2.034201 10.918137 -2.525009
v -2.040409 10.891330 -2.480645
v -2.025995 10.922131 -2.441035
v -1.999775 10.923639 -2.486152
v -2.076626 10.915694 -2.452008
v -2.058376 10.963062 -2.439817
v -2.025995 10.922131 -2.441035
v -2.081698 10.913226 -2.503906
v -2.092801 10.957559 -2.478675
v -2.076626 10.915694 -2.452008
v -2.034201 10.918137 -2.525009
v -2.066581 10.959068 -2.523792
v -2.081698 10.913226 -2.503906
v -1.999775 10.923639 -2.486152
v -2.015951 10.965504 -2.512818
v -2.034201 10.918137 -2.525009
v -2.025995 10.922131 -2.441035
v -2.010879 10.967973 -2.460920
v -1.999775 10.923639 -2.486152
v -2.076626 10.915694 -2.452008
v -2.092801 10.957559 -2.478675
v -2.058376 10.963062 -2.439817
v -2.081698 10.913226 -2.503906
v -2.066581 10.959068 -2.523792
v -2.092801 10.957559 -2.478675
v -2.034201 10.918137 -2.525009
v -2.015951 10.965504 -2.512818
v -2.066581 10.959068 -2.523792
v -1.999775 10.923639 -2.486152
v -2.010879 10.967973 -2.460920
v -2.015951 10.965504 -2.512818
v -2.025995 10.922131 -2.441035
v -2.058376 10.963062 -2.439817
v -2.010879 10.967973 -2.460920
v -2.092801 10.957559 -2.478675
v -2.052168 10.989868 -2.484181
v -2.058376 10.963062 -2.439817
v -2.066581 10.959068 -2.523792
v -2.052168 10.989868 -2.484181
v -2.092801 10.957559 -2.478675
v -2.015951 10.965504 -2.512818
v -2.052168 10.989868 -2.484181
v -2.066581 10.959068 -2.523792
v -2.010879 10.967973 -2.460920
v -2.052168 10.989868 -2.484181
v -2.015951 10.965504 -2.512818
v -2.058376 10.963062 -2.439817
v -2.052168 10.989868 -2.484181
v -2.010879 10.967973 -2.460920
v -1.940792 10.827159 -2.325615
v -1.954576 10.873217 -2.345965
v -1.975501 10.829151 -2.364558
v -1.975501 10.829151 -2.364558
v -1.954576 10.873217 -2.345965
v -2.005498 10.871256 -2.357295
v -1.954576 10.873217 -2.345965
v -1.989328 10.895286 -2.313862
v -2.005498 10.871256 -2.357295
v -1.949337 10.868032 -2.294284
v -1.989328 10.895286 -2.313862
v -1.954576 10.873217 -2.345965
v -1.890960 10.723679 -2.385199
v -1.929099 10.751123 -2.407944
v -1.924379 10.751123 -2.355954
v -1.924379 10.751123 -2.355954
v -1.873474 10.751123 -2.344378
v -1.890960 10.723679 -2.385199
v -1.890960 10.723679 -2.385199
v -1.881112 10.751123 -2.428500
v -1.929099 10.751123 -2.407944
v -1.890960 10.723679 -2.385199
v -1.846734 10.751123 -2.389213
v -1.881112 10.751123 -2.428500
v -1.890960 10.723679 -2.385199
v -1.873474 10.751123 -2.344378
v -1.846734 10.751123 -2.389213
v -1.924379 10.751123 -2.355954
v -1.900807 10.795531 -2.341896
v -1.873474 10.751123 -2.344378
v -1.929099 10.751123 -2.407944
v -1.935184 10.795531 -2.381183
v -1.924379 10.751123 -2.355954
v -1.881112 10.751123 -2.428500
v -1.908445 10.795531 -2.426018
v -1.929099 10.751123 -2.407944
v -1.846734 10.751123 -2.389213
v -1.857541 10.795531 -2.414442
v -1.881112 10.751123 -2.428500
v -1.873474 10.751123 -2.344378
v -1.852819 10.795531 -2.362452
v -1.846734 10.751123 -2.389213
v -1.924379 10.751123 -2.355954
v -1.935184 10.795531 -2.381183
v -1.900807 10.795531 -2.341896
v -1.929099 10.751123 -2.407944
v -1.908445 10.795531 -2.426018
v -1.935184 10.795531 -2.381183
v -1.881112 10.751123 -2.428500
v -1.857541 10.795531 -2.414442
v -1.908445 10.795531 -2.426018
v -1.873474 10.751123 -2.344378
v -1.900807 10.795531 -2.341896
v -1.852819 10.795531 -2.362452
v -1.935184 10.795531 -2.381183
v -1.890960 10.822977 -2.385199
v -1.900807 10.795531 -2.341896
v -1.908445 10.795531 -2.426018
v -1.890960 10.822977 -2.385199
v -1.935184 10.795531 -2.381183
v -1.857541 10.795531 -2.414442
v -1.890960 10.822977 -2.385199
v -1.908445 10.795531 -2.426018
v -1.852819 10.795531 -2.362452
v -1.890960 10.822977 -2.385199
v -1.857541 10.795531 -2.414442
v -1.900807 10.795531 -2.341896
v -1.890960 10.822977 -2.385199
v -1.852819 10.795531 -2.362452
v -1.917323 10.812622 -2.495826
v -1.955463 10.840068 -2.518573
v -1.950742 10.840068 -2.466581
v -1.950742 10.840068 -2.466581
v -1.899838 10.840068 -2.455005
v -1.917323 10.812622 -2.495826
v -1.917323 10.812622 -2.495826
v -1.899838 10.840068 -2.455005
v -1.873097 10.840068 -2.499841
v -1.950742 10.840068 -2.466581
v -1.927170 10.884476 -2.452523
v -1.899838 10.840068 -2.455005
v -1.955463 10.840068 -2.518573
v -1.961549 10.884476 -2.491810
v -1.950742 10.840068 -2.466581
v -1.899838 10.840068 -2.455005
v -1.879183 10.884476 -2.473079
v -1.873097 10.840068 -2.499841
v -1.950742 10.840068 -2.466581
v -1.961549 10.884476 -2.491810
v -1.927170 10.884476 -2.452523
v -1.955463 10.840068 -2.518573
v -1.934808 10.884476 -2.536645
v -1.961549 10.884476 -2.491810
v -1.899838 10.840068 -2.455005
v -1.927170 10.884476 -2.452523
v -1.879183 10.884476 -2.473079
v -1.961549 10.884476 -2.491810
v -1.917323 10.911921 -2.495826
v -1.927170 10.884476 -2.452523
v -1.934808 10.884476 -2.536645
v -1.917323 10.911921 -2.495826
v -1.961549 10.884476 -2.491810
v -1.927170 10.884476 -2.452523
v -1.917323 10.911921 -2.495826
v -1.879183 10.884476 -2.473079
v -1.983195 10.796735 -2.324368
v -2.023186 10.823987 -2.343946
v -2.017947 10.818803 -2.292265
v -2.017947 10.818803 -2.292265
v -1.967024 10.820765 -2.280936
v -1.983195 10.796735 -2.324368
v -1.983195 10.796735 -2.324368
v -1.975501 10.829151 -2.364558
v -2.023186 10.823987 -2.343946
v -1.983195 10.796735 -2.324368
v -1.940792 10.827159 -2.325615
v -1.975501 10.829151 -2.364558
v -1.983195 10.796735 -2.324368
v -1.967024 10.820765 -2.280936
v -1.940792 10.827159 -2.325615
v -2.017947 10.818803 -2.292265
v -1.997020 10.862869 -2.273672
v -1.967024 10.820765 -2.280936
v -2.023186 10.823987 -2.343946
v -2.031731 10.864861 -2.312616
v -2.017947 10.818803 -2.292265
v -1.975501 10.829151 -2.364558
v -2.005498 10.871256 -2.357295
v -2.023186 10.823987 -2.343946
v -1.967024 10.820765 -2.280936
v -1.949337 10.868032 -2.294284
v -1.940792 10.827159 -2.325615
v -2.017947 10.818803 -2.292265
v -2.031731 10.864861 -2.312616
v -1.997020 10.862869 -2.273672
v -2.023186 10.823987 -2.343946
v -2.005498 10.871256 -2.357295
v -2.031731 10.864861 -2.312616
v -1.940792 10.827159 -2.325615
v -1.949337 10.868032 -2.294284
v -1.954576 10.873217 -2.345965
v -1.967024 10.820765 -2.280936
v -1.997020 10.862869 -2.273672
v -1.949337 10.868032 -2.294284
v -2.031731 10.864861 -2.312616
v -1.989328 10.895286 -2.313862
v -1.997020 10.862869 -2.273672
v -2.005498 10.871256 -2.357295
v -1.989328 10.895286 -2.313862
v -2.031731 10.864861 -2.312616
v -1.997020 10.862869 -2.273672
v -1.989328 10.895286 -2.313862
v -1.949337 10.868032 -2.294284
v -1.846734 10.751123 -2.389213
v -1.852819 10.795531 -2.362452
v -1.857541 10.795531 -2.414442
v -1.774554 10.898045 -2.381664
v -1.796858 10.944569 -2.373699
v -1.821936 10.900898 -2.359935
vn -0.7044 0.1932 0.6830
vn -0.6864 -0.7271 -0.0142
vn -0.2110 -0.8358 0.5068
vn -0.3325 -0.6989 -0.6333
vn 0.3616 -0.7902 -0.4948
vn 0.4367 -0.8748 0.2098
vn -0.2221 -0.2671 0.9377
vn -0.9913 -0.0911 0.0947
vn 0.7044 -0.1932 -0.6830
vn 0.8259 -0.3302 0.4571
vn -0.8259 0.3302 -0.4571
vn 0.2222 0.2670 -0.9377
vn 0.9913 0.0911 -0.0947
vn 0.4187 0.0454 0.9070
vn -0.3616 0.7902 0.4948
vn -0.4367 0.8748 -0.2098
vn 0.2111 0.8358 -0.5068
vn 0.6864 0.7271 0.0142
vn 0.3325 0.6989 0.6333
vn -0.7372 -0.6733 0.0561
vn -0.2696 -0.7629 0.5876
vn -0.3838 -0.7334 -0.5610
vn 0.3022 -0.8601 -0.4109
vn 0.3729 -0.8784 0.2990
vn -0.2384 -0.1543 0.9588
vn -0.9951 -0.0093 0.0988
vn -0.4233 -0.1065 -0.8997
vn 0.6868 -0.3115 -0.6567
vn 0.8011 -0.3410 0.4919
vn -0.6868 0.3115 0.6567
vn -0.8011 0.3411 -0.4919
vn 0.2384 0.1542 -0.9588
vn 0.9951 0.0093 -0.0988
vn 0.4233 0.1065 0.8997
vn -0.3022 0.8601 0.4109
vn -0.3729 0.8784 -0.2990
vn 0.2695 0.7629 -0.5876
vn 0.7372 0.6733 -0.0560
vn 0.3838 0.7334 0.5610
vn -0.6298 -0.7657 0.1307
vn -0.1489 -0.7388 0.6573
vn -0.2775 -0.8283 -0.4867
vn 0.4212 -0.8401 -0.3418
vn 0.5006 -0.7848 0.3653
vn -0.2038 -0.1015 0.9737
vn -0.9819 -0.1450 0.1217
vn -0.4119 -0.2463 -0.8773
vn 0.7186 -0.2655 -0.6428
vn 0.8472 -0.1760 0.5013
vn -0.7186 0.2655 0.6428
vn -0.8472 0.1760 -0.5013
vn 0.2038 0.1015 -0.9737
vn 0.9819 0.1450 -0.1217
vn 0.4119 0.2463 0.8773
vn -0.4212 0.8401 0.3418
vn -0.5007 0.7848 -0.3653
vn 0.1489 0.7388 -0.6573
vn 0.6298 0.7657 -0.1307
vn 0.2775 0.8283 0.4867
vn -0.2390 -0.7947 -0.5580
vn 0.4568 -0.7947 -0.3998
vn -0.3868 -0.1876 -0.9029
vn 0.7392 -0.1876 -0.6468
vn 0.2178 0.1876 -0.9578
vn 0.9782 0.1876 -0.0888
vn 0.1346 0.7946 -0.5920
vn 0.6046 0.7947 -0.0549
vn -0.5058 -0.8579 0.0902
vn -0.0352 -0.7827 0.6214
vn -0.1474 -0.8373 -0.5265
vn 0.5448 -0.7493 -0.3765
vn 0.6141 -0.7156 0.3330
vn -0.1870 -0.1767 0.9663
vn -0.9484 -0.2984 0.1069
vn -0.3685 -0.2650 -0.8911
vn 0.7514 -0.1226 -0.6483
vn 0.8636 -0.0681 0.4996
vn -0.7514 0.1226 0.6483
vn -0.8636 0.0681 -0.4996
vn 0.1870 0.1767 -0.9663
vn 0.9484 0.2984 -0.1069
vn 0.3685 0.2650 0.8911
vn -0.5448 0.7493 0.3765
vn -0.6141 0.7156 -0.3329
vn 0.0352 0.7827 -0.6214
vn 0.5058 0.8579 -0.0902
vn 0.1474 0.8373 0.5265
vn 0.7428 -0.0718 -0.6657
vn 0.1961 0.3007 -0.9333
vn 0.0793 0.8595 -0.5050
vn 0.5538 0.8322 0.0273
vn -0.6046 -0.7946 0.0549
vn -0.1346 -0.7947 0.5919
vn -0.2390 -0.7946 -0.5580
vn 0.4569 -0.7946 -0.3998
vn 0.5214 -0.7947 0.3110
vn -0.2178 -0.1876 0.9578
vn -0.9782 -0.1876 0.0888
vn 0.8436 -0.1876 0.5031
vn -0.7392 0.1876 0.6468
vn -0.8436 0.1876 -0.5031
vn 0.3868 0.1876 0.9029
vn -0.4569 0.7947 0.3998
vn -0.5214 0.7946 -0.3110
vn 0.2390 0.7947 0.5580
vn -0.6046 -0.7947 0.0549
vn -0.4568 0.7947 0.3998
vn -0.5214 0.7947 -0.3110
vn -0.5538 -0.8322 -0.0273
vn -0.0793 -0.8595 0.5050
vn -0.1952 -0.7448 -0.6381
vn 0.5010 -0.7180 -0.4832
vn 0.5726 -0.7889 0.2233
vn -0.1961 -0.3007 0.9333
vn -0.9638 -0.2567 0.0720
vn -0.3836 -0.1152 -0.9163
vn 0.8586 -0.1865 0.4774
vn -0.7428 0.0719 0.6657
vn -0.8586 0.1865 -0.4774
vn 0.9638 0.2567 -0.0720
vn 0.3836 0.1152 0.9163
vn -0.5010 0.7180 0.4832
vn -0.5726 0.7889 -0.2233
vn 0.1952 0.7448 0.6381
vn -0.4187 -0.0454 -0.9070
vt 0.363301 0.756101
vt 0.363471 0.755626
vt 0.363030 0.756260
vt 0.362722 0.755776
vt 0.362568 0.756352
vt 0.363280 0.755327
vt 0.362094 0.755733
vt 0.362534 0.755100
vt 0.362263 0.755258
vt 0.362997 0.755007
vt 0.362284 0.756032
vt 0.362842 0.755583
vt 0.360198 0.754454
vt 0.360724 0.754759
vt 0.359984 0.755006
vt 0.360718 0.753990
vt 0.359520 0.754391
vt 0.359974 0.753763
vt 0.360826 0.754255
vt 0.360373 0.754883
vt 0.359629 0.754656
vt 0.359622 0.753887
vt 0.360362 0.753640
vt 0.360149 0.754191
vt 0.358322 0.757679
vt 0.358829 0.758052
vt 0.358094 0.758309
vt 0.358814 0.757272
vt 0.357625 0.757687
vt 0.358070 0.757046
vt 0.358890 0.757650
vt 0.358445 0.758290
vt 0.357701 0.758064
vt 0.357686 0.757284
vt 0.358421 0.757028
vt 0.358193 0.757657
vt 0.360288 0.759016
vt 0.360083 0.759647
vt 0.359624 0.759016
vt 0.360083 0.758384
vt 0.359751 0.759406
vt 0.359751 0.758625
vt 0.360493 0.758384
vt 0.361121 0.761361
vt 0.361659 0.761794
vt 0.360919 0.762040
vt 0.361651 0.761019
vt 0.360454 0.761417
vt 0.360906 0.760786
vt 0.361776 0.761487
vt 0.361324 0.762118
vt 0.360579 0.761885
vt 0.360571 0.761111
vt 0.361311 0.760864
vt 0.361109 0.761544
vt 0.363765 0.758931
vt 0.363312 0.759566
vt 0.363514 0.759199
vt 0.363518 0.759979
vt 0.364097 0.759599
vt 0.364250 0.758951
vt 0.362313 0.758019
vt 0.362850 0.758409
vt 0.362107 0.758650
vt 0.362850 0.757629
vt 0.361648 0.758019
vt 0.362107 0.757387
vt 0.362977 0.758019
vt 0.362518 0.758650
vt 0.361775 0.758409
vt 0.361775 0.757629
vt 0.362518 0.757387
vt 0.360825 0.759406
vt 0.360825 0.758625
vt 0.360952 0.759016
vt 0.360493 0.759647
vt 0.363924 0.759545
vt 0.364507 0.759945
vt 0.363771 0.760193
vt 0.364503 0.759165
vt 0.364709 0.759578
vt 0.364256 0.760213
s 1
f 1/1/1 3/2/1 2/3/1
f 4/4/2 6/1/2 5/5/2
f 7/1/3 9/4/3 8/6/3
f 10/4/4 12/5/4 11/7/4
f 13/4/5 15/7/5 14/8/5
f 16/4/6 18/8/6 17/6/6
f 19/1/7 21/6/7 20/2/7
f 22/5/8 24/1/8 23/3/8
f 25/8/9 27/7/9 26/9/9
f 28/6/10 30/8/10 29/10/10
f 31/5/11 33/3/11 32/11/11
f 34/7/12 36/11/12 35/9/12
f 37/8/13 39/9/13 38/10/13
f 40/6/14 42/10/14 41/2/14
f 43/3/15 45/2/15 44/12/15
f 46/11/16 48/3/16 47/12/16
f 49/9/17 51/11/17 50/12/17
f 52/10/18 54/9/18 53/12/18
f 55/2/19 57/10/19 56/12/19
f 58/13/20 60/14/20 59/15/20
f 61/14/21 63/13/21 62/16/21
f 64/13/22 66/15/22 65/17/22
f 67/13/23 69/17/23 68/18/23
f 70/13/24 72/18/24 71/16/24
f 73/14/25 75/16/25 74/19/25
f 76/15/26 78/14/26 77/20/26
f 79/17/27 81/15/27 80/21/27
f 82/18/28 84/17/28 83/22/28
f 85/16/29 87/18/29 86/23/29
f 88/14/30 90/19/30 89/20/30
f 91/15/31 93/20/31 92/21/31
f 94/17/32 96/21/32 95/22/32
f 97/18/33 99/22/33 98/23/33
f 100/16/34 102/23/34 101/19/34
f 103/20/35 105/19/35 104/24/35
f 106/21/36 108/20/36 107/24/36
f 109/22/37 111/21/37 110/24/37
f 112/23/38 114/22/38 113/24/38
f 115/19/39 117/23/39 116/24/39
f 118/25/40 120/26/40 119/27/40
f 121/26/41 123/25/41 122/28/41
f 124/25/42 126/27/42 125/29/42
f 127/25/43 129/29/43 128/30/43
f 130/25/44 132/30/44 131/28/44
f 133/26/45 135/28/45 134/31/45
f 136/27/46 138/26/46 137/32/46
f 139/29/47 141/27/47 140/33/47
f 142/30/48 144/29/48 143/34/48
f 145/28/49 147/30/49 146/35/49
f 148/26/50 150/31/50 149/32/50
f 151/27/51 153/32/51 152/33/51
f 154/29/52 156/33/52 155/34/52
f 157/30/53 159/34/53 158/35/53
f 160/28/54 162/35/54 161/31/54
f 163/32/55 165/31/55 164/36/55
f 166/33/56 168/32/56 167/36/56
f 169/34/57 171/33/57 170/36/57
f 172/35/58 174/34/58 173/36/58
f 175/31/59 177/35/59 176/36/59
f 178/37/60 180/38/60 179/39/60
f 181/37/61 183/39/61 182/40/61
f 184/39/62 186/38/62 185/41/62
f 187/40/63 189/39/63 188/42/63
f 190/39/64 192/41/64 191/42/64
f 193/40/65 195/42/65 194/43/65
f 196/42/66 198/41/66 197/37/66
f 199/43/67 201/42/67 200/37/67
f 202/44/68 204/45/68 203/46/68
f 205/45/69 207/44/69 206/47/69
f 208/44/70 210/46/70 209/48/70
f 211/44/71 213/48/71 212/49/71
f 214/44/72 216/49/72 215/47/72
f 217/45/73 219/47/73 218/50/73
f 220/46/74 222/45/74 221/51/74
f 223/48/75 225/46/75 224/52/75
f 226/49/76 228/48/76 227/53/76
f 229/47/77 231/49/77 230/54/77
f 232/45/78 234/50/78 233/51/78
f 235/46/79 237/51/79 236/52/79
f 238/48/80 240/52/80 239/53/80
f 241/49/81 243/53/81 242/54/81
f 244/47/82 246/54/82 245/50/82
f 247/51/83 249/50/83 248/55/83
f 250/52/84 252/51/84 251/55/84
f 253/53/85 255/52/85 254/55/85
f 256/54/86 258/53/86 257/55/86
f 259/50/87 261/54/87 260/55/87
f 262/56/88 264/57/88 263/58/88
f 265/57/89 267/59/89 266/58/89
f 268/58/90 270/59/90 269/60/90
f 271/61/91 273/58/91 272/60/91
f 274/62/92 276/63/92 275/64/92
f 277/63/93 279/62/93 278/65/93
f 280/62/94 282/64/94 281/66/94
f 283/62/95 285/66/95 284/67/95
f 286/62/96 288/67/96 287/65/96
f 289/63/97 291/65/97 290/68/97
f 292/64/98 294/63/98 293/69/98
f 295/66/62 297/64/62 296/70/62
f 298/67/63 300/66/63 299/71/63
f 301/65/99 303/67/99 302/72/99
f 304/63/100 306/68/100 305/69/100
f 307/64/101 309/69/101 308/70/101
f 310/66/64 312/70/64 311/71/64
f 313/65/102 315/72/102 314/68/102
f 316/69/103 318/68/103 317/62/103
f 319/70/104 321/69/104 320/62/104
f 322/71/66 324/70/66 323/62/66
f 325/72/67 327/71/67 326/62/67
f 328/68/105 330/72/105 329/62/105
f 331/37/106 333/73/106 332/38/106
f 334/73/93 336/37/93 335/74/93
f 337/37/96 339/40/96 338/74/96
f 340/73/97 342/74/97 341/75/97
f 343/38/98 345/73/98 344/76/98
f 346/74/99 348/40/99 347/43/99
f 349/73/100 351/75/100 350/76/100
f 352/38/101 354/76/101 353/41/101
f 355/74/102 357/43/102 356/75/102
f 358/76/107 360/75/107 359/37/107
f 361/41/108 363/76/108 362/37/108
f 364/75/105 366/43/105 365/37/105
f 367/77/109 369/78/109 368/79/109
f 370/78/110 372/77/110 371/80/110
f 373/77/111 375/79/111 374/57/111
f 376/77/112 378/57/112 377/56/112
f 379/77/113 381/56/113 380/80/113
f 382/78/114 384/80/114 383/81/114
f 385/79/115 387/78/115 386/82/115
f 388/57/116 390/79/116 389/59/116
f 391/80/117 393/56/117 392/61/117
f 394/78/118 396/81/118 395/82/118
f 397/79/119 399/82/119 398/59/119
f 400/56/120 402/58/120 401/61/120
f 403/80/121 405/61/121 404/81/121
f 406/82/122 408/81/122 407/60/122
f 409/59/123 411/82/123 410/60/123
f 412/81/124 414/61/124 413/60/124
f 415/67/65 417/71/65 416/72/65
f 418/7/125 420/5/125 419/11/125
