# Blender 5.1.2
# www.blender.org
mtllib TADPOLE_tail_3.mtl
o o_pasted__Kikkervis.001
v 0.001460 0.030518 -0.137055
v 0.001995 0.036748 -0.137055
v 0.001773 0.030983 -0.137055
v 0.002216 0.030983 -0.137055
v 0.002529 0.030518 -0.137055
v 0.002529 0.029859 -0.137055
v 0.002216 0.029393 -0.137055
v 0.001995 0.024658 -0.137055
v 0.001773 0.029393 -0.137055
v 0.001460 0.029859 -0.137055
v 0.001567 0.027524 -0.122793
v 0.000962 0.026353 -0.122793
v 0.000962 0.024696 -0.122793
v 0.001567 0.023525 -0.122793
v -0.000745 0.019504 -0.078746
v 0.000860 0.016393 -0.078746
v -0.002384 0.014825 -0.027035
v -0.000745 0.023902 -0.078746
v 0.000181 0.026825 -0.027036
v -0.002384 0.021855 -0.027035
v 0.000860 0.027011 -0.078746
v 0.001995 0.052269 -0.078746
v 0.001995 0.042027 -0.122793
v 0.002422 0.027524 -0.122793
v 0.003129 0.027011 -0.078746
v 0.004734 0.023902 -0.078746
v 0.003026 0.026353 -0.122793
v 0.004734 0.019504 -0.078746
v 0.003026 0.024696 -0.122793
v 0.003129 0.016393 -0.078746
v 0.002422 0.023525 -0.122793
v 0.001995 0.011613 -0.122793
v 0.001995 -0.002578 -0.078746
v 0.003808 0.009855 -0.027035
v 0.001995 -0.013990 -0.027035
v 0.001995 -0.017575 -0.007999
v 0.002733 -0.009091 -0.007664
v 0.000181 0.009855 -0.027035
v -0.000009 0.007390 -0.007062
v 0.000743 -0.001240 -0.007385
v -0.001091 0.009808 -0.006982
v -0.002846 0.013196 -0.006872
v -0.002851 0.017955 -0.006689
v -0.002854 0.021435 -0.006555
v -0.001746 0.023925 -0.006446
v -0.000016 0.027284 -0.006296
v 0.001172 0.048924 -0.005449
v 0.001995 0.059618 -0.027035
v 0.001995 0.061951 -0.004937
v 0.003199 0.040079 -0.005765
v 0.004006 0.027285 -0.006248
v 0.003808 0.026825 -0.027035
v 0.005121 0.024777 -0.006331
v 0.006373 0.021855 -0.027035
v 0.006845 0.021432 -0.006440
v 0.006842 0.017932 -0.006574
v 0.006373 0.014825 -0.027035
v 0.006838 0.013187 -0.006757
v 0.005748 0.010754 -0.006864
v 0.003998 0.007385 -0.007014
vn -0.8104 0.0618 -0.5826
vn 0.0628 0.9772 -0.2028
vn 0.6129 0.1585 -0.7741
vn -0.5092 -0.7361 0.4459
vn -0.9750 0.2211 0.0215
vn 0.5534 0.3282 -0.7655
vn 0.5617 -0.0254 -0.8270
vn 0.5217 -0.1901 -0.8317
vn 0.0602 -0.9278 -0.3681
vn -0.5016 -0.7088 0.4959
vn -0.7123 0.0816 -0.6971
vn -0.8531 -0.5116 -0.1024
vn -0.9480 0.1974 0.2498
vn -0.9665 -0.2510 -0.0543
vn -0.8797 -0.4717 -0.0607
vn -0.9627 -0.2672 -0.0434
vn -0.8812 -0.4703 -0.0481
vn -0.9494 0.2176 0.2266
vn -0.9656 0.2602 0.0001
vn -0.9672 0.2539 -0.0111
vn -0.9503 0.2218 0.2187
vn 0.0011 0.9775 -0.2110
vn 0.0017 0.9537 -0.3007
vn 0.9630 0.2656 0.0456
vn 0.9654 0.2607 -0.0084
vn 0.8827 0.4693 -0.0238
vn 0.8773 0.4799 -0.0015
vn 0.9981 0.0129 -0.0607
vn 0.9948 0.0068 -0.1019
vn 0.9665 -0.2519 -0.0498
vn 0.9792 -0.1874 -0.0779
vn -0.0019 -0.8833 -0.4687
vn -0.0017 -0.9602 -0.2794
vn 0.9654 -0.2573 -0.0433
vn -0.0012 -0.9769 -0.2135
vn -0.9967 -0.0811 -0.0076
vn -0.9598 -0.2791 -0.0281
vn 0.9965 -0.0824 -0.0111
vn -0.0000 -0.9850 -0.1727
vn 0.9604 -0.2762 -0.0359
vn -0.9690 -0.2462 -0.0202
vn -0.8977 -0.4388 0.0392
vn -0.9447 -0.2474 0.2152
vn -0.0119 -0.0385 0.9992
vn -0.9836 -0.1203 0.1345
vn -0.9581 0.1967 0.2083
vn -0.8621 0.4835 0.1519
vn -0.9631 0.2688 -0.0133
vn -0.9982 0.0603 -0.0027
vn 0.0012 0.9896 -0.1437
vn 0.0139 0.9955 -0.0934
vn 0.9983 0.0584 0.0001
vn 0.9714 0.2375 0.0038
vn 0.9663 0.2573 0.0025
vn 0.8981 0.4311 0.0866
vn 0.9375 0.2644 0.2265
vn 0.9521 0.1907 0.2392
vn 0.9836 -0.1203 0.1345
vn 0.9623 -0.1955 0.1891
vn 0.9514 -0.2467 0.1844
vn 0.8602 -0.4988 0.1063
vn -0.0118 -0.0386 0.9992
vn -0.0119 -0.0387 0.9992
vn -0.0119 -0.0383 0.9992
vt 0.130346 0.887523
vt 0.125277 0.937253
vt 0.123177 0.891236
vt 0.127376 0.891236
vt 0.117315 0.040734
vt 0.152606 0.052616
vt 0.116533 0.042009
vt 0.120208 0.887523
vt 0.120208 0.882264
vt 0.123177 0.878545
vt 0.125277 0.840751
vt 0.127376 0.878545
vt 0.130346 0.882264
vt 0.118273 0.039269
vt 0.156803 0.046390
vt 0.154463 0.049858
vt 0.118987 0.037974
vt 0.158554 0.043565
vt 0.257393 0.098029
vt 0.262572 0.090893
vt 0.368038 0.170420
vt 0.250639 0.106828
vt 0.346302 0.194177
vt 0.245198 0.113777
vt 0.355997 0.183677
vt 0.206169 0.163953
vt 0.133030 0.082853
vt 0.100954 0.099226
vt 0.107928 0.055017
vt 0.094110 0.062243
vt 0.152304 0.197672
vt 0.144840 0.202375
vt 0.098020 0.100791
vt 0.135401 0.208195
vt 0.094331 0.102763
vt 0.092761 0.062889
vt 0.127775 0.212618
vt 0.091341 0.104215
vt 0.091206 0.063692
vt 0.064660 0.118443
vt 0.078807 0.069895
vt 0.089845 0.064270
vt 0.086837 0.237723
vt 0.291742 0.052731
vt 0.175448 0.018482
vt 0.125717 0.027571
vt 0.184620 0.334035
vt 0.135875 0.369959
vt 0.418070 0.114854
vt 0.435308 0.174299
vt 0.377359 0.159714
vt 0.175744 0.403077
vt 0.159019 0.416591
vt 0.210426 0.379612
vt 0.419846 0.189804
vt 0.415152 0.194591
vt 0.409004 0.202079
vt 0.521217 0.811710
vt 0.499269 0.711784
vt 0.492073 0.575346
vt 0.401201 0.211368
vt 0.394965 0.217567
vt 0.390046 0.222346
vt 0.390045 0.222346
vt 0.383771 0.229692
vt 0.347845 0.272125
vt 0.289495 0.256331
vt 0.347845 0.272125
vt 0.324343 0.294935
vt 0.278207 0.326899
vt 0.253681 0.347705
vt 0.222015 0.306619
vt 0.248455 0.352220
vt 0.210600 0.315207
vt 0.248457 0.352219
vt 0.240613 0.357778
vt 0.233804 0.363403
vt 0.196206 0.325848
vt 0.223809 0.370207
vt 0.218518 0.374374
vt 0.218518 0.374374
vt 0.210425 0.379613
vt 0.461979 0.142459
vt 0.415153 0.194590
vt 0.504790 0.489133
vt 0.513562 0.361633
vt 0.518544 0.427873
vt 0.527060 0.556510
vt 0.539043 0.582839
vt 0.546501 0.601850
vt 0.499533 0.556489
vt 0.546478 0.638894
vt 0.546464 0.666213
vt 0.534583 0.692295
vt 0.526892 0.711858
vt 0.479899 0.638911
vt 0.479983 0.601768
vt 0.479841 0.666078
vt 0.487423 0.685538
vt 0.512707 0.982435
vt 0.507195 0.880731
vt 0.409004 0.202080
vt 0.383770 0.229692
s 1
usemtl Kikkerbis
f 1/1/1 2/2/2 4/3/3
f 1/1/1 3/4/4 2/2/2
f 1/5/1 11/6/5 3/7/4
f 1/1/1 4/3/3 5/8/6
f 1/1/1 5/8/6 6/9/7
f 1/1/1 6/9/7 7/10/8
f 1/1/1 7/10/8 8/11/9
f 1/1/1 8/11/9 9/12/10
f 1/1/1 9/12/10 10/13/11
f 1/5/1 10/14/11 13/15/12
f 1/5/1 12/16/13 11/6/5
f 1/5/1 13/15/12 12/16/13
f 9/17/10 14/18/14 13/15/12
f 14/18/14 15/19/15 13/15/12
f 12/16/13 13/15/12 15/19/15
f 9/17/10 13/15/12 10/14/11
f 14/18/14 16/20/16 15/19/15
f 16/20/16 17/21/17 15/19/15
f 18/22/18 15/19/15 17/21/17
f 12/16/13 15/19/15 18/22/18
f 18/22/18 19/23/19 21/24/20
f 18/22/18 20/25/21 19/23/19
f 18/22/18 17/21/17 20/25/21
f 12/16/13 18/22/18 21/24/20
f 19/23/19 22/26/22 21/24/20
f 21/24/20 22/26/22 23/27/23
f 12/16/13 21/24/20 11/6/5
f 21/24/20 23/27/23 11/6/5
f 22/26/22 24/28/24 23/27/23
f 11/6/5 23/27/23 2/29/2
f 23/27/23 24/28/24 4/30/3
f 23/27/23 4/30/3 2/29/2
f 22/26/22 25/31/25 24/28/24
f 24/28/24 25/31/25 26/32/26
f 24/28/24 26/32/26 27/33/27
f 4/30/3 24/28/24 27/33/27
f 27/33/27 26/32/26 28/34/28
f 27/33/27 28/34/28 29/35/29
f 5/36/6 27/33/27 29/35/29
f 4/30/3 27/33/27 5/36/6
f 29/35/29 28/34/28 30/37/30
f 29/35/29 30/37/30 31/38/31
f 6/39/7 29/35/29 31/38/31
f 5/36/6 29/35/29 6/39/7
f 30/37/30 32/40/32 31/38/31
f 31/38/31 32/40/32 8/41/9
f 6/39/7 31/38/31 7/42/8
f 31/38/31 8/41/9 7/42/8
f 30/37/30 33/43/33 32/40/32
f 33/44/33 14/18/14 32/45/32
f 32/45/32 14/18/14 9/17/10
f 32/45/32 9/17/10 8/46/9
f 34/47/34 33/43/33 30/37/30
f 34/47/34 35/48/35 33/43/33
f 35/49/35 16/20/16 33/44/33
f 33/44/33 16/20/16 14/18/14
f 35/49/35 40/50/36 38/51/37
f 35/48/35 37/52/38 36/53/39
f 37/52/38 34/47/34 60/54/40
f 35/49/35 38/51/37 16/20/16
f 38/51/37 39/55/41 41/56/42
f 38/51/37 40/50/36 39/55/41
f 38/51/37 42/57/43 17/21/17
f 16/20/16 38/51/37 17/21/17
s 0
f 50/58/44 46/59/44 41/60/44
s 1
f 17/21/17 43/61/45 20/25/21
f 20/25/21 43/61/45 44/62/46
f 20/25/21 44/62/46 45/63/47
f 19/23/19 45/64/47 46/65/48
f 19/23/19 47/66/49 48/67/50
f 48/67/50 47/68/49 49/69/51
f 50/70/52 48/67/50 49/69/51
f 51/71/53 52/72/54 50/70/52
f 52/72/54 51/71/53 53/73/55
f 48/67/50 52/72/54 25/31/25
f 54/74/56 53/75/55 55/76/57
f 25/31/25 52/72/54 54/74/56
f 54/74/56 55/76/57 56/77/58
f 57/78/59 56/77/58 58/79/60
f 26/32/26 54/74/56 57/78/59
f 25/31/25 54/74/56 26/32/26
f 57/78/59 58/79/60 59/80/61
f 34/47/34 59/81/61 60/82/40
f 28/34/28 57/78/59 34/47/34
f 26/32/26 57/78/59 28/34/28
f 19/23/19 48/67/50 22/26/22
f 48/67/50 25/31/25 22/26/22
f 28/34/28 34/47/34 30/37/30
f 11/6/5 2/29/2 3/7/4
f 35/49/35 36/83/39 40/50/36
f 37/52/38 35/48/35 34/47/34
f 38/51/37 41/84/42 42/57/43
s 0
f 40/85/44 36/86/44 37/87/44
f 60/88/62 59/89/62 58/90/62
f 40/85/44 37/87/44 60/88/44
f 39/91/44 40/85/44 60/88/44
f 60/88/44 58/90/44 56/92/44
f 56/92/44 55/93/44 53/94/44
f 56/92/44 53/94/44 51/95/44
f 39/91/44 60/88/44 56/92/44
f 43/96/44 42/97/44 41/60/44
f 41/60/44 39/91/44 56/92/44
f 41/60/44 56/92/44 51/95/44
f 44/98/44 43/96/44 41/60/44
f 46/59/63 45/99/63 44/98/63
f 49/100/64 47/101/64 46/59/64
f 41/60/44 51/95/44 50/58/44
f 50/58/44 49/100/44 46/59/44
f 46/59/44 44/98/44 41/60/44
s 1
f 17/21/17 42/102/43 43/61/45
f 19/23/19 20/25/21 45/64/47
f 19/23/19 46/103/48 47/66/49
f 50/70/52 52/72/54 48/67/50
f 54/74/56 52/72/54 53/75/55
f 57/78/59 54/74/56 56/77/58
f 34/47/34 57/78/59 59/81/61
