# Blender 4.3.0
# www.blender.org
o Object_4
v -0.205643 0.265800 0.169288
v -0.293292 0.389282 0.509710
v -0.180779 0.390157 0.565199
v -0.082993 0.365165 0.398655
v 0.043405 0.181604 0.192883
v 0.234780 0.357268 0.347555
v 0.494314 0.338263 0.389502
v 0.413046 0.358141 0.213855
v 0.350130 0.342286 0.124723
v 0.538882 0.384664 0.069668
v 0.706662 0.357881 -0.043059
v 0.672581 0.357881 -0.150543
v 0.468099 0.379743 -0.189867
v 0.229536 0.325034 -0.184623
v 0.287211 0.370348 -0.320946
v 0.281970 0.400592 -0.478238
v 0.122052 0.395580 -0.501833
v -0.058835 0.252205 -0.239675
v -0.223624 0.425312 -0.286813
v -0.331110 0.430919 -0.310405
v -0.380919 0.428467 -0.229137
v -0.348223 0.420204 -0.149736
v -0.281670 0.297017 -0.092868
v -0.423234 0.336593 -0.043059
v -0.491394 0.311187 0.040832
v -0.459934 0.354685 0.127344
v -0.263770 0.380729 0.358756
v -0.001806 -0.000187 0.003516
v -0.125699 0.283849 -0.109862
v -0.156294 0.398244 -0.262925
v -0.099130 0.363906 -0.441015
v -0.006273 0.362675 -0.457705
v 0.099208 0.395209 -0.326378
v 0.154543 0.274436 -0.140343
v 0.284084 0.382185 -0.138237
v 0.442130 0.375584 -0.033318
v 0.456509 0.375584 0.083853
v 0.334661 0.396221 0.120559
v 0.208783 0.326119 0.135679
v 0.219013 0.437552 0.358451
v 0.145125 0.374961 0.520424
v 0.032864 0.374961 0.540965
v -0.054459 0.429693 0.416857
v -0.100364 0.272590 0.135740
v -0.209994 0.413205 0.110008
v -0.329735 0.451215 0.017171
v -0.336099 0.451745 -0.083145
v -0.207351 0.407699 -0.116052
v 0.024556 0.079656 0.000441
v -0.041367 0.386932 -0.173356
v 0.008008 0.500870 -0.320774
v 0.145617 0.466669 -0.446352
v 0.234124 0.465443 -0.414779
v 0.260224 0.497846 -0.249050
v 0.215891 0.377554 -0.060886
v 0.326787 0.484874 0.005100
v 0.411387 0.478301 0.174045
v 0.365775 0.478301 0.282416
v 0.242306 0.498854 0.253779
v 0.126040 0.429032 0.204495
v 0.024539 0.540022 0.402062
v -0.119540 0.477678 0.505430
v -0.226719 0.477678 0.467571
v -0.240707 0.532193 0.317077
v -0.141127 0.375715 0.051420
v -0.223117 0.515771 -0.025116
v -0.280600 0.553627 -0.164650
v -0.236411 0.554156 -0.254486
v -0.108858 0.510288 -0.219149
v 0.033835 0.183551 -0.003617
v 0.074819 0.521209 -0.130496
v 0.194422 0.670488 -0.215659
v 0.380389 0.642512 -0.241741
v 0.435030 0.637934 -0.165374
v 0.360517 0.659804 -0.012921
v 0.222095 0.498978 0.108046
v 0.270746 0.619282 0.232136
v 0.244079 0.594766 0.418252
v 0.144868 0.584024 0.480760
v 0.059035 0.611156 0.387996
v -0.005181 0.533515 0.276830
v -0.205931 0.645115 0.387222
v -0.380333 0.561181 0.385416
v -0.446652 0.564934 0.293148
v -0.374679 0.644285 0.165507
v -0.134696 0.485671 -0.004495
v -0.164397 0.658793 -0.105226
v -0.133626 0.717368 -0.249827
v -0.046174 0.726897 -0.297963
v 0.040204 0.671547 -0.198843
v 0.048565 0.264002 0.038600
v -0.021280 0.621514 -0.084930
v 0.026824 0.739821 -0.190881
v 0.143920 0.717651 -0.282737
v 0.211754 0.714021 -0.252125
v 0.221324 0.731354 -0.117986
v 0.174562 0.603897 0.019993
v 0.257273 0.699239 0.085699
v 0.313028 0.679810 0.223878
v 0.269891 0.671295 0.306193
v 0.174156 0.692797 0.276751
v 0.085916 0.631265 0.226096
v -0.007773 0.719711 0.381622
v -0.128037 0.653193 0.449760
v -0.210201 0.656167 0.412898
v -0.211638 0.719053 0.296775
v -0.114768 0.593349 0.084784
v -0.175200 0.730552 0.027553
v -0.211628 0.776976 -0.083805
v -0.170832 0.784527 -0.151590
v -0.072196 0.740661 -0.118006
v 0.027991 0.417675 0.041422
vn -0.1835 0.9489 0.2567
vn -0.1996 0.9433 0.2651
vn -0.0588 0.9799 0.1904
vn -0.1993 0.9737 -0.1101
vn -0.2688 0.9492 -0.1635
vn 0.0591 0.9946 0.0852
vn 0.0566 0.9962 -0.0664
vn 0.1349 0.9898 -0.0461
vn -0.5531 0.8075 -0.2049
vn 0.0064 0.9997 0.0234
vn -0.3943 0.8643 0.3123
vn 0.1214 0.7801 0.6137
vn -0.4378 0.8932 -0.1025
vn 0.4318 0.8322 -0.3478
vn 0.5468 0.7846 0.2924
vn -0.1048 0.7999 -0.5909
vn -0.3596 0.8388 0.4088
vn 0.5492 0.7570 0.3539
vn 0.0062 1.0000 -0.0025
vn 0.4190 0.7998 -0.4299
vn -0.4411 0.8431 -0.3076
vn -0.5154 0.8387 0.1758
vn 0.3005 0.7570 0.5802
vn 0.0066 1.0000 0.0009
vn 0.5773 0.7998 -0.1647
vn -0.2297 0.8431 -0.4863
vn -0.6259 0.7726 -0.1068
vn -0.1378 0.6481 0.7490
vn -0.0370 0.9972 0.0649
vn 0.5898 0.7643 0.2606
vn 0.0572 0.8444 -0.5326
vn -0.5949 0.7726 0.2217
vn 0.2568 0.6480 0.7170
vn 0.0006 0.9972 0.0747
vn 0.6410 0.7643 -0.0706
vn -0.2178 0.8444 -0.4894
vn -0.0894 0.9960 0.0034
vn -0.0694 0.9976 -0.0015
vn 0.1202 0.9916 -0.0476
vn 0.1949 0.9199 -0.3404
vn 0.1722 0.9415 -0.2897
vn 0.0743 0.9944 -0.0753
vn 0.0742 0.9944 -0.0753
vn 0.3615 0.8449 0.3943
vn 0.3900 0.8178 0.4232
vn 0.0462 0.9964 0.0714
vn 0.0461 0.9964 0.0714
vn 0.0610 0.9600 0.2734
vn 0.0569 0.9657 0.2533
vn -0.0354 0.9779 -0.2058
vn -0.0354 0.9780 -0.2058
vn 0.6628 0.7483 -0.0282
vn 0.6148 0.7882 -0.0269
vn 0.3173 0.9482 -0.0180
vn 0.3174 0.9481 -0.0181
vn -0.0739 0.9828 -0.1690
vn -0.0576 0.9934 -0.0991
vn 0.0582 0.9246 0.3765
vn 0.0582 0.9246 0.3764
vn -0.3801 0.9249 -0.0104
vn -0.2483 0.9684 -0.0239
vn 0.1102 0.9923 -0.0560
vn 0.1102 0.9923 -0.0561
vn -0.0831 0.9600 0.2675
vn -0.0765 0.9657 0.2481
vn 0.0717 0.9780 -0.1961
vn 0.5891 0.7483 0.3052
vn 0.5468 0.7882 0.2825
vn 0.2842 0.9482 0.1422
vn 0.2844 0.9481 0.1422
vn 0.0199 0.9828 -0.1834
vn -0.0007 0.9934 -0.1147
vn -0.1367 0.9246 0.3557
vn -0.1367 0.9246 0.3556
vn -0.3246 0.9249 -0.1980
vn -0.2035 0.9684 -0.1442
vn 0.1235 0.9923 0.0061
vn 0.1235 0.9923 0.0062
vn -0.2940 0.9187 0.2637
vn -0.2771 0.9274 0.2514
vn 0.1465 0.9873 -0.0619
vn 0.2905 0.6712 0.6820
vn 0.2659 0.7191 0.6421
vn 0.1230 0.9096 0.3969
vn 0.1233 0.9095 0.3970
vn 0.0858 0.9929 -0.0828
vn 0.0211 0.9993 -0.0312
vn -0.4081 0.8574 0.3136
vn -0.4081 0.8574 0.3135
vn -0.2237 0.9206 -0.3202
vn -0.1493 0.9705 -0.1892
vn 0.0594 0.9837 0.1697
vn 0.0594 0.9837 0.1696
vn -0.1220 0.9187 0.3756
vn -0.1135 0.9273 0.3566
vn 0.0957 0.9873 -0.1269
vn 0.0956 0.9873 -0.1271
vn 0.5936 0.6712 0.4440
vn 0.5522 0.7191 0.4219
vn 0.3056 0.9096 0.2815
vn 0.3059 0.9095 0.2815
vn 0.0326 0.9929 -0.1147
vn 0.0025 0.9993 -0.0376
vn -0.1956 0.8574 0.4761
vn -0.1956 0.8574 0.4760
vn -0.3542 0.9206 -0.1646
vn -0.2241 0.9705 -0.0886
vn 0.1365 0.9837 0.1168
vt 0.243949 0.396930
vt 0.281092 0.363017
vt 0.248794 0.364094
vt 0.390905 0.337179
vt 0.418358 0.373783
vt 0.426971 0.320492
vt 0.373141 0.516432
vt 0.338151 0.508896
vt 0.355377 0.522892
vt 0.349459 0.426432
vt 0.309083 0.374860
vt 0.297779 0.434073
vt 0.372603 0.350098
vt 0.381754 0.464217
vt 0.327924 0.479828
vt 0.386598 0.413079
vt 0.376556 0.152014
vt 0.434423 0.150669
vt 0.405607 0.125480
vt 0.433525 0.099979
vt 0.370276 0.094596
vt 0.308007 0.325875
vt 0.361298 0.311341
vt 0.338152 0.276890
vt 0.316081 0.283888
vt 0.420780 0.432996
vt 0.412706 0.470139
vt 0.443658 0.476060
vt 0.454962 0.452913
vt 0.297396 0.501644
vt 0.269249 0.476060
vt 0.264405 0.498130
vt 0.281092 0.508358
vt 0.438011 0.182518
vt 0.384630 0.191041
vt 0.403919 0.219750
vt 0.423208 0.217956
vt 0.455506 0.107156
vt 0.451020 0.153360
vt 0.477935 0.148874
vt 0.478384 0.128239
vt 0.372070 0.048841
vt 0.429040 0.041663
vt 0.413339 0.014748
vt 0.390013 0.016991
vt 0.350090 0.149323
vt 0.344258 0.095493
vt 0.319586 0.125099
vt 0.318689 0.100876
s 1
f 17/1/1 15/2/2 16/3/3
f 8/4/4 6/5/5 7/6/6
f 26/7/7 24/8/8 25/9/9
f 28/10/10 14/11/11 18/12/12
f 9/13/13 14/11/11 28/10/10
f 1/14/14 28/10/10 23/15/15
f 5/16/16 9/13/13 28/10/10
f 23/15/15 28/10/10 18/12/12
f 1/14/14 5/16/16 28/10/10
f 34/17/17 29/18/18 49/19/19
f 44/20/20 39/21/21 49/19/19
f 29/18/18 44/20/20 49/19/19
f 39/21/21 34/17/17 49/19/19
f 55/17/22 50/18/23 70/19/24
f 65/20/25 60/21/26 70/19/24
f 50/18/23 65/20/25 70/19/24
f 60/21/26 55/17/22 70/19/24
f 76/17/27 71/18/28 91/19/29
f 86/20/30 81/21/31 91/19/29
f 71/18/28 86/20/30 91/19/29
f 81/21/31 76/17/27 91/19/29
f 97/17/32 92/18/33 112/19/34
f 107/20/35 102/21/36 112/19/34
f 92/18/33 107/20/35 112/19/34
f 102/21/36 97/17/32 112/19/34
f 18/12/12 14/11/11 15/2/2
f 18/12/12 15/2/2 17/1/1
f 13/22/37 10/23/38 11/24/39
f 13/22/37 11/24/39 12/25/39
f 14/11/11 9/13/13 10/23/38
f 14/11/11 10/23/38 13/22/37
f 5/16/16 6/5/5 8/4/4
f 5/16/16 8/4/4 9/13/13
f 4/26/40 27/27/41 2/28/42
f 4/26/40 2/28/42 3/29/43
f 4/26/40 5/16/16 1/14/14
f 4/26/40 1/14/14 27/27/41
f 22/30/44 19/31/45 20/32/46
f 22/30/44 20/32/46 21/33/47
f 1/14/14 23/15/15 24/8/8
f 1/14/14 24/8/8 26/7/7
f 23/15/15 18/12/12 19/31/45
f 23/15/15 19/31/45 22/30/44
f 30/34/48 33/35/49 32/36/50
f 30/34/48 32/36/50 31/37/51
f 45/38/52 48/39/53 47/40/54
f 45/38/52 47/40/54 46/41/55
f 29/18/18 34/17/17 33/35/49
f 29/18/18 33/35/49 30/34/48
f 44/20/20 29/18/18 48/39/53
f 44/20/20 48/39/53 45/38/52
f 40/42/56 43/43/57 42/44/58
f 40/42/56 42/44/58 41/45/59
f 35/46/60 34/17/17 39/21/21
f 35/46/60 39/21/21 38/47/61
f 36/48/62 35/46/60 38/47/61
f 36/48/62 38/47/61 37/49/63
f 39/21/21 44/20/20 43/43/57
f 39/21/21 43/43/57 40/42/56
f 51/34/64 54/35/65 53/36/66
f 51/34/64 53/36/66 52/37/66
f 66/38/67 69/39/68 68/40/69
f 66/38/67 68/40/69 67/41/70
f 50/18/23 55/17/22 54/35/65
f 50/18/23 54/35/65 51/34/64
f 65/20/25 50/18/23 69/39/68
f 65/20/25 69/39/68 66/38/67
f 61/42/71 64/43/72 63/44/73
f 61/42/71 63/44/73 62/45/74
f 56/46/75 55/17/22 60/21/26
f 56/46/75 60/21/26 59/47/76
f 57/48/77 56/46/75 59/47/76
f 57/48/77 59/47/76 58/49/78
f 60/21/26 65/20/25 64/43/72
f 60/21/26 64/43/72 61/42/71
f 72/34/79 75/35/80 74/36/81
f 72/34/79 74/36/81 73/37/81
f 87/38/82 90/39/83 89/40/84
f 87/38/82 89/40/84 88/41/85
f 71/18/28 76/17/27 75/35/80
f 71/18/28 75/35/80 72/34/79
f 86/20/30 71/18/28 90/39/83
f 86/20/30 90/39/83 87/38/82
f 82/42/86 85/43/87 84/44/88
f 82/42/86 84/44/88 83/45/89
f 77/46/90 76/17/27 81/21/31
f 77/46/90 81/21/31 80/47/91
f 78/48/92 77/46/90 80/47/91
f 78/48/92 80/47/91 79/49/93
f 81/21/31 86/20/30 85/43/87
f 81/21/31 85/43/87 82/42/86
f 93/34/94 96/35/95 95/36/96
f 93/34/94 95/36/96 94/37/97
f 108/38/98 111/39/99 110/40/100
f 108/38/98 110/40/100 109/41/101
f 92/18/33 97/17/32 96/35/95
f 92/18/33 96/35/95 93/34/94
f 107/20/35 92/18/33 111/39/99
f 107/20/35 111/39/99 108/38/98
f 103/42/102 106/43/103 105/44/104
f 103/42/102 105/44/104 104/45/105
f 98/46/106 97/17/32 102/21/36
f 98/46/106 102/21/36 101/47/107
f 99/48/108 98/46/106 101/47/107
f 99/48/108 101/47/107 100/49/108
f 102/21/36 107/20/35 106/43/103
f 102/21/36 106/43/103 103/42/102
