# Blender 4.3.0
# www.blender.org
o Object_4.001
v 0.031094 0.255241 0.215999
v 0.259055 0.391839 0.419602
v 0.349386 0.395470 0.352260
v 0.258237 0.359753 0.207224
v 0.157145 0.178841 0.030187
v 0.348314 0.345420 -0.067312
v 0.489350 0.328629 -0.256848
v 0.314793 0.334392 -0.264408
v 0.218891 0.314329 -0.249788
v 0.249856 0.346146 -0.424980
v 0.230427 0.312015 -0.603934
v 0.130765 0.304479 -0.620544
v 0.014223 0.323414 -0.474071
v -0.076133 0.277437 -0.278851
v -0.163892 0.307344 -0.382543
v -0.293265 0.322904 -0.443838
v -0.377362 0.318442 -0.325411
v -0.233892 0.211347 -0.067627
v -0.349527 0.364702 0.037365
v -0.412760 0.369167 0.113418
v -0.368256 0.373505 0.186501
v -0.291047 0.371590 0.193118
v -0.210964 0.264734 0.168461
v -0.231714 0.305399 0.300234
v -0.191258 0.289576 0.390051
v -0.112018 0.334549 0.398312
v 0.151343 0.372746 0.334782
v -0.001364 0.002611 -0.003048
v -0.159745 0.249974 0.037415
v -0.301231 0.341481 -0.005539
v -0.417680 0.296991 -0.122407
v -0.392827 0.293637 -0.203394
v -0.246837 0.331276 -0.235546
v -0.068532 0.236213 -0.198639
v -0.020238 0.331428 -0.306011
v 0.128623 0.331501 -0.389258
v 0.227929 0.339968 -0.352947
v 0.205964 0.362490 -0.241464
v 0.170632 0.302215 -0.131624
v 0.345676 0.418287 -0.053746
v 0.448282 0.374976 0.074120
v 0.418611 0.377722 0.172243
v 0.280549 0.418559 0.189044
v 0.047119 0.257691 0.117856
v -0.026865 0.382921 0.188899
v -0.152284 0.411441 0.245092
v -0.234896 0.404601 0.209228
v -0.205660 0.361321 0.094789
v 0.002167 0.073592 -0.028841
v -0.182009 0.336677 -0.060377
v -0.286169 0.427310 -0.164939
v -0.327768 0.385922 -0.324695
v -0.266223 0.386173 -0.382513
v -0.125362 0.427103 -0.337164
v 0.013734 0.333726 -0.219737
v 0.105330 0.433463 -0.286120
v 0.275107 0.439081 -0.284535
v 0.342794 0.447562 -0.203856
v 0.268080 0.465219 -0.117729
v 0.185329 0.400347 -0.041866
v 0.294480 0.515397 0.115068
v 0.321563 0.468765 0.275123
v 0.247422 0.467161 0.345357
v 0.118413 0.505052 0.292771
v -0.043058 0.344278 0.111567
v -0.146171 0.464962 0.139808
v -0.283271 0.489223 0.127189
v -0.336797 0.482597 0.055187
v -0.253657 0.444511 -0.030460
v -0.003547 0.166224 -0.042419
v -0.108308 0.458793 -0.141596
v -0.136175 0.584881 -0.278428
v -0.079000 0.555860 -0.436518
v 0.004569 0.556780 -0.448842
v 0.094218 0.588409 -0.328024
v 0.143604 0.454823 -0.161039
v 0.255207 0.571149 -0.154521
v 0.394119 0.563192 -0.056205
v 0.403910 0.559267 0.049075
v 0.293113 0.577678 0.078669
v 0.182852 0.500678 0.088013
v 0.181764 0.610948 0.288692
v 0.113872 0.537578 0.431015
v 0.012889 0.534876 0.446222
v -0.064144 0.595743 0.333166
v -0.091644 0.438553 0.078841
v -0.194601 0.586490 0.053979
v -0.300799 0.627959 -0.032157
v -0.303879 0.631984 -0.122119
v -0.186084 0.588765 -0.148329
v 0.031282 0.241212 -0.040461
v -0.117466 0.553025 -0.050532
v -0.189356 0.650636 -0.137346
v -0.213212 0.622731 -0.267470
v -0.160769 0.620986 -0.309048
v -0.050958 0.646278 -0.262722
v 0.047568 0.542815 -0.163516
v 0.128107 0.632116 -0.206964
v 0.262305 0.624276 -0.194315
v 0.310746 0.623188 -0.125877
v 0.246708 0.641328 -0.062290
v 0.173859 0.583473 -0.009750
v 0.254065 0.675153 0.124766
v 0.263080 0.621928 0.251590
v 0.199815 0.622783 0.302102
v 0.102848 0.670564 0.253147
v -0.018813 0.541329 0.094667
v -0.097522 0.660642 0.113675
v -0.204044 0.694415 0.095349
v -0.241806 0.695738 0.034754
v -0.171924 0.657841 -0.028495
v 0.015799 0.379252 -0.029526
vn 0.0801 0.9689 0.2340
vn 0.0805 0.9643 0.2524
vn 0.0761 0.9929 0.0914
vn -0.2543 0.9638 0.0803
vn -0.3316 0.9359 0.1191
vn 0.0356 0.9974 -0.0619
vn -0.1002 0.9866 -0.1286
vn -0.0459 0.9809 -0.1888
vn -0.4886 0.7947 0.3601
vn -0.0436 0.9981 -0.0434
vn 0.0389 0.8917 0.4509
vn 0.5474 0.8262 0.1330
vn -0.3510 0.8871 0.2998
vn -0.1676 0.7956 -0.5822
vn 0.4561 0.7992 -0.3915
vn -0.6259 0.7500 -0.2137
vn 0.1421 0.8738 0.4651
vn 0.5137 0.7767 -0.3645
vn -0.0667 0.9963 -0.0549
vn -0.2440 0.7566 -0.6066
vn -0.5310 0.8204 0.2121
vn -0.1357 0.8566 0.4978
vn 0.6009 0.7983 -0.0405
vn -0.0635 0.9965 -0.0538
vn 0.0635 0.7764 -0.6270
vn -0.5930 0.8032 -0.0571
vn -0.4324 0.7689 0.4710
vn 0.5580 0.7089 0.4314
vn -0.0264 0.9995 0.0143
vn 0.4490 0.7758 -0.4433
vn -0.5033 0.7972 -0.3335
vn -0.1268 0.7954 0.5927
vn 0.7097 0.7014 0.0659
vn -0.0005 0.9999 -0.0147
vn 0.1785 0.7481 -0.6392
vn -0.5905 0.8041 -0.0692
vn -0.1048 0.9939 0.0330
vn -0.1002 0.9949 0.0129
vn -0.0541 0.9828 -0.1764
vn -0.2750 0.8864 -0.3724
vn -0.2418 0.9124 -0.3302
vn -0.0998 0.9839 -0.1482
vn 0.4579 0.8699 -0.1834
vn 0.4984 0.8449 -0.1943
vn 0.0173 0.9982 -0.0568
vn 0.0173 0.9982 -0.0567
vn 0.2058 0.9783 0.0236
vn 0.1857 0.9824 0.0178
vn -0.2645 0.9582 -0.1092
vn -0.2646 0.9582 -0.1092
vn 0.2272 0.7352 -0.6386
vn 0.2038 0.7757 -0.5973
vn 0.0650 0.9394 -0.3365
vn 0.0650 0.9395 -0.3364
vn -0.2498 0.9665 -0.0585
vn -0.1810 0.9826 -0.0417
vn 0.2983 0.9516 0.0745
vn -0.2450 0.9255 0.2888
vn -0.1997 0.9662 0.1633
vn -0.0662 0.9830 -0.1714
vn 0.1348 0.9796 0.1490
vn 0.1201 0.9837 0.1341
vn -0.2073 0.9576 -0.2000
vn -0.2071 0.9577 -0.2000
vn 0.4892 0.7635 -0.4216
vn 0.4471 0.8019 -0.3962
vn 0.1921 0.9531 -0.2340
vn 0.1921 0.9530 -0.2342
vn -0.2197 0.9642 -0.1484
vn -0.1689 0.9806 -0.0994
vn 0.1910 0.9522 0.2384
vn 0.1908 0.9522 0.2384
vn -0.3861 0.9095 0.1542
vn -0.2860 0.9558 0.0689
vn -0.0050 0.9879 -0.1550
vn 0.0379 0.9407 0.3370
vn 0.0341 0.9482 0.3160
vn -0.0545 0.9770 -0.2061
vn 0.6925 0.7212 0.0188
vn 0.6426 0.7659 0.0203
vn 0.3470 0.9375 0.0268
vn 0.3473 0.9374 0.0267
vn -0.1012 0.9816 -0.1618
vn -0.0853 0.9930 -0.0812
vn 0.0342 0.8851 0.4641
vn 0.0341 0.8852 0.4640
vn -0.4481 0.8939 0.0092
vn -0.3013 0.9535 0.0001
vn 0.1113 0.9935 -0.0233
vn 0.1114 0.9935 -0.0233
vn 0.2158 0.9478 0.2347
vn 0.2022 0.9548 0.2181
vn -0.1355 0.9723 -0.1904
vn 0.6197 0.6980 -0.3589
vn 0.5779 0.7444 -0.3344
vn 0.3280 0.9258 -0.1880
vn 0.3281 0.9257 -0.1882
vn -0.1537 0.9797 -0.1290
vn -0.0995 0.9927 -0.0676
vn 0.2755 0.8958 0.3488
vn 0.2753 0.8958 0.3488
vn -0.3696 0.9083 0.1959
vn -0.2462 0.9627 0.1123
vn 0.0997 0.9882 -0.1159
vt 0.243949 0.396930
vt 0.281092 0.363017
vt 0.248794 0.364094
vt 0.390905 0.337179
vt 0.418358 0.373783
vt 0.426971 0.320492
vt 0.373141 0.516432
vt 0.338151 0.508896
vt 0.355377 0.522892
vt 0.349459 0.426432
vt 0.309083 0.374860
vt 0.297779 0.434073
vt 0.372603 0.350098
vt 0.381754 0.464217
vt 0.327924 0.479828
vt 0.386598 0.413079
vt 0.376556 0.152014
vt 0.434423 0.150669
vt 0.405607 0.125480
vt 0.433525 0.099979
vt 0.370276 0.094596
vt 0.308007 0.325875
vt 0.361298 0.311341
vt 0.338152 0.276890
vt 0.316081 0.283888
vt 0.420780 0.432996
vt 0.412706 0.470139
vt 0.443658 0.476060
vt 0.454962 0.452913
vt 0.297396 0.501644
vt 0.269249 0.476060
vt 0.264405 0.498130
vt 0.281092 0.508358
vt 0.438011 0.182518
vt 0.384630 0.191041
vt 0.403919 0.219750
vt 0.423208 0.217956
vt 0.455506 0.107156
vt 0.451020 0.153360
vt 0.477935 0.148874
vt 0.478384 0.128239
vt 0.372070 0.048841
vt 0.429040 0.041663
vt 0.413339 0.014748
vt 0.390013 0.016991
vt 0.350090 0.149323
vt 0.344258 0.095493
vt 0.319586 0.125099
vt 0.318689 0.100876
s 1
f 17/1/1 15/2/2 16/3/3
f 8/4/4 6/5/5 7/6/6
f 26/7/7 24/8/8 25/9/9
f 28/10/10 14/11/11 18/12/12
f 9/13/13 14/11/11 28/10/10
f 1/14/14 28/10/10 23/15/15
f 5/16/16 9/13/13 28/10/10
f 23/15/15 28/10/10 18/12/12
f 1/14/14 5/16/16 28/10/10
f 34/17/17 29/18/18 49/19/19
f 44/20/20 39/21/21 49/19/19
f 29/18/18 44/20/20 49/19/19
f 39/21/21 34/17/17 49/19/19
f 55/17/22 50/18/23 70/19/24
f 65/20/25 60/21/26 70/19/24
f 50/18/23 65/20/25 70/19/24
f 60/21/26 55/17/22 70/19/24
f 76/17/27 71/18/28 91/19/29
f 86/20/30 81/21/31 91/19/29
f 71/18/28 86/20/30 91/19/29
f 81/21/31 76/17/27 91/19/29
f 97/17/32 92/18/33 112/19/34
f 107/20/35 102/21/36 112/19/34
f 92/18/33 107/20/35 112/19/34
f 102/21/36 97/17/32 112/19/34
f 18/12/12 14/11/11 15/2/2
f 18/12/12 15/2/2 17/1/1
f 13/22/37 10/23/38 11/24/39
f 13/22/37 11/24/39 12/25/39
f 14/11/11 9/13/13 10/23/38
f 14/11/11 10/23/38 13/22/37
f 5/16/16 6/5/5 8/4/4
f 5/16/16 8/4/4 9/13/13
f 4/26/40 27/27/41 2/28/42
f 4/26/40 2/28/42 3/29/42
f 4/26/40 5/16/16 1/14/14
f 4/26/40 1/14/14 27/27/41
f 22/30/43 19/31/44 20/32/45
f 22/30/43 20/32/45 21/33/46
f 1/14/14 23/15/15 24/8/8
f 1/14/14 24/8/8 26/7/7
f 23/15/15 18/12/12 19/31/44
f 23/15/15 19/31/44 22/30/43
f 30/34/47 33/35/48 32/36/49
f 30/34/47 32/36/49 31/37/50
f 45/38/51 48/39/52 47/40/53
f 45/38/51 47/40/53 46/41/54
f 29/18/18 34/17/17 33/35/48
f 29/18/18 33/35/48 30/34/47
f 44/20/20 29/18/18 48/39/52
f 44/20/20 48/39/52 45/38/51
f 40/42/55 43/43/56 42/44/57
f 40/42/55 42/44/57 41/45/57
f 35/46/58 34/17/17 39/21/21
f 35/46/58 39/21/21 38/47/59
f 36/48/60 35/46/58 38/47/59
f 36/48/60 38/47/59 37/49/60
f 39/21/21 44/20/20 43/43/56
f 39/21/21 43/43/56 40/42/55
f 51/34/61 54/35/62 53/36/63
f 51/34/61 53/36/63 52/37/64
f 66/38/65 69/39/66 68/40/67
f 66/38/65 68/40/67 67/41/68
f 50/18/23 55/17/22 54/35/62
f 50/18/23 54/35/62 51/34/61
f 65/20/25 50/18/23 69/39/66
f 65/20/25 69/39/66 66/38/65
f 61/42/69 64/43/70 63/44/71
f 61/42/69 63/44/71 62/45/72
f 56/46/73 55/17/22 60/21/26
f 56/46/73 60/21/26 59/47/74
f 57/48/75 56/46/73 59/47/74
f 57/48/75 59/47/74 58/49/75
f 60/21/26 65/20/25 64/43/70
f 60/21/26 64/43/70 61/42/69
f 72/34/76 75/35/77 74/36/78
f 72/34/76 74/36/78 73/37/78
f 87/38/79 90/39/80 89/40/81
f 87/38/79 89/40/81 88/41/82
f 71/18/28 76/17/27 75/35/77
f 71/18/28 75/35/77 72/34/76
f 86/20/30 71/18/28 90/39/80
f 86/20/30 90/39/80 87/38/79
f 82/42/83 85/43/84 84/44/85
f 82/42/83 84/44/85 83/45/86
f 77/46/87 76/17/27 81/21/31
f 77/46/87 81/21/31 80/47/88
f 78/48/89 77/46/87 80/47/88
f 78/48/89 80/47/88 79/49/90
f 81/21/31 86/20/30 85/43/84
f 81/21/31 85/43/84 82/42/83
f 93/34/91 96/35/92 95/36/93
f 93/34/91 95/36/93 94/37/93
f 108/38/94 111/39/95 110/40/96
f 108/38/94 110/40/96 109/41/97
f 92/18/33 97/17/32 96/35/92
f 92/18/33 96/35/92 93/34/91
f 107/20/35 92/18/33 111/39/95
f 107/20/35 111/39/95 108/38/94
f 103/42/98 106/43/99 105/44/100
f 103/42/98 105/44/100 104/45/101
f 98/46/102 97/17/32 102/21/36
f 98/46/102 102/21/36 101/47/103
f 99/48/104 98/46/102 101/47/103
f 99/48/104 101/47/103 100/49/104
f 102/21/36 107/20/35 106/43/99
f 102/21/36 106/43/99 103/42/98
