# Blender 4.3.0
# www.blender.org
o Tree.059_Mat_Tree_0
v -0.067929 0.011629 -0.020033
v -0.038414 0.298366 0.002475
v -0.008899 0.011629 -0.020033
v -0.008899 0.011629 0.024983
v -0.038414 0.298366 0.002475
v -0.067929 0.011629 0.024983
v -0.008899 0.011629 -0.020033
v -0.038414 0.298366 0.002475
v -0.008899 0.011629 0.024983
v -0.067929 0.011629 0.024983
v -0.038414 0.298366 0.002475
v -0.067929 0.011629 -0.020033
v -0.128258 0.011629 -0.094521
v -0.098743 0.306447 -0.072013
v -0.069228 0.011629 -0.094521
v -0.069228 0.011629 -0.049505
v -0.098743 0.306447 -0.072013
v -0.128258 0.011629 -0.049505
v -0.069228 0.011629 -0.094521
v -0.098743 0.306447 -0.072013
v -0.069228 0.011629 -0.049505
v -0.128258 0.011629 -0.049505
v -0.098743 0.306447 -0.072013
v -0.128258 0.011629 -0.094521
v 0.008200 0.011629 -0.116429
v 0.037715 0.226039 -0.093921
v 0.067230 0.011629 -0.116429
v 0.067230 0.011629 -0.071413
v 0.037715 0.226039 -0.093921
v 0.008200 0.011629 -0.071413
v 0.067230 0.011629 -0.116429
v 0.037715 0.226039 -0.093921
v 0.067230 0.011629 -0.071413
v 0.008200 0.011629 -0.071413
v 0.037715 0.226039 -0.093921
v 0.008200 0.011629 -0.116429
v 0.018255 0.011629 -0.046323
v 0.047770 0.294378 -0.023815
v 0.077285 0.011629 -0.046323
v 0.077285 0.011629 -0.001307
v 0.047770 0.294378 -0.023815
v 0.018255 0.011629 -0.001307
v 0.077285 0.011629 -0.046323
v 0.047770 0.294378 -0.023815
v 0.077285 0.011629 -0.001307
v 0.018255 0.011629 -0.001307
v 0.047770 0.294378 -0.023815
v 0.018255 0.011629 -0.046323
v 0.018255 0.011629 0.047882
v 0.047770 0.138348 0.070390
v 0.077285 0.011629 0.047882
v 0.077285 0.011629 0.092899
v 0.047770 0.138348 0.070390
v 0.018255 0.011629 0.092899
v 0.077285 0.011629 0.047882
v 0.047770 0.138348 0.070390
v 0.077285 0.011629 0.092899
v 0.018255 0.011629 0.092899
v 0.047770 0.138348 0.070390
v 0.018255 0.011629 0.047882
v -0.116766 0.011629 0.045691
v -0.087251 0.256142 0.068199
v -0.057737 0.011629 0.045691
v -0.057737 0.011629 0.090708
v -0.087251 0.256142 0.068199
v -0.116766 0.011629 0.090708
v -0.057737 0.011629 0.045691
v -0.087251 0.256142 0.068199
v -0.057737 0.011629 0.090708
v -0.116766 0.011629 0.090708
v -0.087251 0.256142 0.068199
v -0.116766 0.011629 0.045691
v -0.172786 0.011629 -0.025511
v -0.143271 0.232361 -0.003002
v -0.113756 0.011629 -0.025511
v -0.113756 0.011629 0.019506
v -0.143271 0.232361 -0.003002
v -0.172786 0.011629 0.019506
v -0.113756 0.011629 -0.025511
v -0.143271 0.232361 -0.003002
v -0.113756 0.011629 0.019506
v -0.172786 0.011629 0.019506
v -0.143271 0.232361 -0.003002
v -0.172786 0.011629 -0.025511
v -0.098323 0.011629 -0.191136
v -0.068808 0.265448 -0.168628
v -0.039293 0.011629 -0.191136
v -0.039293 0.011629 -0.146120
v -0.068808 0.265448 -0.168628
v -0.098323 0.011629 -0.146120
v -0.039293 0.011629 -0.191136
v -0.068808 0.265448 -0.168628
v -0.039293 0.011629 -0.146120
v -0.098323 0.011629 -0.146120
v -0.068808 0.265448 -0.168628
v -0.098323 0.011629 -0.191136
v -0.245180 0.011629 -0.135928
v -0.215665 0.116147 -0.113419
v -0.186150 0.011629 -0.135928
v -0.186150 0.011629 -0.090911
v -0.215665 0.116147 -0.113419
v -0.245180 0.011629 -0.090911
v -0.186150 0.011629 -0.135928
v -0.215665 0.116147 -0.113419
v -0.186150 0.011629 -0.090911
v -0.245180 0.011629 -0.090911
v -0.215665 0.116147 -0.113419
v -0.245180 0.011629 -0.135928
v 0.060944 0.011629 -0.211642
v 0.090459 0.145064 -0.189134
v 0.119974 0.011629 -0.211642
v 0.119974 0.011629 -0.166626
v 0.090459 0.145064 -0.189134
v 0.060944 0.011629 -0.166626
v 0.119974 0.011629 -0.211642
v 0.090459 0.145064 -0.189134
v 0.119974 0.011629 -0.166626
v 0.060944 0.011629 -0.166626
v 0.090459 0.145064 -0.189134
v 0.060944 0.011629 -0.211642
v 0.129202 0.011629 -0.085451
v 0.158717 0.238548 -0.062943
v 0.188232 0.011629 -0.085451
v 0.188232 0.011629 -0.040435
v 0.158717 0.238548 -0.062943
v 0.129202 0.011629 -0.040435
v 0.188232 0.011629 -0.085451
v 0.158717 0.238548 -0.062943
v 0.188232 0.011629 -0.040435
v 0.129202 0.011629 -0.040435
v 0.158717 0.238548 -0.062943
v 0.129202 0.011629 -0.085451
v 0.143681 0.011629 0.024966
v 0.173196 0.195545 0.047474
v 0.202711 0.011629 0.024966
v 0.202711 0.011629 0.069983
v 0.173196 0.195545 0.047474
v 0.143681 0.011629 0.069983
v 0.202711 0.011629 0.024966
v 0.173196 0.195545 0.047474
v 0.202711 0.011629 0.069983
v 0.143681 0.011629 0.069983
v 0.173196 0.195545 0.047474
v 0.143681 0.011629 0.024966
v -0.278275 0.011629 0.053359
v -0.248760 0.321531 0.075867
v -0.219245 0.011629 0.053359
v -0.219245 0.011629 0.098376
v -0.248760 0.321531 0.075867
v -0.278275 0.011629 0.098376
v -0.219245 0.011629 0.053359
v -0.248760 0.321531 0.075867
v -0.219245 0.011629 0.098376
v -0.278275 0.011629 0.098376
v -0.248760 0.321531 0.075867
v -0.278275 0.011629 0.053359
v -0.102460 0.011629 0.129074
v -0.072945 0.277461 0.151582
v -0.043430 0.011629 0.129074
v -0.043430 0.011629 0.174090
v -0.072945 0.277461 0.151582
v -0.102460 0.011629 0.174090
v -0.043430 0.011629 0.129074
v -0.072945 0.277461 0.151582
v -0.043430 0.011629 0.174090
v -0.102460 0.011629 0.174090
v -0.072945 0.277461 0.151582
v -0.102460 0.011629 0.129074
v 0.085765 0.011629 0.133806
v 0.115280 0.087484 0.156314
v 0.144795 0.011629 0.133806
v 0.144795 0.011629 0.178822
v 0.115280 0.087484 0.156314
v 0.085765 0.011629 0.178822
v 0.144795 0.011629 0.133806
v 0.115280 0.087484 0.156314
v 0.144795 0.011629 0.178822
v 0.085765 0.011629 0.178822
v 0.115280 0.087484 0.156314
v 0.085765 0.011629 0.133806
vn -0.0000 0.0783 -0.9969
vn -0.0000 0.0783 0.9969
vn 0.9947 0.1024 -0.0000
vn -0.9947 0.1024 -0.0000
vn -0.0000 0.0761 -0.9971
vn -0.0000 0.0761 0.9971
vn 0.9950 0.0996 -0.0000
vn -0.9950 0.0996 -0.0000
vn -0.0000 0.1044 -0.9945
vn -0.0000 0.1044 0.9945
vn 0.9907 0.1364 -0.0000
vn -0.9907 0.1364 -0.0000
vn -0.0000 0.0794 -0.9968
vn -0.0000 0.0794 0.9968
vn 0.9946 0.1038 -0.0000
vn -0.9946 0.1038 -0.0000
vn -0.0000 0.1749 -0.9846
vn -0.0000 0.1749 0.9846
vn 0.9739 0.2268 -0.0000
vn -0.9739 0.2268 -0.0000
vn -0.0000 0.0917 -0.9958
vn -0.0000 0.0917 0.9958
vn 0.9928 0.1198 -0.0000
vn -0.9928 0.1198 -0.0000
vn -0.0000 0.1014 -0.9948
vn -0.0000 0.1014 0.9948
vn 0.9912 0.1325 -0.0000
vn -0.9912 0.1325 -0.0000
vn -0.0000 0.0883 -0.9961
vn -0.0000 0.0883 0.9961
vn 0.9933 0.1155 -0.0000
vn -0.9933 0.1155 -0.0000
vn -0.0000 0.2105 -0.9776
vn -0.0000 0.2105 0.9776
vn 0.9624 0.2718 -0.0000
vn -0.9624 0.2718 -0.0000
vn -0.0000 0.1663 -0.9861
vn -0.0000 0.1663 0.9861
vn 0.9764 0.2160 -0.0000
vn -0.9764 0.2160 -0.0000
vn -0.0000 0.0987 -0.9951
vn -0.0000 0.0987 0.9951
vn 0.9916 0.1290 -0.0000
vn -0.9916 0.1290 -0.0000
vn -0.0000 0.1215 -0.9926
vn -0.0000 0.1215 0.9926
vn 0.9874 0.1585 -0.0000
vn -0.9874 0.1585 -0.0000
vn -0.0000 0.0724 -0.9974
vn -0.0000 0.0724 0.9974
vn 0.9955 0.0948 -0.0000
vn -0.9955 0.0948 -0.0000
vn -0.0000 0.0844 -0.9964
vn -0.0000 0.0844 0.9964
vn 0.9939 0.1104 -0.0000
vn -0.9939 0.1104 -0.0000
vn -0.0000 0.2845 -0.9587
vn -0.0000 0.2845 0.9587
vn 0.9319 0.3626 -0.0000
vn -0.9319 0.3626 -0.0000
vt 0.153571 0.353337
vt 0.153417 0.470218
vt 0.153264 0.353337
vt 0.153885 0.353337
vt 0.153731 0.473512
vt 0.153578 0.353337
vt 0.153175 0.353337
vt 0.153021 0.440736
vt 0.152868 0.353337
vt 0.153122 0.353337
vt 0.152969 0.468593
vt 0.152815 0.353337
vt 0.152969 0.404990
vt 0.153825 0.353337
vt 0.153672 0.453007
vt 0.153518 0.353337
vt 0.154117 0.353337
vt 0.153963 0.443313
vt 0.153810 0.353337
vt 0.153729 0.353337
vt 0.153576 0.456800
vt 0.153422 0.353337
vt 0.154494 0.353337
vt 0.154340 0.395941
vt 0.154186 0.353337
vt 0.152900 0.353337
vt 0.152747 0.407728
vt 0.152593 0.353337
vt 0.152545 0.353337
vt 0.152391 0.445835
vt 0.152238 0.353337
vt 0.152470 0.353337
vt 0.152316 0.428306
vt 0.152162 0.353337
vt 0.154666 0.353337
vt 0.154512 0.479661
vt 0.154359 0.353337
vt 0.153751 0.353337
vt 0.153597 0.461697
vt 0.153443 0.353337
vt 0.152771 0.353337
vt 0.152617 0.384257
vt 0.152464 0.353337
s 0
f 1/1/1 2/2/1 3/3/1
f 4/3/2 5/2/2 6/1/2
f 7/3/3 8/2/3 9/3/3
f 10/1/4 11/2/4 12/1/4
f 13/4/5 14/5/5 15/6/5
f 16/6/6 17/5/6 18/4/6
f 19/6/7 20/5/7 21/6/7
f 22/4/8 23/5/8 24/4/8
f 25/7/9 26/8/9 27/9/9
f 28/9/10 29/8/10 30/7/10
f 31/9/11 32/8/11 33/9/11
f 34/7/12 35/8/12 36/7/12
f 37/10/13 38/11/13 39/12/13
f 40/12/14 41/11/14 42/10/14
f 43/12/15 44/11/15 45/12/15
f 46/10/16 47/11/16 48/10/16
f 49/10/17 50/13/17 51/12/17
f 52/12/18 53/13/18 54/10/18
f 55/12/19 56/13/19 57/12/19
f 58/10/20 59/13/20 60/10/20
f 61/14/21 62/15/21 63/16/21
f 64/16/22 65/15/22 66/14/22
f 67/16/23 68/15/23 69/16/23
f 70/14/24 71/15/24 72/14/24
f 73/17/25 74/18/25 75/19/25
f 76/19/26 77/18/26 78/17/26
f 79/19/27 80/18/27 81/19/27
f 82/17/28 83/18/28 84/17/28
f 85/20/29 86/21/29 87/22/29
f 88/22/30 89/21/30 90/20/30
f 91/22/31 92/21/31 93/22/31
f 94/20/32 95/21/32 96/20/32
f 97/23/33 98/24/33 99/25/33
f 100/25/34 101/24/34 102/23/34
f 103/25/35 104/24/35 105/25/35
f 106/23/36 107/24/36 108/23/36
f 109/26/37 110/27/37 111/28/37
f 112/28/38 113/27/38 114/26/38
f 115/28/39 116/27/39 117/28/39
f 118/26/40 119/27/40 120/26/40
f 121/29/41 122/30/41 123/31/41
f 124/31/42 125/30/42 126/29/42
f 127/31/43 128/30/43 129/31/43
f 130/29/44 131/30/44 132/29/44
f 133/32/45 134/33/45 135/34/45
f 136/34/46 137/33/46 138/32/46
f 139/34/47 140/33/47 141/34/47
f 142/32/48 143/33/48 144/32/48
f 145/35/49 146/36/49 147/37/49
f 148/37/50 149/36/50 150/35/50
f 151/37/51 152/36/51 153/37/51
f 154/35/52 155/36/52 156/35/52
f 157/38/53 158/39/53 159/40/53
f 160/40/54 161/39/54 162/38/54
f 163/40/55 164/39/55 165/40/55
f 166/38/56 167/39/56 168/38/56
f 169/41/57 170/42/57 171/43/57
f 172/43/58 173/42/58 174/41/58
f 175/43/59 176/42/59 177/43/59
f 178/41/60 179/42/60 180/41/60
