# Blender 5.1.2
# www.blender.org
mtllib cola_2_GECKO.mtl
o group1022293.002
v 0.004143 0.058346 -0.314472
v 0.027692 0.056554 -0.324797
v 0.005718 0.060982 -0.324929
v -0.020990 0.076214 -0.312486
v -0.003927 0.048282 -0.252778
v 0.027398 0.046232 -0.265816
v -0.031528 0.067991 -0.250495
v -0.013813 0.032988 -0.179802
v 0.020672 0.031101 -0.193302
v -0.043846 0.054574 -0.177132
v -0.021063 -0.008529 -0.100755
v 0.019545 -0.010330 -0.115567
v -0.056030 0.016731 -0.097461
v -0.017128 -0.050158 -0.019394
v 0.026652 -0.051815 -0.034532
v -0.054415 -0.022915 -0.015387
v -0.016234 -0.063238 -0.003305
v -0.004275 -0.066776 -0.003199
v -0.054419 -0.031346 -0.004258
v -0.067675 -0.001961 -0.005135
v -0.071296 0.006874 -0.005399
v -0.070967 0.019507 -0.024041
v -0.060144 0.039390 -0.006371
v -0.060462 0.060906 -0.042051
v -0.043928 0.045367 -0.006549
v -0.023043 0.054238 -0.006814
v -0.026912 0.085468 -0.062537
v -0.009387 0.051098 -0.006720
v 0.026996 0.043528 -0.006494
v 0.016868 0.083811 -0.077675
v 0.069424 0.009401 -0.005475
v 0.054155 0.056568 -0.081682
v 0.069095 0.007724 -0.005425
v 0.051579 0.038599 -0.078246
v 0.104477 -0.004494 -0.005060
v 0.085367 -0.033700 -0.004187
v 0.084959 -0.046977 -0.003791
v 0.048932 -0.073848 -0.002988
v 0.060202 -0.027253 -0.055018
v 0.050282 0.012018 -0.136241
v 0.059409 0.049977 -0.154880
v 0.043439 0.089050 -0.164364
v 0.053643 0.081511 -0.230002
v 0.039535 0.114553 -0.239183
v 0.056508 0.091196 -0.302028
v 0.046438 0.049636 -0.212477
v 0.050482 0.062624 -0.284628
v 0.052123 0.067979 -0.325138
v 0.032207 0.055859 -0.324776
v 0.057079 0.093127 -0.325890
v 0.043775 0.121488 -0.326737
v 0.043174 0.121035 -0.311371
v 0.017035 0.140717 -0.327311
v 0.015573 0.140743 -0.309087
v -0.011665 0.142800 -0.327373
v -0.015752 0.142793 -0.296050
v -0.030375 0.128034 -0.326932
v -0.038836 0.126402 -0.277238
v -0.030851 0.123878 -0.326808
v -0.032010 0.110157 -0.326398
v -0.033425 0.102977 -0.321652
v -0.032138 0.104626 -0.326233
v -0.032122 0.103375 -0.326196
v -0.020334 0.082701 -0.325578
v -0.017887 0.078626 -0.325457
v -0.044862 0.097830 -0.259837
v -0.057954 0.087616 -0.186313
v -0.050750 0.119492 -0.203838
v -0.071999 0.055804 -0.106945
v -0.062873 0.093763 -0.125583
v -0.032135 0.116111 -0.146257
v -0.024984 0.138026 -0.223012
v 0.008473 0.114311 -0.161070
v 0.009502 0.136139 -0.236513
v 0.030761 -0.077829 -0.002869
vn -0.1402 -0.9749 -0.1729
vn -0.1499 -0.9726 -0.1775
vn -0.1454 -0.9737 -0.1754
vn -0.1888 -0.9451 -0.2667
vn -0.5707 -0.7718 -0.2804
vn -0.5708 -0.7718 -0.2802
vn -0.5706 -0.7718 -0.2805
vn -0.5794 -0.7892 -0.2036
vn -0.5785 -0.7897 -0.2041
vn -0.5779 -0.7901 -0.2045
vn -0.1425 -0.9651 -0.2198
vn -0.1495 -0.9647 -0.2169
vn -0.1528 -0.9645 -0.2154
vn -0.5796 -0.7786 -0.2403
vn -0.5781 -0.7796 -0.2411
vn -0.5771 -0.7801 -0.2417
vn -0.2135 -0.8578 -0.4676
vn -0.2227 -0.8580 -0.4629
vn -0.2273 -0.8580 -0.4606
vn -0.5551 -0.7146 -0.4257
vn -0.5537 -0.7159 -0.4252
vn -0.5558 -0.7139 -0.4259
vn -0.1886 -0.8787 -0.4385
vn -0.1938 -0.8793 -0.4351
vn -0.1970 -0.8796 -0.4330
vn -0.5751 -0.7397 -0.3493
vn -0.5722 -0.7424 -0.3486
vn -0.5769 -0.7381 -0.3498
vn -0.2316 -0.7649 -0.6011
vn -0.2317 -0.7649 -0.6010
vn -0.2359 -0.7657 -0.5984
vn -0.5434 -0.6664 -0.5105
vn -0.5434 -0.6684 -0.5080
vn -0.5433 -0.6691 -0.5071
vn -0.0000 0.0299 0.9996
vn -0.8734 -0.3904 -0.2913
vn -0.8653 -0.3994 -0.3029
vn -0.8709 -0.3932 -0.2949
vn -0.9244 0.3230 0.2028
vn -0.9244 0.3229 0.2028
vn -0.9244 0.3229 0.2029
vn -0.3105 0.8149 0.4893
vn -0.2956 0.8169 0.4953
vn -0.3108 0.8149 0.4892
vn 0.1893 0.8632 0.4680
vn 0.1948 0.8613 0.4692
vn 0.1874 0.8638 0.4676
vn 0.5806 0.7406 0.3382
vn 0.5829 0.7386 0.3387
vn 0.5847 0.7370 0.3390
vn 0.9325 -0.1921 -0.3058
vn 0.3077 0.9003 0.3077
vn 0.6035 -0.4152 -0.6807
vn 0.8934 -0.0409 -0.4475
vn 0.5063 -0.6940 -0.5119
vn 0.8934 -0.3519 -0.2793
vn 0.3257 -0.8310 -0.4510
vn 0.3162 -0.8372 -0.4463
vn 0.3119 -0.8399 -0.4442
vn 0.1606 -0.7523 -0.6389
vn 0.9771 0.1722 0.1254
vn 0.9225 0.3847 0.0316
vn 0.9114 0.4003 0.0957
vn 0.9078 0.4087 0.0942
vn 0.9060 0.4128 0.0934
vn 0.9237 -0.3231 -0.2061
vn 0.9239 -0.3224 -0.2061
vn 0.9240 -0.3222 -0.2062
vn 0.9886 -0.1260 0.0823
vn 0.9047 0.4165 0.0895
vn 0.9016 0.4240 0.0859
vn 0.8997 0.4283 0.0838
vn 0.9778 -0.2090 0.0157
vn 0.9809 -0.1944 0.0114
vn 0.9789 -0.2038 0.0134
vn 0.5119 -0.8494 -0.1285
vn 0.5064 -0.8530 -0.1263
vn 0.5043 -0.8543 -0.1255
vn 0.3082 -0.8426 -0.4417
vn 0.2943 -0.8500 -0.4370
vn 0.2893 -0.8525 -0.4353
vn 0.9810 -0.1938 0.0113
vn 0.9808 -0.1948 0.0117
vn 0.5217 -0.8479 -0.0946
vn 0.5188 -0.8498 -0.0930
vn 0.5165 -0.8514 -0.0916
vn -0.0000 -0.0299 -0.9996
vn 0.9042 0.4240 0.0510
vn 0.9046 0.4228 0.0536
vn 0.9037 0.4254 0.0479
vn 0.5827 0.8114 0.0464
vn 0.5829 0.8113 0.0459
vn 0.5830 0.8112 0.0456
vn 0.0708 0.9975 0.0067
vn 0.0702 0.9975 0.0076
vn 0.0691 0.9976 0.0092
vn -0.6193 0.7811 -0.0800
vn -0.6190 0.7813 -0.0802
vn -0.6195 0.7809 -0.0798
vn -0.9810 0.0982 -0.1670
vn -0.9807 0.1073 -0.1634
vn -0.9811 0.0964 -0.1678
vn -0.9631 0.0045 -0.2690
vn -0.9628 0.0009 -0.2702
vn -0.9606 -0.0207 -0.2773
vn -0.8298 -0.4826 -0.2803
vn -0.8421 -0.5093 -0.1773
vn -0.8292 -0.4859 -0.2764
vn -0.8657 -0.4567 -0.2050
vn -0.8630 -0.4636 -0.2009
vn -0.8673 -0.4525 -0.2075
vn -0.8698 -0.4397 -0.2237
vn -0.8661 -0.4491 -0.2193
vn -0.8717 -0.4350 -0.2259
vn -0.9793 0.1317 -0.1539
vn -0.9813 0.1210 -0.1500
vn -0.9785 0.1357 -0.1554
vn -0.8408 -0.4294 -0.3297
vn -0.8355 -0.4414 -0.3274
vn -0.8428 -0.4247 -0.3306
vn -0.9781 0.1836 -0.0978
vn -0.9803 0.1722 -0.0968
vn -0.9775 0.1869 -0.0981
vn -0.9040 -0.3926 -0.1691
vn -0.8997 -0.4029 -0.1678
vn -0.9059 -0.3881 -0.1696
vn -0.9427 0.3009 0.1439
vn -0.9434 0.2986 0.1443
vn -0.9425 0.3017 0.1438
vn -0.4787 0.8537 0.2049
vn -0.4712 0.8584 0.2027
vn -0.4812 0.8521 0.2056
vn -0.4053 0.8475 0.3427
vn -0.3979 0.8525 0.3391
vn -0.4086 0.8453 0.3443
vn 0.1493 0.9477 0.2822
vn 0.1560 0.9477 0.2786
vn 0.1457 0.9477 0.2841
vn 0.1526 0.9317 0.3297
vn 0.1570 0.9320 0.3268
vn 0.1499 0.9314 0.3316
vn 0.5860 0.7778 0.2271
vn 0.5819 0.7789 0.2338
vn 0.5811 0.7796 0.2335
vn 0.5886 0.7758 0.2273
vn 0.5825 0.7785 0.2337
vn 0.0864 0.9935 0.0744
vn 0.0918 0.9932 0.0721
vn 0.0839 0.9936 0.0755
vn 0.5858 0.8042 0.1005
vn 0.5845 0.8050 0.1013
vn 0.5866 0.8037 0.1001
vn -0.5933 0.8047 -0.0210
vn -0.5914 0.8061 -0.0217
vn -0.5939 0.8043 -0.0207
vn -0.1348 -0.9761 -0.1704
vn -0.1522 -0.9721 -0.1785
vn -0.5708 -0.7718 -0.2801
vn -0.5801 -0.7888 -0.2032
vn -0.1394 -0.9652 -0.2212
vn -0.5806 -0.7781 -0.2398
vn -0.2093 -0.8577 -0.4697
vn -0.5529 -0.7167 -0.4250
vn -0.1855 -0.8784 -0.4405
vn -0.5703 -0.7440 -0.3482
vn -0.2203 -0.7628 -0.6079
vn -0.5434 -0.6659 -0.5112
vn -0.0000 0.0298 0.9996
vn -0.8886 -0.3722 -0.2679
vn -0.9244 0.3231 0.2026
vn -0.3383 0.8107 0.4778
vn 0.1775 0.8671 0.4655
vn 0.5787 0.7423 0.3378
vn 0.3298 -0.8283 -0.4530
vn 0.9129 0.3965 0.0964
vn 0.9236 -0.3233 -0.2061
vn 0.9064 0.4124 0.0915
vn 0.9772 -0.2117 0.0167
vn 0.5138 -0.8481 -0.1293
vn 0.3127 -0.8401 -0.4432
vn 0.5234 -0.8467 -0.0956
vn -0.0000 -0.0300 -0.9996
vn -0.0000 -0.0298 -0.9996
vn 0.9049 0.4219 0.0558
vn 0.5825 0.8115 0.0467
vn 0.0724 0.9974 0.0044
vn -0.6187 0.7815 -0.0805
vn -0.9815 0.0777 -0.1751
vn -0.9640 0.0144 -0.2657
vn -0.8271 -0.4828 -0.2877
vn -0.8303 -0.4818 -0.2803
vn -0.8612 -0.4680 -0.1983
vn -0.8641 -0.4541 -0.2170
vn -0.9820 0.1167 -0.1484
vn -0.8332 -0.4464 -0.3264
vn -0.9809 0.1687 -0.0965
vn -0.8977 -0.4075 -0.1672
vn -0.9437 0.2978 0.1444
vn -0.4684 0.8601 0.2019
vn -0.3944 0.8547 0.3374
vn 0.1600 0.9476 0.2764
vn 0.1598 0.9322 0.3248
vn 0.5903 0.7744 0.2277
vn 0.0945 0.9930 0.0709
vn 0.5837 0.8056 0.1018
vn -0.5907 0.8066 -0.0220
vt -0.103319 0.023401
vt -0.108491 0.029385
vt -0.108283 0.029791
vt -0.106756 0.033265
vt -0.107635 0.033910
vt -0.106473 0.035827
vt -0.092152 0.060151
vt -0.095183 0.059157
vt -0.092864 0.060976
vt -0.092362 0.050641
vt -0.098725 0.053064
vt -0.096599 0.055306
vt -0.096232 0.025286
vt -0.102875 0.025791
vt -0.102572 0.029176
vt -0.085137 0.047833
vt -0.092546 0.051068
vt -0.090129 0.053458
vt -0.080938 0.032128
vt -0.089308 0.033178
vt -0.088420 0.036778
vt -0.072034 0.045716
vt -0.074990 0.054634
vt -0.068604 0.048352
vt -0.074446 0.026407
vt -0.083682 0.026181
vt -0.082665 0.030386
vt -0.068303 0.039033
vt -0.072122 0.047487
vt -0.064774 0.042039
vt -0.065074 0.025015
vt -0.067724 0.025127
vt -0.062549 0.027683
vt -0.056525 0.043409
vt -0.059242 0.039895
vt -0.060333 0.040767
vt 0.364127 0.191408
vt 0.047301 0.511846
vt 0.391912 0.903275
vt -0.027050 0.072022
vt -0.021923 0.069527
vt -0.025128 0.069878
vt 0.077697 0.031633
vt 0.075423 0.033386
vt 0.078498 0.036198
vt 0.088281 0.016306
vt 0.083661 0.009788
vt 0.083127 0.011431
vt 0.083739 0.029508
vt 0.079235 0.022120
vt 0.078390 0.023238
vt 0.071459 0.050184
vt 0.067954 0.042882
vt 0.063431 0.045916
vt -0.075399 0.026979
vt -0.082745 0.030251
vt -0.082918 0.032090
vt 0.074382 0.028969
vt 0.072113 0.031947
vt 0.082105 0.031414
vt -0.080583 0.002909
vt -0.070591 0.003438
vt -0.070096 -0.000018
vt -0.081456 0.001007
vt -0.075788 0.001686
vt -0.075465 0.000397
vt -0.075285 0.009164
vt -0.080542 0.013898
vt -0.074528 0.013595
vt -0.080390 0.024937
vt -0.088216 0.029533
vt -0.089516 0.033659
vt -0.080712 0.018362
vt -0.088145 0.017460
vt -0.089166 0.021663
vt -0.073355 0.014276
vt -0.068909 0.014276
vt -0.069614 0.012555
vt -0.024107 0.089870
vt -0.020711 0.082863
vt -0.024988 0.077276
vt 0.014930 0.087498
vt 0.012731 0.094530
vt 0.016692 0.096270
vt 0.024734 0.094012
vt 0.022913 0.100445
vt 0.026382 0.101753
vt -0.086399 0.040798
vt -0.092234 0.041700
vt -0.093233 0.045271
vt -0.052525 0.066897
vt -0.053277 0.065209
vt -0.058892 0.070605
vt 0.030512 0.100747
vt 0.027246 0.106843
vt 0.030441 0.108003
vt -0.074161 0.068617
vt -0.079883 0.069494
vt -0.080047 0.072890
vt -0.095402 0.028340
vt -0.101074 0.028195
vt -0.102053 0.031450
vt -0.089203 0.022038
vt -0.095909 0.022064
vt -0.096916 0.025633
vt -0.079756 0.073431
vt -0.082909 0.072441
vt -0.081764 0.074735
vt -0.101191 0.031840
vt -0.105609 0.031213
vt -0.104950 0.033449
vt 0.240464 0.459314
vt 0.351742 0.228773
vt 0.698462 0.680632
vt 0.031877 0.107923
vt 0.028683 0.109198
vt 0.031805 0.109459
vt 0.105216 0.038566
vt 0.108478 0.036951
vt 0.107107 0.035741
vt 0.107381 0.016114
vt 0.110054 0.014201
vt 0.107265 0.012717
vt 0.094154 0.036464
vt 0.097754 0.035515
vt 0.093284 0.033178
vt 0.052828 0.083641
vt 0.055923 0.090471
vt 0.056187 0.090146
vt 0.036001 0.094966
vt 0.036173 0.095439
vt 0.036268 0.095358
vt -0.052203 0.095667
vt -0.049857 0.096359
vt -0.049384 0.096406
vt -0.044723 0.095128
vt -0.041961 0.100647
vt -0.041419 0.094329
vt -0.041088 0.088272
vt -0.038252 0.094904
vt -0.037488 0.087384
vt 0.051744 0.079013
vt 0.057473 0.080905
vt 0.052370 0.075358
vt -0.039211 0.075745
vt -0.037979 0.083207
vt -0.034984 0.074822
vt 0.056091 0.067448
vt 0.061470 0.070375
vt 0.056670 0.063160
vt -0.025639 0.076437
vt -0.024042 0.083762
vt -0.021201 0.075100
vt 0.074549 0.041546
vt 0.081065 0.042661
vt 0.074054 0.036937
vt 0.093647 0.022567
vt 0.099700 0.022878
vt 0.092718 0.018341
vt 0.088009 0.017496
vt 0.095271 0.016701
vt 0.087114 0.012948
vt 0.095761 0.025601
vt 0.103189 0.025651
vt 0.096441 0.021329
vt 0.086954 0.024260
vt 0.095946 0.023472
vt 0.087845 0.019711
vt 0.087625 0.045753
vt 0.090999 0.053452
vt 0.093620 0.050829
vt 0.080199 0.040869
vt 0.084646 0.048788
vt 0.087688 0.045713
vt 0.102211 0.017062
vt 0.108712 0.016998
vt 0.102297 0.013355
vt 0.097350 0.041023
vt 0.104917 0.043074
vt 0.099600 0.038076
vt 0.091145 0.031422
vt 0.096861 0.031396
vt 0.090311 0.027809
vt -0.103093 0.026793
vt -0.108620 0.026811
vt -0.094411 0.058043
vt -0.094694 0.048168
vt -0.096630 0.021599
vt -0.087763 0.045215
vt -0.082038 0.027944
vt -0.077937 0.052383
vt -0.075590 0.021915
vt -0.075437 0.044708
vt -0.065921 0.024099
vt -0.066236 0.029517
vt -0.054835 0.042204
vt 0.879161 0.703521
vt 0.983031 0.527142
vt 0.790715 0.453354
vt 0.792504 0.443224
vt 0.561883 0.237128
vt 0.289898 0.172444
vt 0.176380 0.226022
vt 0.876941 0.783705
vt 0.582351 0.970025
vt 0.681116 0.945986
vt 0.119355 0.689307
vt 0.326906 0.881907
vt 0.088235 0.262118
vt 0.027617 0.458485
vt -0.026076 0.069991
vt -0.022592 0.070753
vt 0.076125 0.030020
vt 0.082479 0.013605
vt 0.087326 0.011770
vt 0.076180 0.026225
vt 0.084934 0.025030
vt 0.074987 0.047178
vt -0.075411 0.026808
vt -0.085372 0.006853
vt -0.079768 0.013824
vt -0.074345 0.018805
vt 0.020646 0.092598
vt -0.085437 0.036580
vt 0.026995 0.099575
vt -0.074148 0.064909
vt -0.094483 0.024748
vt -0.088182 0.017834
vt -0.079602 0.070035
vt -0.100224 0.028581
vt 0.590208 0.753827
vt 0.565667 0.749630
vt 0.446229 0.722890
vt 0.317922 0.616334
vt 0.304624 0.591726
vt 0.240551 0.466868
vt 0.241159 0.425913
vt 0.247460 0.343046
vt 0.250044 0.317945
vt 0.507739 0.241350
vt 0.653089 0.357480
vt 0.725403 0.528757
vt 0.028667 0.106803
vt 0.106420 0.039523
vt 0.109035 0.016892
vt 0.097024 0.037784
vt 0.057058 0.089079
vt 0.057171 0.088215
vt 0.052270 0.086994
vt 0.035756 0.095803
vt -0.049171 0.095067
vt -0.052228 0.096141
vt -0.044949 0.101431
vt -0.041532 0.095797
vt 0.057043 0.084276
vt -0.041584 0.084078
vt 0.061140 0.074068
vt -0.028145 0.085134
vt 0.081731 0.046936
vt 0.100650 0.026463
vt 0.096260 0.020912
vt 0.102677 0.029323
vt 0.095171 0.027728
vt 0.084579 0.048825
vt 0.076968 0.044193
vt 0.108702 0.020397
vt 0.102841 0.045767
vt 0.097768 0.034672
s 0
usemtl mat3
f 28/37/35 20/38/35 18/39/35
s 1
f 27/46/42 23/47/43 25/48/44
f 30/49/45 26/50/46 28/51/47
f 32/52/48 29/53/49 31/54/50
s 0
f 62/112/87 55/113/87 48/114/87
s 1
f 52/118/91 53/119/92 54/120/93
f 54/121/94 55/122/95 56/123/96
f 71/157/130 68/158/131 70/159/132
f 27/160/133 70/161/134 24/162/135
f 73/163/136 72/164/137 71/165/138
f 30/166/139 71/167/140 27/168/141
f 73/169/142 44/170/143 74/171/144
f 30/172/145 42/173/146 73/174/142
f 74/175/147 56/176/148 72/177/149
f 44/178/150 54/179/151 74/180/152
s 0
f 36/197/35 35/198/35 33/199/35
f 33/199/168 31/200/168 29/201/168
f 28/37/35 26/202/35 25/203/35
f 33/199/35 29/201/35 28/37/35
f 37/204/35 36/197/35 33/199/35
f 75/205/35 38/206/35 37/204/35
f 19/207/168 17/208/168 18/39/168
f 18/39/35 75/205/35 37/204/35
f 37/204/35 33/199/35 28/37/35
f 28/37/168 25/203/168 23/209/168
f 23/209/35 21/210/35 20/38/35
f 20/38/35 19/207/35 18/39/35
f 18/39/35 37/204/35 28/37/35
f 28/37/35 23/209/35 20/38/35
s 1
f 25/48/44 26/214/171 27/46/42
f 27/46/42 24/215/43 23/47/43
f 28/51/47 29/216/172 30/49/45
f 30/49/45 27/217/46 26/50/46
f 32/52/48 30/218/173 29/53/49
s 0
f 49/231/182 2/232/182 3/233/182
f 3/233/87 65/234/87 64/235/87
f 64/235/87 63/236/87 62/112/87
f 62/112/183 60/237/183 59/238/183
f 59/238/87 57/239/87 55/113/87
f 55/113/87 53/240/87 51/241/87
f 51/241/87 50/242/87 48/114/87
f 48/114/87 49/231/87 3/233/87
f 3/233/87 64/235/87 62/112/87
f 62/112/87 59/238/87 55/113/87
f 55/113/87 51/241/87 48/114/87
f 48/114/87 3/233/87 62/112/87
s 1
f 52/118/91 51/244/185 53/119/92
f 54/121/94 53/245/186 55/122/95
f 71/157/130 72/260/199 68/158/131
f 27/160/133 71/261/200 70/161/134
f 73/163/136 74/262/201 72/164/137
f 30/166/139 73/263/202 71/167/140
f 73/169/142 42/264/146 44/170/143
f 30/172/145 32/265/203 42/173/146
f 74/175/147 54/266/204 56/176/148
f 44/178/150 52/267/205 54/179/151
usemtl mat10
f 5/1/1 2/2/2 49/3/3
f 1/4/4 3/5/4 2/6/4
f 1/7/5 65/8/6 3/9/7
f 5/10/8 4/11/9 1/12/10
f 9/13/11 5/14/12 6/15/13
f 8/16/14 7/17/15 5/18/16
f 12/19/17 8/20/18 9/21/19
f 13/22/20 8/23/21 11/24/22
f 15/25/23 11/26/24 12/27/25
f 16/28/26 11/29/27 14/30/28
f 18/31/29 14/32/30 75/33/31
f 14/34/32 19/35/33 16/36/34
f 38/67/55 39/68/55 37/69/55
f 39/73/57 12/74/58 40/75/59
f 15/76/60 38/77/60 75/78/60
f 46/100/76 6/101/77 47/102/78
f 40/103/79 9/104/80 46/105/81
f 47/109/84 49/110/85 48/111/86
f 49/3/3 6/184/156 5/1/1
f 5/1/1 1/185/157 2/2/2
f 1/7/5 4/186/158 65/8/6
f 5/10/8 7/187/159 4/11/9
f 9/13/11 8/188/160 5/14/12
f 8/16/14 10/189/161 7/17/15
f 12/19/17 11/190/162 8/20/18
f 13/22/20 10/191/163 8/23/21
f 15/25/23 14/192/164 11/26/24
f 16/28/26 13/193/165 11/29/27
f 18/31/29 17/194/166 14/32/30
f 14/32/30 15/195/31 75/33/31
f 14/34/32 17/196/167 19/35/33
f 39/73/57 15/221/174 12/74/58
f 15/76/60 39/222/60 38/77/60
f 46/100/76 9/227/179 6/101/77
f 40/103/79 12/228/180 9/104/80
f 47/109/84 6/230/181 49/110/85
usemtl mat9
f 22/40/36 19/41/37 20/42/38
f 22/43/39 23/44/40 24/45/41
f 31/55/51 34/56/51 32/57/51
f 33/58/52 35/59/52 34/60/52
f 34/61/53 35/62/53 36/63/53
f 39/64/54 36/65/54 37/66/54
f 39/70/56 40/71/56 41/72/56
f 41/79/61 34/80/61 39/81/61
f 32/82/62 41/83/62 42/84/62
f 42/85/63 43/86/64 44/87/65
f 41/88/66 46/89/67 43/90/68
f 32/91/69 34/92/69 41/93/69
f 44/94/70 45/95/71 52/96/72
f 43/97/73 47/98/74 45/99/75
f 45/106/75 48/107/82 50/108/83
f 52/115/88 50/116/89 51/117/90
f 56/124/97 57/125/98 58/126/99
f 66/127/100 57/128/101 59/129/102
f 61/130/103 62/131/104 63/132/105
f 61/133/106 64/134/107 65/135/108
f 66/136/109 4/137/110 7/138/111
f 67/139/112 7/140/113 10/141/114
f 68/142/115 66/143/116 67/144/117
f 69/145/118 10/146/119 13/147/120
f 70/148/121 67/149/122 69/150/123
f 22/151/124 13/152/125 16/153/126
f 24/154/127 69/155/128 22/156/129
f 72/181/153 58/182/154 68/183/155
f 20/42/38 21/211/169 22/40/36
f 22/40/36 16/212/37 19/41/37
f 22/43/39 21/213/170 23/44/40
f 31/55/51 33/219/51 34/56/51
f 39/64/54 34/220/54 36/65/54
f 42/85/63 41/223/175 43/86/64
f 41/88/66 40/224/176 46/89/67
f 44/94/70 43/225/177 45/95/71
f 43/97/73 46/226/178 47/98/74
f 45/106/75 47/229/74 48/107/82
f 52/115/88 45/243/184 50/116/89
f 56/124/97 55/246/187 57/125/98
f 60/247/188 61/248/188 66/127/100
f 66/127/100 58/249/101 57/128/101
f 59/129/102 60/247/188 66/127/100
f 61/130/103 60/250/189 62/131/104
f 65/135/108 4/251/190 61/133/106
f 61/133/106 63/252/191 64/134/107
f 66/136/109 61/253/192 4/137/110
f 67/139/112 66/254/193 7/140/113
f 68/142/115 58/255/194 66/143/116
f 69/145/118 67/256/195 10/146/119
f 70/148/121 68/257/196 67/149/122
f 22/151/124 69/258/197 13/152/125
f 24/154/127 70/259/198 69/155/128
f 72/181/153 56/268/206 58/182/154
