# Blender 5.1.2
# www.blender.org
mtllib pata_A_D_1_GECKO.mtl
o group1845554438.001
v -0.022934 0.009348 -0.035622
v -0.014013 -0.028529 -0.025645
v -0.022702 0.047323 -0.022521
v -0.093551 -0.014786 -0.026479
v -0.142394 -0.046087 -0.014100
v -0.083535 -0.049475 -0.018027
v -0.094107 0.020150 -0.014057
v -0.084991 0.041987 0.014493
v -0.140140 -0.015157 -0.004441
v -0.139877 -0.014301 -0.003155
v -0.142396 -0.041139 -0.012382
v -0.142828 -0.046263 -0.013880
v -0.141849 -0.077072 -0.003509
v -0.133692 -0.074932 -0.007229
v -0.138029 -0.095614 0.020236
v -0.119624 -0.092409 0.014020
v -0.133091 -0.096424 0.047117
v -0.105563 -0.091844 0.041532
v -0.128778 -0.080907 0.067930
v -0.096880 -0.073453 0.064797
v -0.126387 -0.054612 0.076553
v -0.096892 -0.044259 0.074930
v -0.126731 -0.025599 0.069919
v -0.105594 -0.015415 0.068059
v -0.127705 -0.018886 0.063537
v -0.129973 -0.003937 0.048790
v -0.119662 0.002062 0.046809
v -0.130758 -0.003170 0.044413
v -0.135189 0.000606 0.019789
v -0.133723 0.001497 0.019298
v -0.137191 -0.005849 0.010004
v -0.069686 0.042385 0.048266
v 0.001403 0.071049 0.045998
v -0.054036 0.021192 0.074363
v -0.044021 -0.013497 0.082815
v 0.016069 0.047738 0.075244
v 0.024989 0.009861 0.085221
v 0.024758 -0.028114 0.072119
v 0.015462 -0.051682 0.040943
v -0.043464 -0.048432 0.070393
v -0.052580 -0.070269 0.041843
v -0.067886 -0.070668 0.008069
v 0.000653 -0.051840 0.003600
v -0.013407 0.070891 0.008655
vn -0.0344 -0.2574 -0.9657
vn -0.0332 -0.2507 -0.9675
vn -0.0352 -0.2623 -0.9643
vn 0.9226 0.1208 -0.3664
vn -0.2300 0.3198 -0.9192
vn -0.2295 0.3216 -0.9186
vn -0.2302 0.3186 -0.9195
vn -0.4099 0.2995 -0.8615
vn -0.4100 0.2989 -0.8617
vn -0.4100 0.2992 -0.8616
vn -0.0790 -0.2563 -0.9634
vn -0.0790 -0.2548 -0.9638
vn -0.0791 -0.2575 -0.9630
vn -0.3601 0.7928 -0.4918
vn -0.3601 0.7929 -0.4916
vn -0.3602 0.7927 -0.4918
vn -0.6176 0.7090 -0.3404
vn -0.6155 0.7084 -0.3453
vn -0.6174 0.7089 -0.3410
vn -0.9829 0.0299 0.1815
vn -0.5212 0.2796 -0.8063
vn -0.3260 -0.3110 -0.8927
vn -0.3256 -0.3109 -0.8929
vn -0.0675 -0.7917 -0.6071
vn -0.0681 -0.7921 -0.6066
vn -0.0686 -0.7923 -0.6063
vn 0.1524 -0.9866 -0.0577
vn 0.1523 -0.9866 -0.0577
vn 0.2425 -0.8022 0.5456
vn 0.2427 -0.8021 0.5457
vn 0.2442 -0.8010 0.5466
vn 0.1656 -0.3222 0.9321
vn 0.1657 -0.3220 0.9321
vn 0.1666 -0.3209 0.9324
vn -0.0237 0.2237 0.9744
vn -0.0236 0.2239 0.9743
vn -0.0245 0.2226 0.9746
vn -0.2487 0.6574 0.7114
vn -0.2485 0.6609 0.7081
vn -0.2487 0.6550 0.7135
vn -0.4539 0.8647 0.2149
vn -0.1699 0.9651 0.1994
vn -0.4500 0.8663 0.2169
vn -0.5701 0.7346 -0.3680
vn -0.6058 0.7472 0.2733
vn -0.5994 0.7490 0.2823
vn -0.6098 0.7461 0.2675
vn -0.4582 0.5292 0.7141
vn -0.4508 0.5268 0.7206
vn -0.4637 0.5310 0.7093
vn -0.3645 0.9200 0.1442
vn -0.3613 0.9205 0.1491
vn -0.3663 0.9197 0.1414
vn -0.2622 0.6807 0.6840
vn -0.2546 0.6763 0.6912
vn -0.2674 0.6837 0.6790
vn -0.1010 0.2244 0.9693
vn -0.1027 0.2147 0.9713
vn -0.1040 0.2070 0.9728
vn -0.2347 0.1634 0.9582
vn -0.2348 0.1602 0.9588
vn -0.2348 0.1577 0.9592
vn 0.0768 -0.3277 0.9417
vn 0.0760 -0.3308 0.9406
vn 0.0754 -0.3330 0.9399
vn 0.2272 -0.8079 0.5437
vn 0.2275 -0.8075 0.5443
vn 0.2277 -0.8071 0.5447
vn 0.3212 -0.7985 0.5091
vn 0.3215 -0.7979 0.5098
vn 0.3217 -0.7975 0.5104
vn 0.0540 -0.3320 0.9417
vn 0.0543 -0.3293 0.9427
vn 0.0545 -0.3274 0.9433
vn 0.2599 -0.9603 -0.1011
vn 0.2582 -0.9605 -0.1035
vn 0.2570 -0.9607 -0.1052
vn 0.3708 -0.9146 -0.1613
vn 0.3680 -0.9151 -0.1647
vn 0.3654 -0.9156 -0.1680
vn 0.1538 -0.7297 -0.6662
vn 0.1484 -0.7265 -0.6709
vn 0.1442 -0.7241 -0.6745
vn 0.2077 -0.6912 -0.6922
vn 0.2036 -0.6898 -0.6948
vn 0.1990 -0.6881 -0.6978
vn -0.0322 -0.2454 -0.9689
vn -0.2292 0.3229 -0.9183
vn -0.4099 0.2998 -0.8615
vn -0.0789 -0.2535 -0.9641
vn -0.3600 0.7929 -0.4916
vn -0.6225 0.7101 -0.3291
vn -0.9829 0.0301 0.1815
vn -0.9829 0.0299 0.1814
vn -0.9830 0.0294 0.1814
vn -0.9830 0.0297 0.1814
vn -0.3261 -0.3110 -0.8927
vn -0.0673 -0.7916 -0.6073
vn 0.1525 -0.9866 -0.0577
vn 0.2412 -0.8031 0.5448
vn 0.1648 -0.3234 0.9318
vn -0.0228 0.2252 0.9741
vn -0.2489 0.6481 0.7197
vn -0.4594 0.8613 0.2171
vn -0.4541 0.8648 0.2143
vn -0.5949 0.7502 0.2886
vn -0.4446 0.5248 0.7259
vn -0.3594 0.9207 0.1520
vn -0.2492 0.6732 0.6962
vn -0.0998 0.2314 0.9677
vn -0.2347 0.1656 0.9579
vn 0.0773 -0.3256 0.9423
vn 0.2270 -0.8083 0.5433
vn 0.3209 -0.7989 0.5086
vn 0.0538 -0.3338 0.9411
vn 0.2610 -0.9602 -0.0994
vn 0.3732 -0.9142 -0.1583
vn 0.1579 -0.7321 -0.6627
vn 0.2118 -0.6927 -0.6895
vt -0.026637 -0.017788
vt -0.031754 -0.024031
vt -0.030481 -0.016621
vt -0.016714 0.022772
vt -0.004620 0.020199
vt -0.008442 0.013583
vt -0.022343 -0.020454
vt -0.026252 -0.026872
vt -0.026154 -0.019186
vt -0.021360 -0.024475
vt -0.021050 -0.030193
vt -0.023562 -0.029134
vt -0.028040 -0.024921
vt -0.031150 -0.029945
vt -0.031641 -0.024034
vt -0.007396 -0.020602
vt -0.010027 -0.027374
vt -0.011320 -0.019741
vt -0.007402 -0.017247
vt -0.002605 -0.023854
vt -0.002761 -0.023834
vt 0.626813 0.330606
vt 0.332252 0.398362
vt 0.279144 0.586219
vt -0.019616 -0.027304
vt -0.019623 -0.027355
vt -0.020115 -0.027145
vt -0.030691 -0.028003
vt -0.027679 -0.028655
vt -0.027837 -0.029563
vt -0.024142 -0.031647
vt -0.027279 -0.032369
vt -0.027226 -0.031449
vt -0.013311 -0.035234
vt -0.010649 -0.037652
vt -0.013347 -0.037203
vt 0.005993 -0.035661
vt 0.008761 -0.038088
vt 0.006162 -0.038502
vt 0.021483 -0.031571
vt 0.024483 -0.033726
vt 0.021934 -0.034831
vt 0.027355 -0.026717
vt 0.030511 -0.028353
vt 0.027908 -0.029798
vt 0.023764 -0.024264
vt 0.026917 -0.025279
vt 0.025007 -0.026179
vt 0.014979 -0.024845
vt 0.012508 -0.025556
vt 0.012068 -0.025656
vt -0.005783 -0.025602
vt -0.004593 -0.025928
vt -0.005773 -0.025780
vt 0.014019 -0.011708
vt 0.012039 -0.017580
vt 0.010325 -0.011390
vt 0.025561 -0.011115
vt 0.023040 -0.017738
vt 0.021872 -0.011492
vt 0.010692 -0.015349
vt 0.008859 -0.022569
vt 0.006677 -0.015218
vt 0.023636 -0.010535
vt 0.021907 -0.018323
vt 0.019669 -0.011168
vt 0.025341 -0.012479
vt 0.030507 -0.018661
vt 0.026919 -0.019595
vt 0.026746 -0.017230
vt 0.030084 -0.022613
vt 0.027093 -0.023388
vt 0.022147 -0.018634
vt 0.026018 -0.024600
vt 0.022491 -0.025746
vt 0.008233 -0.023366
vt 0.010765 -0.029456
vt 0.007163 -0.030338
vt 0.006655 -0.028887
vt 0.008287 -0.033613
vt 0.005312 -0.034448
vt 0.022557 -0.025707
vt 0.024814 -0.030588
vt 0.021893 -0.031595
vt -0.010369 -0.021069
vt -0.008567 -0.027635
vt -0.012263 -0.027934
vt -0.012697 -0.025311
vt -0.010816 -0.030443
vt -0.013882 -0.030828
vt -0.024474 -0.017102
vt -0.022687 -0.024515
vt -0.026377 -0.024151
vt -0.026477 -0.023291
vt -0.023856 -0.029195
vt -0.026940 -0.028999
vt -0.028156 -0.024929
vt -0.012437 0.013163
vt -0.015916 0.015172
vt -0.017549 0.018843
vt -0.013728 0.025459
vt -0.009733 0.025879
vt -0.006254 0.023870
vt -0.005456 0.016270
vt -0.022708 -0.027964
vt -0.024912 -0.023411
vt -0.020550 -0.030351
vt -0.028140 -0.030647
vt -0.006418 -0.028227
vt -0.004336 -0.023645
vt -0.005526 -0.023318
vt -0.003792 -0.018094
vt 0.335545 0.772284
vt 0.466238 0.884262
vt 0.614793 0.889154
vt 0.730302 0.795440
vt 0.778749 0.636642
vt 0.742952 0.461426
vt 0.707879 0.420882
vt 0.602645 0.325968
vt 0.466651 0.303167
vt 0.412375 0.342150
vt 0.339387 0.393194
vt 0.287577 0.555272
vt -0.030688 -0.027952
vt -0.024496 -0.033584
vt -0.010247 -0.034834
vt 0.008962 -0.034803
vt 0.024415 -0.030596
vt 0.030362 -0.026004
vt 0.024167 -0.026582
vt 0.026849 -0.024072
vt 0.011914 -0.024456
vt 0.014982 -0.025023
vt 0.015104 -0.017969
vt 0.026121 -0.017513
vt 0.012555 -0.022864
vt 0.025596 -0.017949
vt 0.029176 -0.011284
vt 0.030326 -0.016263
vt 0.025940 -0.017311
vt 0.012149 -0.022471
vt 0.010262 -0.028027
vt 0.026081 -0.024552
vt -0.006354 -0.020937
vt -0.009000 -0.025018
vt -0.020508 -0.017735
vt -0.022787 -0.023654
s 1
usemtl mat3
f 8/19/17 9/20/18 10/21/19
s 0
f 26/22/20 9/23/20 12/24/20
s 1
f 30/49/41 28/50/42 26/51/43
f 30/52/44 31/53/44 29/54/44
f 8/55/45 27/56/46 32/57/47
f 44/61/51 32/62/52 33/63/53
f 31/110/92 30/111/92 8/19/17
f 8/19/17 7/112/18 9/20/18
f 10/21/19 31/110/92 8/19/17
s 0
f 12/24/20 13/113/20 15/114/20
f 15/114/20 17/115/20 19/116/20
f 19/116/20 21/117/20 23/118/20
f 23/118/93 25/119/93 26/22/93
f 26/22/94 28/120/94 29/121/94
f 31/122/95 10/123/95 9/23/95
f 26/22/20 29/121/20 31/122/20
f 19/116/20 23/118/20 26/22/20
f 12/24/20 15/114/20 19/116/20
f 9/23/96 11/124/96 12/24/96
f 26/22/20 31/122/20 9/23/20
f 12/24/20 19/116/20 26/22/20
s 1
f 26/51/43 27/133/104 30/49/41
f 30/49/41 29/134/105 28/50/42
f 8/55/45 30/135/106 27/56/46
f 44/61/51 8/137/108 32/62/52
usemtl mat9
f 2/1/1 4/2/2 1/3/3
f 3/4/4 37/5/4 39/6/4
f 1/7/5 7/8/6 3/9/7
f 4/10/8 11/11/9 9/12/10
f 6/13/11 5/14/12 4/15/13
f 3/16/14 8/17/15 44/18/16
f 5/25/21 12/26/21 11/27/21
f 12/28/22 14/29/23 13/30/23
f 16/31/24 13/32/25 14/33/26
f 16/34/27 17/35/27 15/36/28
f 18/37/29 19/38/30 17/39/31
f 20/40/32 21/41/33 19/42/34
f 22/43/35 23/44/36 21/45/37
f 24/46/38 26/47/39 25/48/40
f 32/58/48 24/59/49 34/60/50
f 33/64/54 34/65/55 36/66/56
f 37/67/57 34/68/58 35/69/59
f 35/70/60 24/71/61 22/72/62
f 38/73/63 35/74/64 40/75/65
f 39/76/66 40/77/67 41/78/68
f 41/79/69 20/80/70 18/81/71
f 40/82/72 22/83/73 20/84/74
f 43/85/75 41/86/76 42/87/77
f 42/88/78 18/89/79 16/90/80
f 2/91/81 42/92/82 6/93/83
f 6/94/84 16/95/85 14/96/86
f 2/1/1 6/97/87 4/2/2
f 39/6/4 43/98/4 2/99/4
f 2/99/4 1/100/4 3/4/4
f 3/4/4 44/101/4 33/102/4
f 33/102/4 36/103/4 37/5/4
f 37/5/4 38/104/4 39/6/4
f 39/6/4 2/99/4 3/4/4
f 3/4/4 33/102/4 37/5/4
f 1/7/5 4/105/88 7/8/6
f 9/12/10 7/106/89 4/10/8
f 4/10/8 5/107/9 11/11/9
f 6/13/11 14/108/90 5/14/12
f 3/16/14 7/109/91 8/17/15
f 12/28/22 5/125/97 14/29/23
f 16/31/24 15/126/98 13/32/25
f 16/34/27 18/127/99 17/35/27
f 18/37/29 20/128/100 19/38/30
f 20/40/32 22/129/101 21/41/33
f 22/43/35 24/130/102 23/44/36
f 25/48/40 23/131/103 24/46/38
f 24/46/38 27/132/39 26/47/39
f 32/58/48 27/136/107 24/59/49
f 33/64/54 32/138/109 34/65/55
f 37/67/57 36/139/110 34/68/58
f 35/70/60 34/140/111 24/71/61
f 38/73/63 37/141/112 35/74/64
f 39/76/66 38/142/113 40/77/67
f 41/79/69 40/143/114 20/80/70
f 40/82/72 35/144/115 22/83/73
f 43/85/75 39/145/116 41/86/76
f 42/88/78 41/146/117 18/89/79
f 2/91/81 43/147/118 42/92/82
f 6/94/84 42/148/119 16/95/85
