# Blender 5.1.2
# www.blender.org
mtllib pata_D_D_1_GECKO.mtl
o group1296609596.001
v -0.006389 0.067340 -0.030548
v 0.019367 -0.008052 -0.067397
v 0.009815 0.036634 -0.060949
v -0.072137 0.047202 -0.085948
v 0.018619 -0.049650 -0.047429
v 0.012734 -0.059330 -0.004923
v -0.006034 -0.041627 0.031286
v -0.025013 -0.036568 0.064474
v -0.034565 0.008119 0.070922
v -0.033817 0.049717 0.050954
v -0.023055 0.072337 0.012196
v -0.086896 0.051935 -0.046269
v -0.094919 0.031420 -0.009808
v -0.120239 0.022441 -0.088433
v -0.116822 0.021326 -0.069737
v -0.123605 0.015671 -0.105554
v -0.115596 0.012576 -0.129949
v -0.129866 0.004511 -0.137632
v -0.136242 -0.025772 -0.167188
v -0.102924 -0.011027 -0.153241
v -0.138682 -0.058497 -0.175025
v -0.093415 -0.044970 -0.157442
v -0.137023 -0.084477 -0.161762
v -0.090701 -0.076287 -0.140949
v -0.131743 -0.097043 -0.131090
v -0.095817 -0.093016 -0.110060
v -0.123897 -0.091035 -0.089575
v -0.106811 -0.088768 -0.076575
v -0.117282 -0.069263 -0.057327
v -0.115095 -0.063067 -0.046499
v -0.082244 -0.047356 0.004303
v -0.111001 -0.037432 -0.028537
v -0.107752 -0.016579 -0.014368
v -0.093142 -0.006506 0.009509
v -0.108466 -0.003883 -0.020327
v -0.110090 0.018501 -0.032806
v -0.066387 -0.075528 -0.023438
v -0.051628 -0.080261 -0.063117
v -0.043605 -0.059746 -0.099579
v -0.045382 -0.021821 -0.118895
v -0.056280 0.019030 -0.113689
vn 0.9271 0.1485 0.3441
vn 0.2803 0.7468 -0.6031
vn 0.2800 0.7481 -0.6016
vn 0.2804 0.7460 -0.6040
vn -0.1524 0.9730 -0.1731
vn -0.1524 0.9731 -0.1729
vn -0.1524 0.9730 -0.1732
vn 0.9676 0.1815 0.1753
vn 0.9062 0.2110 0.3665
vn 0.8551 0.2580 0.4497
vn -0.5403 0.7821 0.3104
vn -0.5406 0.7798 0.3157
vn -0.5402 0.7835 0.3073
vn -0.7699 0.6128 0.1782
vn -0.7737 0.6074 0.1805
vn -0.7682 0.6152 0.1771
vn -0.4315 0.8638 -0.2603
vn -0.4331 0.8648 -0.2539
vn -0.4315 0.8642 -0.2587
vn -0.9829 0.0299 0.1815
vn -0.3779 0.8949 -0.2376
vn -0.0105 0.6995 -0.7145
vn -0.0106 0.6995 -0.7145
vn -0.0106 0.6995 -0.7146
vn 0.3019 0.2002 -0.9321
vn 0.3019 0.2004 -0.9320
vn 0.3018 0.1999 -0.9322
vn 0.4333 -0.3894 -0.8128
vn 0.4328 -0.3888 -0.8133
vn 0.4321 -0.3880 -0.8141
vn 0.3329 -0.8511 -0.4059
vn 0.3329 -0.8511 -0.4060
vn 0.0298 -0.9902 0.1367
vn 0.0295 -0.9902 0.1362
vn 0.0305 -0.9900 0.1375
vn -0.3372 -0.7468 0.5733
vn -0.4340 -0.7416 0.5116
vn -0.4312 -0.7432 0.5115
vn -0.4374 -0.7396 0.5116
vn -0.7626 -0.2800 0.5831
vn -0.7627 -0.2779 0.5839
vn -0.7624 -0.2824 0.5822
vn -0.8674 0.1856 0.4618
vn -0.8671 0.1869 0.4618
vn -0.8655 0.1946 0.4616
vn -0.6725 -0.2512 0.6962
vn -0.6732 -0.2603 0.6921
vn -0.6738 -0.2675 0.6888
vn -0.7220 0.3035 0.6218
vn -0.7192 0.2952 0.6290
vn -0.7239 0.3091 0.6168
vn -0.4100 -0.7466 0.5239
vn 0.1581 -0.9718 0.1747
vn 0.1123 -0.9808 0.1595
vn 0.1121 -0.9807 0.1604
vn 0.1119 -0.9806 0.1611
vn 0.0710 -0.8811 0.4676
vn 0.2573 -0.9225 0.2878
vn 0.4392 -0.8208 -0.3652
vn 0.5542 -0.7702 -0.3157
vn 0.5540 -0.7686 -0.3199
vn 0.5538 -0.7671 -0.3237
vn 0.4223 -0.8947 -0.1453
vn 0.6337 -0.3391 -0.6953
vn 0.6315 -0.3334 -0.7001
vn 0.6297 -0.3289 -0.7038
vn 0.6847 -0.3010 -0.6637
vn 0.6827 -0.2979 -0.6672
vn 0.6804 -0.2944 -0.6711
vn 0.5678 0.2399 -0.7875
vn 0.5685 0.2464 -0.7849
vn 0.5672 0.2351 -0.7893
vn 0.5304 0.2461 -0.8112
vn 0.5304 0.2476 -0.8108
vn 0.5304 0.2449 -0.8116
vn 0.1067 0.7273 -0.6780
vn 0.1068 0.7270 -0.6782
vn 0.1067 0.7275 -0.6778
vn 0.2798 0.7490 -0.6007
vn -0.1525 0.9731 -0.1728
vn -0.5408 0.7783 0.3189
vn -0.7864 0.5883 0.1883
vn -0.4308 0.8632 -0.2632
vn -0.4339 0.8650 -0.2522
vn -0.0105 0.6996 -0.7145
vn 0.3020 0.2006 -0.9319
vn 0.4339 -0.3901 -0.8121
vn 0.3330 -0.8511 -0.4058
vn 0.0286 -0.9904 0.1350
vn -0.4284 -0.7448 0.5115
vn -0.7621 -0.2854 0.5811
vn -0.8708 0.1678 0.4620
vn -0.6719 -0.2445 0.6991
vn -0.7171 0.2893 0.6340
vn 0.1125 -0.9809 0.1588
vn 0.5543 -0.7716 -0.3121
vn 0.6354 -0.3434 -0.6916
vn 0.6868 -0.3041 -0.6602
vn 0.5691 0.2516 -0.7828
vn 0.5304 0.2489 -0.8104
vn 0.1069 0.7269 -0.6784
vt -0.001224 0.040189
vt 0.001555 0.043873
vt 0.010332 0.043716
vt 0.001555 0.043873
vt 0.005969 0.045221
vt 0.010332 0.043716
vt 0.023907 -0.041499
vt 0.024803 -0.050085
vt 0.019541 -0.042994
vt 0.046523 -0.014001
vt 0.050235 -0.021476
vt 0.042755 -0.016665
vt -0.005329 0.041829
vt -0.006730 0.045999
vt 0.004515 0.050418
vt 0.008726 0.032952
vt 0.005395 0.035897
vt 0.016502 0.042775
vt 0.016536 0.025726
vt 0.014687 0.029110
vt 0.023285 0.038223
vt 0.010116 0.031636
vt 0.005702 0.030289
vt 0.010332 0.043716
vt 0.012895 0.035321
vt 0.010116 0.031636
vt 0.010332 0.043716
vt 0.012977 0.039935
vt 0.012894 0.035321
vt 0.010331 0.043716
vt 0.053526 0.001464
vt 0.057854 -0.005919
vt 0.050138 -0.001669
vt 0.058450 0.004929
vt 0.052012 0.005461
vt 0.060319 0.005291
vt 0.046160 -0.009697
vt 0.049871 -0.014845
vt 0.048000 -0.014791
vt 0.118795 0.893923
vt 0.856589 0.609806
vt 0.630620 0.254956
vt 0.054024 -0.015646
vt 0.055244 -0.016983
vt 0.051791 -0.016951
vt 0.025595 -0.041910
vt 0.023119 -0.044356
vt 0.022163 -0.042818
vt -0.024681 -0.049260
vt -0.028203 -0.052511
vt -0.028171 -0.048610
vt -0.062270 -0.024095
vt -0.062308 -0.029995
vt -0.064793 -0.028460
vt -0.068969 -0.011202
vt -0.069380 -0.015888
vt -0.072578 -0.014868
vt -0.061465 -0.022603
vt -0.060244 -0.025863
vt -0.064495 -0.025486
vt -0.034162 -0.051406
vt -0.031415 -0.052435
vt -0.035275 -0.053256
vt -0.038477 -0.050849
vt -0.029424 -0.048273
vt -0.034558 -0.051838
vt 0.040433 -0.042270
vt 0.044744 -0.043210
vt 0.043569 -0.045464
vt 0.060742 0.000416
vt 0.057412 0.000895
vt 0.062394 0.002382
vt 0.032601 -0.038004
vt 0.039338 -0.044350
vt 0.035373 -0.045906
vt 0.054631 -0.003594
vt 0.058282 -0.011999
vt 0.051371 -0.006861
vt -0.023117 -0.042007
vt -0.028711 -0.048238
vt -0.032586 -0.046469
vt -0.046156 -0.014088
vt -0.050108 -0.021370
vt -0.053628 -0.018970
vt -0.054408 -0.019316
vt -0.057212 -0.024328
vt -0.060203 -0.022415
vt -0.035697 -0.023025
vt -0.031828 -0.025213
vt -0.038701 -0.030747
vt -0.045382 -0.021438
vt -0.038180 -0.016339
vt -0.035242 -0.018838
vt -0.056653 -0.002920
vt -0.060382 -0.009795
vt -0.063684 -0.007103
vt -0.063196 -0.005340
vt -0.065797 -0.011055
vt -0.068616 -0.008898
vt -0.054700 -0.003118
vt -0.050895 -0.005326
vt -0.058541 -0.009932
vt -0.057231 -0.010807
vt -0.060038 -0.019105
vt -0.063400 -0.016489
vt -0.064136 -0.015586
vt -0.065396 -0.022899
vt -0.068219 -0.020746
vt -0.030120 -0.043045
vt -0.036312 -0.049948
vt -0.034472 -0.041509
vt -0.030019 -0.050948
vt -0.033686 -0.056660
vt -0.034137 -0.049860
vt 0.023808 -0.042338
vt 0.024921 -0.048421
vt 0.019736 -0.043588
vt 0.028801 -0.048616
vt 0.053752 -0.019072
vt 0.061114 -0.003176
vt 0.054764 0.004163
vt 0.055057 0.008439
vt 0.042556 -0.011969
vt 0.052109 -0.013550
vt 0.432483 0.289107
vt 0.254842 0.356507
vt 0.090564 0.539389
vt 0.046267 0.737024
vt 0.287958 0.969811
vt 0.517605 0.933526
vt 0.696504 0.802043
vt 0.756539 0.764625
vt 0.527315 0.248220
vt 0.902973 0.407198
vt 0.834668 0.272014
vt 0.935527 0.483870
vt 0.027259 -0.045439
vt -0.025318 -0.054260
vt -0.059208 -0.025890
vt -0.066100 -0.013293
vt -0.058512 -0.024574
vt -0.035805 -0.052060
vt -0.033277 -0.046457
vt 0.042145 -0.048282
vt 0.044202 -0.040285
vt 0.059912 -0.000717
vt 0.060009 0.004271
vt 0.036812 -0.036117
vt 0.061458 -0.009161
vt -0.050913 -0.021751
vt -0.059936 -0.008082
vt -0.053765 -0.013853
vt -0.060841 -0.018286
vt -0.032229 -0.051162
vt -0.030243 -0.057524
vt 0.028331 -0.047434
s 1
usemtl mat9
f 5/1/1 2/2/1 1/3/1
f 2/4/1 3/5/1 1/6/1
f 3/7/2 4/8/3 1/9/4
f 6/13/8 5/14/8 1/15/8
f 7/16/9 6/17/9 1/18/9
f 8/19/10 7/20/10 1/21/10
f 9/22/1 8/23/1 1/24/1
f 10/25/1 9/26/1 1/27/1
f 11/28/1 10/29/1 1/30/1
s 0
f 23/40/20 32/41/20 15/42/20
s 1
f 20/46/22 18/47/23 17/48/24
f 22/49/25 19/50/26 20/51/27
f 22/52/28 23/53/29 21/54/30
f 24/55/31 25/56/31 23/57/32
f 26/58/33 27/59/34 25/60/35
f 28/61/36 29/62/36 27/63/36
f 28/64/37 31/65/38 30/66/39
f 31/67/40 33/68/41 32/69/42
f 35/70/43 34/71/44 36/72/45
f 8/73/46 34/74/47 31/75/48
f 10/76/49 34/77/50 9/78/51
f 8/79/52 31/80/52 37/81/52
f 6/82/53 37/83/53 38/84/53
f 38/85/54 28/86/55 26/87/56
f 6/88/57 7/89/57 37/90/57
f 37/91/58 7/92/58 8/93/58
f 5/94/59 38/95/59 39/96/59
f 39/97/60 26/98/61 24/99/62
f 5/100/63 6/101/63 38/102/63
f 2/103/64 39/104/65 40/105/66
f 40/106/67 24/107/68 22/108/69
f 2/109/70 41/110/71 3/111/72
f 40/112/73 20/113/74 41/114/75
f 41/115/76 17/116/77 4/117/78
f 3/7/2 41/118/79 4/8/3
s 0
f 16/125/20 18/126/20 19/127/20
f 19/127/20 21/128/20 23/40/20
f 23/40/20 25/129/20 27/130/20
f 29/131/20 30/132/20 32/41/20
f 23/40/20 27/130/20 29/131/20
f 16/125/20 19/127/20 23/40/20
f 15/42/20 14/133/20 16/125/20
f 35/134/20 36/135/20 15/42/20
f 32/41/20 33/136/20 35/134/20
f 23/40/20 29/131/20 32/41/20
f 15/42/20 16/125/20 23/40/20
f 32/41/20 35/134/20 15/42/20
s 1
f 20/46/22 19/137/85 18/47/23
f 22/49/25 21/138/86 19/50/26
f 22/52/28 24/139/87 23/53/29
f 24/55/31 26/140/88 25/56/31
f 26/58/33 28/141/89 27/59/34
f 30/66/39 29/142/39 28/64/37
f 28/64/37 37/143/90 31/65/38
f 32/69/42 30/144/91 31/67/40
f 31/67/40 34/145/41 33/68/41
f 35/70/43 33/146/92 34/71/44
f 34/71/44 13/147/45 36/72/45
f 8/73/46 9/148/93 34/74/47
f 10/76/49 13/149/94 34/77/50
f 38/85/54 37/150/95 28/86/55
f 39/97/60 38/151/96 26/98/61
f 2/103/64 5/152/97 39/104/65
f 40/106/67 39/153/98 24/107/68
f 2/109/70 40/154/99 41/110/71
f 40/112/73 22/155/100 20/113/74
f 41/115/76 20/156/101 17/116/77
usemtl mat3
f 1/10/5 12/11/6 11/12/7
f 11/31/11 13/32/12 10/33/13
f 15/34/14 13/35/15 14/36/16
f 4/37/17 16/38/18 14/39/19
f 17/43/21 18/44/21 16/45/21
f 1/10/5 4/119/80 12/11/6
f 11/31/11 12/120/81 13/32/12
f 15/34/14 36/121/82 13/35/15
f 13/35/15 12/122/16 14/36/16
f 14/39/19 12/123/83 4/37/17
f 4/37/17 17/124/84 16/38/18
