# Blender 5.1.2
# www.blender.org
mtllib torso_GECKO.mtl
o group1754880393
v 0.137770 -0.021350 -0.301517
v 0.154809 0.008865 -0.153682
v 0.099046 0.093811 -0.156701
v 0.135969 -0.093286 -0.299881
v 0.153008 -0.063071 -0.152047
v 0.081371 -0.100519 -0.138285
v 0.052850 -0.122909 -0.284573
v 0.033046 -0.106699 -0.124180
v 0.013333 -0.117769 -0.271443
v -0.020927 -0.103677 -0.118528
v -0.032017 -0.120265 -0.252079
v -0.079362 -0.095737 -0.112538
v -0.086787 -0.067759 -0.268186
v -0.134188 -0.048638 -0.107668
v -0.100845 -0.029843 -0.273120
v -0.119112 0.026770 -0.119608
v -0.080236 0.024102 -0.273255
v -0.048411 0.102065 -0.141259
v -0.022901 0.056458 -0.298412
v -0.000541 0.126359 -0.149769
v 0.021646 0.057746 -0.307088
v 0.053432 0.123338 -0.155421
v 0.084530 0.021996 -0.302029
v 0.154259 0.007728 -0.036018
v 0.149453 -0.064479 -0.042307
v 0.075318 -0.101096 -0.035179
v 0.025673 -0.105567 -0.024639
v -0.028088 -0.100416 -0.018528
v -0.084836 -0.090496 -0.008178
v -0.136954 -0.042098 0.003784
v -0.118871 0.033581 -0.000232
v -0.045673 0.108045 -0.015249
v 0.003516 0.130630 -0.020194
v 0.057277 0.125479 -0.026305
v 0.101205 0.093973 -0.031945
v 0.157138 0.007899 0.109664
v 0.104996 0.093826 0.119274
v 0.151217 -0.063580 0.095961
v 0.076062 -0.099254 0.095784
v 0.025766 -0.102818 0.101085
v -0.028103 -0.097041 0.105428
v -0.084388 -0.086943 0.117954
v -0.135593 -0.038862 0.135453
v -0.116396 0.036089 0.138851
v -0.042178 0.109609 0.131139
v 0.007662 0.131288 0.131432
v 0.061532 0.125511 0.127089
v 0.174828 0.027769 0.235227
v 0.177011 -0.043908 0.238700
v 0.110222 -0.056156 0.257665
v 0.062019 -0.093454 0.262826
v 0.007700 -0.095024 0.263903
v -0.053026 -0.091191 0.265012
v -0.111476 -0.046612 0.266003
v -0.100383 0.028537 0.252225
v -0.032960 0.105903 0.231270
v 0.013217 0.134044 0.225804
v 0.067536 0.135615 0.224727
v 0.115442 0.110194 0.228329
v 0.165472 0.038815 0.361769
v 0.170165 -0.033324 0.360368
v 0.104053 -0.074515 0.369539
v 0.049129 -0.089328 0.474981
v -0.003263 -0.086960 0.385301
v -0.038867 -0.056012 0.451770
v -0.091311 -0.031911 0.391421
v -0.088793 0.021604 0.379982
v -0.053466 0.038151 0.390416
v -0.011243 0.067950 0.369232
v 0.034466 0.066643 0.368612
v 0.128054 0.070533 0.400692
v 0.106579 -0.029529 0.421870
v -0.060548 0.034040 -0.284630
v 0.096291 0.045036 0.445518
v 0.061239 0.008397 0.467716
v 0.009396 -0.025785 0.639722
v 0.107572 -0.001174 0.588077
v -0.021148 0.008708 0.470427
v 0.051145 0.036574 0.618447
v -0.033213 0.044426 0.631609
v -0.033213 0.044426 0.631609
v 0.051145 0.036574 0.618447
v 0.052172 0.026909 0.624317
v 0.100268 0.007139 0.560077
v 0.065668 0.060838 0.587805
v 0.051145 0.036574 0.618447
v 0.076643 0.065174 0.587642
v 0.087727 0.003691 0.563394
vn 0.8218 0.5322 -0.2035
vn -0.7423 0.6398 -0.1989
vn -0.4735 0.8224 -0.3155
vn 0.0096 0.9171 -0.3986
vn 0.4739 0.7682 -0.4305
vn 0.4831 0.7648 -0.4262
vn 0.4807 0.7657 -0.4273
vn 0.8358 0.5490 0.0092
vn -0.7313 0.6819 -0.0165
vn -0.4546 0.8905 -0.0151
vn 0.0540 0.9984 -0.0182
vn 0.5426 0.8395 -0.0301
vn 0.8528 0.5219 -0.0196
vn 0.8518 0.5236 -0.0171
vn 0.8537 0.5204 -0.0209
vn 0.8513 0.5244 -0.0154
vn 0.8507 0.5255 -0.0147
vn 0.5811 0.8137 -0.0111
vn 0.5829 0.8124 -0.0143
vn 0.5818 0.8132 -0.0111
vn -0.7165 0.6966 -0.0383
vn -0.4198 0.9070 -0.0339
vn 0.0913 0.9952 -0.0357
vn -0.7122 0.7020 0.0095
vn -0.4166 0.9090 0.0075
vn 0.1037 0.9946 -0.0063
vn 0.0974 0.9952 -0.0038
vn 0.1061 0.9943 -0.0072
vn 0.5859 0.8102 -0.0159
vn 0.5871 0.8094 -0.0164
vn 0.8276 0.5246 -0.1996
vn -0.7038 0.7104 -0.0003
vn -0.3989 0.9170 -0.0003
vn -0.3988 0.9170 -0.0031
vn -0.3989 0.9170 -0.0005
vn -0.6961 0.7122 0.0904
vn -0.3988 0.9170 -0.0033
vn 0.0974 0.9893 -0.1084
vn 0.5708 0.8124 -0.1192
vn 0.8110 0.5850 0.0089
vn 0.8070 0.5678 -0.1625
vn 0.4717 0.8642 -0.1749
vn -0.7256 0.6722 0.1473
vn -0.5120 0.8554 0.0788
vn -0.0294 0.9992 -0.0274
vn -0.7126 0.6739 0.1951
vn -0.4697 0.8295 0.3021
vn -0.0176 0.9032 0.4289
vn 0.3861 0.7941 0.4694
vn 0.7064 0.6993 0.1092
vn -0.1193 0.9656 0.2309
vn -0.4439 0.8437 0.3020
vn 0.0316 0.9057 0.4228
vn 0.0271 0.5534 0.8325
vn -0.1823 0.8871 0.4242
vn -0.1832 0.9047 0.3848
vn -0.5663 0.7622 -0.3137
vn -0.5670 0.7617 -0.3134
vn -0.5660 0.7623 -0.3138
vn -0.5679 0.7612 -0.3131
vn -0.9080 0.3463 -0.2358
vn -0.1061 0.9059 -0.4100
vn 0.4718 0.7689 -0.4314
vn 0.5791 0.7064 -0.4069
vn -0.1904 0.8939 0.4059
vn -0.3244 0.9300 -0.1731
vn -0.2566 0.9394 -0.2274
vn 0.9937 -0.0273 -0.1089
vn -0.6534 -0.7499 -0.1036
vn -0.9702 0.1660 -0.1767
vn -0.1126 -0.1597 -0.9807
vn -0.1123 -0.1609 -0.9806
vn -0.1140 -0.1535 -0.9816
vn 0.9992 -0.0243 0.0321
vn -0.6499 -0.7595 0.0284
vn -0.9808 0.1947 -0.0091
vn 0.9978 -0.0668 0.0040
vn -0.6803 -0.7329 0.0011
vn -0.9724 0.2303 -0.0376
vn 0.9978 -0.0653 -0.0123
vn -0.6790 -0.7337 0.0245
vn -0.6782 -0.7345 0.0237
vn -0.6774 -0.7352 0.0231
vn -0.9724 0.2330 0.0131
vn 0.9967 -0.0788 -0.0196
vn -0.9688 0.2480 0.0039
vn 0.9840 -0.0487 -0.1711
vn -0.6678 -0.7401 0.0794
vn -0.9592 0.2388 0.1514
vn 0.9894 0.0232 -0.1431
vn 0.2061 -0.9737 0.0970
vn -0.6019 -0.7916 0.1055
vn -0.9659 0.1772 0.1890
vn 0.9980 0.0330 0.0533
vn 0.1360 -0.9788 -0.1531
vn -0.5917 -0.7838 0.1884
vn -0.5937 -0.7826 0.1872
vn -0.5858 -0.7874 0.1918
vn -0.9818 0.1629 0.0979
vn 0.9957 0.0635 0.0681
vn 0.5363 -0.8377 0.1031
vn -0.5842 -0.7884 0.1928
vn -0.9857 0.0783 0.1493
vn -0.4438 0.8917 0.0887
vn 0.1434 -0.0099 0.9896
vn 0.5804 -0.2617 0.7712
vn 0.9761 -0.1857 0.1125
vn -0.1749 -0.0180 -0.9844
vn -0.3027 0.0949 -0.9483
vn 0.1667 -0.0662 -0.9838
vn -0.4954 -0.0126 -0.8686
vn -0.3665 0.2109 0.9062
vn -0.6326 0.3516 0.6901
vn -0.3029 -0.0754 -0.9500
vn -0.1853 -0.1413 -0.9725
vn -0.9041 -0.3643 -0.2236
vn -0.0621 -0.2461 -0.9672
vn -0.1143 -0.1520 -0.9817
vn -0.0152 0.5442 0.8388
vn -0.8098 -0.5752 0.1155
vn -0.5662 -0.8162 0.1148
vn -0.5667 -0.8159 0.1146
vn -0.5611 -0.8194 0.1173
vn 0.0034 -0.9763 0.2166
vn 0.8305 -0.0610 0.5537
vn -0.8124 -0.5792 0.0675
vn -0.0034 0.9763 -0.2166
vn 0.1700 0.2143 0.9619
vn -0.9905 0.1174 -0.0712
vn 0.6048 0.7942 -0.0589
vn 0.5101 0.8517 0.1198
vn 0.7692 -0.5955 0.2317
vn 0.1711 0.7313 0.6602
vn -0.7648 0.6148 -0.1928
vn 0.9877 0.0973 0.1227
vn 0.8053 -0.0862 0.5866
vn 0.8445 -0.5134 0.1525
vn 0.0634 0.9818 -0.1793
vn 0.8747 0.4769 -0.0866
vn 0.0583 0.9656 -0.2535
vn -0.0634 -0.9818 0.1793
vn 0.9152 -0.3806 0.1324
vn -0.5598 -0.8202 0.1180
vn 0.9854 0.1387 0.0987
vn -0.8157 0.5563 -0.1586
vn 0.4782 -0.8697 0.1226
vn 0.1600 -0.9799 0.1188
vn -0.0472 -0.9956 0.0812
vn -0.1202 -0.9839 0.1322
vn 0.4665 -0.8842 0.0224
vn 0.1329 -0.9909 0.0211
vn -0.0529 -0.9982 0.0288
vn -0.1302 -0.9906 0.0429
vn 0.4431 -0.8965 0.0029
vn 0.4435 -0.8962 0.0092
vn 0.4431 -0.8964 0.0039
vn 0.0896 -0.9960 -0.0003
vn -0.0949 -0.9955 0.0043
vn -0.1686 -0.9855 0.0201
vn -0.1682 -0.9854 0.0268
vn -0.1682 -0.9855 0.0209
vn 0.4436 -0.8962 0.0101
vn 0.0942 -0.9953 0.0217
vn -0.1050 -0.9938 0.0363
vn -0.0958 -0.9951 0.0232
vn -0.0929 -0.9954 0.0218
vn -0.1696 -0.9851 0.0279
vn 0.4288 -0.9034 0.0004
vn 0.0721 -0.9973 0.0136
vn 0.4238 -0.8935 0.1485
vn 0.0749 -0.9964 0.0409
vn -0.1037 -0.9940 0.0361
vn -0.1066 -0.9936 0.0373
vn -0.1747 -0.9846 0.0088
vn 0.6153 -0.7843 0.0790
vn 0.0299 -0.9982 0.0511
vn -0.0625 -0.9977 0.0268
vn 0.6146 -0.7871 0.0526
vn 0.0302 -0.9972 0.0690
vn -0.0584 -0.9802 0.1891
vn -0.3936 -0.8958 0.2063
vn -0.0500 -0.9851 -0.1644
vn -0.0709 -0.9974 0.0151
vn -0.6674 -0.7446 -0.0108
vn -0.6732 -0.7328 -0.0996
vn 0.1031 -0.9881 0.1142
vn -0.3014 -0.5527 -0.7770
vn -0.0997 -0.9911 0.0879
vn 0.3470 -0.9348 0.0754
vn 0.9580 -0.0987 0.2691
vn 0.7619 -0.6392 0.1045
vn 0.8116 -0.4618 0.3579
vn -0.8546 -0.5193 -0.0058
vn 0.0017 -0.7891 0.6142
vn 0.0951 0.9955 -0.0028
vn -0.6797 -0.7330 0.0250
vn -0.1704 -0.9850 0.0284
vt 0.047985 0.002071
vt 0.040593 0.009049
vt 0.050149 0.020850
vt 0.024451 0.006458
vt 0.022471 0.016823
vt 0.037985 0.014710
vt 0.022540 -0.000241
vt 0.021750 0.005137
vt 0.038323 0.004776
vt 0.022915 -0.019431
vt 0.022859 -0.013996
vt 0.039654 -0.015035
vt 0.020539 -0.035301
vt 0.021466 -0.029946
vt 0.037740 -0.029692
vt 0.029470 0.016704
vt 0.033486 0.027765
vt 0.043158 0.024634
vt 0.019660 0.012934
vt 0.031771 0.016476
vt 0.033111 0.006008
vt 0.023259 0.004008
vt 0.035772 0.007423
vt 0.036596 0.002051
vt 0.028584 -0.008690
vt 0.040870 -0.004697
vt 0.042156 -0.009978
vt 0.036748 -0.015684
vt 0.045435 -0.004637
vt 0.048040 -0.009407
vt 0.024352 0.004339
vt 0.038117 0.015129
vt 0.033749 0.000647
vt 0.041743 0.026966
vt 0.038166 0.015012
vt 0.028557 0.018228
vt 0.038488 -0.013917
vt 0.035972 -0.009099
vt 0.046464 -0.002346
vt 0.032508 0.005030
vt 0.021070 0.001546
vt 0.019026 0.011895
vt 0.036340 0.000305
vt 0.024175 -0.003044
vt 0.023004 0.002264
vt 0.042000 -0.011452
vt 0.029654 -0.015430
vt 0.028430 -0.010134
vt 0.007193 0.007661
vt 0.021190 0.011964
vt 0.023076 0.001584
vt 0.010087 -0.001571
vt 0.024653 0.002663
vt 0.025831 -0.002643
vt 0.015158 -0.014509
vt 0.030994 -0.014792
vt 0.016653 -0.019735
vt 0.023115 -0.017338
vt 0.038421 -0.014106
vt 0.025422 -0.022260
vt 0.014862 -0.017681
vt 0.022798 -0.007593
vt 0.029680 -0.014981
vt 0.022847 0.001030
vt 0.009552 -0.003069
vt 0.006953 0.007078
vt 0.025773 -0.003485
vt 0.011714 -0.007580
vt 0.010030 -0.002413
vt 0.001056 0.005147
vt 0.010790 0.007698
vt 0.013098 -0.002520
vt 0.000736 -0.004736
vt 0.009914 -0.002452
vt 0.011597 -0.007620
vt 0.001430 -0.018729
vt 0.010965 -0.016323
vt 0.012138 -0.021630
vt 0.010596 -0.030802
vt 0.018060 -0.021476
vt 0.019537 -0.026706
vt 0.015066 -0.023080
vt 0.019332 -0.011079
vt 0.028761 -0.014925
vt 0.028781 -0.015938
vt 0.021641 -0.024406
vt 0.013843 -0.017858
vt 0.004154 -0.030039
vt 0.002248 -0.024948
vt 0.012897 -0.021898
vt 0.014726 -0.000183
vt 0.003550 -0.002782
vt 0.002803 0.007665
vt 0.013181 -0.001661
vt 0.003416 -0.004092
vt 0.002322 0.001232
vt 0.013836 -0.016329
vt 0.004714 -0.018829
vt 0.003071 -0.013648
vt -0.009159 -0.002534
vt 0.004930 0.007708
vt 0.005465 -0.002752
vt -0.001623 -0.006589
vt 0.011334 0.002766
vt 0.012285 -0.002586
vt 0.007168 -0.016233
vt 0.019682 -0.005795
vt 0.022097 -0.010665
vt 0.017686 -0.023238
vt 0.024570 -0.007943
vt 0.028816 -0.011336
vt 0.024899 -0.017333
vt 0.011611 -0.029075
vt 0.010009 -0.023021
vt -0.001350 -0.016407
vt -0.007953 -0.009029
vt 0.008720 -0.002994
vt 0.012597 -0.003694
vt -0.001980 -0.013228
vt -0.001315 -0.007683
vt 0.022706 -0.012036
vt 0.009977 -0.021699
vt 0.007803 -0.017675
vt 0.022978 -0.008203
vt 0.025434 -0.012061
vt 0.024529 -0.017573
vt -0.002318 -0.004152
vt 0.004484 -0.011347
vt 0.005763 -0.020757
vt -0.006804 -0.009980
vt -0.003681 -0.004791
vt 0.004333 -0.021429
vt 0.020822 0.005061
vt 0.036731 0.005492
vt 0.036348 0.003041
vt 0.036600 0.010199
vt 0.036728 0.005608
vt 0.020819 0.005176
vt 0.014086 0.021674
vt 0.026804 0.031135
vt 0.029898 0.026259
vt 0.038098 -0.010285
vt 0.037867 -0.014819
vt 0.021294 -0.014423
vt 0.037398 -0.029524
vt 0.036895 -0.036758
vt 0.020159 -0.035014
vt 0.039190 -0.026466
vt 0.037930 -0.033215
vt 0.021658 -0.033533
vt 0.004987 -0.020821
vt -0.004082 -0.021761
vt -0.006171 -0.009393
vt -0.038473 -0.016747
vt -0.025287 -0.010386
vt -0.024237 -0.022885
vt -0.025216 -0.024533
vt -0.041130 -0.029089
vt -0.039405 -0.018287
vt -0.027704 0.029695
vt -0.039560 0.039823
vt -0.024795 0.036278
vt -0.043903 0.003043
vt -0.048889 -0.002211
vt -0.056264 0.012935
vt 0.013813 0.024014
vt 0.010075 0.030839
vt 0.025642 0.036198
vt -0.025505 0.010937
vt -0.022634 -0.004831
vt -0.031708 -0.011389
vt -0.011935 0.027492
vt -0.020666 0.034151
vt -0.016511 0.040029
vt -0.040454 -0.017342
vt -0.048975 -0.010123
vt -0.045013 -0.004058
vt 0.010668 0.026009
vt 0.021520 0.031031
vt 0.024083 0.023684
vt -0.019607 0.038628
vt -0.009751 0.032199
vt -0.014175 0.026437
vt -0.044709 0.000167
vt -0.037486 -0.007403
vt -0.041376 -0.013476
vt 0.023592 0.022114
vt 0.013517 0.017297
vt 0.010158 0.024327
vt -0.002927 0.019107
vt -0.014775 0.026238
vt -0.010461 0.032082
vt -0.027865 -0.016935
vt -0.041050 -0.014874
vt -0.037390 -0.008659
vt 0.000487 0.018805
vt 0.013153 0.024561
vt 0.016163 0.017375
vt -0.011173 0.031816
vt 0.001418 0.024483
vt -0.003391 0.018988
vt 0.016072 0.016718
vt 0.004065 0.011303
vt 0.000394 0.018122
vt 0.006415 0.015759
vt -0.007981 0.018408
vt -0.004371 0.024756
vt -0.016696 -0.031829
vt -0.028860 -0.026453
vt -0.026406 -0.019643
vt -0.002496 0.016029
vt 0.008361 0.019744
vt 0.010972 0.012453
vt -0.001656 0.025309
vt 0.010745 0.021999
vt 0.008188 0.015290
vt -0.011232 -0.000029
vt 0.003342 -0.001386
vt 0.003196 -0.008435
vt -0.024127 -0.023441
vt -0.009686 -0.027653
vt -0.012913 -0.034259
vt 0.012011 0.014699
vt -0.000737 0.010910
vt -0.001365 0.018605
vt 0.022866 0.004392
vt 0.013006 0.011631
vt 0.017483 0.017244
vt 0.008272 -0.013092
vt -0.001984 -0.008220
vt -0.001338 -0.001199
vt 0.004129 -0.038944
vt -0.008220 -0.035626
vt -0.006013 -0.028613
vt -0.018622 0.012325
vt -0.006914 0.017614
vt -0.005339 0.010056
vt 0.018440 0.016357
vt 0.028314 0.008312
vt 0.023155 0.003246
vt 0.005273 0.004472
vt 0.016885 0.000628
vt 0.015316 -0.007057
vt -0.005568 -0.028777
vt 0.012311 -0.035372
vt 0.004755 -0.038927
vt -0.004400 0.013591
vt -0.016875 0.010780
vt -0.017619 0.016208
vt 0.005275 -0.016713
vt -0.007168 -0.019909
vt -0.009349 -0.016511
vt 0.018627 -0.005870
vt 0.019463 0.001928
vt 0.026180 0.004604
vt 0.021888 -0.008449
vt 0.029526 0.001964
vt 0.034992 -0.001091
vt 0.027071 0.001402
vt 0.020209 0.000627
vt 0.031001 0.011086
vt -0.017823 0.010017
vt -0.011427 0.006716
vt -0.012417 -0.002185
vt -0.009574 0.013613
vt -0.003960 0.001505
vt -0.006186 -0.002051
vt -0.034295 -0.024232
vt -0.038321 -0.023609
vt -0.041994 -0.019152
vt -0.014985 0.004674
vt -0.022928 0.009362
vt -0.022848 0.011843
vt 0.026792 -0.002430
vt 0.027770 -0.006348
vt 0.023381 -0.009626
vt 0.013968 0.006549
vt 0.012331 -0.001244
vt 0.004225 0.000761
vt -0.023191 -0.004670
vt -0.031141 0.002402
vt -0.031463 0.006984
vt -0.029117 -0.008724
vt -0.037339 0.002966
vt -0.035446 0.007093
vt -0.024446 0.030002
vt -0.022407 0.046862
vt -0.018486 0.045759
vt -0.036569 -0.011037
vt -0.042639 0.004881
vt -0.036412 0.008597
vt -0.031258 -0.011548
vt -0.031395 0.008086
vt -0.025082 0.010785
vt 0.005774 -0.015654
vt 0.024178 -0.016392
vt 0.013838 -0.021029
vt -0.001175 -0.031727
vt -0.011080 -0.038626
vt -0.019341 -0.034768
vt 0.025723 -0.042391
vt 0.012901 -0.033921
vt 0.011121 -0.026655
vt 0.038760 -0.034978
vt 0.022988 -0.029953
vt 0.024646 -0.021879
vt 0.034987 -0.001560
vt 0.035758 -0.007568
vt 0.028086 -0.009409
vt -0.009070 -0.053422
vt -0.014465 -0.037773
vt -0.003954 -0.031838
vt -0.038760 -0.034978
vt -0.024646 -0.021879
vt -0.022988 -0.029953
vt 0.030080 -0.020485
vt 0.021837 -0.020092
vt 0.025527 -0.013220
vt -0.046943 -0.005393
vt -0.033029 0.002082
vt -0.028046 -0.006442
vt -0.020661 -0.044985
vt -0.007305 -0.027870
vt -0.008184 -0.035299
vt -0.014189 -0.044768
vt -0.015112 -0.037637
vt -0.012239 -0.036737
vt 0.043907 -0.006167
vt 0.030843 -0.005061
vt 0.030860 0.000474
vt 0.004535 -0.023865
vt 0.006151 -0.034684
vt 0.002005 -0.027179
vt -0.043391 -0.004513
vt -0.029966 0.000935
vt -0.030033 -0.004600
vt 0.046771 -0.010471
vt 0.028634 -0.003801
vt 0.035947 -0.000841
vt 0.044663 -0.016870
vt 0.044349 -0.021776
vt 0.038046 -0.017932
vt 0.030341 -0.001990
vt 0.044950 -0.006756
vt 0.043717 -0.014459
vt -0.036765 -0.037066
vt -0.037595 -0.028532
vt -0.023062 -0.023537
vt 0.018364 -0.023120
vt 0.019744 -0.037366
vt 0.018251 -0.039980
vt -0.040376 -0.026810
vt -0.034890 -0.020628
vt -0.021084 -0.016854
vt 0.023062 -0.023537
vt 0.037595 -0.028532
vt 0.036765 -0.037066
vt 0.044358 -0.001277
vt 0.045769 -0.005201
vt 0.031309 0.000000
vt 0.011456 -0.026490
vt 0.023120 -0.035370
vt 0.026231 -0.042065
vt 0.046568 -0.011518
vt 0.040139 -0.013409
vt 0.028629 -0.004332
vt -0.030022 -0.002804
vt -0.044667 -0.007459
vt -0.043380 -0.002714
vt -0.032659 0.012358
vt -0.033817 0.004240
vt -0.047742 0.014118
vt -0.035811 -0.001453
vt -0.035827 -0.006525
vt -0.050841 -0.000327
vt -0.037626 -0.007818
vt -0.038731 -0.013140
vt -0.052284 -0.005147
vt -0.038143 -0.014882
vt -0.039217 -0.020712
vt -0.051328 -0.011966
vt -0.026101 0.000813
vt -0.035752 0.004492
vt -0.034600 0.012610
vt -0.028418 -0.009044
vt -0.037647 -0.005242
vt -0.037458 -0.000173
vt -0.030502 -0.015889
vt -0.039699 -0.011886
vt -0.038443 -0.006598
vt -0.031697 -0.022220
vt -0.041332 -0.018139
vt -0.039919 -0.012383
vt -0.035055 0.012279
vt -0.024718 0.008577
vt -0.026555 0.000483
vt -0.037917 -0.000180
vt -0.028362 -0.004102
vt -0.028984 -0.009159
vt -0.038955 -0.006095
vt -0.029892 -0.010279
vt -0.031212 -0.015552
vt -0.040500 -0.011685
vt -0.031426 -0.015960
vt -0.032512 -0.021712
vt -0.013915 -0.003388
vt -0.026436 0.000455
vt -0.024600 0.008549
vt -0.016677 -0.013384
vt -0.028616 -0.009433
vt -0.028037 -0.004371
vt -0.017798 -0.014988
vt -0.030880 -0.015976
vt -0.029616 -0.010690
vt -0.019708 -0.020553
vt -0.032353 -0.021891
vt -0.031295 -0.016135
vt -0.024836 0.008340
vt -0.011605 0.004321
vt -0.014154 -0.003598
vt -0.028254 -0.004453
vt -0.015826 -0.008586
vt -0.016946 -0.013530
vt 0.005437 -0.004642
vt -0.011659 -0.004463
vt -0.009158 0.003472
vt 0.000078 -0.015331
vt -0.016452 -0.013786
vt -0.015384 -0.008829
vt -0.002902 -0.022400
vt -0.019029 -0.020423
vt -0.017624 -0.015172
vt -0.006209 -0.028468
vt -0.021056 -0.026052
vt -0.020138 -0.020270
vt -0.011614 -0.000150
vt 0.005482 -0.000332
vt 0.004004 -0.006268
vt -0.016534 -0.014345
vt -0.000007 -0.015922
vt -0.001598 -0.021119
vt -0.018917 -0.020052
vt -0.002784 -0.021981
vt -0.004709 -0.027755
vt 0.023442 -0.013622
vt 0.003546 -0.006132
vt 0.004998 -0.000190
vt 0.010048 -0.025916
vt -0.001218 -0.021194
vt 0.000331 -0.015985
vt 0.018236 -0.031949
vt -0.000497 -0.028451
vt 0.000886 -0.022524
vt 0.015954 -0.034560
vt 0.010405 -0.028590
vt 0.020460 -0.025980
vt -0.003653 -0.010950
vt 0.006454 -0.016122
vt 0.013945 -0.025472
vt -0.001353 -0.016882
vt 0.018148 -0.025346
vt 0.007929 -0.027220
vt -0.012464 -0.020602
vt -0.004328 -0.029714
vt -0.002527 -0.037664
vt -0.043562 0.004519
vt -0.055650 0.014743
vt -0.048858 0.018487
vt -0.037118 -0.012480
vt -0.050370 -0.009886
vt -0.050951 -0.004983
vt -0.035575 0.012116
vt -0.037036 0.007400
vt -0.044529 0.005393
vt -0.037793 -0.008249
vt -0.052434 -0.005493
vt -0.052472 -0.001298
vt -0.035552 0.001981
vt -0.050585 0.003057
vt -0.049421 0.011937
vt 0.044808 -0.020962
vt 0.028519 -0.013075
vt 0.034934 -0.005570
vt 0.039704 -0.005436
vt 0.025283 -0.011076
vt 0.023327 -0.001424
vt 0.020609 -0.004524
vt 0.027490 -0.003939
vt 0.028242 -0.013758
vt -0.012670 -0.029583
vt -0.015893 -0.047392
vt -0.024054 -0.048620
vt 0.028334 -0.016094
vt 0.042522 -0.009890
vt 0.047245 -0.015312
vt 0.028495 0.018309
vt 0.029670 -0.009521
vt 0.035918 -0.009282
vt -0.042470 0.033240
vt -0.031043 -0.023439
vt -0.019233 -0.020231
vt -0.020547 -0.026346
s 1
usemtl mat3
f 3/1/1 2/2/1 1/3/1
f 16/4/2 18/5/2 17/6/2
f 18/7/3 20/8/3 19/9/3
f 20/10/4 22/11/4 21/12/4
f 22/13/5 3/14/6 23/15/7
f 24/16/8 2/17/8 3/18/8
f 32/19/9 18/20/9 16/21/9
f 33/22/10 20/23/10 18/24/10
f 34/25/11 22/26/11 20/27/11
f 34/28/12 3/29/12 22/30/12
f 36/31/13 35/32/14 37/33/15
f 3/34/16 35/35/14 24/36/17
f 34/37/18 35/38/19 3/39/20
f 16/40/21 31/41/21 32/42/21
f 18/43/22 32/44/22 33/45/22
f 20/46/23 33/47/23 34/48/23
f 45/49/24 32/50/24 31/51/24
f 46/52/25 33/53/25 32/54/25
f 47/55/26 33/56/27 46/57/28
f 37/58/29 34/59/18 47/60/30
f 48/61/31 36/62/31 37/63/31
f 31/64/32 44/65/32 45/66/32
f 32/67/33 45/68/34 46/69/35
f 56/70/36 45/71/36 44/72/36
f 57/73/37 46/74/35 45/75/34
f 58/76/38 47/77/38 46/78/38
f 58/79/39 37/80/39 47/81/39
f 60/82/40 48/83/40 59/84/40
f 37/85/41 59/86/41 48/87/41
f 58/88/42 59/89/42 37/90/42
f 44/91/43 55/92/43 56/93/43
f 45/94/44 56/95/44 57/96/44
f 46/97/45 57/98/45 58/99/45
f 68/100/46 56/101/46 55/102/46
f 69/103/47 57/104/47 56/105/47
f 70/106/48 58/107/48 57/108/48
f 70/109/49 59/110/49 58/111/49
f 59/112/50 71/113/50 60/114/50
f 70/115/51 71/116/51 59/117/51
f 56/118/52 68/119/52 69/120/52
f 57/121/53 69/122/53 70/123/53
f 70/124/54 69/125/54 68/126/54
f 71/127/55 70/128/55 68/129/55
f 74/130/56 71/131/56 68/132/56
f 18/133/57 73/134/58 17/135/59
f 19/136/60 73/137/58 18/138/57
f 16/139/61 17/140/61 15/141/61
f 21/142/62 19/143/62 20/144/62
f 23/145/7 21/146/63 22/147/5
f 1/148/64 23/149/64 3/150/64
f 68/151/65 78/152/65 74/153/65
f 85/154/66 74/155/66 78/156/66
f 78/157/67 80/158/67 85/159/67
f 36/31/13 24/496/17 35/32/14
f 47/55/26 34/497/195 33/56/27
f 37/58/29 35/498/19 34/59/18
usemtl mat9
f 5/160/68 1/161/68 2/162/68
f 12/163/69 14/164/69 13/165/69
f 14/166/70 16/167/70 15/168/70
f 1/169/71 9/170/72 13/171/73
f 25/172/74 5/173/74 2/174/74
f 30/175/75 14/176/75 12/177/75
f 31/178/76 16/179/76 14/180/76
f 2/181/77 24/182/77 25/183/77
f 12/184/78 29/185/78 30/186/78
f 14/187/79 30/188/79 31/189/79
f 38/190/80 25/191/80 24/192/80
f 42/193/81 30/194/82 29/195/83
f 44/196/84 31/197/84 30/198/84
f 24/199/85 36/200/85 38/201/85
f 30/202/86 43/203/86 44/204/86
f 49/205/87 38/206/87 36/207/87
f 54/208/88 43/209/88 42/210/88
f 55/211/89 44/212/89 43/213/89
f 36/214/90 48/215/90 49/216/90
f 38/217/91 49/218/91 50/219/91
f 42/220/92 53/221/92 54/222/92
f 43/223/93 54/224/93 55/225/93
f 61/226/94 49/227/94 48/228/94
f 62/229/95 50/230/95 49/231/95
f 66/232/96 54/233/97 53/234/98
f 67/235/99 55/236/99 54/237/99
f 48/238/100 60/239/100 61/240/100
f 49/241/101 61/242/101 62/243/101
f 53/244/98 65/245/102 66/246/96
f 54/247/103 66/248/103 67/249/103
f 55/250/104 67/251/104 68/252/104
f 62/253/105 61/254/105 60/255/105
f 62/256/106 60/257/106 71/258/106
f 72/259/107 62/260/107 71/261/107
f 1/262/108 4/263/108 7/264/108
f 1/265/109 7/266/109 9/267/109
f 13/268/110 15/269/110 17/270/110
f 13/271/111 17/272/111 73/273/111
f 68/274/112 67/275/112 66/276/112
f 68/277/113 66/278/113 65/279/113
f 13/280/114 73/281/114 19/282/114
f 13/283/115 19/284/115 21/285/115
f 14/286/116 15/287/116 13/288/116
f 13/289/117 21/290/117 23/291/117
f 13/292/73 23/293/118 1/294/71
f 63/295/119 68/296/119 65/297/119
f 63/298/120 78/299/120 68/300/120
f 79/301/121 75/302/122 72/303/123
f 80/304/124 78/305/124 75/306/124
f 71/307/125 74/308/125 72/309/125
f 81/310/126 78/311/126 63/312/126
f 81/313/127 75/314/127 78/315/127
f 81/316/128 76/317/128 82/318/128
f 83/319/129 75/320/129 63/321/129
f 83/322/130 72/323/130 75/324/130
f 83/325/131 77/326/131 84/327/131
f 85/328/132 75/329/132 74/330/132
f 85/331/133 80/332/133 86/333/133
f 87/334/134 74/335/134 75/336/134
f 87/337/135 72/338/135 74/339/135
f 87/340/136 79/341/136 88/342/136
f 75/343/137 82/344/137 76/345/137
f 81/346/138 82/347/138 75/348/138
f 72/349/139 84/350/139 77/351/139
f 83/352/140 84/353/140 72/354/140
f 75/355/141 86/356/141 80/357/141
f 85/358/142 86/359/142 75/360/142
f 72/361/123 88/362/143 79/363/121
f 87/364/144 88/365/144 72/366/144
f 75/367/145 79/368/145 87/369/145
f 5/160/68 4/499/68 1/161/68
f 42/193/81 43/500/196 30/194/82
usemtl mat10
f 5/370/146 6/371/146 4/372/146
f 6/373/147 8/374/147 7/375/147
f 8/376/148 10/377/148 9/378/148
f 10/379/149 12/380/149 11/381/149
f 26/382/150 6/383/150 5/384/150
f 27/385/151 8/386/151 6/387/151
f 28/388/152 10/389/152 8/390/152
f 29/391/153 12/392/153 10/393/153
f 5/394/154 25/395/155 26/396/156
f 6/397/157 26/398/157 27/399/157
f 8/400/158 27/401/158 28/402/158
f 10/403/159 28/404/160 29/405/161
f 39/406/162 26/407/156 25/408/155
f 40/409/163 27/410/163 26/411/163
f 40/412/164 28/413/165 27/414/166
f 41/415/167 29/416/161 28/417/160
f 25/418/168 38/419/168 39/420/168
f 26/421/169 39/422/169 40/423/169
f 50/424/170 39/425/170 38/426/170
f 51/427/171 40/428/171 39/429/171
f 52/430/172 41/431/173 40/432/164
f 53/433/174 42/434/174 41/435/174
f 39/436/175 50/437/175 51/438/175
f 40/439/176 51/440/176 52/441/176
f 41/442/177 52/443/177 53/444/177
f 63/445/178 51/446/178 50/447/178
f 64/448/179 52/449/179 51/450/179
f 65/451/180 53/452/180 52/453/180
f 65/454/181 64/455/181 63/456/181
f 50/457/182 62/458/182 63/459/182
f 51/460/183 63/461/183 64/462/183
f 52/463/184 64/464/184 65/465/184
f 12/466/185 13/467/185 11/468/185
f 10/469/186 11/470/186 9/471/186
f 9/472/187 11/473/187 13/474/187
f 8/475/188 9/476/188 7/477/188
f 6/478/189 7/479/189 4/480/189
f 76/481/190 63/482/190 75/483/190
f 77/484/191 63/485/191 72/486/191
f 62/487/192 72/488/192 63/489/192
f 63/490/193 76/491/193 81/492/193
f 63/493/194 77/494/194 83/495/194
f 40/412/164 41/501/173 28/413/165
f 41/415/167 42/502/197 29/416/161
