# Blender 5.1.2
# www.blender.org
o Object_5
v -8.068352 12.592725 -1.447014
v -7.778371 12.353786 -1.409835
v -7.991367 12.855337 -1.440505
v -7.888174 12.434282 -1.556880
v -7.847068 12.742443 -1.693669
v -7.667872 12.499489 -1.648259
v -7.823714 12.914701 -1.593969
v -7.528352 12.469488 -1.511311
v -7.547419 12.758510 -1.694592
v -7.620790 12.981620 -1.571435
v -7.729574 13.033806 -1.414707
v -7.387421 12.868272 -1.516492
v -7.369672 12.632060 -1.451517
v -7.458526 13.008989 -1.261162
v -7.325883 12.734098 -1.267577
v -7.645610 13.037730 -1.195348
v -7.387725 12.869699 -1.130438
v -7.403533 12.555710 -1.231954
v -7.556270 12.943317 -1.042826
v -7.411919 12.676299 -1.075400
v -7.520358 12.430395 -1.321946
v -7.876790 12.968141 -1.226778
v -7.786496 12.871190 -0.988706
v -7.654987 12.688506 -0.918822
v -7.548404 12.511980 -1.052280
v -7.942780 12.680154 -1.003404
v -7.752116 12.444666 -1.040704
v -8.019228 12.783345 -1.157244
v -7.947038 12.488876 -1.073393
v -7.665370 12.377433 -1.205250
v -8.068546 12.593642 -1.198947
v -7.862813 12.368519 -1.212813
v -8.017517 12.439805 -1.322374
v -7.780604 12.364285 1.429561
v -8.021265 12.637595 1.575026
v -7.814245 12.498268 1.660872
v -7.908397 12.924411 1.523478
v -7.811431 12.688573 1.733533
v -7.623942 12.471755 1.603948
v -7.788590 12.881039 1.674759
v -7.615558 12.633890 1.721422
v -7.594498 12.836278 1.711406
v -7.495417 12.470541 1.430965
v -7.623273 12.993297 1.586765
v -7.427735 12.761432 1.621450
v -7.731808 13.044320 1.429484
v -7.371969 12.642859 1.469830
v -7.537239 13.051096 1.394591
v -7.353894 12.903485 1.406691
v -7.389515 12.878117 1.146973
v -7.371766 12.641906 1.211948
v -7.890832 12.980939 1.339230
v -7.622884 12.991465 1.092029
v -7.806567 12.992270 1.165383
v -7.490150 12.631922 1.032926
v -7.788064 12.878560 1.004608
v -7.656445 12.695366 0.936285
v -7.530446 12.479336 1.152153
v -7.669966 12.509337 1.015206
v -7.966790 12.828680 1.112930
v -7.948741 12.496881 1.091867
v -7.745327 12.387243 1.175136
v -8.089140 12.674857 1.340205
v -7.957020 12.399643 1.341326
vn -0.5924 0.7800 -0.2017
vn -0.5630 0.8264 -0.0035
vn -0.5352 0.8123 -0.2319
vn -0.9008 -0.3397 -0.2705
vn -0.9828 0.1613 0.0900
vn -0.8686 0.0866 -0.4879
vn -0.6035 -0.7783 0.1733
vn -0.1615 -0.9167 -0.3655
vn -0.9025 0.4188 0.1008
vn -0.6825 0.7300 0.0373
vn -0.9167 0.1947 -0.3490
vn -0.0893 -0.9885 0.1219
vn -0.6138 -0.4083 -0.6756
vn 0.2354 -0.8412 -0.4868
vn 0.6146 -0.7780 0.1305
vn -0.7761 0.5800 -0.2475
vn -0.6434 0.7453 -0.1745
vn -0.6962 0.6340 -0.3365
vn -0.1735 -0.4970 -0.8502
vn -0.5075 0.3530 -0.7860
vn -0.6617 0.0540 -0.7478
vn -0.0185 -0.1299 -0.9914
vn 0.6659 -0.5025 -0.5514
vn -0.0674 0.9134 -0.4014
vn 0.5959 0.7394 -0.3134
vn -0.3837 0.8467 -0.3685
vn -0.4365 0.8864 -0.1541
vn -0.2931 0.9088 -0.2968
vn 0.6819 -0.7303 -0.0406
vn -0.2265 0.9546 -0.1934
vn -0.3173 0.9456 0.0717
vn 0.9498 -0.1288 -0.2851
vn 0.2987 0.9541 0.0228
vn 0.5381 0.7099 0.4543
vn 0.8859 -0.3548 0.2988
vn -0.0224 0.8093 0.5869
vn -0.2922 0.0724 0.9536
vn -0.5588 0.6145 0.5569
vn 0.3107 -0.8141 0.4906
vn -0.7950 -0.2006 0.5724
vn -0.3389 -0.6623 0.6682
vn -0.7919 0.2963 0.5339
vn -0.8788 -0.4771 -0.0073
vn -0.8361 0.2378 0.4944
vn -0.9149 0.4035 0.0114
vn -0.8056 0.5054 0.3092
vn -0.7368 0.6744 -0.0484
vn -0.4928 -0.4224 0.7607
vn -0.0902 -0.9823 -0.1644
vn 0.4427 -0.8959 -0.0376
vn 0.0786 -0.8478 0.5245
vn -0.6472 0.0703 0.7591
vn -0.5752 0.5058 0.6429
vn -0.5303 -0.1805 0.8283
vn -0.2839 -0.0123 0.9588
vn -0.4213 0.2247 0.8786
vn 0.1406 -0.6483 0.7483
vn -0.2839 -0.0121 0.9588
vn -0.5335 0.8394 0.1036
vn -0.1643 0.4188 0.8931
vn 0.7244 -0.2574 0.6395
vn 0.4515 0.3810 0.8068
vn 0.1750 0.9467 0.2706
vn 0.7448 0.6429 -0.1785
vn 0.3834 0.9135 -0.1363
vn 0.7327 -0.3007 -0.6105
vn 0.4706 0.5694 -0.6740
vn -0.2435 0.8476 -0.4715
vn 0.3609 -0.5443 -0.7573
vn -0.3457 0.0570 -0.9366
vn -0.3837 0.8468 -0.3685
vn -0.3837 0.8468 -0.3683
vn -0.4889 0.7750 -0.4005
vn -0.5369 0.8177 -0.2074
vn -0.5342 0.6083 -0.5870
vn 0.2829 -0.8636 -0.4175
vn -0.0625 -0.7147 -0.6967
vn -0.7227 -0.1647 -0.6712
vn -0.9304 0.2334 -0.2827
vn -0.6962 0.6340 -0.3366
vn -0.2101 -0.8344 -0.5096
vt 0.526316 0.076923
vt 0.500000 0.000000
vt 0.473684 0.076923
vt 0.736842 0.384615
vt 0.736842 0.307692
vt 0.684211 0.307692
vt 0.736842 0.692308
vt 0.684211 0.615385
vt 0.684211 0.692308
vt 0.736842 0.153846
vt 0.684211 0.076923
vt 0.684211 0.153846
vt 0.736842 0.769231
vt 0.736842 0.230769
vt 0.684211 0.230769
vt 0.631579 0.615385
vt 0.684211 0.846154
vt 0.631579 0.769231
vt 0.631579 0.846154
vt 0.684211 0.923077
vt 0.684211 0.461538
vt 0.631579 0.384615
vt 0.631579 0.461538
vt 0.631579 0.153846
vt 0.578947 0.076923
vt 0.578947 0.153846
vt 0.578947 0.692308
vt 0.578947 0.769231
vt 0.631579 0.307692
vt 0.578947 0.230769
vt 0.578947 0.307692
vt 0.578947 0.384615
vt 0.631579 0.692308
vt 0.578947 0.615385
vt 0.578947 0.538462
vt 0.526316 0.461538
vt 0.526316 0.538462
vt 0.526316 0.692308
vt 0.473684 0.615385
vt 0.473684 0.692308
vt 0.526316 0.153846
vt 0.473684 0.384615
vt 0.473684 0.461538
vt 0.473684 0.769231
vt 0.421053 0.692308
vt 0.421053 0.769231
vt 0.473684 0.230769
vt 0.421053 0.153846
vt 0.421053 0.230769
vt 0.473684 0.923077
vt 0.473684 0.846154
vt 0.421053 0.846154
vt 0.421053 0.307692
vt 0.421053 0.384615
vt 0.421053 0.461538
vt 0.368421 0.384615
vt 0.368421 0.461538
vt 0.368421 0.615385
vt 0.368421 0.692308
vt 0.368421 0.076923
vt 0.368421 0.153846
vt 0.368421 0.923077
vt 0.368421 0.846154
vt 0.315789 0.846154
vt 0.315789 0.230769
vt 0.315789 0.153846
vt 0.263158 0.153846
vt 0.315789 0.769231
vt 0.263158 0.769231
vt 0.315789 0.307692
vt 0.263158 0.230769
vt 0.263158 0.307692
vt 0.315789 0.384615
vt 0.315789 0.615385
vt 0.263158 0.538462
vt 0.263158 0.615385
vt 0.263158 0.076923
vt 0.263158 0.461538
vt 0.210526 0.384615
vt 0.210526 0.461538
vt 0.210526 0.538462
vt 0.210526 0.615385
vt 0.157895 0.538462
vt 0.157895 0.615385
vt 0.210526 0.846154
vt 0.157895 0.769231
vt 0.157895 0.846154
vt 0.210526 0.307692
vt 0.157895 0.230769
vt 0.157895 0.307692
vt 0.157895 0.384615
vt 0.105263 0.461538
vt 0.052632 0.384615
vt 0.052632 0.461538
vt 0.105263 0.538462
vt 0.052632 0.153846
vt 0.000000 0.076923
vt 0.000000 0.153846
vt 0.052632 0.769231
vt 0.000000 0.692308
vt 0.000000 0.769231
vt 0.052632 0.846154
vt 0.052632 0.307692
vt 0.052632 0.230769
vt 0.000000 0.230769
vt 0.000000 0.307692
vt 0.000000 0.384615
vt 1.000000 0.923077
vt 0.947368 0.846154
vt 0.947368 0.923077
vt 0.947368 0.538462
vt 0.894737 0.461538
vt 0.894737 0.538462
vt 0.947368 0.692308
vt 0.947368 0.615385
vt 0.894737 0.615385
vt 0.947368 0.230769
vt 0.894737 0.153846
vt 0.894737 0.230769
vt 0.947368 0.461538
vt 0.947368 0.384615
vt 0.894737 0.384615
vt 0.894737 0.769231
vt 0.894737 0.692308
vt 0.842105 0.692308
vt 0.842105 0.153846
vt 0.842105 0.230769
vt 0.894737 0.923077
vt 0.894737 0.846154
vt 0.842105 0.846154
vt 0.842105 0.307692
vt 0.789474 0.230769
vt 0.842105 0.384615
vt 0.789474 0.307692
vt 0.842105 0.615385
vt 0.842105 0.538462
vt 0.789474 0.538462
vt 0.789474 0.615385
vt 0.789474 0.461538
vt 0.736842 0.461538
vt 0.789474 0.384615
vt 0.684211 0.384615
vt 0.684211 0.538462
vt 0.631579 0.538462
vt 0.631579 0.230769
vt 0.578947 0.461538
vt 0.526316 0.307692
vt 0.526316 0.384615
vt 0.526316 0.615385
vt 0.526316 0.230769
vt 0.473684 0.153846
vt 0.526316 0.846154
vt 0.526316 0.769231
vt 0.473684 0.307692
vt 0.421053 0.538462
vt 0.473684 0.538462
vt 0.315789 0.461538
vt 0.263158 0.384615
vt 0.315789 0.538462
vt 0.263158 0.692308
vt 0.210526 0.692308
vt 0.210526 0.230769
vt 0.210526 0.923077
vt 0.105263 0.615385
vt 0.157895 0.153846
vt 0.105263 0.153846
vt 0.105263 0.076923
vt 0.052632 0.538462
vt 0.052632 0.076923
vt 0.000000 0.846154
vt 0.052632 0.923077
vt 1.000000 0.692308
vt 1.000000 0.769231
vt 0.947368 0.769231
vt 0.842105 0.076923
vt 0.842105 0.923077
vt 0.789474 0.846154
vt 0.842105 0.769231
vt 0.789474 0.769231
vt 0.789474 0.692308
vt 0.789474 0.153846
vt 0.736842 0.076923
s 1
f 3/1/1 22/2/2 11/3/3
f 33/4/4 31/5/5 1/6/6
f 32/7/7 33/8/4 2/9/8
f 28/10/9 22/11/10 3/12/11
f 30/13/12 32/7/7 2/9/8
f 31/5/5 28/14/9 3/15/11
f 31/5/5 3/15/11 1/6/6
f 2/9/8 33/8/4 4/16/13
f 30/17/12 2/18/8 8/19/14
f 21/20/15 30/17/12 8/19/14
f 33/21/4 1/22/6 4/23/13
f 3/24/16 22/25/17 7/26/18
f 2/18/8 6/27/19 8/28/14
f 3/29/11 7/30/20 5/31/21
f 1/22/6 3/29/11 5/31/21
f 4/23/13 1/22/6 5/32/21
f 2/33/8 4/16/13 6/34/19
f 4/35/13 5/36/21 6/37/19
f 6/38/19 9/39/22 8/40/14
f 7/41/20 3/1/1 11/3/3
f 5/36/21 7/42/20 9/43/22
f 6/37/19 5/36/21 9/43/22
f 8/44/14 9/45/22 13/46/23
f 7/47/20 11/48/3 10/49/24
f 21/50/15 8/51/14 13/52/23
f 7/42/20 10/53/24 9/54/22
f 9/55/22 10/56/24 12/57/25
f 9/45/22 12/58/25 13/59/23
f 11/48/26 22/60/27 10/61/28
f 21/62/15 13/63/23 18/64/29
f 10/65/24 11/66/30 16/67/31
f 18/64/29 13/68/23 15/69/32
f 10/70/24 16/71/31 14/72/33
f 12/73/25 10/70/24 14/72/33
f 13/74/23 12/75/25 15/76/32
f 11/66/30 22/77/10 16/67/31
f 12/78/25 14/79/33 17/80/34
f 12/75/25 17/80/34 15/81/32
f 15/82/32 17/83/34 20/84/35
f 15/85/32 20/86/35 18/87/29
f 14/88/33 16/89/31 19/90/36
f 14/79/33 19/90/36 17/91/34
f 17/92/34 19/93/36 24/94/37
f 20/95/35 17/92/34 24/94/37
f 16/96/31 22/97/10 23/98/38
f 20/99/35 24/100/37 25/101/39
f 18/102/29 20/99/35 25/101/39
f 19/103/36 16/104/31 23/105/38
f 19/93/36 23/106/38 24/107/37
f 18/108/29 25/109/39 21/110/15
f 24/111/37 29/112/40 27/113/41
f 25/114/39 24/115/37 27/116/41
f 23/117/38 22/118/10 26/119/42
f 24/120/37 23/121/38 26/122/42
f 24/120/37 26/122/42 29/112/40
f 25/123/39 27/124/41 30/125/12
f 26/119/42 22/126/10 28/127/9
f 21/128/15 25/129/39 30/130/12
f 26/131/42 28/127/9 31/132/5
f 29/133/40 26/131/42 31/134/5
f 27/135/41 29/136/40 32/137/7
f 30/125/12 27/135/41 32/138/7
f 32/137/7 29/139/40 33/140/4
f 29/139/40 31/141/5 33/4/4
f 64/140/43 35/142/44 63/4/45
f 63/10/45 37/12/46 52/11/47
f 64/143/43 36/144/48 35/23/44
f 34/8/49 36/144/48 64/143/43
f 35/6/44 37/145/46 63/15/45
f 43/20/50 39/19/51 34/17/49
f 35/23/44 36/146/48 38/32/52
f 34/33/49 39/27/51 36/34/48
f 38/32/52 40/147/53 35/31/44
f 36/146/54 38/36/55 40/148/56
f 36/35/48 41/37/57 38/36/58
f 39/27/51 41/149/57 36/34/48
f 35/31/44 40/150/53 37/30/46
f 37/41/46 46/3/59 52/1/47
f 40/150/53 46/151/59 37/41/46
f 43/152/50 41/44/57 39/153/51
f 38/36/58 42/42/60 40/148/53
f 41/37/57 42/43/60 38/36/58
f 41/44/57 47/46/61 45/45/62
f 40/47/53 44/49/63 46/48/59
f 43/51/50 47/46/61 41/44/57
f 40/154/53 42/53/60 44/49/63
f 41/39/57 45/155/62 42/156/60
f 45/57/62 49/157/64 44/73/63
f 45/57/62 44/73/63 42/56/60
f 44/70/63 48/72/65 46/71/59
f 44/73/63 49/158/64 48/72/65
f 47/74/61 49/75/64 45/159/62
f 47/160/61 51/161/66 49/82/64
f 49/82/64 51/84/66 50/83/67
f 48/88/65 53/89/68 46/162/59
f 43/163/50 51/87/66 47/85/61
f 48/79/65 50/91/67 53/90/68
f 49/80/64 50/91/67 48/79/65
f 51/84/66 55/164/69 50/95/67
f 46/165/59 53/166/68 52/167/47
f 50/92/67 57/94/70 53/93/68
f 50/95/67 55/168/69 57/94/70
f 53/166/68 54/96/71 52/169/47
f 54/96/72 56/98/73 52/97/74
f 53/104/68 56/98/75 54/96/71
f 51/102/66 58/170/76 55/101/69
f 43/171/50 58/170/76 51/102/66
f 53/93/68 57/107/70 56/106/75
f 55/172/69 59/114/77 57/115/70
f 55/173/69 58/174/76 59/114/77
f 57/115/70 59/116/77 61/113/78
f 56/117/75 60/119/79 54/118/80
f 57/120/70 61/112/78 60/122/79
f 57/120/70 60/122/79 56/121/75
f 54/118/80 60/126/79 52/175/47
f 58/123/76 62/125/81 59/124/77
f 59/116/77 62/135/81 61/136/78
f 43/176/50 34/177/49 58/130/76
f 61/133/78 63/134/45 60/131/79
f 62/135/81 64/137/43 61/136/78
f 62/178/81 34/179/49 64/180/43
f 58/130/76 34/179/49 62/178/81
f 60/181/79 63/10/45 52/182/47
f 61/139/78 64/140/43 63/4/45
