# Blender 4.3.0
# www.blender.org
mtllib shrimp_chair3.mtl
o Object_5
v -0.146744 -0.025666 -0.526762
v -0.054534 -0.126514 -0.513835
v -0.105596 0.064911 -0.524436
v -0.090182 -0.091840 -0.567070
v -0.059857 0.017051 -0.616758
v -0.007711 -0.079582 -0.600648
v -0.042476 0.077795 -0.580494
v 0.041198 -0.097596 -0.551117
v 0.048810 0.007511 -0.617608
v 0.034018 0.091490 -0.572631
v -0.002204 0.115742 -0.515449
v 0.112305 0.038728 -0.553103
v 0.106722 -0.047234 -0.529598
v 0.094336 0.092858 -0.460111
v 0.128007 -0.012858 -0.462771
v 0.028582 0.112730 -0.435851
v 0.112913 0.039027 -0.412762
v 0.090997 -0.073113 -0.449750
v 0.056163 0.074090 -0.380594
v 0.094407 -0.029376 -0.392781
v 0.042392 -0.112188 -0.482306
v -0.058233 0.099524 -0.446900
v -0.030296 0.059871 -0.360546
v 0.007810 -0.012646 -0.335435
v 0.036920 -0.081551 -0.384198
v -0.096338 -0.000885 -0.365686
v -0.039821 -0.095368 -0.379660
v -0.118832 0.040256 -0.421441
v -0.107769 -0.069469 -0.391189
v -0.012313 -0.123904 -0.439651
v -0.146353 -0.025474 -0.436583
v -0.083843 -0.117011 -0.442061
v -0.136060 -0.083378 -0.481595
v -0.050062 -0.124315 0.518363
v -0.122459 -0.013727 0.571758
v -0.054932 -0.074510 0.602556
v -0.067255 0.083761 0.552925
v -0.044066 -0.006204 0.629033
v 0.012109 -0.093750 0.581523
v -0.026101 0.061934 0.607696
v 0.023614 -0.035894 0.624271
v 0.041527 0.035877 0.620665
v 0.058016 -0.100656 0.518416
v 0.038992 0.093936 0.575461
v 0.097569 0.000465 0.587648
v 0.002276 0.117944 0.518492
v 0.111323 -0.044972 0.532391
v 0.072592 0.110454 0.505472
v 0.131051 0.047944 0.509500
v 0.116500 0.040790 0.415139
v 0.110917 -0.045172 0.438644
v -0.058350 0.103318 0.485936
v 0.038213 0.093552 0.395611
v -0.027733 0.103191 0.422596
v 0.067500 -0.042605 0.373767
v -0.027157 0.061415 0.364078
v 0.010732 -0.011209 0.338947
v 0.045393 -0.095533 0.417125
v -0.003516 -0.077519 0.367594
v -0.093852 0.052537 0.403748
v -0.104359 -0.067792 0.395942
v -0.036616 -0.117704 0.425820
v -0.145374 0.003295 0.486526
v -0.111895 -0.102515 0.486606
vn -0.4778 0.8559 -0.1981
vn -0.4412 0.8974 -0.0000
vn -0.4167 0.8799 -0.2285
vn -0.9408 -0.2092 -0.2666
vn -0.9499 0.2978 0.0948
vn -0.8500 0.2087 -0.4837
vn -0.7062 -0.6859 0.1755
vn -0.2906 -0.8842 -0.3657
vn -0.8341 0.5414 0.1055
vn -0.5728 0.8186 0.0412
vn -0.8818 0.3223 -0.3445
vn -0.2269 -0.9663 0.1213
vn -0.6683 -0.3167 -0.6731
vn 0.1124 -0.8652 -0.4887
vn 0.4996 -0.8569 0.1268
vn -0.6880 0.6838 -0.2432
vn -0.5330 0.8287 -0.1707
vn -0.6017 0.7262 -0.3326
vn -0.2456 -0.4663 -0.8499
vn -0.4564 0.4222 -0.7833
vn -0.6510 0.1478 -0.7446
vn -0.0411 -0.1244 -0.9914
vn 0.5860 -0.5903 -0.5551
vn 0.0599 0.9145 -0.4001
vn 0.6925 0.6487 -0.3155
vn -0.2625 0.8929 -0.3658
vn -0.3082 0.9392 -0.1512
vn -0.1637 0.9415 -0.2946
vn 0.5722 -0.8189 -0.0446
vn -0.0909 0.9773 -0.1914
vn -0.1808 0.9807 0.0741
vn 0.9209 -0.2607 -0.2898
vn 0.4300 0.9025 0.0223
vn 0.6347 0.6264 0.4525
vn 0.8286 -0.4764 0.2942
vn 0.0944 0.8035 0.5878
vn -0.2748 0.1112 0.9551
vn -0.4643 0.6861 0.5601
vn 0.1953 -0.8505 0.4883
vn -0.8127 -0.0877 0.5760
vn -0.4257 -0.6091 0.6692
vn -0.7399 0.4039 0.5379
vn -0.9372 -0.3487 -0.0036
vn -0.7920 0.3522 0.4986
vn -0.8490 0.5282 0.0162
vn -0.7251 0.6132 0.3135
vn -0.6348 0.7714 -0.0442
vn -0.5438 -0.3501 0.7627
vn -0.2283 -0.9595 -0.1649
vn 0.3121 -0.9492 -0.0406
vn -0.0391 -0.8513 0.5233
vn -0.6274 0.1594 0.7622
vn -0.4954 0.5806 0.6461
vn -0.5466 -0.1055 0.8307
vn -0.2784 0.0263 0.9601
vn -0.3814 0.2803 0.8809
vn 0.0514 -0.6629 0.7470
vn -0.2784 0.0264 0.9601
vn -0.4097 0.9059 0.1070
vn -0.0997 0.4363 0.8943
vn 0.6839 -0.3578 0.6358
vn 0.5043 0.3124 0.8050
vn 0.3076 0.9122 0.2706
vn 0.8270 0.5321 -0.1814
vn 0.5075 0.8507 -0.1373
vn 0.6803 -0.3998 -0.6143
vn 0.5429 0.4986 -0.6757
vn -0.1241 0.8742 -0.4695
vn 0.2772 -0.5884 -0.7595
vn -0.3386 0.1066 -0.9349
vn -0.2625 0.8929 -0.3657
vn -0.3768 0.8367 -0.3974
vn -0.4175 0.8855 -0.2040
vn -0.4460 0.6784 -0.5839
vn 0.1566 -0.8941 -0.4197
vn -0.1657 -0.6976 -0.6970
vn -0.7418 -0.0603 -0.6679
vn -0.8896 0.3624 -0.2780
vn -0.3277 -0.7957 -0.5094
vt 0.526316 0.076923
vt 0.500000 0.000000
vt 0.473684 0.076923
vt 0.736842 0.384615
vt 0.736842 0.307692
vt 0.684211 0.307692
vt 0.736842 0.692308
vt 0.684211 0.615385
vt 0.684211 0.692308
vt 0.736842 0.153846
vt 0.684211 0.076923
vt 0.684211 0.153846
vt 0.736842 0.769231
vt 0.736842 0.230769
vt 0.684211 0.230769
vt 0.631579 0.615385
vt 0.684211 0.846154
vt 0.631579 0.769231
vt 0.631579 0.846154
vt 0.684211 0.923077
vt 0.684211 0.461538
vt 0.631579 0.384615
vt 0.631579 0.461538
vt 0.631579 0.153846
vt 0.578947 0.076923
vt 0.578947 0.153846
vt 0.578947 0.692308
vt 0.578947 0.769231
vt 0.631579 0.307692
vt 0.578947 0.230769
vt 0.578947 0.307692
vt 0.578947 0.384615
vt 0.631579 0.692308
vt 0.578947 0.615385
vt 0.578947 0.538462
vt 0.526316 0.461538
vt 0.526316 0.538462
vt 0.526316 0.692308
vt 0.473684 0.615385
vt 0.473684 0.692308
vt 0.526316 0.153846
vt 0.473684 0.384615
vt 0.473684 0.461538
vt 0.473684 0.769231
vt 0.421053 0.692308
vt 0.421053 0.769231
vt 0.473684 0.230769
vt 0.421053 0.153846
vt 0.421053 0.230769
vt 0.473684 0.923077
vt 0.473684 0.846154
vt 0.421053 0.846154
vt 0.421053 0.307692
vt 0.421053 0.384615
vt 0.421053 0.461538
vt 0.368421 0.384615
vt 0.368421 0.461538
vt 0.368421 0.615385
vt 0.368421 0.692308
vt 0.368421 0.076923
vt 0.368421 0.153846
vt 0.368421 0.923077
vt 0.368421 0.846154
vt 0.315789 0.846154
vt 0.315789 0.230769
vt 0.315789 0.153846
vt 0.263158 0.153846
vt 0.315789 0.769231
vt 0.263158 0.769231
vt 0.315789 0.307692
vt 0.263158 0.230769
vt 0.263158 0.307692
vt 0.315789 0.384615
vt 0.315789 0.615385
vt 0.263158 0.538462
vt 0.263158 0.615385
vt 0.263158 0.076923
vt 0.263158 0.461538
vt 0.210526 0.384615
vt 0.210526 0.461538
vt 0.210526 0.538462
vt 0.210526 0.615385
vt 0.157895 0.538462
vt 0.157895 0.615385
vt 0.210526 0.846154
vt 0.157895 0.769231
vt 0.157895 0.846154
vt 0.210526 0.307692
vt 0.157895 0.230769
vt 0.157895 0.307692
vt 0.157895 0.384615
vt 0.105263 0.461538
vt 0.052632 0.384615
vt 0.052632 0.461538
vt 0.105263 0.538462
vt 0.052632 0.153846
vt 0.000000 0.076923
vt 0.000000 0.153846
vt 0.052632 0.769231
vt 0.000000 0.692308
vt 0.000000 0.769231
vt 0.052632 0.846154
vt 0.052632 0.307692
vt 0.052632 0.230769
vt 0.000000 0.230769
vt 0.000000 0.307692
vt 0.000000 0.384615
vt 1.000000 0.923077
vt 0.947368 0.846154
vt 0.947368 0.923077
vt 0.947368 0.538462
vt 0.894737 0.461538
vt 0.894737 0.538462
vt 0.947368 0.692308
vt 0.947368 0.615385
vt 0.894737 0.615385
vt 0.947368 0.230769
vt 0.894737 0.153846
vt 0.894737 0.230769
vt 0.947368 0.461538
vt 0.947368 0.384615
vt 0.894737 0.384615
vt 0.894737 0.769231
vt 0.894737 0.692308
vt 0.842105 0.692308
vt 0.842105 0.153846
vt 0.842105 0.230769
vt 0.894737 0.923077
vt 0.894737 0.846154
vt 0.842105 0.846154
vt 0.842105 0.307692
vt 0.789474 0.230769
vt 0.842105 0.384615
vt 0.789474 0.307692
vt 0.842105 0.615385
vt 0.842105 0.538462
vt 0.789474 0.538462
vt 0.789474 0.615385
vt 0.789474 0.461538
vt 0.736842 0.461538
vt 0.789474 0.384615
vt 0.684211 0.384615
vt 0.684211 0.538462
vt 0.631579 0.538462
vt 0.631579 0.230769
vt 0.578947 0.461538
vt 0.526316 0.307692
vt 0.526316 0.384615
vt 0.526316 0.615385
vt 0.526316 0.230769
vt 0.473684 0.153846
vt 0.526316 0.846154
vt 0.526316 0.769231
vt 0.473684 0.307692
vt 0.421053 0.538462
vt 0.473684 0.538462
vt 0.315789 0.461538
vt 0.263158 0.384615
vt 0.315789 0.538462
vt 0.263158 0.692308
vt 0.210526 0.692308
vt 0.210526 0.230769
vt 0.210526 0.923077
vt 0.105263 0.615385
vt 0.157895 0.153846
vt 0.105263 0.153846
vt 0.105263 0.076923
vt 0.052632 0.538462
vt 0.052632 0.076923
vt 0.000000 0.846154
vt 0.052632 0.923077
vt 1.000000 0.692308
vt 1.000000 0.769231
vt 0.947368 0.769231
vt 0.842105 0.076923
vt 0.842105 0.923077
vt 0.789474 0.846154
vt 0.842105 0.769231
vt 0.789474 0.769231
vt 0.789474 0.692308
vt 0.789474 0.153846
vt 0.736842 0.076923
s 1
usemtl eyes
f 3/1/1 22/2/2 11/3/3
f 33/4/4 31/5/5 1/6/6
f 32/7/7 33/8/4 2/9/8
f 28/10/9 22/11/10 3/12/11
f 30/13/12 32/7/7 2/9/8
f 31/5/5 28/14/9 3/15/11
f 31/5/5 3/15/11 1/6/6
f 2/9/8 33/8/4 4/16/13
f 30/17/12 2/18/8 8/19/14
f 21/20/15 30/17/12 8/19/14
f 33/21/4 1/22/6 4/23/13
f 3/24/16 22/25/17 7/26/18
f 2/18/8 6/27/19 8/28/14
f 3/29/11 7/30/20 5/31/21
f 1/22/6 3/29/11 5/31/21
f 4/23/13 1/22/6 5/32/21
f 2/33/8 4/16/13 6/34/19
f 4/35/13 5/36/21 6/37/19
f 6/38/19 9/39/22 8/40/14
f 7/41/20 3/1/1 11/3/3
f 5/36/21 7/42/20 9/43/22
f 6/37/19 5/36/21 9/43/22
f 8/44/14 9/45/22 13/46/23
f 7/47/20 11/48/3 10/49/24
f 21/50/15 8/51/14 13/52/23
f 7/42/20 10/53/24 9/54/22
f 9/55/22 10/56/24 12/57/25
f 9/45/22 12/58/25 13/59/23
f 11/48/26 22/60/27 10/61/28
f 21/62/15 13/63/23 18/64/29
f 10/65/24 11/66/30 16/67/31
f 18/64/29 13/68/23 15/69/32
f 10/70/24 16/71/31 14/72/33
f 12/73/25 10/70/24 14/72/33
f 13/74/23 12/75/25 15/76/32
f 11/66/30 22/77/10 16/67/31
f 12/78/25 14/79/33 17/80/34
f 12/75/25 17/80/34 15/81/32
f 15/82/32 17/83/34 20/84/35
f 15/85/32 20/86/35 18/87/29
f 14/88/33 16/89/31 19/90/36
f 14/79/33 19/90/36 17/91/34
f 17/92/34 19/93/36 24/94/37
f 20/95/35 17/92/34 24/94/37
f 16/96/31 22/97/10 23/98/38
f 20/99/35 24/100/37 25/101/39
f 18/102/29 20/99/35 25/101/39
f 19/103/36 16/104/31 23/105/38
f 19/93/36 23/106/38 24/107/37
f 18/108/29 25/109/39 21/110/15
f 24/111/37 29/112/40 27/113/41
f 25/114/39 24/115/37 27/116/41
f 23/117/38 22/118/10 26/119/42
f 24/120/37 23/121/38 26/122/42
f 24/120/37 26/122/42 29/112/40
f 25/123/39 27/124/41 30/125/12
f 26/119/42 22/126/10 28/127/9
f 21/128/15 25/129/39 30/130/12
f 26/131/42 28/127/9 31/132/5
f 29/133/40 26/131/42 31/134/5
f 27/135/41 29/136/40 32/137/7
f 30/125/12 27/135/41 32/138/7
f 32/137/7 29/139/40 33/140/4
f 29/139/40 31/141/5 33/4/4
f 64/140/43 35/142/44 63/4/45
f 63/10/45 37/12/46 52/11/47
f 64/143/43 36/144/48 35/23/44
f 34/8/49 36/144/48 64/143/43
f 35/6/44 37/145/46 63/15/45
f 43/20/50 39/19/51 34/17/49
f 35/23/44 36/146/48 38/32/52
f 34/33/49 39/27/51 36/34/48
f 38/32/52 40/147/53 35/31/44
f 36/146/54 38/36/55 40/148/56
f 36/35/48 41/37/57 38/36/58
f 39/27/51 41/149/57 36/34/48
f 35/31/44 40/150/53 37/30/46
f 37/41/46 46/3/59 52/1/47
f 40/150/53 46/151/59 37/41/46
f 43/152/50 41/44/57 39/153/51
f 38/36/58 42/42/60 40/148/53
f 41/37/57 42/43/60 38/36/58
f 41/44/57 47/46/61 45/45/62
f 40/47/53 44/49/63 46/48/59
f 43/51/50 47/46/61 41/44/57
f 40/154/53 42/53/60 44/49/63
f 41/39/57 45/155/62 42/156/60
f 45/57/62 49/157/64 44/73/63
f 45/57/62 44/73/63 42/56/60
f 44/70/63 48/72/65 46/71/59
f 44/73/63 49/158/64 48/72/65
f 47/74/61 49/75/64 45/159/62
f 47/160/61 51/161/66 49/82/64
f 49/82/64 51/84/66 50/83/67
f 48/88/65 53/89/68 46/162/59
f 43/163/50 51/87/66 47/85/61
f 48/79/65 50/91/67 53/90/68
f 49/80/64 50/91/67 48/79/65
f 51/84/66 55/164/69 50/95/67
f 46/165/59 53/166/68 52/167/47
f 50/92/67 57/94/70 53/93/68
f 50/95/67 55/168/69 57/94/70
f 53/166/68 54/96/26 52/169/47
f 54/96/71 56/98/72 52/97/73
f 53/104/68 56/98/74 54/96/26
f 51/102/66 58/170/75 55/101/69
f 43/171/50 58/170/75 51/102/66
f 53/93/68 57/107/70 56/106/74
f 55/172/69 59/114/76 57/115/70
f 55/173/69 58/174/75 59/114/76
f 57/115/70 59/116/76 61/113/77
f 56/117/74 60/119/78 54/118/18
f 57/120/70 61/112/77 60/122/78
f 57/120/70 60/122/78 56/121/74
f 54/118/18 60/126/78 52/175/47
f 58/123/75 62/125/79 59/124/76
f 59/116/76 62/135/79 61/136/77
f 43/176/50 34/177/49 58/130/75
f 61/133/77 63/134/45 60/131/78
f 62/135/79 64/137/43 61/136/77
f 62/178/79 34/179/49 64/180/43
f 58/130/75 34/179/49 62/178/79
f 60/181/78 63/10/45 52/182/47
f 61/139/77 64/140/43 63/4/45
