# Blender 5.1.2
# www.blender.org
mtllib spider_leg3.mtl
o a222d3e1af2c4caf8811b2bd875a976c.obj.012
v -0.037377 0.003234 0.010748
v -0.036814 0.003296 0.011033
v -0.022014 0.003401 0.008003
v -0.153096 -0.158547 -0.093606
v -0.040202 0.010432 0.010243
v -0.036836 0.003357 0.011024
v -0.040385 0.010832 0.010198
v -0.038455 0.010980 0.009775
v -0.000731 0.013398 0.001127
v -0.000069 0.013521 0.001447
v 0.000120 0.010858 0.001960
v 0.000948 0.006105 0.003128
v 0.001426 0.003568 0.003746
v -0.016279 0.003308 0.006857
v -0.036814 0.003296 0.011033
v -0.036669 0.003303 0.011002
vn -0.4393 -0.1099 0.8916
vn -0.3169 -0.4375 0.8415
vn -0.4330 -0.1065 0.8951
vn 0.0448 -0.9885 0.1443
vn 0.0444 -0.9884 0.1454
vn 0.0682 -0.9944 0.0802
vn 0.1461 -0.6079 0.7805
vn -0.5360 -0.1521 0.8304
vn -0.5361 -0.1522 0.8303
vn -0.5349 -0.1516 0.8312
vn 0.1952 0.1989 0.9604
vn -0.2140 0.6100 -0.7630
vn -0.1014 0.9806 -0.1679
vn 0.4512 -0.1380 -0.8817
vn 0.4510 -0.1380 -0.8818
vn 0.5924 -0.0834 -0.8013
vn 0.5937 -0.0835 -0.8003
vn -0.2574 -0.6000 0.7575
vn 0.2065 0.2044 0.9569
vn 0.0392 -0.9865 0.1593
vn 0.1791 0.4238 0.8879
vn 0.1460 -0.6082 0.7802
vn 0.1953 0.2003 0.9601
vn 0.1706 0.2632 0.9495
vn 0.1951 0.1999 0.9602
vn 0.1938 0.1990 0.9606
vn 0.1951 0.1998 0.9602
vn 0.1706 0.2631 0.9496
vn -0.2140 0.6100 -0.7629
vt 0.974698 0.380953
vt 0.974703 0.380954
vt 0.974638 0.380820
vt 0.974703 0.380956
vt 0.974703 0.380954
vt 0.974672 0.381014
vt 0.974717 0.381104
vt 0.974712 0.381062
vt 0.974634 0.380812
vt 0.560257 0.254272
vt 0.794017 0.586382
vt 0.743345 0.105120
vt 0.974552 0.380861
vt 0.972939 0.381832
vt 0.972940 0.381836
vt 0.973414 0.381676
vt 0.974282 0.381381
vt 0.974733 0.381229
vt 0.974701 0.380952
vt 0.500149 0.091836
vt 0.500135 0.091837
vt 0.501058 0.093434
vt 0.575425 0.317594
vt 0.376293 0.513207
vt 0.502227 0.091996
vt 0.525741 0.537049
vt 0.730827 0.104207
vt 0.852055 0.614569
vt 0.751347 0.128870
s 1
usemtl initialShadingGroup1.001
f 1/1/1 15/2/2 5/3/3
f 1/1/4 16/4/5 2/5/6
f 4/6/7 14/7/7 3/8/7
f 7/9/8 1/1/9 5/3/10
s 0
f 3/10/11 11/11/11 7/12/11
s 1
f 4/6/12 8/13/12 9/14/12
f 9/14/13 8/13/13 10/15/13
f 9/14/14 11/16/15 12/17/15
f 13/18/16 9/14/16 12/17/17
f 1/1/1 2/5/18 15/2/2
f 15/2/2 6/19/19 5/3/3
f 1/1/4 3/8/20 16/4/5
f 3/8/7 1/1/7 4/6/7
f 4/6/7 13/18/7 14/7/7
f 7/9/8 4/6/9 1/1/9
s 0
f 15/20/21 2/21/21 16/22/21
f 3/10/22 14/23/22 13/24/22
f 6/25/23 15/20/23 16/22/23
f 3/10/24 13/24/24 12/26/24
f 6/25/25 16/22/25 3/10/25
f 7/12/26 5/27/26 6/25/26
f 10/28/27 8/29/27 7/12/27
f 3/10/28 12/26/28 11/11/28
f 11/11/11 10/28/11 7/12/11
f 7/12/11 6/25/11 3/10/11
s 1
f 4/6/12 7/9/29 8/13/12
f 9/14/14 10/15/14 11/16/15
f 13/18/16 4/6/16 9/14/16
