# Blender 4.3.0
# www.blender.org
mtllib spider_leg3_R.mtl
o Object_3.042
v -0.011156 0.001294 -0.011409
v 0.044981 -0.183847 0.105118
v 0.007989 -0.002718 -0.011554
v -0.007892 0.018795 -0.002577
v 0.044981 -0.183847 0.105118
v -0.011156 0.001294 -0.011409
v 0.010694 0.014788 -0.002185
v 0.044981 -0.183847 0.105118
v -0.007892 0.018795 -0.002577
v 0.007989 -0.002718 -0.011554
v 0.044981 -0.183847 0.105118
v 0.010694 0.014788 -0.002185
vn -0.1291 -0.5873 -0.7990
vn -0.9847 0.1729 0.0214
vn -0.9847 0.1728 0.0214
vn 0.0970 0.5320 0.8412
vn 0.9768 -0.1964 0.0849
vt 0.750832 0.750065
vt 0.737965 0.771368
vt 0.931525 0.922975
vt 0.696225 0.757787
vt 0.672215 0.756583
vt 0.552337 0.994126
vt 0.713931 0.773710
vt 0.846956 0.998000
s 1
usemtl initialShadingGroup1.006
f 1/1/1 3/2/1 2/3/1
f 4/4/2 6/5/3 5/6/2
f 7/7/4 9/4/4 8/6/4
f 10/2/5 12/7/5 11/8/5
