# Blender 4.3.0
# www.blender.org
mtllib spider_leg1_R.mtl
o Object_3.001
v 0.087518 0.218084 0.125818
v 0.061303 0.220519 0.148827
v 0.049924 0.223911 0.144204
v 0.085617 0.217554 0.137833
v 0.004321 -0.026712 0.007458
v 0.100706 0.183448 0.134870
v 0.005907 -0.030562 -0.017530
v 0.061456 0.190386 0.154317
v 0.061456 0.190386 0.154317
v 0.090360 0.196144 0.137389
v 0.100706 0.183448 0.134870
v 0.065281 0.195039 0.163879
v 0.090360 0.196144 0.137389
v 0.087518 0.218084 0.125818
v 0.100706 0.183448 0.134870
v 0.085617 0.217554 0.137833
v 0.061303 0.220519 0.148828
v 0.061456 0.190386 0.154317
v 0.049924 0.223911 0.144204
v 0.065281 0.195039 0.163879
v 0.087518 0.218084 0.125818
v -0.018312 0.004062 -0.002362
v -0.000405 -0.005303 -0.018947
v 0.049924 0.223911 0.144204
v 0.100706 0.183448 0.134870
v -0.000405 -0.005303 -0.018947
v 0.005907 -0.030562 -0.017530
v 0.087518 0.218084 0.125818
v -0.018313 0.004062 -0.002362
v 0.061456 0.190386 0.154317
v 0.004321 -0.026712 0.007458
v 0.049924 0.223911 0.144204
vn 0.2244 0.9623 0.1538
vn 0.1508 0.9863 0.0674
vn 0.1507 0.9863 0.0674
vn 0.8114 -0.5085 0.2883
vn 0.3162 -0.4894 0.8127
vn 0.3161 -0.4894 0.8127
vn 0.8114 -0.5085 0.2881
vn 0.4635 0.2067 0.8616
vn 0.3392 0.5472 0.7652
vn 0.3391 0.5471 0.7653
vn 0.4635 0.2067 0.8617
vn 0.6615 0.4151 0.6246
vn 0.9641 0.2103 0.1619
vn 0.9642 0.2102 0.1619
vn -0.3279 0.1677 0.9297
vn 0.9421 0.0647 0.3291
vn -0.3278 0.1677 0.9297
vn -0.3961 0.5175 -0.7585
vn -0.3170 0.4994 -0.8063
vn -0.3170 0.4993 -0.8064
vn 0.8303 -0.1440 -0.5384
vn 0.6688 0.0610 -0.7409
vn 0.8303 -0.1439 -0.5384
vn -0.7361 -0.0969 0.6699
vn -0.7629 -0.0685 0.6428
vt 0.668834 0.463698
vt 0.637824 0.490091
vt 0.671146 0.476489
vt 0.626784 0.485032
vt 0.821964 0.164094
vt 0.707591 0.463886
vt 0.755282 0.482321
vt 0.804197 0.140562
vt 0.699816 0.480154
vt 0.759578 0.495755
vt 0.612537 0.482416
vt 0.606176 0.492396
vt 0.502583 0.178992
vt 0.521877 0.152306
vt 0.774999 0.152882
vt 0.583917 0.469915
vt 0.458717 0.189667
s 1
usemtl initialShadingGroup1.007
f 1/1/1 2/2/2 4/3/3
f 1/1/1 3/4/1 2/2/2
f 5/5/4 6/6/5 8/7/6
f 5/5/4 7/8/7 6/6/5
f 9/7/8 10/9/9 12/10/10
f 9/7/8 11/6/11 10/9/9
f 13/9/12 14/1/13 16/3/14
f 13/9/12 15/6/12 14/1/13
f 17/2/15 18/11/16 20/12/16
f 17/2/15 19/4/17 18/11/16
f 21/1/18 22/13/19 24/4/20
f 21/1/18 23/14/18 22/13/19
f 25/6/21 26/15/22 28/1/22
f 25/6/21 27/8/23 26/15/22
f 29/13/24 30/16/25 32/4/25
f 29/13/24 31/17/24 30/16/25
