# Blender 5.1.2
# www.blender.org
mtllib spider_leg2.mtl
o a222d3e1af2c4caf8811b2bd875a976c.obj.011
v -2.451338 0.651243 1.124528
v -2.427080 0.657131 1.169107
v -2.451338 -0.200197 1.085455
v -0.154491 0.685472 -0.430558
v -18.515997 -2.339917 -7.011066
v -18.487429 -2.337603 -7.017353
v -18.229918 -2.941278 -6.944658
v -18.223528 -2.959073 -6.942270
v -18.223516 -2.959097 -6.942268
v -2.513292 -1.238108 1.006786
v -18.181417 -2.956939 -6.951273
v -16.657694 -2.946731 -7.263062
v -15.126245 -2.929109 -7.530832
v -0.556356 -1.236749 -0.635340
v -15.126272 -2.928968 -7.530867
v -15.132055 -2.915912 -7.533472
v -15.240477 -2.294248 -7.686230
v -15.252577 -2.123416 -7.719152
v -0.587334 -1.233568 -0.608009
v -0.549759 -1.218189 -0.635084
v -0.161842 0.456516 -0.435812
v -0.135418 0.527937 -0.435710
v -0.110096 0.700945 -0.432999
v -0.203020 0.687246 -0.370146
v -2.379707 -1.236235 0.914341
v -2.513308 -1.235648 1.007083
vn -0.1020 0.9886 -0.1110
vn -0.2958 0.9179 -0.2646
vn -0.0757 0.9931 -0.0900
vn -0.8769 -0.0220 0.4801
vn -0.4440 -0.0710 0.8932
vn -0.4409 -0.0727 0.8946
vn -0.4590 -0.0330 0.8878
vn -0.1080 0.9830 -0.1483
vn -0.1118 0.9829 -0.1465
vn -0.1012 0.9817 -0.1615
vn -0.1952 -0.1989 -0.9604
vn 0.0978 -0.9874 0.1245
vn 0.0687 -0.9944 0.0803
vn 0.0613 -0.9931 0.0995
vn 0.4366 -0.1246 -0.8910
vn 0.4343 -0.0012 -0.9008
vn 0.4084 -0.1428 -0.9016
vn 0.5697 -0.0954 0.8163
vn -0.0636 0.0249 -0.9977
vn -0.0635 0.0249 -0.9977
vn -0.3290 0.8985 -0.2908
vn -0.4454 -0.0410 0.8944
vn -0.4469 -0.0437 0.8935
vn -0.4332 -0.1073 0.8949
vn -0.7959 0.2535 0.5498
vn -0.4389 -0.1102 0.8918
vn -0.1111 0.9836 -0.1424
vn -0.1129 0.9830 -0.1450
vn -0.1651 -0.2682 -0.9491
vn -0.1862 -0.1379 -0.9728
vn -0.0398 0.9859 -0.1625
vn -0.1772 -0.2676 -0.9471
vn -0.1951 -0.1990 -0.9604
vn -0.1953 -0.1989 -0.9604
vn -0.1775 -0.2639 -0.9481
vn 0.0392 -0.9865 0.1593
vn 0.6296 -0.2338 0.7409
vn 0.0688 -0.9945 0.0793
vn 0.0682 -0.9944 0.0806
vn -0.1130 -0.2429 -0.9634
vn 0.4514 -0.1379 -0.8816
vn 0.4337 0.0068 -0.9010
vn 0.4338 0.0061 -0.9010
vn -0.6301 0.2340 -0.7404
vn 0.4308 -0.1328 -0.8926
vn 0.0639 -0.0249 0.9976
vn 0.5673 -0.0959 0.8179
vn 0.5686 -0.1297 0.8123
vn 0.6295 -0.2340 0.7409
vn 0.5740 -0.1277 0.8088
vn 0.5648 -0.0953 0.8197
vn 0.6296 -0.2340 0.7409
vt 0.973087 0.382878
vt 0.973126 0.383025
vt 0.971280 0.375390
vt 0.971348 0.375649
vt 0.973612 0.378274
vt 0.976341 0.381445
vt 0.974709 0.380950
vt 0.974715 0.380958
vt 0.974597 0.380786
vt 0.972941 0.381846
vt 0.498558 0.105672
vt 0.742284 0.118590
vt 0.803789 0.601735
vt 0.974667 0.385763
vt 0.976248 0.381712
vt 0.974715 0.380963
vt 0.974732 0.381265
vt 0.576927 0.161698
vt 0.187711 0.176398
vt 0.743231 0.754092
vt 0.975869 0.389503
vt 0.976367 0.390754
vt 0.976577 0.391149
vt 0.973182 0.383279
vt 0.974611 0.380776
vt 0.976348 0.381452
vt 0.357024 0.521750
vt 0.356917 0.521734
vt 0.571446 0.313799
vt 0.495273 0.099935
vt 0.495275 0.099936
vt 0.367046 0.522817
vt 0.502684 0.100529
vt 0.740740 0.114240
vt 0.849459 0.624243
vt 0.974725 0.381104
vt 0.974733 0.381265
vt 0.974693 0.385696
vt 0.974704 0.381272
vt 0.973309 0.381733
vt 0.973313 0.383371
vt 0.974650 0.385739
vt 0.770181 0.755594
vt 0.826914 0.758921
vt 0.825508 0.735441
vt 0.890579 0.167872
vt 0.074001 0.775330
vt 0.070738 0.786010
vt 0.188355 0.140090
vt 0.187430 0.140081
vt 0.975770 0.389391
s 1
usemtl initialShadingGroup1.001
f 24/1/1 4/2/2 2/3/3
f 1/4/4 3/5/4 2/3/4
f 26/6/5 7/7/6 9/8/7
f 6/9/8 1/4/9 18/10/10
s 0
f 11/11/11 6/12/11 17/13/11
s 1
f 14/14/12 25/15/13 11/16/14
f 18/10/15 14/14/16 15/17/17
s 0
f 3/18/18 25/19/18 21/20/18
s 1
f 4/21/19 22/22/20 21/23/20
f 24/1/1 23/24/21 4/2/2
f 4/2/2 1/4/3 2/3/3
f 26/6/5 3/5/22 1/4/23
f 1/4/23 5/25/24 7/7/6
f 7/7/6 8/8/25 9/8/7
f 9/8/7 10/26/26 26/6/5
f 26/6/5 1/4/23 7/7/6
f 6/9/8 5/25/27 1/4/9
f 1/4/9 4/2/28 18/10/10
s 0
f 15/27/29 13/28/29 12/29/29
f 11/11/30 9/30/30 8/31/30
f 15/27/31 12/29/31 11/11/31
f 16/32/32 15/27/32 11/11/32
f 11/11/33 8/31/33 7/33/33
f 7/33/34 5/34/34 6/12/34
f 6/12/11 18/35/11 17/13/11
f 17/13/35 16/32/35 11/11/35
f 11/11/11 7/33/11 6/12/11
s 1
f 12/36/36 13/37/36 14/14/12
f 14/14/12 19/38/37 25/15/13
f 25/15/13 10/26/38 9/8/39
f 11/16/14 12/36/36 14/14/12
f 25/15/13 9/8/39 11/16/14
f 16/39/40 17/40/41 18/10/15
f 18/10/15 4/2/42 21/41/43
f 21/41/44 20/42/44 14/14/44
f 14/14/16 13/37/45 15/17/17
f 15/17/17 16/39/40 18/10/15
f 18/10/15 21/41/43 14/14/16
s 0
f 21/20/46 22/43/46 23/44/46
f 24/45/47 2/46/47 3/18/47
f 21/20/48 23/44/48 24/45/48
f 19/47/49 14/48/49 21/20/49
f 21/20/50 24/45/50 3/18/50
f 3/18/51 26/49/51 10/50/51
f 25/19/52 19/47/52 21/20/52
f 3/18/47 10/50/47 25/19/47
s 1
f 4/21/19 23/51/19 22/22/20
