# Blender 5.1.2
# www.blender.org
mtllib spider_leg1.mtl
o a222d3e1af2c4caf8811b2bd875a976c.obj.007
v -19.506975 13.254049 -5.365129
v -20.171854 10.652687 -5.969886
v -16.847473 13.459421 -7.740955
v 1.437689 -0.093534 0.647842
v 1.338740 0.179538 -1.200459
v 1.429034 -0.107432 0.642701
v 1.419892 -0.122111 0.637271
v 1.388954 -0.007113 -0.063326
v 1.179222 -0.526297 0.567875
v 0.466886 -1.722611 0.362473
v 0.466886 -1.722610 0.362473
v 0.358768 -1.828483 0.330684
v -0.065454 -1.517646 -1.054284
v 0.160383 -1.684131 -0.315236
v -0.065468 -1.518536 -1.052767
v -0.065487 -1.519780 -1.050646
v -17.572792 10.858059 -8.345713
v 1.304801 0.187246 -1.281484
v 1.314959 0.195811 -1.276098
v 0.358768 -1.828482 0.330684
v 1.332864 0.210908 -1.266607
v 1.332289 0.202308 -1.252829
v 1.331287 0.187313 -1.228807
v 1.331287 0.187313 -1.228806
v -17.693676 11.303028 -7.740955
v -19.918325 11.323950 -6.205066
v -19.866180 13.166872 -6.025243
v -19.967358 11.173807 -6.189106
v -19.966497 11.176772 -6.188900
v -17.863171 13.193995 -7.411510
v -17.422880 13.258898 -7.709323
v -19.703480 11.272267 -6.382255
v -17.436552 13.165489 -7.710787
v -17.652632 12.581442 -7.711622
v -17.981581 11.274829 -7.844748
v -17.957630 11.272369 -7.865877
v -17.952530 11.286717 -7.865681
vn -0.3518 -0.1125 0.9293
vn -0.2853 -0.0100 0.9584
vn -0.3030 -0.0468 0.9518
vn -0.9743 0.1149 -0.1939
vn -0.9038 0.1194 0.4109
vn -0.8282 0.1109 -0.5493
vn -0.3046 0.9130 -0.2714
vn -0.1174 0.9854 -0.1233
vn -0.3291 0.8984 -0.2907
vn 0.4887 0.7721 0.4063
vn 0.3867 0.7750 0.4999
vn 0.3782 0.7993 0.4670
vn 0.8576 -0.4953 -0.1383
vn 0.3715 0.0057 0.9284
vn 0.8353 -0.0000 0.5498
vn 0.8194 -0.0000 0.5733
vn -0.6272 -0.7788 -0.0094
vn -0.3754 -0.8055 -0.4586
vn -0.3689 -0.8003 -0.4727
vn -0.7051 0.6145 0.3538
vn -0.5119 -0.8583 -0.0358
vn 0.7057 -0.6135 -0.3544
vn -0.7057 0.6135 0.3544
vn 0.3895 0.0818 -0.9174
vn 0.3982 0.1009 -0.9117
vn 0.2872 -0.1209 -0.9502
vn 0.7054 -0.6141 -0.3539
vn -0.6422 0.0700 -0.7634
vn -0.5061 0.5492 -0.6650
vn -0.6526 -0.0108 -0.7576
vn -0.0635 0.0249 -0.9977
vn -0.2003 0.0786 -0.9766
vn -0.8071 0.3167 -0.4983
vn 0.0663 -0.9941 0.0863
vn 0.0560 -0.9919 0.1141
vn 0.0392 -0.9864 0.1594
vn 0.4341 0.0001 -0.9009
vn 0.4368 -0.0807 -0.8959
vn 0.4337 0.0067 -0.9010
vn -0.6259 0.1950 -0.7551
vn -0.3477 -0.1271 0.9290
vn -0.3589 -0.1233 0.9252
vn -0.2891 0.0078 0.9573
vn -0.9381 0.2851 -0.1966
vn -0.8787 0.1170 0.4627
vn -0.5674 0.0959 -0.8179
vn -0.0757 0.9931 -0.0900
vn 0.3686 0.7953 0.4814
vn 0.5474 0.8252 0.1395
vn 0.5146 0.8518 0.0983
vn -0.0000 -0.0000 -0.0000
vn 0.3868 0.7749 0.4999
vn 0.8619 -0.4929 -0.1190
vn 0.9765 -0.2155 -0.0000
vn 0.1786 -0.9696 -0.1670
vn 0.8620 -0.4928 -0.1190
vn -0.7054 0.6142 0.3538
vn 0.1932 -0.2806 -0.9402
vn -0.5892 -0.5202 0.6183
vn -0.5541 -0.1286 -0.8225
vn -0.4109 0.6932 -0.5922
vn -0.8474 0.3325 -0.4140
vn 0.0688 -0.9945 0.0793
vn 0.4369 -0.1432 -0.8880
vn -0.6294 0.2339 -0.7411
vn -0.6295 0.2340 -0.7409
vn -0.5673 0.0959 -0.8179
vn -0.5691 0.1957 -0.7987
vn -0.6296 0.2340 -0.7409
vn -0.6297 0.2353 -0.7404
vn -0.6100 0.1696 -0.7740
vt 0.970161 0.371130
vt 0.937224 0.130560
vt 0.897680 0.140332
vt 0.976292 0.375866
vt 0.971169 0.374967
vt 0.976339 0.380594
vt 0.972918 0.382233
vt 0.974109 0.387515
vt 0.865032 0.155315
vt 0.864691 0.155616
vt 0.850255 0.356104
vt 0.039008 0.051321
vt 0.853132 0.902245
vt 0.934246 0.130925
vt 0.906914 0.137956
vt 0.964256 0.133126
vt 0.989137 0.427488
vt 0.949830 0.131749
vt 0.307741 0.841036
vt 0.308441 0.842191
vt 0.132422 0.424057
vt 0.964182 0.133102
vt 0.964225 0.133116
vt 0.864495 0.155789
vt 0.864017 0.156383
vt 0.848244 0.888292
vt 0.839025 0.878695
vt 0.851385 0.897205
vt 0.976895 0.383641
vt 0.975858 0.390125
vt 0.981691 0.403039
vt 0.974665 0.385868
vt 0.974687 0.385735
vt 0.974666 0.385787
vt 0.974654 0.385768
vt 0.973620 0.383937
vt 0.164024 0.210013
vt 0.137694 0.129280
vt 0.820213 0.673782
vt 0.897345 0.140395
vt 0.897027 0.140454
vt 0.976344 0.380592
vt 0.976119 0.380899
vt 0.973389 0.384227
vt 0.865402 0.155032
vt 0.854863 0.041567
vt 0.847421 0.043002
vt 0.648314 0.047472
vt 0.021038 0.077817
vt 0.806376 0.841540
vt 0.829868 0.178778
vt 0.864190 0.156168
vt 0.975398 0.388971
vt 0.977737 0.393847
vt 0.976183 0.381901
vt 0.576060 0.771055
vt 0.059323 0.794757
vt 0.053476 0.794300
vt 0.055985 0.786035
vt 0.826958 0.785075
vt 0.796385 0.783310
vt 0.192963 0.143136
vt 0.877989 0.162181
vt 0.136397 0.129209
s 1
usemtl initialShadingGroup1.001
f 1/1/1 12/2/2 7/3/3
f 2/4/4 27/5/5 29/6/6
f 30/7/7 1/1/8 3/8/9
f 24/9/10 22/10/11 3/8/12
s 0
f 8/11/13 10/12/13 18/13/13
s 1
f 10/14/14 11/14/15 9/15/16
f 13/16/17 2/4/18 17/17/19
f 13/16/17 14/18/20 12/2/21
s 0
f 16/19/22 15/20/22 14/21/22
s 1
f 16/22/23 14/18/23 15/23/23
f 17/17/24 21/24/25 18/25/26
s 0
f 21/26/27 22/27/27 19/28/27
s 1
f 32/29/28 17/17/29 2/4/30
f 33/30/31 3/8/32 25/31/33
f 25/32/34 35/33/35 36/34/36
f 25/32/37 37/35/38 34/36/39
s 0
f 32/37/40 29/38/40 30/39/40
s 1
f 6/40/41 4/41/41 1/1/1
f 1/1/1 2/4/42 12/2/2
f 12/2/2 10/14/14 9/15/43
f 7/3/3 6/40/41 1/1/1
f 12/2/2 9/15/43 7/3/3
f 29/6/6 28/42/44 2/4/4
f 2/4/4 1/1/45 27/5/5
f 27/5/5 26/43/46 29/6/6
f 3/8/9 31/44/9 30/7/7
f 30/7/7 27/5/47 1/1/8
f 3/8/12 1/1/48 4/41/49
f 4/41/49 5/45/50 24/9/10
f 24/9/10 23/9/51 22/10/11
f 22/10/11 21/24/52 3/8/12
f 3/8/12 4/41/49 24/9/10
s 0
f 8/11/53 6/46/53 7/47/53
f 7/47/54 9/48/54 10/12/54
f 10/12/27 20/49/27 18/13/27
f 18/13/55 5/50/55 8/11/55
f 8/11/56 7/47/56 10/12/56
s 1
f 10/14/14 12/2/2 11/14/15
f 13/16/17 12/2/21 2/4/18
f 13/16/17 15/23/57 14/18/20
f 18/25/26 13/51/58 17/17/24
f 17/17/24 3/8/25 21/24/25
f 21/24/25 19/52/59 18/25/26
f 2/4/30 28/42/60 32/29/28
f 32/29/28 25/31/61 17/17/29
f 33/30/31 31/53/31 3/8/32
f 3/8/32 17/17/62 25/31/33
f 25/31/33 34/54/31 33/30/31
f 25/32/34 32/55/63 35/33/35
f 25/32/37 36/34/64 37/35/38
s 0
f 34/56/65 37/57/65 36/58/65
f 34/56/66 36/58/66 35/59/66
f 31/60/31 33/61/31 34/56/31
f 26/62/67 27/63/67 30/39/67
f 30/39/68 31/60/68 34/56/68
f 34/56/69 35/59/69 32/37/69
f 32/37/70 28/64/70 29/38/70
f 29/38/46 26/62/46 30/39/46
f 30/39/71 34/56/71 32/37/71
