# Blender 5.1.2
# www.blender.org
mtllib spider_back.mtl
o a222d3e1af2c4caf8811b2bd875a976c.obj.003
v 0.046983 -0.000633 -0.000782
v 0.048584 -0.014618 0.000786
v 0.049270 -0.003628 0.001004
v 0.047294 -0.000176 0.001059
v 0.118095 0.029507 -0.055725
v 0.026507 0.017787 0.000059
v 0.019392 0.017787 0.001235
v 0.097321 0.074329 -0.042124
v 0.026764 0.018172 0.001288
v 0.046062 0.001100 0.001076
v -0.000723 0.090907 -0.026881
v 0.113175 0.067497 -0.107902
v -0.000723 0.098405 -0.090360
v 0.090149 0.061920 -0.175665
v 0.142144 0.024959 -0.107902
v 0.136366 -0.010135 -0.107902
v 0.124741 0.021865 -0.177644
v 0.117910 -0.012794 -0.179195
v 0.066498 0.004188 -0.238590
v 0.029251 0.028355 -0.236204
v -0.000723 0.004188 -0.255909
v 0.066498 -0.009412 -0.248579
v -0.000723 -0.009412 -0.259348
v 0.044010 -0.023011 -0.246167
v -0.000723 -0.023011 -0.258757
v 0.009648 -0.036611 -0.238590
v 0.090444 -0.024904 -0.178820
v 0.037126 -0.041392 -0.177644
v 0.112447 -0.023480 -0.107902
v 0.077027 -0.038091 -0.107902
v 0.096800 -0.026800 -0.071906
v 0.050967 -0.031931 -0.064375
v 0.050179 -0.022719 0.000639
v 0.113952 -0.009274 -0.067493
v 0.056525 -0.009321 0.000939
v 0.050476 -0.022459 0.000646
v 0.057281 -0.007117 0.000986
v 0.043482 -0.026220 0.000529
v 0.032023 -0.032115 0.000584
v 0.023711 -0.036611 0.000059
v 0.023829 -0.036787 0.000622
v 0.020547 -0.036611 0.000642
v -0.000723 -0.037225 0.000764
v -0.000723 -0.045384 -0.049608
v -0.020689 -0.036611 0.000882
v -0.025156 -0.036611 0.000059
v -0.025334 -0.036876 0.000908
v -0.040248 -0.028449 0.001012
v -0.051336 -0.022694 0.001088
v -0.098245 -0.026800 -0.071906
v -0.051508 -0.022545 0.001090
v -0.057790 -0.009321 0.001153
v -0.115397 -0.009274 -0.067493
v -0.058538 -0.007230 0.001161
v -0.050868 -0.003828 0.001124
v -0.048428 -0.000633 -0.000782
v -0.048757 -0.001452 0.001116
v -0.048749 -0.000161 0.001119
v -0.047488 0.001135 0.001114
v -0.028157 0.018093 0.001035
v -0.027952 0.017787 0.000059
v -0.022255 0.017787 0.001000
v -0.020868 0.018226 0.000993
v -0.007894 0.021923 0.001146
v -0.000723 0.025465 0.001259
v 0.006268 0.021819 0.001232
v -0.098767 0.074329 -0.042124
v -0.119540 0.029507 -0.055725
v -0.114620 0.067497 -0.107902
v -0.091594 0.061920 -0.175665
v -0.143589 0.024959 -0.107902
v -0.137812 -0.010135 -0.107902
v -0.126186 0.021865 -0.177644
v -0.119355 -0.012794 -0.179195
v -0.067943 0.004188 -0.238590
v -0.030696 0.028355 -0.236204
v -0.067943 -0.009412 -0.248579
v -0.045455 -0.023011 -0.246167
v -0.011094 -0.036611 -0.238590
v -0.091889 -0.024904 -0.178820
v -0.113892 -0.023480 -0.107902
v -0.038572 -0.041392 -0.177644
v -0.000723 -0.042969 -0.173030
v -0.078472 -0.038091 -0.107902
v -0.000723 -0.046059 -0.090360
v -0.052413 -0.031931 -0.064375
v -0.000723 -0.036611 -0.244332
v -0.000723 0.035304 -0.239347
v -0.000723 0.085971 -0.173973
v 0.047298 -0.001417 0.001035
vn 0.5980 -0.0214 -0.8012
vn 0.6942 0.4064 0.5941
vn 0.7586 -0.4566 0.4648
vn 0.6350 0.5280 0.5639
vn 0.9260 0.3775 0.0027
vn 0.8955 0.4436 0.0365
vn 0.7382 0.6564 0.1555
vn 0.6186 0.7036 -0.3496
vn 0.6369 0.6954 -0.3328
vn 0.7605 0.2240 0.6095
vn 0.6120 0.6231 0.4869
vn 0.1080 0.8193 0.5632
vn 0.1390 0.5231 0.8408
vn -0.0478 0.9561 -0.2890
vn 0.1567 0.3892 0.9078
vn 0.1874 0.7865 0.5884
vn 0.0058 -0.0020 1.0000
vn 0.2623 0.9205 0.2896
vn 0.2277 0.9728 -0.0437
vn 0.8276 0.0325 0.5603
vn 0.8365 0.5479 -0.0067
vn 0.2407 0.9319 -0.2713
vn 0.2425 0.9172 -0.3161
vn 0.8563 0.2570 -0.4480
vn 0.9881 0.1474 0.0430
vn 0.8388 -0.5444 0.0037
vn 0.7001 -0.5455 -0.4607
vn 0.5641 0.4914 -0.6636
vn 0.6150 0.5984 -0.5136
vn 0.3561 0.6180 -0.7009
vn 0.2157 0.4423 -0.8705
vn 0.1894 0.3689 -0.9100
vn 0.1975 0.4606 -0.8654
vn 0.2014 0.3494 -0.9151
vn 0.2046 0.0972 -0.9740
vn 0.1711 -0.4186 -0.8919
vn 0.2673 -0.3555 -0.8956
vn 0.3399 -0.9195 -0.1976
vn 0.7217 -0.4528 -0.5235
vn 0.2330 -0.7465 -0.6232
vn 0.3551 -0.6802 -0.6413
vn 0.2935 -0.9382 -0.1834
vn 0.3513 -0.9000 -0.2582
vn 0.3257 -0.9448 -0.0362
vn 0.4330 -0.9013 -0.0115
vn 0.4566 -0.8506 0.2607
vn 0.4337 -0.8400 0.3260
vn 0.4272 -0.8994 -0.0930
vn 0.6814 -0.5621 0.4687
vn 0.7474 -0.3548 0.5618
vn -0.0062 -0.0194 0.9998
vn 0.4363 -0.8433 0.3137
vn 0.4625 -0.8140 -0.3514
vn 0.0506 -0.9970 -0.0586
vn -0.0531 -0.9562 -0.2880
vn 0.0248 -0.9906 0.1344
vn 0.2287 -0.9723 0.0479
vn -0.0506 -0.9970 -0.0586
vn -0.2272 -0.9726 0.0495
vn -0.0294 -0.9867 0.1598
vn -0.0244 -0.9909 0.1327
vn 0.0531 -0.9562 -0.2880
vn -0.4359 -0.8428 0.3158
vn -0.4272 -0.8994 -0.0930
vn -0.4625 -0.8140 -0.3514
vn -0.4539 -0.8542 0.2536
vn -0.6486 -0.5808 0.4918
vn -0.7476 -0.4425 0.4952
vn -0.4959 -0.7888 0.3631
vn -0.6964 0.3952 0.5990
vn -0.5826 0.5560 0.5928
vn -0.9260 0.3775 0.0027
vn -0.8938 0.4469 0.0382
vn -0.9858 0.0064 -0.1678
vn -0.6188 0.7035 -0.3496
vn -0.6277 0.7066 -0.3268
vn -0.1547 0.4950 0.8550
vn -0.0867 0.8470 0.5244
vn 0.0478 0.9561 -0.2890
vn -0.1789 0.3898 0.9033
vn -0.2328 0.9229 0.3066
vn -0.7605 0.2240 0.6095
vn -0.8330 0.0752 0.5482
vn -0.2277 0.9728 -0.0437
vn -0.2250 0.7935 0.5654
vn -0.8365 0.5479 -0.0067
vn -0.2407 0.9319 -0.2713
vn -0.2457 0.9625 -0.1148
vn -0.8369 0.2714 -0.4754
vn -0.9870 0.1564 0.0358
vn -0.7717 -0.6191 0.1454
vn -0.7819 -0.4896 -0.3858
vn -0.5641 0.4914 -0.6636
vn -0.6150 0.5984 -0.5135
vn -0.1894 0.3689 -0.9100
vn -0.2014 0.3494 -0.9151
vn -0.2144 0.5362 -0.8164
vn -0.2157 0.4423 -0.8705
vn -0.1975 0.4606 -0.8654
vn -0.2046 0.0972 -0.9740
vn -0.1711 -0.4186 -0.8919
vn -0.7217 -0.4528 -0.5235
vn -0.3407 -0.9196 -0.1956
vn -0.2673 -0.3556 -0.8956
vn -0.2330 -0.7465 -0.6232
vn -0.3513 -0.9000 -0.2582
vn -0.2935 -0.9382 -0.1834
vn -0.4015 -0.9129 0.0731
vn -0.3257 -0.9448 -0.0362
vn -0.0528 -0.9977 -0.0414
vn -0.0448 -0.9950 -0.0894
vn -0.0491 -0.9948 -0.0887
vn -0.1317 -0.9911 0.0214
vn -0.0723 -0.9968 -0.0327
vn -0.2074 -0.9697 0.1289
vn -0.0955 -0.9934 0.0637
vn -0.1202 -0.9916 0.0484
vn 0.0723 -0.9968 -0.0327
vn 0.1317 -0.9911 0.0214
vn 0.0528 -0.9977 -0.0414
vn 0.2058 -0.9700 0.1298
vn 0.0448 -0.9950 -0.0894
vn 0.0491 -0.9948 -0.0887
vn -0.2425 0.9172 -0.3161
vn -0.2165 0.7662 -0.6051
vn 0.2165 0.7662 -0.6051
vn 0.2402 0.7673 -0.5947
vn 0.2806 0.6407 0.7147
vn 0.9858 0.0064 -0.1678
vn 0.6884 0.6682 -0.2820
vn 0.2052 0.3866 0.8991
vn 0.0209 -0.0314 0.9993
vn -0.0188 0.0757 0.9970
vn 0.0003 -0.0119 0.9999
vn -0.0060 -0.0149 0.9999
vn 0.0059 -0.0020 1.0000
vn 0.2457 0.9625 -0.1148
vn 0.2143 0.5362 -0.8164
vn 0.3178 -0.9233 -0.2157
vn 0.1200 -0.9917 0.0459
vn 0.5935 -0.6865 0.4200
vn 0.0294 -0.9867 0.1598
vn -0.7279 -0.3119 0.6106
vn -0.2806 0.6407 0.7147
vn -0.7382 0.6564 0.1555
vn -0.0059 0.0021 -1.0000
vn -0.7764 0.5601 0.2888
vn 0.1257 -0.3834 0.9150
vn -0.3561 0.6180 -0.7009
vn -0.3551 -0.6802 -0.6413
vn -0.3178 -0.9233 -0.2157
vn 0.0955 -0.9934 0.0637
vn -0.2402 0.7673 -0.5947
vt 0.086228 0.832721
vt 0.083366 0.828263
vt 0.083935 0.811890
vt 0.210074 0.117391
vt 0.296282 0.107741
vt 0.208450 0.132006
vt 0.206664 0.130353
vt 0.207224 0.125500
vt 0.202819 0.171474
vt 0.206222 0.135472
vt 0.293269 0.216005
vt 0.204236 0.171273
vt 0.201289 0.176168
vt 0.200014 0.190494
vt 0.264942 0.279204
vt 0.758438 0.564579
vt 0.492002 0.908541
vt 0.305757 0.947964
vt 0.345286 0.293036
vt 0.292296 0.157742
vt 0.351775 0.200888
vt 0.418379 0.192808
vt 0.441733 0.263481
vt 0.414885 0.138540
vt 0.344598 0.146635
vt 0.341025 0.106994
vt 0.413628 0.098058
vt 0.492838 0.116406
vt 0.501106 0.163548
vt 0.543278 0.151545
vt 0.514160 0.185233
vt 0.540821 0.077244
vt 0.490454 0.094670
vt 0.529203 0.061304
vt 0.490083 0.068427
vt 0.517331 0.045922
vt 0.413895 0.074347
vt 0.488462 0.034751
vt 0.497412 0.029902
vt 0.416771 0.031028
vt 0.336305 0.056382
vt 0.338159 0.085654
vt 0.299448 0.081687
vt 0.211925 0.079651
vt 0.214025 0.054397
vt 0.211341 0.088622
vt 0.209295 0.112868
vt 0.515499 0.022733
vt 0.576759 0.048305
vt 0.461895 0.096934
vt 0.212745 0.065283
vt 0.213499 0.054170
vt 0.213563 0.051848
vt 0.263037 0.015768
vt 0.214142 0.033382
vt 0.213373 0.050797
vt 0.213233 0.054054
vt 0.211701 0.074162
vt 0.210792 0.088434
vt 0.210781 0.088126
vt 0.209810 0.117181
vt 0.206584 0.130279
vt 0.206456 0.132994
vt 0.203111 0.171433
vt 0.201876 0.175192
vt 0.200514 0.199373
vt 0.415275 0.002000
vt 0.312170 0.003233
vt 0.283830 0.052846
vt 0.206518 0.132963
vt 0.341782 0.177213
vt 0.376782 0.118686
vt 0.379438 0.115670
vt 0.600335 0.052630
vt 0.613335 0.047665
vt 0.626963 0.050799
vt 0.808064 0.115442
vt 0.803356 0.171275
vt 0.832718 0.276578
vt 0.857040 0.341628
vt 0.815634 0.416492
vt 0.217286 0.395531
vt 0.216367 0.372446
vt 0.271615 0.289824
vt 0.765389 0.548976
vt 0.750320 0.626758
vt 0.547073 0.863687
vt 0.203355 0.553978
vt 0.267653 0.845847
vt 0.197837 0.734996
vt 0.202895 0.698604
vt 0.531977 0.879414
vt 0.519269 0.881871
vt 0.425248 0.991611
vt 0.306921 0.949482
vt 0.444368 0.995773
vt 0.211327 0.088086
vt 0.538401 0.008820
vt 0.209023 0.112885
vt 0.207142 0.125066
vt 0.206177 0.135541
vt 0.201756 0.176750
vt 0.200196 0.190510
s 1
usemtl initialShadingGroup1.001
f 1/1/1 3/2/1 2/3/1
f 37/4/2 34/5/3 1/6/4
f 1/6/5 90/7/6 3/8/7
f 1/6/4 9/9/8 10/10/9
f 1/6/4 8/11/10 6/12/11
f 6/12/12 7/13/13 9/9/14
f 66/14/15 6/12/12 11/15/16
s 0
f 62/16/17 55/17/17 49/18/17
s 1
f 8/11/18 13/19/19 11/15/16
f 5/20/20 12/21/21 8/11/10
f 13/19/19 14/22/22 89/23/23
f 17/24/24 12/21/21 15/25/25
f 34/5/3 15/25/25 5/20/20
f 16/26/26 17/24/24 15/25/25
f 18/27/27 19/28/28 17/24/24
f 14/22/29 19/28/28 20/29/30
f 20/29/31 21/30/32 88/31/33
f 21/32/32 22/33/34 23/34/35
f 23/34/35 24/35/36 25/36/37
f 27/37/38 22/33/39 18/27/27
f 25/36/37 26/38/40 87/39/41
f 28/40/42 24/35/43 27/37/38
f 30/41/44 27/37/38 29/42/45
f 29/42/45 18/27/27 16/26/26
f 31/43/46 30/41/44 29/42/45
f 34/5/3 29/42/45 16/26/26
f 38/44/47 40/45/48 31/43/46
f 36/46/49 31/43/46 35/47/50
s 0
f 35/48/51 3/49/51 2/50/51
s 1
f 40/45/48 39/51/52 41/52/53
f 40/45/54 41/52/55 42/53/56
f 44/54/57 40/45/54 42/53/56
f 46/45/58 44/54/59 43/55/60
f 46/45/58 45/56/61 47/57/62
f 48/58/63 46/45/64 47/57/65
f 50/43/66 46/45/64 48/58/63
f 51/59/67 53/5/68 49/60/69
f 54/61/70 56/6/71 53/5/68
f 56/6/72 57/62/73 58/63/74
f 60/64/75 56/6/71 58/63/76
f 62/65/77 61/12/78 60/64/79
f 65/66/80 67/11/81 62/65/77
f 56/6/71 67/11/82 68/20/83
f 13/19/84 67/11/81 11/15/85
f 69/21/86 68/20/83 67/11/82
f 13/19/84 70/22/87 69/21/88
f 69/21/86 73/24/89 71/25/90
f 71/25/90 53/5/68 68/20/83
f 72/26/91 73/24/89 74/27/92
f 75/28/93 74/27/92 73/24/89
f 70/22/94 75/28/93 73/24/89
f 21/32/95 77/33/96 75/28/97
f 21/30/95 76/29/98 88/31/99
f 23/34/100 78/35/101 77/33/96
f 77/33/102 80/37/103 74/27/92
f 25/36/104 79/38/105 78/35/101
f 78/35/106 82/40/107 80/37/103
f 81/42/108 74/27/92 80/37/103
f 84/41/109 80/37/103 82/40/107
f 83/67/110 79/38/111 87/39/112
f 85/68/113 82/40/114 83/67/110
f 85/68/113 86/69/115 84/41/116
f 50/43/66 84/41/109 86/69/117
f 28/40/118 85/68/119 83/67/120
f 85/68/119 32/69/121 44/54/57
f 26/38/122 83/67/120 87/39/123
f 53/5/68 81/42/108 50/43/66
f 89/23/124 76/29/125 70/22/87
f 89/23/23 20/29/126 88/31/127
f 37/4/2 35/47/50 34/5/3
f 34/5/3 5/20/20 1/6/4
f 1/6/4 3/8/128 37/4/2
f 1/6/5 4/70/129 90/7/6
f 10/10/9 4/70/130 1/6/4
f 1/6/4 6/12/11 9/9/8
f 1/6/4 5/20/20 8/11/10
f 11/15/16 65/66/131 66/14/15
f 66/14/15 7/13/13 6/12/12
f 6/12/12 8/11/18 11/15/16
s 0
f 38/71/51 33/72/51 36/73/51
f 36/73/51 35/48/51 2/50/51
f 2/50/51 3/49/51 90/74/51
f 90/74/51 4/75/51 10/76/51
f 10/76/51 9/77/51 7/78/51
f 66/79/51 65/80/51 64/81/51
f 10/76/51 7/78/51 66/79/51
f 2/50/51 90/74/51 10/76/51
f 38/71/51 36/73/51 2/50/51
f 42/82/17 41/83/17 39/84/17
f 39/84/132 38/71/132 2/50/132
f 2/50/51 10/76/51 66/79/51
f 66/79/51 64/81/51 63/85/51
f 62/16/17 60/86/17 59/87/17
f 66/79/133 63/85/133 62/16/133
f 39/84/134 2/50/134 66/79/134
f 43/88/17 42/82/17 39/84/17
f 48/89/17 47/90/17 45/91/17
f 45/91/17 43/88/17 39/84/17
f 39/84/135 66/79/135 62/16/135
f 62/16/17 59/87/17 58/92/17
f 62/16/17 58/92/17 57/93/17
f 45/91/17 39/84/17 62/16/17
f 49/18/17 48/89/17 45/91/17
f 52/94/136 51/95/136 49/18/136
f 55/17/17 54/96/17 52/94/17
f 62/16/17 57/93/17 55/17/17
f 49/18/17 45/91/17 62/16/17
f 55/17/17 52/94/17 49/18/17
s 1
f 8/11/18 12/21/137 13/19/19
f 5/20/20 15/25/25 12/21/21
f 13/19/19 12/21/137 14/22/22
f 17/24/24 14/22/29 12/21/21
f 34/5/3 16/26/26 15/25/25
f 16/26/26 18/27/27 17/24/24
f 18/27/27 22/33/39 19/28/28
f 14/22/29 17/24/24 19/28/28
f 20/29/31 19/28/138 21/30/32
f 21/32/32 19/28/138 22/33/34
f 23/34/35 22/33/34 24/35/36
f 27/37/38 24/35/43 22/33/39
f 25/36/37 24/35/36 26/38/40
f 28/40/42 26/38/139 24/35/43
f 30/41/44 28/40/42 27/37/38
f 29/42/45 27/37/38 18/27/27
f 31/43/46 32/69/140 30/41/44
f 34/5/3 31/43/46 29/42/45
f 38/44/47 39/51/52 40/45/48
f 40/45/48 32/69/140 31/43/46
f 31/43/46 33/97/47 38/44/47
f 36/46/49 33/97/141 31/43/46
f 31/43/46 34/5/3 35/47/50
s 0
f 35/48/51 37/98/51 3/49/51
s 1
f 42/53/56 43/55/142 44/54/57
f 44/54/57 32/69/121 40/45/54
f 43/55/60 45/56/61 46/45/58
f 46/45/58 86/69/115 44/54/59
f 48/58/63 49/60/69 50/43/66
f 50/43/66 86/69/117 46/45/64
f 51/59/67 52/99/143 53/5/68
f 53/5/68 50/43/66 49/60/69
f 54/61/70 55/100/144 56/6/71
f 56/6/71 68/20/83 53/5/68
f 53/5/68 52/99/143 54/61/70
f 56/6/72 55/100/145 57/62/73
f 58/63/76 59/101/146 60/64/75
f 60/64/75 61/12/147 56/6/71
f 63/102/148 64/103/51 65/66/80
f 65/66/80 11/15/85 67/11/81
f 67/11/81 61/12/78 62/65/77
f 62/65/77 63/102/148 65/66/80
f 56/6/71 61/12/147 67/11/82
f 13/19/84 69/21/88 67/11/81
f 69/21/86 71/25/90 68/20/83
f 13/19/84 89/23/124 70/22/87
f 69/21/86 70/22/94 73/24/89
f 71/25/90 72/26/91 53/5/68
f 72/26/91 71/25/90 73/24/89
f 75/28/93 77/33/102 74/27/92
f 70/22/94 76/29/149 75/28/93
f 21/32/95 23/34/100 77/33/96
f 21/30/95 75/28/97 76/29/98
f 23/34/100 25/36/104 78/35/101
f 77/33/102 78/35/106 80/37/103
f 25/36/104 87/39/150 79/38/105
f 78/35/106 79/38/151 82/40/107
f 81/42/108 72/26/91 74/27/92
f 84/41/109 81/42/108 80/37/103
f 83/67/110 82/40/114 79/38/111
f 85/68/113 84/41/116 82/40/114
f 85/68/113 44/54/59 86/69/115
f 50/43/66 81/42/108 84/41/109
f 28/40/118 30/41/152 85/68/119
f 85/68/119 30/41/152 32/69/121
f 26/38/122 28/40/118 83/67/120
f 53/5/68 72/26/91 81/42/108
f 89/23/124 88/31/153 76/29/125
f 89/23/23 14/22/22 20/29/126
