# Blender 5.1.2
# www.blender.org
o botella.001
v -1.352570 10.171214 4.251029
v -0.008691 10.181205 4.620531
v -1.243972 9.754390 3.915062
v -0.008691 9.754390 4.242437
v 1.335188 10.181205 4.264377
v 2.474473 10.083338 3.250135
v 1.226590 9.754390 3.915063
v 3.503034 10.102489 -0.058293
v 3.235720 10.140541 1.732215
v 2.973541 9.754390 1.587524
v 2.273810 9.754390 2.982781
v 1.079893 9.492879 3.443203
v 2.002751 9.492879 2.621635
v 0.846338 9.307903 2.691955
v 1.571196 9.307903 2.046655
v 2.619384 9.492878 1.392072
v 3.219253 9.754390 -0.058294
v 2.055531 9.307903 1.080895
v 2.835916 9.492878 -0.058296
v 2.619384 9.492878 -1.508664
v 2.225607 9.307903 -0.058297
v 2.973541 9.754389 -1.704112
v 2.273810 9.754389 -3.099369
v 2.474473 10.157419 -3.366721
v 3.235720 10.027933 -1.848801
v 1.331795 10.117207 -4.376051
v -0.008691 10.181204 -4.737117
v -1.352571 10.181204 -4.380962
v -0.008691 9.754389 -4.359025
v 1.226590 9.754389 -4.031650
v 1.079893 9.492878 -3.559793
v 1.079893 9.492878 -3.559793
v 2.002750 9.492878 -2.738225
v 2.055531 9.307903 -1.197489
v 1.571196 9.307903 -2.163248
v 0.846338 9.307903 -2.808549
v -2.072912 9.307903 -1.197489
v -1.588578 9.307903 -2.163248
v -0.863720 9.307903 -2.808549
v -1.097275 9.492878 -3.559793
v -2.020132 9.492878 -2.738226
v -1.097275 9.492878 -3.559793
v -0.008691 9.307903 -3.035149
v -0.008691 9.492878 -3.848289
v -0.008691 9.492878 -3.848289
v -1.243972 9.754389 -4.031650
v -2.491855 10.076842 -3.366721
v -2.291192 9.754389 -3.099369
v -2.990923 9.754389 -1.704113
v -3.253102 10.181204 -1.848802
v -3.520417 10.181204 -0.058293
v -3.253102 10.181205 1.732216
v -3.236636 9.754390 -0.058294
v -2.990923 9.754390 1.587524
v -2.853299 9.492878 -0.058296
v -2.636766 9.492878 -1.508664
v -2.242989 9.307903 -0.058297
v -2.636766 9.492878 1.392073
v -2.291192 9.754390 2.982781
v -2.072912 9.307903 1.080895
v -2.020133 9.492879 2.621635
v -1.097276 9.492879 3.443203
v -0.863720 9.307903 2.691955
v -0.008691 9.307903 2.918555
v -0.008691 9.492879 3.731699
v 1.079893 9.492879 3.443203
v -0.008691 9.492879 3.731699
v -2.491856 10.159589 3.250135
v 3.449105 10.199182 0.344811
v 2.037861 10.225471 -3.746850
v -2.765582 10.224755 2.707447
vn -0.3035 -0.7706 0.5603
vn -0.0009 -0.4852 0.8744
vn -0.4171 -0.4688 0.7786
vn -0.0000 -0.7851 0.6193
vn 0.4005 -0.4742 0.7840
vn 0.2900 -0.7768 0.5590
vn 0.6725 -0.5326 0.5139
vn 0.6537 -0.7295 0.2014
vn 0.8852 0.4528 0.1069
vn 0.9445 -0.3183 0.0807
vn 0.4985 -0.7831 0.3718
vn 0.3323 -0.9011 0.2785
vn 0.3197 -0.9169 0.2390
vn 0.0597 -0.9952 0.0772
vn 0.1339 -0.9886 0.0696
vn 0.4066 -0.9049 0.1260
vn 0.1481 -0.9882 0.0402
vn 0.6703 -0.7421 0.0064
vn 0.4358 -0.9000 -0.0000
vn 0.1571 -0.9876 -0.0000
vn 0.4066 -0.9049 -0.1260
vn 0.5855 -0.7862 -0.1975
vn 0.5241 -0.7472 -0.4087
vn 0.7822 0.2434 -0.5735
vn 0.9431 0.1370 -0.3030
vn 0.9443 0.3210 -0.0722
vn -0.0000 -0.7851 -0.6193
vn -0.4657 0.2315 -0.8541
vn -0.0066 0.2233 -0.9747
vn 0.2843 -0.7941 -0.5372
vn 0.4435 0.2115 -0.8710
vn 0.0261 -0.9338 -0.3568
vn 0.3197 -0.9169 -0.2390
vn 0.3331 -0.9009 -0.2781
vn 0.1180 -0.9895 -0.0838
vn 0.1475 -0.9881 -0.0432
vn -0.1475 -0.9881 -0.0432
vn 0.0679 -0.9909 -0.1165
vn -0.0674 -0.9910 -0.1158
vn -0.1180 -0.9895 -0.0838
vn -0.0253 -0.9338 -0.3570
vn -0.0000 -0.9917 -0.1283
vn -0.3197 -0.9169 -0.2390
vn -0.3323 -0.9011 -0.2785
vn 0.1607 -0.9230 -0.3497
vn -0.1599 -0.9231 -0.3498
vn -0.2891 -0.7771 -0.5590
vn -0.7809 0.1855 -0.5964
vn -0.5011 -0.7839 -0.3665
vn -0.6668 -0.7148 -0.2108
vn -0.8980 0.3193 -0.3026
vn -0.9592 0.2582 -0.1148
vn -0.7101 -0.7041 -0.0000
vn -0.8674 -0.4066 0.2868
vn -0.6677 -0.7130 0.2139
vn -0.4358 -0.9000 -0.0000
vn -0.4066 -0.9049 -0.1260
vn -0.4066 -0.9049 0.1260
vn -0.1570 -0.9876 -0.0000
vn -0.5242 -0.7503 0.4028
vn -0.3282 -0.9099 0.2538
vn -0.1390 -0.9881 0.0651
vn -0.2017 -0.9153 0.3487
vn -0.0536 -0.8952 -0.4423
vn -0.0000 -0.9917 0.1283
vn -0.1607 -0.9230 0.3497
vn 0.0253 -0.9338 0.3570
vn 0.1599 -0.9231 0.3498
vn -0.7108 -0.4380 0.5504
vn -0.8683 -0.3072 0.3895
vn 0.6562 0.2695 -0.7048
vt 0.139790 0.000000
vt 0.224722 0.000000
vt 0.140307 0.000000
vt 0.222917 0.000000
vt 0.712778 0.000000
vt 0.714583 0.000000
vt 0.797193 0.000000
vt 0.762519 0.000000
vt 0.738357 0.000000
vt 0.762463 0.000000
vt 0.797710 0.000000
vt 0.715672 0.000000
vt 0.798021 0.000000
vt 0.762553 0.000000
vt 0.714270 0.000000
vt 0.714280 0.000000
vt 0.661919 0.000000
vt 0.661914 0.000000
vt 0.607665 0.000000
vt 0.607661 0.000000
vt 0.661906 0.000000
vt 0.714252 0.000000
vt 0.496693 0.000000
vt 0.440808 0.000000
vt 0.496692 0.000000
vt 0.552426 0.000000
vt 0.552424 -0.000000
vt 0.552427 -0.000000
vt 0.607668 0.000000
vt 0.552428 -0.000000
vt 0.329832 0.000000
vt 0.440807 0.000000
vt 0.385073 -0.000000
vt 0.385076 -0.000000
vt 0.385074 -0.000000
vt 0.329835 0.000000
vt 0.329839 0.000000
vt 0.275594 0.000000
vt 0.275586 0.000000
vt 0.223249 0.000000
vt 0.223231 0.000000
vt 0.275581 0.000000
vt 0.223220 0.000000
vt 0.174981 0.000000
vt 0.174947 0.000000
vt 0.139479 0.000000
vt 0.221828 0.000000
vt 0.175037 0.000000
vt 0.199143 0.000000
vt 0.580042 0.000000
s 1
f 3/1/1 2/2/2 1/3/3
f 3/1/1 4/4/4 2/2/2
f 4/4/4 5/5/5 2/2/2
f 7/6/6 6/7/7 5/5/5
f 4/4/4 7/6/6 5/5/5
f 10/8/8 69/9/9 9/10/10
f 11/11/11 10/8/8 9/10/10
f 11/11/11 9/10/10 6/7/7
f 12/12/12 11/11/11 7/6/6
f 12/12/12 13/13/13 11/11/11
f 7/6/6 11/11/11 6/7/7
f 13/13/13 10/8/8 11/11/11
f 13/13/13 14/12/14 15/13/15
f 13/13/13 12/12/12 14/12/14
f 16/14/16 13/13/13 15/13/15
f 13/13/13 16/14/16 10/8/8
f 16/14/16 15/13/15 18/14/17
f 16/14/16 17/15/18 10/8/8
f 16/14/16 19/16/19 17/15/18
f 19/16/19 16/14/16 18/14/17
f 19/16/19 18/14/17 21/16/20
f 19/16/19 20/17/21 22/18/22
f 20/17/21 19/16/19 21/16/20
f 19/16/19 22/18/22 17/15/18
f 22/18/22 23/19/23 24/20/24
f 20/17/21 23/19/23 22/18/22
f 22/18/22 24/20/24 25/21/25
f 17/15/18 22/18/22 25/21/25
f 17/15/18 25/21/25 8/22/26
f 29/23/27 28/24/28 27/25/29
f 30/26/30 29/23/27 27/25/29
f 30/26/30 27/25/29 26/27/31
f 31/28/32 29/23/27 30/26/30
f 33/29/33 32/30/34 30/26/30
f 23/19/23 30/26/30 26/27/31
f 33/29/33 30/26/30 23/19/23
f 32/30/34 33/29/33 35/29/35
f 33/29/33 34/17/36 35/29/35
f 33/29/33 20/17/21 34/17/36
f 20/17/21 33/29/33 23/19/23
f 34/17/36 37/31/37 35/29/35
f 32/30/34 35/29/35 36/28/38
f 35/29/35 39/32/39 36/28/38
f 35/29/35 37/31/37 38/33/40
f 35/29/35 38/33/40 39/32/39
f 40/32/41 43/23/42 39/32/39
f 41/33/43 39/32/39 38/33/40
f 41/33/43 42/32/44 39/32/39
f 36/28/38 39/32/39 43/23/42
f 44/23/45 36/28/38 43/23/42
f 40/32/41 45/23/46 43/23/42
f 45/23/46 40/32/41 46/32/47
f 45/23/46 46/32/47 29/23/27
f 29/23/27 46/32/47 28/24/28
f 46/32/47 47/34/48 28/24/28
f 46/32/47 48/35/49 47/34/48
f 42/32/44 48/35/49 46/32/47
f 48/35/49 49/36/50 50/37/51
f 41/33/43 49/36/50 48/35/49
f 48/35/49 50/37/51 47/34/48
f 42/32/44 41/33/43 48/35/49
f 49/36/50 51/38/52 50/37/51
f 53/39/53 52/40/54 51/38/52
f 49/36/50 53/39/53 51/38/52
f 53/39/53 54/41/55 52/40/54
f 55/42/56 54/41/55 53/39/53
f 56/31/57 55/42/56 53/39/53
f 56/31/57 53/39/53 49/36/50
f 56/31/57 38/33/40 37/31/37
f 56/31/57 41/33/43 38/33/40
f 55/42/56 56/31/57 37/31/37
f 41/33/43 56/31/57 49/36/50
f 55/42/56 58/43/58 54/41/55
f 55/42/56 37/31/37 57/42/59
f 58/43/58 55/42/56 57/42/59
f 58/43/58 59/44/60 54/41/55
f 58/43/58 61/45/61 59/44/60
f 58/43/58 57/42/59 60/43/62
f 61/45/61 58/43/58 60/43/62
f 61/45/61 62/46/63 3/1/1
f 61/45/61 3/1/1 59/44/60
f 61/45/61 18/14/17 14/12/14
f 63/46/64 14/12/14 64/47/65
f 65/47/66 63/46/64 64/47/65
f 65/47/66 62/46/63 63/46/64
f 62/46/63 65/47/66 4/4/4
f 66/12/67 64/47/65 14/12/14
f 66/12/67 67/47/68 64/47/65
f 67/47/68 66/12/67 7/6/6
f 67/47/68 7/6/6 4/4/4
f 62/46/63 4/4/4 3/1/1
f 18/14/17 60/43/62 57/42/59
f 54/41/55 59/44/60 68/48/69
f 59/44/60 1/3/3 68/48/69
f 59/44/60 3/1/1 1/3/3
f 54/41/55 71/49/70 52/40/54
f 21/16/20 57/42/59 37/31/37
f 18/14/17 57/42/59 21/16/20
f 44/23/45 31/28/32 36/28/38
f 31/28/32 44/23/45 29/23/27
f 21/16/20 37/31/37 34/17/36
f 20/17/21 21/16/20 34/17/36
f 23/19/23 70/50/71 24/20/24
f 10/8/8 17/15/18 8/22/26
f 10/8/8 8/22/26 69/9/9
f 63/46/64 62/46/63 61/45/61
f 61/45/61 60/43/62 18/14/17
f 18/14/17 15/13/15 14/12/14
f 14/12/14 63/46/64 61/45/61
f 54/41/55 68/48/69 71/49/70
f 23/19/23 26/27/31 70/50/71
