# Blender 4.3.0
# www.blender.org
o Object_2.008
v 0.063224 -0.025756 -0.053063
v -0.028343 0.110679 -0.031835
v 0.058950 0.109108 -0.069890
v -0.028702 -0.021476 -0.014806
v 0.023289 -0.028457 -0.133764
v -0.072649 -0.024208 -0.093779
v 0.009852 0.073441 -0.150261
v -0.085054 0.088551 -0.110748
v 0.007638 0.110679 -0.170057
v -0.021652 0.110679 -0.156303
v -0.084656 0.110679 -0.124108
v -0.028103 0.118305 -0.157540
v -0.084519 0.118305 -0.128712
v -0.083345 0.183603 -0.168134
v 0.007184 0.118305 -0.174111
v 0.004063 0.170793 -0.202013
v 0.050767 0.118305 -0.089589
v 0.057552 0.110679 -0.073256
v 0.056551 0.118305 -0.077047
v 0.058540 0.110679 -0.071113
v 0.000176 0.118305 -0.045397
v 0.040183 0.181058 -0.125880
v -0.037409 0.124186 -0.029734
v -0.044521 0.195226 -0.089159
v 0.016093 0.230451 -0.228178
v 0.044721 0.250965 -0.156688
v -0.038538 0.261351 -0.131448
v 0.042600 0.336761 -0.204073
v 0.005450 0.310147 -0.282290
v -0.079762 0.322501 -0.253164
v 0.015200 0.372428 -0.291300
v -0.076376 0.384895 -0.263745
v -0.027409 0.520060 -0.259217
v -0.034602 0.432692 -0.199210
v -0.059518 0.492990 -0.310062
v -0.009662 0.480996 -0.343284
v -0.065874 0.565292 -0.367421
v -0.044856 0.613866 -0.341893
v -0.000804 0.605988 -0.360503
v -0.043809 0.671624 -0.386699
v -0.015139 0.667168 -0.398490
v -0.028566 0.659181 -0.426711
v -0.053588 0.777508 -0.438241
v -0.059892 0.772175 -0.455082
v -0.076754 0.774902 -0.448039
v -0.069004 0.922804 -0.449825
v -0.062784 0.921861 -0.452442
v -0.058375 0.924212 -0.446705
v -0.036202 1.002635 -0.483991
v -0.040535 1.003381 -0.482203
v -0.033999 1.004146 -0.480122
v -0.038330 1.004889 -0.478335
v -0.064683 0.925176 -0.444055
v -0.070233 0.780202 -0.431285
v -0.058226 0.663923 -0.414517
v -0.018884 0.557164 -0.386107
v 0.032670 0.513764 -0.281100
v 0.043092 0.421897 -0.224925
v -0.047529 0.350077 -0.173145
v -0.079177 0.243465 -0.195885
v -0.073748 0.118305 -0.104726
v -0.045272 0.118305 -0.043105
v -0.076646 0.110679 -0.106270
v -0.055468 0.110679 -0.060441
v -0.036601 0.110679 -0.028350
v -0.037057 0.118305 -0.029131
v -0.033461 0.118305 -0.030649
v 0.048907 0.110679 -0.065705
vn 0.3923 0.1214 0.9118
vn -0.2829 0.0740 0.9563
vn 0.9283 0.0707 0.3651
vn 0.4055 0.3921 0.8258
vn 0.4043 -0.1257 -0.9059
vn 0.9041 0.2489 0.3474
vn -0.9461 -0.1538 -0.2851
vn 0.3221 -0.2665 -0.9084
vn -0.9714 -0.1246 -0.2023
vn -0.3907 -0.4599 -0.7974
vn -0.9449 -0.1566 -0.2876
vn 0.8901 -0.1383 -0.4343
vn 0.3304 -0.4276 -0.8414
vn -0.9449 -0.1567 -0.2876
vn -0.9383 -0.1125 -0.3270
vn 0.2936 -0.4403 -0.8485
vn 0.8901 -0.1382 -0.4343
vn 0.9449 0.2194 0.2428
vn 0.9064 0.3800 0.1845
vn -0.2859 0.3618 0.8873
vn -0.3689 0.5343 0.7605
vn 0.9092 0.1955 0.3677
vn 0.4678 -0.4183 -0.7786
vn 0.3185 -0.3621 -0.8760
vn -0.3267 0.4579 0.8268
vn 0.9377 0.1112 0.3291
vn -0.8811 -0.1495 -0.4486
vn -0.9466 -0.0014 -0.3223
vn 0.4943 -0.2050 -0.8448
vn -0.3110 0.5755 0.7564
vn -0.9752 -0.1310 -0.1786
vn -0.3433 0.4334 0.8332
vn -0.3985 0.5784 0.7118
vn 0.2228 -0.4719 -0.8530
vn -0.9238 -0.1907 -0.3319
vn 0.9207 0.3608 0.1489
vn 0.9205 0.3435 0.1861
vn -0.3240 0.4496 0.8324
vn 0.3734 -0.2194 -0.9014
vn 0.3063 -0.0744 -0.9490
vn 0.9602 0.2760 0.0437
vn -0.9084 -0.1003 -0.4059
vn -0.9708 0.1163 -0.2096
vn 0.2302 -0.1903 -0.9544
vn -0.8849 0.1335 -0.4462
vn 0.9253 -0.0583 0.3748
vn 0.4328 -0.3871 -0.8141
vn 0.0083 0.9300 -0.3675
vn 0.0084 0.9299 -0.3678
vn 0.0082 0.9301 -0.3672
vn -0.2028 0.4475 0.8710
vn -0.3060 0.2847 0.9085
vn 0.9267 -0.1050 0.3609
vn -0.7287 0.1754 0.6619
vn -0.9178 -0.1914 -0.3479
vn 0.3938 0.0658 0.9169
vn 0.3030 -0.3924 -0.8684
vn 0.9157 0.3426 0.2099
vn 0.8951 0.2243 0.3853
vn -0.4471 0.3674 0.8156
vn -0.9515 -0.1582 -0.2637
vn -0.8784 0.1272 0.4607
vn -0.8803 0.2533 0.4011
vn -0.8803 0.2533 0.4010
vn -0.3164 0.0780 0.9454
vt 0.171752 0.885790
vt 0.061513 0.955494
vt 0.018280 0.797152
vt 0.138568 0.749776
vt 0.095005 0.934076
vt 0.116301 0.683963
vt 0.027557 0.824455
vt 0.089320 0.950495
vt 0.136342 0.747532
vt 0.044385 0.785103
vt 0.167106 0.838070
vt 0.189750 0.906593
vt 0.182698 0.770703
vt 0.209242 0.885520
vt 0.119996 0.686370
vt 0.170220 0.718356
vt 0.192191 0.775447
vt 0.177158 0.712382
vt 0.215959 0.878259
vt 0.273476 0.816077
vt 0.224909 0.671259
vt 0.261324 0.778426
vt 0.137924 0.698047
vt 0.210526 0.810583
vt 0.203146 0.815255
vt 0.202339 0.666808
vt 0.127299 0.681770
vt 0.118180 0.683588
vt 0.142452 0.726366
vt 0.134565 0.731808
vt 0.165880 0.831519
vt 0.207361 0.681589
vt 0.186945 0.894565
vt 0.255422 0.824506
vt 0.266069 0.620151
vt 0.311524 0.726621
vt 0.263355 0.612166
vt 0.398710 0.693340
vt 0.311639 0.752868
vt 0.342896 0.547285
vt 0.347066 0.559556
vt 0.271086 0.607615
vt 0.395436 0.681303
vt 0.347757 0.543387
vt 0.446230 0.641770
vt 0.438062 0.622461
vt 0.395228 0.496402
vt 0.444407 0.636405
vt 0.505770 0.440998
vt 0.535625 0.544491
vt 0.413789 0.488456
vt 0.402432 0.701890
vt 0.532140 0.534234
vt 0.623638 0.424087
vt 0.502172 0.441760
vt 0.601056 0.464357
vt 0.620176 0.520625
vt 0.533184 0.521675
vt 0.602478 0.363064
vt 0.627946 0.436767
vt 0.663887 0.325337
vt 0.689089 0.400207
vt 0.679948 0.373307
vt 0.623535 0.425035
vt 0.708696 0.446067
vt 0.689156 0.399701
vt 0.799752 0.359970
vt 0.777409 0.299220
vt 0.788780 0.332686
vt 0.666978 0.323292
vt 0.787490 0.324125
vt 0.777969 0.295862
vt 0.905376 0.250596
vt 0.901917 0.240130
vt 0.881931 0.181309
vt 0.961548 0.150189
vt 0.877999 0.169982
vt 0.944760 0.100874
vt 0.959062 0.142965
vt 0.514615 0.475050
vt 0.507356 0.472089
vt 0.510085 0.478984
vt 0.511884 0.468156
vt 0.881859 0.181387
vt 0.942258 0.093787
vt 0.944786 0.100858
vt 0.904595 0.248522
vt 0.958805 0.142570
vt 0.961289 0.149793
vt 0.877933 0.170054
vt 0.799691 0.360032
vt 0.788718 0.332741
vt 0.786808 0.327120
vt 0.901081 0.237913
vt 0.708703 0.446437
vt 0.573982 0.386615
vt 0.683703 0.372862
vt 0.505499 0.433466
vt 0.542868 0.561530
vt 0.619349 0.520131
vt 0.458095 0.618849
vt 0.501702 0.422290
vt 0.414912 0.493620
vt 0.410029 0.479250
vt 0.393519 0.693161
vt 0.315442 0.737403
vt 0.268455 0.625780
vt 0.351051 0.568182
vt 0.323769 0.761911
vt 0.262231 0.782981
vt 0.942234 0.093802
vt 0.201291 0.665199
vt 0.124153 0.710392
vt 0.115738 0.685005
vt 0.196620 0.821346
vt 0.176365 0.790398
vt 0.135063 0.743308
vt 0.188958 0.825826
vt 0.173895 0.802810
vt 0.166724 0.838827
vt 0.021421 0.837504
vt 0.106992 0.699146
vt 0.180329 0.890744
vt 0.175314 0.900215
vt 0.111930 0.691162
vt 0.181880 0.897025
vt 0.132939 0.732929
vt 0.088436 0.947893
s 1
f 2/1/1 4/2/2 1/3/3
f 1/3/3 68/4/4 2/1/1
f 5/5/5 3/6/6 1/7/3
f 6/8/7 7/9/8 5/10/5
f 5/5/5 7/11/8 3/6/6
f 6/8/7 8/12/9 7/9/8
f 10/13/10 8/12/9 11/14/11
f 7/11/8 18/15/12 3/6/6
f 9/16/13 7/9/8 10/13/10
f 11/14/11 12/17/10 10/13/10
f 10/13/10 15/18/13 9/16/13
f 13/19/14 14/20/15 12/17/10
f 12/17/10 16/21/16 15/18/13
f 16/22/16 17/23/17 15/24/13
f 17/23/17 9/25/13 15/24/13
f 22/26/18 17/23/17 16/22/16
f 18/15/12 19/27/19 20/28/19
f 19/29/19 68/4/4 20/30/19
f 21/31/4 22/32/18 23/33/20
f 23/33/20 22/32/18 24/34/21
f 24/34/21 22/32/18 26/35/22
f 22/26/18 25/36/23 26/37/22
f 22/26/18 16/22/16 25/36/23
f 26/37/22 25/36/23 29/38/24
f 24/34/21 26/35/22 27/39/25
f 27/39/25 26/35/22 28/40/26
f 26/37/22 29/38/24 28/41/26
f 25/42/23 30/43/27 29/44/24
f 29/44/24 30/43/27 32/45/28
f 28/41/26 29/38/24 31/46/29
f 29/44/24 32/45/28 31/47/29
f 32/48/28 33/49/30 35/50/31
f 32/48/28 34/51/32 33/49/30
f 30/52/27 34/51/32 32/48/28
f 31/47/29 32/45/28 35/53/31
f 35/50/31 33/49/30 38/54/33
f 31/47/29 35/53/31 36/55/34
f 36/55/34 35/53/31 37/56/35
f 35/50/31 38/54/33 37/57/35
f 33/58/30 39/59/36 38/60/33
f 38/60/33 39/59/36 41/61/37
f 37/57/35 38/54/33 40/62/38
f 38/60/33 41/61/37 40/63/38
f 39/64/36 42/65/39 41/66/37
f 41/66/37 42/65/39 44/67/40
f 40/63/38 41/61/37 43/68/41
f 41/66/37 44/67/40 43/69/41
f 42/70/39 45/71/42 44/72/40
f 44/72/40 45/71/42 46/73/43
f 44/72/40 46/73/43 47/74/44
f 43/69/41 44/67/40 47/75/44
f 47/74/44 46/73/43 50/76/45
f 43/69/41 47/75/44 48/77/46
f 48/77/46 47/75/44 49/78/47
f 47/74/44 50/76/45 49/79/47
f 50/80/48 51/81/48 49/82/49
f 50/80/48 52/83/50 51/81/48
f 46/84/43 52/85/51 50/86/45
f 53/87/52 51/88/53 52/89/51
f 46/84/43 53/90/52 52/85/51
f 45/91/42 54/92/54 53/90/52
f 54/93/54 48/94/46 53/87/52
f 53/87/52 48/94/46 51/88/53
f 45/91/42 53/90/52 46/84/43
f 55/95/55 40/62/38 54/92/54
f 40/63/38 43/68/41 54/93/54
f 54/93/56 43/68/56 48/94/56
f 55/95/55 54/92/54 45/91/42
f 56/96/57 55/97/55 42/70/39
f 42/70/39 55/97/55 45/71/42
f 56/96/57 37/56/35 55/97/55
f 37/57/35 40/62/38 55/95/55
f 57/98/58 36/99/34 56/100/57
f 36/55/34 37/56/35 56/96/57
f 57/98/58 56/100/57 39/64/36
f 39/64/36 56/100/57 42/65/39
f 34/101/32 57/102/58 33/58/30
f 34/101/32 58/103/59 57/102/58
f 58/104/59 36/99/34 57/98/58
f 33/58/30 57/102/58 39/59/36
f 59/105/60 28/40/26 58/103/59
f 28/41/26 31/46/29 58/104/59
f 58/104/59 31/46/29 36/99/34
f 59/105/60 58/103/59 34/101/32
f 60/106/61 27/107/25 59/108/60
f 27/39/25 28/40/26 59/105/60
f 60/106/61 59/108/60 30/52/27
f 30/52/27 59/108/60 34/51/32
f 16/21/16 60/109/61 25/42/23
f 25/42/23 60/109/61 30/43/27
f 16/21/16 14/20/15 60/109/61
f 14/110/15 27/107/25 60/106/61
f 48/77/46 49/78/47 51/111/53
f 14/110/15 24/112/21 27/107/25
f 24/112/21 62/113/62 23/114/20
f 24/112/21 13/115/14 61/116/63
f 61/116/63 64/117/62 62/113/62
f 61/116/63 11/118/11 63/119/64
f 8/120/9 64/117/62 63/119/64
f 8/120/9 63/119/64 11/118/11
f 4/121/2 64/117/62 8/120/9
f 65/122/65 62/113/62 64/117/62
f 67/123/1 65/124/65 2/1/1
f 23/114/20 62/113/62 66/125/65
f 66/126/65 67/123/1 23/33/20
f 67/123/1 21/31/4 23/33/20
f 21/31/4 2/1/1 68/4/4
f 20/30/19 68/4/4 3/127/6
f 3/6/6 18/15/12 20/28/19
f 4/121/2 8/120/9 6/128/7
f 2/1/1 65/124/65 4/2/2
f 1/3/3 3/127/6 68/4/4
f 10/13/10 7/9/8 8/12/9
f 7/11/8 9/25/13 18/15/12
f 11/14/11 13/19/14 12/17/10
f 10/13/10 12/17/10 15/18/13
f 12/17/10 14/20/15 16/21/16
f 17/23/17 18/15/12 9/25/13
f 22/26/18 19/27/19 17/23/17
f 18/15/12 17/23/17 19/27/19
f 19/29/19 21/31/4 68/4/4
f 21/31/4 19/29/19 22/32/18
f 24/112/21 61/116/63 62/113/62
f 24/112/21 14/110/15 13/115/14
f 61/116/63 63/119/64 64/117/62
f 61/116/63 13/115/14 11/118/11
f 4/121/2 65/122/65 64/117/62
f 65/122/65 66/125/65 62/113/62
f 67/123/1 66/126/65 65/124/65
f 21/31/4 67/123/1 2/1/1
