# Blender 4.3.0
# www.blender.org
o Object_2.001
v 0.136376 -0.010049 -0.114069
v 0.135874 -0.012237 -0.113927
v 0.136828 -0.012237 -0.113003
v 0.158134 -0.012237 -0.094778
v 0.193945 0.091744 -0.145819
v 0.103795 0.037009 -0.077543
v 0.145788 0.099818 -0.099090
v 0.197082 0.095461 -0.056055
v 0.171173 0.207635 -0.106192
v 0.223538 0.203210 -0.065508
v 0.269025 0.182186 -0.107845
v 0.226186 0.408710 -0.078280
v 0.269569 0.375513 -0.113971
v 0.226362 0.379533 -0.149889
v 0.237510 0.554917 -0.185580
v 0.262898 0.554161 -0.159744
v 0.296416 0.620622 -0.255093
v 0.312495 0.620386 -0.238317
v 0.235919 0.576893 -0.136616
v 0.183041 0.412284 -0.114830
v 0.210559 0.577586 -0.162535
v 0.301873 0.639312 -0.229132
v 0.371519 0.658797 -0.309281
v 0.363731 0.669554 -0.301356
v 0.285836 0.639538 -0.245884
v 0.353773 0.669805 -0.311582
v 0.361557 0.659051 -0.319505
v 0.390400 0.705351 -0.329981
v 0.383069 0.705575 -0.337440
v 0.411923 0.793306 -0.353004
v 0.409162 0.793395 -0.355806
v 0.391045 0.704828 -0.345336
v 0.398377 0.704602 -0.337879
v 0.412100 0.793187 -0.358708
v 0.414861 0.793099 -0.355906
v 0.413505 0.877602 -0.357424
v 0.416444 0.877395 -0.360326
v 0.416267 0.877513 -0.354622
v 0.419205 0.877306 -0.357524
v 0.217769 0.186199 -0.149441
v 0.245342 0.087385 -0.102598
v 0.189021 -0.012237 -0.069833
v 0.155755 0.031613 -0.033187
v 0.132145 -0.012237 -0.024135
v 0.105189 -0.012237 -0.047336
v 0.185374 -0.012237 -0.066626
v 0.078095 -0.012237 -0.068804
v 0.105935 -0.012237 -0.086610
v 0.187540 -0.012237 -0.070982
vn -0.6106 0.1177 -0.7831
vn -0.0979 -0.1382 -0.9856
vn -0.0863 -0.0446 -0.9953
vn 0.6505 -0.2195 -0.7271
vn 0.5427 -0.5070 -0.6697
vn -0.0118 -0.1788 -0.9838
vn 0.5304 -0.5165 -0.6723
vn -0.8938 0.2187 -0.3914
vn -0.8861 0.4379 -0.1520
vn -0.5032 0.5617 0.6567
vn 0.2330 0.0435 0.9715
vn 0.0900 0.0560 0.9944
vn -0.9890 0.1443 0.0320
vn 0.9913 -0.1276 -0.0313
vn 0.9997 0.0046 0.0232
vn 0.0339 0.2051 0.9781
vn -0.0124 -0.0885 -0.9960
vn -0.2087 -0.3934 -0.8954
vn 0.9801 -0.1242 0.1546
vn -0.2867 -0.6089 -0.7396
vn 0.8149 -0.5297 0.2352
vn 0.0193 0.5645 0.8252
vn -0.9921 0.1125 0.0557
vn -0.8899 0.4542 -0.0418
vn 0.2941 0.7222 0.6260
vn 0.7856 -0.6037 0.1353
vn 0.3230 0.5914 0.7389
vn -0.7094 0.6400 -0.2951
vn -0.7557 0.5757 -0.3122
vn -0.1536 -0.5899 -0.7927
vn -0.8269 0.3437 -0.4451
vn 0.3048 0.4451 0.8420
vn -0.6661 0.3371 0.6653
vn -0.7150 0.3398 0.6110
vn -0.6664 0.3371 0.6650
vn -0.3304 -0.2892 -0.8984
vn 0.8242 -0.5535 -0.1197
vn 0.6827 -0.2658 -0.6807
vn 0.6834 -0.2657 -0.6800
vn 0.6831 -0.2657 -0.6802
vn -0.6993 0.0588 -0.7124
vn -0.7017 0.0225 -0.7121
vn 0.6824 -0.2658 -0.6809
vn 0.7106 -0.0501 -0.7018
vn 0.0515 0.9985 -0.0191
vn 0.0515 0.9985 -0.0192
vn 0.7017 -0.0225 0.7121
vn -0.7106 0.0501 0.7018
vn 0.7035 0.0138 0.7106
vn 0.7039 0.0135 0.7102
vn 0.7031 0.0141 0.7109
vn 0.7042 0.0134 0.7099
vn 0.0213 -0.0274 -0.9994
vn 0.9286 -0.3674 -0.0519
vn 0.0588 0.2453 0.9677
vn 0.8810 -0.4494 0.1480
vn -0.1798 0.2908 0.9397
vn 0.6453 -0.1372 0.7515
vn -0.5683 0.4286 0.7024
vn -0.0000 -1.0000 -0.0000
vn -0.8852 0.4649 0.0164
vt 0.146079 0.788253
vt 0.176564 0.818637
vt 0.175134 0.820786
vt 0.158010 0.552710
vt 0.156378 0.551414
vt 0.156469 0.553270
vt 0.155582 0.512183
vt 0.256620 0.513250
vt 0.155189 0.459275
vt 0.229242 0.689118
vt 0.273301 0.752332
vt 0.165228 0.725300
vt 0.153042 0.550653
vt 0.213532 0.427849
vt 0.217527 0.521219
vt 0.291401 0.400678
vt 0.300107 0.583683
vt 0.293783 0.493037
vt 0.232345 0.697485
vt 0.338887 0.668117
vt 0.304896 0.594092
vt 0.439359 0.450260
vt 0.417787 0.394829
vt 0.415867 0.367314
vt 0.440919 0.649893
vt 0.482559 0.434436
vt 0.434395 0.451147
vt 0.434712 0.383666
vt 0.438108 0.461986
vt 0.562423 0.470151
vt 0.558904 0.419704
vt 0.548344 0.268347
vt 0.660297 0.466264
vt 0.657995 0.433922
vt 0.534323 0.213826
vt 0.646259 0.265707
vt 0.421277 0.473693
vt 0.549102 0.425648
vt 0.552638 0.476145
vt 0.659857 0.435476
vt 0.645713 0.232754
vt 0.731317 0.295762
vt 0.728759 0.274485
vt 0.662157 0.467754
vt 0.739850 0.433461
vt 0.548351 0.268456
vt 0.534353 0.214072
vt 0.645804 0.233364
vt 0.646345 0.266297
vt 0.728784 0.274634
vt 0.741252 0.453335
vt 0.731340 0.295904
vt 0.774759 0.264933
vt 0.786181 0.428674
vt 0.787200 0.443239
vt 0.857647 0.420523
vt 0.858029 0.426002
vt 0.782431 0.274817
vt 0.841521 0.189392
vt 0.740904 0.433182
vt 0.794097 0.442021
vt 0.793078 0.427456
vt 0.742304 0.453058
vt 0.860605 0.425542
vt 0.844378 0.192952
vt 0.886893 0.096166
vt 0.860223 0.420063
vt 0.491033 0.256063
vt 0.494457 0.255451
vt 0.488591 0.171376
vt 0.889749 0.099725
vt 0.911843 0.416390
vt 0.908884 0.411371
vt 0.911461 0.410911
vt 0.909267 0.416850
vt 0.485167 0.171988
vt 0.494176 0.251431
vt 0.490752 0.252043
vt 0.484886 0.167969
vt 0.488311 0.167357
vt 0.774755 0.264908
vt 0.782427 0.274798
vt 0.436757 0.442617
vt 0.413386 0.360586
vt 0.334919 0.659328
vt 0.252570 0.419602
vt 0.322722 0.484510
vt 0.319655 0.392468
vt 0.497421 0.630303
vt 0.167499 0.734456
vt 0.180863 0.824564
vt 0.276365 0.760649
vt 0.128735 0.766375
vt 0.177384 0.820671
vt 0.148033 0.455447
vt 0.109514 0.525162
vt 0.108433 0.475397
vt 0.735365 0.500000
vt 0.731462 0.500000
vt 0.742844 0.500000
vt 0.122822 0.762429
vt 0.155195 0.456656
vt 0.109639 0.573493
vt 0.731152 0.500000
vt 0.730940 0.500000
vt 0.739089 0.500000
vt 0.742951 0.500000
vt 0.746833 0.500000
vt 0.738554 0.500000
vt 0.738418 0.500000
s 1
f 48/1/1 1/2/2 2/3/3
f 1/4/2 3/5/4 2/6/3
f 3/5/4 1/4/2 4/7/5
f 4/7/5 5/8/6 49/9/7
f 1/2/2 7/10/8 5/11/6
f 1/2/2 6/12/9 7/10/8
f 6/13/10 8/14/10 7/15/10
f 7/15/8 8/14/11 10/16/12
f 5/11/6 7/10/8 9/17/13
f 7/15/8 10/16/12 9/18/13
f 8/19/11 11/20/14 10/21/12
f 10/21/12 11/20/14 13/22/15
f 9/18/13 10/16/12 12/23/16
f 10/21/12 13/22/15 12/24/16
f 11/25/14 14/26/17 13/27/15
f 13/28/15 14/29/17 15/30/18
f 13/28/15 15/30/18 16/31/19
f 12/24/16 13/22/15 16/32/19
f 16/31/19 15/30/18 17/33/20
f 16/31/19 17/33/20 18/34/21
f 19/35/22 16/32/19 18/36/21
f 12/24/16 16/32/19 19/35/22
f 20/37/23 19/38/22 21/39/24
f 20/37/23 12/23/16 19/38/22
f 21/39/24 19/38/22 22/40/25
f 19/35/22 18/36/21 22/41/25
f 22/41/25 23/42/26 24/43/27
f 22/41/25 18/36/21 23/42/26
f 25/44/28 22/40/25 24/45/27
f 21/39/24 22/40/25 25/44/28
f 15/46/18 21/47/24 25/48/28
f 15/46/18 25/48/28 17/49/20
f 17/49/20 25/48/28 26/50/29
f 25/44/28 24/45/27 26/51/29
f 17/49/20 26/50/29 27/52/30
f 27/52/30 26/50/29 29/53/31
f 26/51/29 24/45/27 28/54/32
f 26/51/29 28/54/32 29/55/31
f 29/55/31 30/56/33 31/57/34
f 29/55/35 28/54/35 30/56/35
f 32/58/36 29/53/31 31/59/34
f 27/52/30 29/53/31 32/58/36
f 23/60/26 32/61/36 33/62/37
f 23/60/26 27/63/30 32/61/36
f 33/62/38 32/61/39 34/64/40
f 32/58/41 31/59/41 34/65/41
f 34/65/42 31/59/42 36/66/42
f 33/62/38 34/64/40 35/67/43
f 35/68/44 34/69/44 37/70/44
f 34/65/42 36/66/42 37/71/42
f 37/72/45 38/73/45 39/74/46
f 37/72/45 36/75/45 38/73/45
f 35/68/44 37/70/44 39/76/44
f 30/59/47 39/71/47 38/66/47
f 30/59/47 35/65/47 39/71/47
f 31/77/48 30/78/48 38/79/48
f 31/77/48 38/79/48 36/80/48
f 28/81/49 35/65/50 30/59/51
f 28/81/49 33/82/52 35/65/50
f 24/43/27 23/42/26 33/82/37
f 24/43/27 33/82/37 28/81/32
f 18/34/21 27/63/30 23/60/26
f 18/34/21 17/33/20 27/63/30
f 14/83/17 20/84/23 21/47/24
f 14/83/17 21/47/24 15/46/18
f 40/85/53 9/17/13 20/84/23
f 9/18/13 12/23/16 20/37/23
f 40/85/53 20/84/23 14/83/17
f 41/86/54 40/87/53 11/88/14
f 11/25/14 40/89/53 14/26/17
f 41/86/54 5/8/6 40/87/53
f 5/11/6 9/17/13 40/85/53
f 41/86/54 49/9/7 5/8/6
f 43/90/55 42/91/56 41/92/54
f 43/90/55 41/92/54 8/19/11
f 8/19/11 41/92/54 11/20/14
f 43/90/55 44/93/57 46/94/58
f 43/95/55 45/96/59 44/97/57
f 6/13/9 45/96/59 43/95/55
f 6/13/9 43/95/55 8/14/11
f 4/98/60 46/99/60 48/100/60
f 6/12/9 48/1/1 47/101/61
f 48/1/1 6/12/9 1/2/2
f 4/7/5 1/4/2 5/8/6
f 41/86/54 42/102/56 49/9/7
f 43/90/55 46/94/58 42/91/56
f 6/13/9 47/103/61 45/96/59
f 49/104/60 42/105/60 46/99/60
f 46/99/60 44/106/60 45/107/60
f 45/107/60 47/108/60 48/100/60
f 48/100/60 2/109/60 3/110/60
f 4/98/60 49/104/60 46/99/60
f 48/100/60 3/110/60 4/98/60
f 46/99/60 45/107/60 48/100/60
