# Blender 4.3.0
# www.blender.org
o Object_2.005
v 0.024808 -0.023339 -0.054520
v 0.025940 -0.023589 -0.008130
v 0.024752 -0.023589 -0.054351
v 0.024749 -0.023589 -0.054512
v 0.025028 -0.023589 -0.054516
v 0.093940 0.107274 0.048419
v 0.091944 0.109284 -0.038884
v 0.089100 -0.023589 -0.048406
v 0.161491 0.044557 -0.044573
v 0.148361 0.192860 0.073016
v 0.146673 0.195581 -0.013123
v 0.245950 0.180362 -0.002802
v 0.163265 0.340368 -0.013993
v 0.165125 0.336011 0.061751
v 0.260440 0.306393 0.076527
v 0.225010 0.592107 -0.020902
v 0.297541 0.550386 -0.010402
v 0.297777 0.554135 -0.081358
v 0.371881 0.787396 -0.118698
v 0.371811 0.785951 -0.077036
v 0.474037 0.902073 -0.068830
v 0.474072 0.901325 -0.038319
v 0.321694 0.817796 -0.070797
v 0.225225 0.595744 -0.092086
v 0.321739 0.819219 -0.113559
v 0.453694 0.928463 -0.034663
v 0.582371 0.969595 -0.023373
v 0.567246 0.984342 -0.024384
v 0.453652 0.929210 -0.065455
v 0.567239 0.985133 -0.042703
v 0.582361 0.970371 -0.041763
v 0.617292 1.034297 -0.014460
v 0.617265 1.034787 -0.028358
v 0.660076 1.156070 0.013752
v 0.660064 1.156242 0.008380
v 0.632774 1.033623 -0.025081
v 0.632810 1.033157 -0.011054
v 0.665902 1.155997 0.008817
v 0.665915 1.155826 0.014193
v 0.667307 1.281587 0.037935
v 0.673142 1.281300 0.037929
v 0.667328 1.281459 0.043488
v 0.673163 1.281173 0.043482
v 0.258221 0.311047 0.002910
v 0.247605 0.177333 0.079997
v 0.163314 0.042778 0.045390
v 0.128048 -0.023589 0.041550
v 0.027492 -0.023589 0.035704
v 0.027130 -0.023589 0.035692
v 0.126626 -0.023589 -0.004695
v 0.125345 -0.023589 -0.048943
vn -0.6827 0.2623 0.6820
vn -0.8915 0.4523 0.0242
vn -0.7566 0.3314 0.5637
vn -0.6554 0.2805 -0.7013
vn -0.9723 0.2327 0.0226
vn -0.7583 0.1596 -0.6321
vn 0.0653 0.0433 -0.9969
vn 0.0409 0.0705 -0.9967
vn -0.5642 0.4559 -0.6884
vn -0.6259 0.1178 0.7709
vn 0.6230 -0.2356 -0.7459
vn -0.5837 0.3322 -0.7410
vn -0.6852 0.2554 0.6822
vn 0.7712 -0.1886 -0.6081
vn -0.7272 0.0294 -0.6857
vn 0.6531 0.0558 0.7552
vn 0.7136 0.0625 0.6977
vn -0.6571 0.3953 0.6418
vn 0.6220 -0.3344 -0.7081
vn 0.5189 -0.2288 -0.8237
vn 0.6550 -0.3801 0.6531
vn 0.5770 -0.3573 -0.7345
vn 0.3571 -0.6226 0.6963
vn -0.6148 0.4528 0.6457
vn -0.6806 0.0910 -0.7269
vn -0.5753 0.4706 -0.6690
vn -0.4540 0.5029 0.7355
vn 0.4207 -0.6190 0.6632
vn -0.4734 0.4796 0.7388
vn -0.3140 0.7344 -0.6017
vn -0.2615 0.6451 -0.7179
vn 0.5858 -0.4709 -0.6596
vn -0.1357 0.4475 -0.8839
vn -0.4443 0.2207 0.8682
vn -0.6967 -0.0406 0.7162
vn -0.6074 0.3261 -0.7244
vn -0.9443 0.3287 0.0134
vn 0.5800 -0.1821 -0.7940
vn 0.1875 -0.3922 0.9006
vn 0.9660 -0.2585 -0.0106
vn 0.9660 -0.2584 -0.0111
vn 0.9660 -0.2584 -0.0109
vn 0.0813 0.2338 -0.9689
vn 0.0122 0.2257 -0.9741
vn 0.9659 -0.2585 -0.0104
vn 0.9984 -0.0566 -0.0046
vn 0.9984 -0.0567 -0.0041
vn 0.9984 -0.0566 -0.0044
vn 0.0102 0.2257 -0.9741
vn 0.0490 0.9985 0.0227
vn 0.0490 0.9985 0.0228
vn 0.9984 -0.0565 -0.0051
vn -0.0125 -0.2300 0.9731
vn -0.0359 -0.2286 0.9728
vn -0.0880 -0.2087 0.9740
vn -0.9984 0.0565 0.0051
vn 0.7607 -0.1726 -0.6257
vn 0.6642 -0.2826 0.6921
vn 0.5815 -0.4432 0.6823
vn 0.8835 -0.4676 -0.0266
vn -0.0351 -0.0732 0.9967
vn 0.5208 -0.3225 0.7904
vn -0.0000 -1.0000 -0.0000
vn 0.5142 -0.2196 -0.8291
vt 0.189086 0.497036
vt 0.104170 0.562261
vt 0.102954 0.517762
vt 0.105623 0.609352
vt 0.105485 0.609192
vt 0.105490 0.609355
vt 0.116562 0.839090
vt 0.116578 0.839427
vt 0.116437 0.839256
vt 0.149095 0.878516
vt 0.192530 0.585608
vt 0.249849 0.466321
vt 0.211877 0.867496
vt 0.201421 0.772335
vt 0.262340 0.735336
vt 0.253690 0.553673
vt 0.318352 0.472665
vt 0.306908 0.808225
vt 0.326122 0.628124
vt 0.322376 0.549443
vt 0.262727 0.736798
vt 0.362984 0.713278
vt 0.325902 0.631232
vt 0.474535 0.539963
vt 0.457637 0.545526
vt 0.453658 0.461962
vt 0.350574 0.452629
vt 0.478705 0.603388
vt 0.474135 0.531575
vt 0.613315 0.630077
vt 0.610982 0.587887
vt 0.601836 0.395812
vt 0.707925 0.569971
vt 0.706388 0.539059
vt 0.588655 0.339191
vt 0.698056 0.364064
vt 0.462159 0.617574
vt 0.600300 0.583761
vt 0.602657 0.627069
vt 0.707955 0.535846
vt 0.698131 0.329514
vt 0.779160 0.374690
vt 0.777128 0.353497
vt 0.709500 0.567044
vt 0.784905 0.516829
vt 0.602148 0.395543
vt 0.588938 0.338948
vt 0.698190 0.329517
vt 0.698122 0.364065
vt 0.777305 0.353230
vt 0.785978 0.535378
vt 0.779331 0.374434
vt 0.821750 0.343296
vt 0.829230 0.502265
vt 0.829989 0.516341
vt 0.899511 0.467582
vt 0.899795 0.473025
vt 0.829187 0.353664
vt 0.890141 0.270264
vt 0.785855 0.515285
vt 0.836730 0.512094
vt 0.835982 0.497884
vt 0.786924 0.533906
vt 0.902447 0.472228
vt 0.893010 0.274027
vt 0.941951 0.172465
vt 0.902162 0.466781
vt 0.508006 0.320988
vt 0.511410 0.320541
vt 0.490421 0.231653
vt 0.944799 0.176269
vt 0.957296 0.438731
vt 0.954376 0.433450
vt 0.957027 0.433103
vt 0.954645 0.439078
vt 0.486904 0.232083
vt 0.890118 0.270300
vt 0.944798 0.176270
vt 0.941950 0.172467
vt 0.892986 0.274062
vt 0.511510 0.316416
vt 0.508108 0.316864
vt 0.486722 0.227955
vt 0.490239 0.227525
vt 0.821668 0.343423
vt 0.829120 0.353775
vt 0.475617 0.538531
vt 0.454685 0.460614
vt 0.363150 0.709664
vt 0.290167 0.453547
vt 0.354466 0.527265
vt 0.294018 0.537502
vt 0.202244 0.773385
vt 0.212719 0.868198
vt 0.307139 0.809985
vt 0.195075 0.497638
vt 0.198612 0.588902
vt 0.151835 0.552554
vt 0.118426 0.839073
vt 0.169434 0.900498
vt 0.118242 0.838852
vt 0.735255 0.500000
vt 0.720659 0.500000
vt 0.734862 0.500000
vt 0.153025 0.597490
vt 0.167462 0.900711
vt 0.150631 0.505584
vt 0.734914 0.500000
vt 0.735085 0.500000
vt 0.735215 0.500000
vt 0.726035 0.500000
vt 0.720842 0.500000
vt 0.720455 0.500000
s 1
f 6/1/1 2/2/2 49/3/3
f 1/4/4 3/5/5 2/2/2
f 1/4/4 4/6/6 3/5/5
f 1/7/4 5/8/7 4/9/6
f 1/7/4 8/10/8 5/8/7
f 1/4/4 6/1/1 7/11/9
f 7/11/9 6/1/1 10/12/10
f 9/13/11 8/10/8 7/14/9
f 9/13/11 7/14/9 11/15/12
f 7/11/9 10/12/10 11/16/12
f 11/16/12 10/12/10 14/17/13
f 9/13/11 11/15/12 12/18/14
f 12/18/14 11/15/12 13/19/15
f 11/16/12 14/17/13 13/20/15
f 10/21/10 15/22/16 14/23/13
f 14/23/13 15/22/16 17/24/17
f 13/20/15 14/17/13 16/25/18
f 14/23/13 17/24/17 16/26/18
f 15/27/16 18/28/19 17/29/17
f 17/29/17 18/28/19 19/30/20
f 17/29/17 19/30/20 20/31/21
f 16/26/18 17/24/17 20/32/21
f 20/31/21 19/30/20 21/33/22
f 20/31/21 21/33/22 22/34/23
f 23/35/24 20/32/21 22/36/23
f 16/26/18 20/32/21 23/35/24
f 24/37/25 23/38/24 25/39/26
f 24/37/25 16/25/18 23/38/24
f 25/39/26 23/38/24 26/40/27
f 23/35/24 22/36/23 26/41/27
f 26/41/27 27/42/28 28/43/29
f 26/41/27 22/36/23 27/42/28
f 29/44/30 26/40/27 28/45/29
f 25/39/26 26/40/27 29/44/30
f 19/46/20 25/47/26 29/48/30
f 19/46/20 29/48/30 21/49/22
f 21/49/22 29/48/30 30/50/31
f 29/44/30 28/45/29 30/51/31
f 21/49/22 30/50/31 31/52/32
f 31/52/32 30/50/31 33/53/33
f 30/51/31 28/45/29 32/54/34
f 30/51/31 32/54/34 33/55/33
f 33/55/33 34/56/35 35/57/36
f 33/55/37 32/54/37 34/56/37
f 36/58/38 33/53/33 35/59/36
f 31/52/32 33/53/33 36/58/38
f 27/60/28 36/61/38 37/62/39
f 27/60/28 31/63/32 36/61/38
f 37/62/40 36/61/41 38/64/42
f 36/58/38 35/59/36 38/65/43
f 38/65/43 35/59/36 40/66/44
f 37/62/40 38/64/42 39/67/45
f 39/68/46 38/69/47 41/70/48
f 38/65/43 40/66/44 41/71/49
f 41/72/50 42/73/50 43/74/51
f 41/72/50 40/75/50 42/73/50
f 39/68/46 41/70/48 43/76/52
f 34/77/35 43/78/53 42/79/54
f 34/77/35 39/80/55 43/78/53
f 35/81/36 34/82/35 42/83/54
f 35/81/56 42/83/56 40/84/56
f 32/85/34 39/80/55 34/77/35
f 32/85/34 37/86/39 39/80/55
f 28/43/29 27/42/28 37/86/39
f 28/43/29 37/86/39 32/85/34
f 22/34/23 31/63/32 27/60/28
f 22/34/23 21/33/22 31/63/32
f 18/87/19 24/88/25 25/47/26
f 18/87/19 25/47/26 19/46/20
f 44/89/57 13/19/15 24/88/25
f 13/20/15 16/25/18 24/37/25
f 44/89/57 24/88/25 18/87/19
f 45/90/58 44/91/57 15/27/16
f 15/27/16 44/91/57 18/28/19
f 45/90/58 12/92/14 44/91/57
f 12/18/14 13/19/15 44/89/57
f 6/93/1 46/94/59 45/95/58
f 46/96/59 12/92/14 45/90/58
f 6/93/1 45/95/58 10/21/10
f 10/21/10 45/95/58 15/22/16
f 46/96/59 9/97/11 12/92/14
f 46/96/59 50/98/60 9/97/11
f 46/94/59 48/99/61 47/100/62
f 48/99/61 6/93/1 49/101/3
f 3/102/63 50/103/63 48/104/63
f 9/97/11 50/98/60 51/105/64
f 6/1/1 1/4/4 2/2/2
f 1/7/4 7/14/9 8/10/8
f 9/13/11 51/106/64 8/10/8
f 46/96/59 47/107/62 50/98/60
f 48/99/61 46/94/59 6/93/1
f 49/108/63 2/109/63 3/102/63
f 3/102/63 4/102/63 5/110/63
f 8/111/63 51/112/63 50/103/63
f 3/102/63 5/110/63 8/111/63
f 48/104/63 49/108/63 3/102/63
f 50/103/63 47/113/63 48/104/63
f 3/102/63 8/111/63 50/103/63
