# Blender 4.3.0
# www.blender.org
o Object_2.010
v -0.145428 -0.034038 -0.137397
v -0.083525 0.099328 -0.138076
v -0.170982 0.099328 -0.139874
v -0.073791 -0.034942 -0.125406
v -0.157112 -0.037853 -0.074989
v -0.178849 0.099328 -0.077355
v -0.079284 -0.038767 -0.063217
v -0.173697 0.099328 -0.126237
v -0.174619 0.106953 -0.129086
v -0.180057 0.106953 -0.077487
v -0.178342 0.137740 -0.140587
v -0.172442 0.106953 -0.140016
v -0.079986 0.106953 -0.138115
v -0.063546 0.142372 -0.138296
v -0.065592 0.106953 -0.135721
v -0.066033 0.099328 -0.135166
v -0.085028 0.106953 -0.064509
v -0.087324 0.135940 -0.052069
v -0.084425 0.099328 -0.067782
v -0.085990 0.106953 -0.053918
v -0.085639 0.099328 -0.054405
v -0.167116 0.106953 -0.075529
v -0.184672 0.136080 -0.077990
v -0.162520 0.099328 -0.074884
v -0.112448 0.276747 -0.031795
v -0.204940 0.276504 -0.066822
v -0.106887 0.507510 -0.062110
v -0.197461 0.514896 -0.075215
v -0.188264 0.281610 -0.165570
v -0.080462 0.288181 -0.152503
v -0.176426 0.462527 -0.170445
v -0.172884 0.671223 -0.124856
v -0.147370 0.632736 -0.229708
v -0.098021 0.453750 -0.162333
v -0.097358 0.628816 -0.211452
v -0.101234 0.662951 -0.113572
v -0.123880 0.901907 -0.332091
v -0.064312 0.895162 -0.326086
v -0.100731 0.904491 -0.245808
v -0.053528 1.158036 -0.373465
v -0.024652 1.159391 -0.361701
v -0.042162 1.156591 -0.321852
v -0.072260 1.347666 -0.352103
v -0.048046 1.347927 -0.343303
v -0.060999 1.336725 -0.311158
v -0.088001 1.484825 -0.288521
v -0.102735 1.484622 -0.293837
v -0.110045 1.481293 -0.272641
v -0.100096 1.572396 -0.281651
v -0.103608 1.582485 -0.267921
v -0.093241 1.582734 -0.264235
v -0.084198 1.723575 -0.310915
v -0.080174 1.723621 -0.309457
v -0.078336 1.719835 -0.314492
v -0.042362 1.831235 -0.370535
v -0.044212 1.835034 -0.365510
v -0.046425 1.831198 -0.372012
v -0.048275 1.834998 -0.366988
v -0.082359 1.719787 -0.315950
v -0.089786 1.572672 -0.278000
v -0.095200 1.481473 -0.267276
v -0.085154 1.336457 -0.319937
v -0.071113 1.155250 -0.333615
v -0.154120 0.910496 -0.251522
vn 0.8251 -0.0417 -0.5634
vn 0.0923 -0.0479 -0.9946
vn 0.8396 -0.0875 -0.5361
vn -0.5396 -0.1621 -0.8261
vn -0.6150 -0.1323 -0.7773
vn -0.9738 -0.1730 -0.1478
vn -0.7596 -0.1260 0.6381
vn -0.7826 -0.1134 0.6121
vn -0.2036 -0.0401 0.9782
vn 0.6172 0.0090 0.7868
vn -0.8229 -0.1689 0.5425
vn -0.6719 -0.1604 -0.7231
vn 0.8321 -0.0171 -0.5544
vn 0.8396 -0.0875 -0.5362
vn 0.9841 0.0017 0.1776
vn 0.5353 -0.0416 0.8436
vn 0.5736 -0.0259 0.8188
vn 0.4100 0.0603 0.9101
vn -0.8577 -0.0303 0.5132
vn 0.5987 0.1377 0.7891
vn -0.7967 0.1828 0.5761
vn -0.6031 -0.0707 -0.7945
vn 0.8237 0.0481 -0.5650
vn -0.6259 -0.0750 -0.7763
vn -0.7760 0.3279 0.5389
vn -0.4907 -0.2263 -0.8414
vn 0.7973 -0.1034 -0.5947
vn 0.8204 -0.2254 -0.5254
vn 0.6286 0.2663 0.7308
vn 0.8065 -0.2462 -0.5376
vn -0.5466 -0.1288 -0.8275
vn -0.2970 0.0157 -0.9547
vn 0.5059 0.2969 0.8098
vn 0.9183 -0.0133 -0.3956
vn -0.3791 0.1816 -0.9074
vn 0.4792 0.0754 0.8745
vn 0.8761 0.2678 -0.4010
vn -0.5081 0.1755 -0.8432
vn 0.4448 -0.0775 0.8923
vn 0.8986 0.2305 -0.3733
vn -0.8865 -0.1409 0.4407
vn -0.9704 0.0372 0.2388
vn -0.5037 0.0076 -0.8639
vn 0.7139 -0.0265 0.6997
vn -0.3245 0.3162 0.8914
vn -0.9731 0.2103 0.0938
vn -0.3264 0.3163 0.8907
vn 0.9897 -0.1329 -0.0535
vn 0.9273 -0.0440 0.3717
vn 0.9104 -0.0907 0.4037
vn -0.2994 0.5042 0.8100
vn -0.2992 0.5041 0.8101
vn 0.9103 -0.0907 0.4038
vn 0.1912 0.8154 -0.5463
vn 0.1913 0.8154 -0.5463
vn 0.1912 0.8155 -0.5463
vn -0.6857 -0.0563 -0.7257
vn -0.9104 0.0906 -0.4036
vn -0.9104 0.0905 -0.4037
vn 0.9131 -0.0604 -0.4033
vn 0.2996 -0.5042 -0.8100
vn 0.2991 -0.5042 -0.8102
vn 0.3728 -0.1117 0.9212
vn -0.9209 -0.1855 0.3429
vn -0.9325 0.1825 0.3116
vn -0.8456 0.3395 0.4119
vt 0.024718 0.657784
vt 0.091473 0.628188
vt 0.092788 0.650502
vt 0.019787 0.566286
vt 0.086742 0.521889
vt 0.046264 0.897028
vt 0.116484 0.872837
vt 0.113871 0.860763
vt 0.056276 0.953258
vt 0.125533 0.914753
vt 0.096581 0.558928
vt 0.026259 0.578304
vt 0.031470 0.677184
vt 0.129383 0.912613
vt 0.119831 0.868367
vt 0.117736 0.858690
vt 0.144088 0.904437
vt 0.133343 0.850318
vt 0.090571 0.519350
vt 0.095572 0.631727
vt 0.106027 0.509101
vt 0.114610 0.648167
vt 0.096654 0.650088
vt 0.128096 0.816632
vt 0.125104 0.895084
vt 0.111094 0.830473
vt 0.120691 0.894592
vt 0.141880 0.896956
vt 0.127054 0.904120
vt 0.123154 0.906004
vt 0.122564 0.655664
vt 0.100176 0.552398
vt 0.107450 0.659234
vt 0.103474 0.660174
vt 0.099231 0.535971
vt 0.113909 0.527456
vt 0.095388 0.538200
vt 0.196662 0.620477
vt 0.217262 0.875661
vt 0.186740 0.494407
vt 0.311293 0.592991
vt 0.308567 0.477568
vt 0.201084 0.787520
vt 0.333720 0.791759
vt 0.175929 0.473294
vt 0.186711 0.608183
vt 0.268914 0.468568
vt 0.289303 0.723249
vt 0.400875 0.694426
vt 0.361336 0.612282
vt 0.269580 0.567373
vt 0.349400 0.463180
vt 0.217201 0.877027
vt 0.199202 0.764206
vt 0.280950 0.709394
vt 0.326102 0.777975
vt 0.359168 0.613725
vt 0.352581 0.531447
vt 0.393805 0.685041
vt 0.468854 0.425685
vt 0.474278 0.423976
vt 0.474722 0.498985
vt 0.603672 0.467742
vt 0.490289 0.499910
vt 0.591080 0.301625
vt 0.607547 0.507322
vt 0.703375 0.436130
vt 0.597988 0.340630
vt 0.689666 0.264666
vt 0.706021 0.468963
vt 0.780717 0.410529
vt 0.690712 0.298587
vt 0.770207 0.278881
vt 0.782344 0.430487
vt 0.689650 0.264676
vt 0.772804 0.299662
vt 0.770182 0.278933
vt 0.823484 0.269920
vt 0.827778 0.410497
vt 0.815786 0.260696
vt 0.781699 0.410769
vt 0.835968 0.424988
vt 0.834776 0.410977
vt 0.902581 0.408853
vt 0.884608 0.184393
vt 0.902140 0.403399
vt 0.823545 0.269805
vt 0.881707 0.180867
vt 0.884612 0.184386
vt 0.924608 0.088943
vt 0.512664 0.260619
vt 0.516072 0.259915
vt 0.521982 0.175564
vt 0.927518 0.092453
vt 0.953632 0.418651
vt 0.950604 0.413657
vt 0.953191 0.413141
vt 0.951044 0.419167
vt 0.518539 0.176269
vt 0.881703 0.180874
vt 0.927519 0.092452
vt 0.924609 0.088943
vt 0.828975 0.424422
vt 0.899557 0.403896
vt 0.899998 0.409349
vt 0.515728 0.255871
vt 0.512320 0.256575
vt 0.518206 0.172231
vt 0.815857 0.260561
vt 0.772818 0.299624
vt 0.701604 0.434899
vt 0.783326 0.430884
vt 0.704247 0.467652
vt 0.590316 0.300915
vt 0.597237 0.339939
vt 0.690692 0.298599
vt 0.607106 0.463228
vt 0.475266 0.436318
vt 0.495958 0.509179
vt 0.488813 0.419927
vt 0.610979 0.502901
vt 0.383073 0.472050
vt 0.489279 0.487288
vt 0.521650 0.171526
vt 0.384112 0.563965
vt 0.052521 0.940132
vt 0.042982 0.885921
vt 0.107434 0.833452
s 1
f 4/1/1 2/2/2 16/3/3
f 1/4/4 3/5/5 2/2/2
f 1/6/4 8/7/6 3/8/5
f 5/9/7 6/10/8 8/7/6
f 24/11/9 5/12/7 7/13/10
f 10/14/8 8/7/6 6/10/8
f 3/8/5 9/15/6 12/16/5
f 23/17/11 9/15/6 10/14/8
f 11/18/12 12/16/5 9/15/6
f 2/2/2 12/19/5 13/20/2
f 11/21/12 13/20/2 12/19/5
f 14/22/13 15/23/14 13/20/2
f 13/20/2 16/3/3 2/2/2
f 14/24/13 17/25/15 15/26/14
f 19/27/15 15/26/14 17/25/15
f 18/28/16 20/29/17 17/25/15
f 21/30/17 17/25/15 20/29/17
f 18/31/16 22/32/9 20/33/17
f 20/33/17 24/11/9 21/34/17
f 10/35/8 22/32/9 23/36/11
f 22/32/9 6/37/8 24/11/9
f 21/34/17 24/11/9 7/13/10
f 23/36/11 18/31/16 25/38/18
f 11/18/12 23/17/11 26/39/19
f 23/36/11 25/38/18 26/40/19
f 26/40/19 25/38/18 27/41/20
f 26/40/19 27/41/20 28/42/21
f 29/43/22 26/39/19 28/44/21
f 11/18/12 26/39/19 29/43/22
f 14/22/13 29/45/22 30/46/23
f 14/22/13 11/21/12 29/45/22
f 30/46/23 29/45/22 31/47/24
f 29/43/22 28/44/21 31/48/24
f 31/48/24 32/49/25 33/50/26
f 31/48/24 28/44/21 32/49/25
f 34/51/27 31/47/24 33/52/26
f 30/46/23 31/47/24 34/51/27
f 25/53/18 30/54/23 34/55/27
f 25/53/18 34/55/27 27/56/20
f 27/56/20 34/55/27 35/57/28
f 34/51/27 33/52/26 35/58/28
f 27/56/20 35/57/28 36/59/29
f 36/59/29 35/57/28 38/60/30
f 35/58/28 33/52/26 37/61/31
f 35/58/28 37/61/31 38/62/30
f 38/62/30 37/61/31 40/63/32
f 36/59/29 38/60/30 39/64/33
f 39/64/33 38/60/30 41/65/34
f 38/62/30 40/63/32 41/66/34
f 41/66/34 40/63/32 43/67/35
f 39/64/33 41/65/34 42/68/36
f 42/68/36 41/65/34 44/69/37
f 41/66/34 43/67/35 44/70/37
f 44/70/37 43/67/35 47/71/38
f 42/68/36 44/69/37 45/72/39
f 45/72/39 44/69/37 46/73/40
f 44/70/37 47/71/38 46/74/40
f 43/75/35 48/76/41 47/77/38
f 47/77/38 48/76/41 50/78/42
f 46/74/40 47/71/38 49/79/43
f 47/77/38 50/78/42 49/80/43
f 48/81/41 51/82/44 50/83/42
f 50/83/45 51/82/45 53/84/45
f 49/80/43 50/78/42 52/85/46
f 50/83/42 53/84/47 52/86/46
f 51/87/44 54/88/48 53/89/49
f 53/89/49 54/88/48 55/90/50
f 52/91/51 53/92/51 56/93/52
f 53/89/49 55/90/50 56/94/53
f 56/95/54 57/96/54 58/97/55
f 56/95/54 55/98/56 57/96/54
f 52/91/51 56/93/52 58/99/52
f 59/100/57 58/101/58 57/102/59
f 59/100/57 52/85/46 58/101/58
f 60/103/60 59/104/57 54/105/48
f 60/103/60 49/79/43 59/104/57
f 49/80/43 52/85/46 59/100/57
f 54/106/61 59/107/61 57/108/62
f 46/74/40 49/79/43 60/103/60
f 51/87/44 60/109/60 54/88/48
f 61/110/63 46/73/40 60/109/60
f 61/110/63 60/109/60 51/87/44
f 62/111/64 61/112/63 48/81/41
f 48/81/41 61/112/63 51/82/44
f 62/111/64 45/113/39 61/112/63
f 45/72/39 46/73/40 61/110/63
f 40/114/32 63/115/65 62/116/64
f 63/117/65 45/113/39 62/111/64
f 40/114/32 62/116/64 43/75/35
f 43/75/35 62/116/64 48/76/41
f 37/118/31 64/119/66 63/115/65
f 64/120/66 42/121/36 63/117/65
f 63/117/65 42/121/36 45/113/39
f 37/118/31 63/115/65 40/114/32
f 33/50/26 32/49/25 64/119/66
f 32/122/25 39/123/33 64/120/66
f 64/120/66 39/123/33 42/121/36
f 33/50/26 64/119/66 37/118/31
f 54/106/61 57/108/62 55/124/62
f 32/122/25 36/125/29 39/123/33
f 28/42/21 36/125/29 32/122/25
f 28/42/21 27/41/20 36/125/29
f 18/28/16 14/24/13 30/54/23
f 18/28/16 30/54/23 25/53/18
f 19/27/15 7/126/10 4/127/1
f 19/27/15 4/127/1 16/128/3
f 4/1/1 1/4/4 2/2/2
f 1/6/4 5/9/7 8/7/6
f 24/11/9 6/37/8 5/12/7
f 10/14/8 9/15/6 8/7/6
f 3/8/5 8/7/6 9/15/6
f 23/17/11 11/18/12 9/15/6
f 2/2/2 3/5/5 12/19/5
f 11/21/12 14/22/13 13/20/2
f 13/20/2 15/23/14 16/3/3
f 14/24/13 18/28/16 17/25/15
f 19/27/15 16/128/3 15/26/14
f 21/30/17 19/27/15 17/25/15
f 18/31/16 23/36/11 22/32/9
f 20/33/17 22/32/9 24/11/9
f 22/32/9 10/35/8 6/37/8
f 19/27/15 21/30/17 7/126/10
